<?xml version="1.0" encoding="UTF-8"?>
<!-- Generator: https://ezgif.com/png-to-svg -->
<svg version="1.1" xmlns="http://www.w3.org/2000/svg" width="512" height="512">
<path d="M0,0 L512,0 L512,512 L0,512 Z " fill="#FEF5D3" transform="translate(0,0)"/>
<path d="M0,0 L73,0 L73,17 L89,17 L89,35 L138,35 L138,18 L139,17 L153,17 L153,1 L215,1 L215,17 L231,17 L231,86 L253,86 L252,143 L234,143 L234,164 L218,165 L218,199 L234,199 L234,218 L250,217 L250,301 L271,301 L271,351 L260,352 L155,352 L155,336 L96,336 L92,335 L92,352 L89,353 L-97,353 L-98,352 L-98,300 L-112,300 L-112,225 L-96,225 L-96,199 L-81,199 L-80,166 L-64,166 L-64,134 L-48,134 L-48,103 L-47,102 L-33,102 L-33,71 L-17,71 L-17,17 L-1,17 L-1,1 Z " fill="#C97228" transform="translate(174,75)"/>
<path d="M0,0 L73,0 L73,17 L89,17 L89,35 L138,35 L138,18 L139,17 L153,17 L153,1 L215,1 L215,17 L231,17 L231,86 L253,86 L252,143 L234,143 L234,164 L218,164 L218,143 L29,143 L29,126 L93,125 L94,119 L87,118 L71,119 L45,117 L44,103 L57,101 L58,99 L60,99 L58,94 L55,93 L57,89 L58,88 L28,87 L27,83 L28,34 L43,34 L43,50 L59,50 L58,35 L44,34 L44,33 L64,33 L65,31 L65,33 L69,31 L72,27 L73,18 L14,17 L14,86 L-16,86 L-16,102 L-32,102 L-32,71 L-17,71 L-17,17 L-1,17 L-1,1 Z " fill="#D27D2D" transform="translate(174,75)"/>
<path d="M0,0 L16,0 L16,65 L0,65 L-16,64 L-16,96 L-31,96 L-31,149 L-32,232 L-1,232 L-1,218 L-17,218 L-17,197 L16,197 L16,182 L31,182 L31,115 L47,115 L47,183 L32,183 L32,199 L47,199 L47,217 L60,217 L62,218 L62,232 L124,233 L123,218 L108,217 L107,130 L124,130 L124,201 L140,201 L141,216 L202,217 L202,201 L218,201 L217,186 L217,165 L218,164 L233,164 L233,97 L249,97 L249,73 L250,61 L266,62 L266,96 L282,96 L282,115 L298,114 L298,198 L319,198 L319,248 L308,249 L203,249 L203,233 L144,233 L140,232 L140,249 L137,250 L-49,250 L-50,249 L-50,197 L-64,197 L-64,122 L-48,122 L-48,96 L-33,96 L-32,63 L-16,63 L-16,31 L0,31 Z " fill="#242015" transform="translate(126,178)"/>
<path d="M0,0 L173,0 L173,21 L179,21 L179,22 L158,22 L157,33 L156,57 L140,57 L140,124 L125,125 L125,161 L109,161 L109,177 L48,177 L47,176 L47,161 L31,161 L31,56 L14,56 L14,21 L0,21 Z " fill="#F0C145" transform="translate(219,218)"/>
<path d="M0,0 L73,0 L73,17 L89,17 L89,35 L138,35 L138,18 L139,17 L153,17 L153,1 L215,1 L215,17 L170,18 L170,31 L171,33 L194,34 L194,35 L186,35 L186,50 L201,50 L201,86 L168,86 L168,67 L88,67 L88,52 L73,51 L73,18 L14,17 L14,86 L-16,86 L-16,102 L-32,102 L-32,71 L-17,71 L-17,17 L-1,17 L-1,1 Z " fill="#201F16" transform="translate(174,75)"/>
<path d="M0,0 L57,0 L59,1 L59,33 L58,33 L57,12 L53,16 L44,17 L45,18 L45,33 L29,33 L29,17 L14,17 L14,69 L45,70 L42,76 L46,80 L46,82 L44,82 L43,85 L31,87 L31,100 L46,100 L58,101 L78,100 L81,102 L79,108 L122,108 L122,109 L15,109 L15,126 L31,126 L31,147 L45,147 L45,182 L62,182 L62,216 L44,216 L44,206 L45,202 L29,202 L24,201 L16,201 L15,196 L17,193 L15,193 L14,186 L5,186 L5,185 L15,185 L14,148 L-15,148 L-15,136 L-30,136 L-30,135 L-15,135 L-15,101 L0,101 L0,85 L-15,85 L-15,70 L0,69 Z " fill="#CF7A2C" transform="translate(188,92)"/>
<path d="M0,0 L1,0 L1,41 L17,42 L17,72 L32,72 L32,90 L17,91 L17,122 L16,126 L32,126 L32,144 L42,143 L53,143 L53,159 L-31,159 L-31,144 L-15,144 L-16,129 L-16,24 L0,24 Z " fill="#CB7329" transform="translate(375,251)"/>
<path d="M0,0 L22,0 L21,57 L3,57 L3,78 L-13,78 L-13,57 L-202,57 L-202,41 L0,40 Z " fill="#201E14" transform="translate(405,161)"/>
<path d="M0,0 L16,0 L16,14 L17,16 L40,17 L40,18 L32,18 L32,33 L47,33 L47,69 L14,69 L14,50 L-66,50 L-66,34 L0,34 Z " fill="#C66B26" transform="translate(328,92)"/>
<path d="M0,0 L31,0 L31,69 L1,69 L1,85 L-15,85 L-15,54 L0,54 Z " fill="#9F551F" transform="translate(157,92)"/>
<path d="M0,0 L1,0 L1,31 L17,31 L17,15 L40,15 L40,16 L32,16 L32,31 L47,31 L47,47 L32,47 L32,81 L17,81 L17,93 L16,96 L1,97 L1,32 L-14,32 L-14,31 L0,31 Z " fill="#AC5D23" transform="translate(141,146)"/>
<path d="M0,0 L13,0 L14,15 L14,33 L62,33 L62,34 L47,34 L47,49 L14,49 L14,70 L30,70 L30,84 L-1,84 L-1,1 Z " fill="#8B491B" transform="translate(95,326)"/>
<path d="M0,0 L16,0 L16,21 L30,22 L31,23 L31,38 L48,38 L78,39 L78,54 L17,54 L16,53 L16,38 L0,38 Z " fill="#E4A419" transform="translate(250,341)"/>
<path d="M0,0 L25,1 L25,2 L17,2 L17,17 L32,17 L32,53 L0,53 Z " fill="#1F1E14" transform="translate(343,108)"/>
<path d="M0,0 L13,0 L13,1 L2,1 L2,24 L5,24 L5,22 L12,21 L16,20 L16,18 L32,18 L32,33 L47,34 L47,51 L31,51 L30,50 L16,50 L15,66 L0,66 L0,49 L8,48 L4,48 L4,40 L7,40 L6,34 L2,34 L2,27 L0,27 Z " fill="#BD6121" transform="translate(110,242)"/>
<path d="M0,0 L15,0 L15,16 L31,16 L31,52 L-1,52 Z " fill="#1D1D14" transform="translate(202,109)"/>
<path d="M0,0 L3,0 L3,35 L21,35 L21,50 L1,50 L-11,49 L-12,34 L-24,34 L-24,19 L-23,21 L-20,19 L-13,19 L-12,17 L-12,12 L-12,8 L-11,1 Z " fill="#CF7A2C" transform="translate(229,361)"/>
<path d="M0,0 L16,0 L16,69 L0,69 Z " fill="#1E1E14" transform="translate(389,92)"/>
<path d="M0,0 L1,0 L2,25 L8,24 L14,26 L14,43 L13,86 L29,86 L29,87 L14,87 L14,102 L6,102 L0,101 Z " fill="#DA9331" transform="translate(174,293)"/>
<path d="M0,0 L29,0 L29,36 L0,36 Z " fill="#844F27" transform="translate(173,240)"/>
<path d="M0,0 L16,0 L16,32 L0,32 L0,64 L-16,64 L-16,31 L0,31 Z " fill="#1E1E14" transform="translate(110,210)"/>
<path d="M0,0 L45,0 L45,69 L44,69 L43,22 L41,19 L42,15 L30,16 L31,17 L31,33 L16,33 L16,18 L1,17 L-1,14 L-1,1 Z " fill="#CC792D" transform="translate(344,92)"/>
<path d="M0,0 L52,0 L52,32 L51,32 L50,11 L46,15 L37,16 L38,17 L38,32 L22,32 L22,16 L7,15 L6,8 L5,1 L0,1 Z M7,2 Z " fill="#D38130" transform="translate(195,93)"/>
<path d="M0,0 L15,0 L17,9 L17,52 L1,52 Z " fill="#7B4A24" transform="translate(187,308)"/>
<path d="M0,0 L15,0 L15,54 L0,54 Z " fill="#1C1C13" transform="translate(158,92)"/>
<path d="M0,0 L51,0 L51,15 L42,16 L0,16 Z " fill="#9A511C" transform="translate(262,126)"/>
<path d="M0,0 L16,0 L16,50 L0,49 Z " fill="#1C1C13" transform="translate(359,293)"/>
<path d="M0,0 L16,0 L17,7 L17,15 L29,15 L30,17 L30,30 L42,30 L42,31 L5,31 L0,30 L0,16 L-2,15 L0,15 Z " fill="#834B20" transform="translate(188,380)"/>
<path d="M0,0 L45,0 L46,15 L0,15 Z " fill="#954B1B" transform="translate(344,395)"/>
<path d="M0,0 L1,0 L1,29 L16,29 L16,47 L1,48 L1,79 L-1,84 L-17,84 L-17,67 L0,68 Z " fill="#8D5323" transform="translate(391,294)"/>
<path d="M0,0 L16,0 L16,34 L0,35 Z " fill="#734522" transform="translate(157,193)"/>
<path d="M0,0 L14,0 L16,1 L16,31 L0,31 Z " fill="#1C1C13" transform="translate(142,146)"/>
<path d="M0,0 L15,0 L15,32 L0,32 Z " fill="#1B1B12" transform="translate(127,178)"/>
<path d="M0,0 L16,0 L16,25 L0,25 Z " fill="#1C1C13" transform="translate(78,275)"/>
<path d="M0,0 L1,0 L1,69 L16,69 L16,70 L0,70 L0,34 L-16,34 L-17,26 L-17,16 L0,15 Z " fill="#874A1C" transform="translate(233,326)"/>
<path d="M0,0 L1,0 L1,91 L0,91 L0,42 L-16,42 L-16,24 L0,24 Z " fill="#BD6F28" transform="translate(375,251)"/>
<path d="M0,0 L1,0 L1,10 L11,9 L22,9 L22,25 L-1,25 Z " fill="#A9521D" transform="translate(406,385)"/>
<path d="M0,0 L13,0 L16,1 L16,18 L0,19 Z " fill="#E7A81D" transform="translate(343,324)"/>
<path d="M0,0 L15,0 L16,2 L16,17 L7,17 L0,16 Z " fill="#E6B134" transform="translate(328,362)"/>
<path d="M0,0 L15,1 L15,18 L0,18 Z " fill="#1B1B13" transform="translate(142,275)"/>
<path d="M0,0 L16,0 L16,16 L0,16 Z " fill="#954C1C" transform="translate(141,326)"/>
<path d="M0,0 L16,0 L16,15 L0,16 Z " fill="#773F18" transform="translate(126,260)"/>
<path d="M0,0 L10,0 L16,1 L17,16 L0,15 Z " fill="#B3641D" transform="translate(141,395)"/>
<path d="M0,0 L15,0 L16,3 L15,16 L0,16 Z " fill="#8C481B" transform="translate(110,292)"/>
<path d="M0,0 L14,0 L15,1 L15,16 L0,16 Z " fill="#DDCE97" transform="translate(218,109)"/>
<path d="M0,0 L16,0 L16,16 L-1,15 Z " fill="#7E4C26" transform="translate(217,294)"/>
<path d="M0,0 L15,0 L15,15 L0,16 Z " fill="#A9601C" transform="translate(158,361)"/>
<path d="M0,0 L2,0 L2,16 L-13,16 L-13,1 Z " fill="#E8DAAB" transform="translate(373,109)"/>
<path d="M0,0 L15,0 L15,15 L0,15 Z " fill="#764825" transform="translate(173,177)"/>
<path d="M0,0 L1,0 L1,8 L13,8 L14,10 L14,23 L0,23 Z " fill="#A45F22" transform="translate(204,387)"/>
<path d="M0,0 L16,0 L16,14 L1,14 Z " fill="#985920" transform="translate(218,178)"/>
<path d="M0,0 L15,0 L15,14 L0,14 Z " fill="#6E4221" transform="translate(374,178)"/>
<path d="M0,0 L13,0 L13,15 L0,15 Z " fill="#1E1C13" transform="translate(321,162)"/>
<path d="M0,0 L13,0 L13,15 L0,15 Z " fill="#1E1D13" transform="translate(283,162)"/>
<path d="M0,0 L14,0 L14,7 L8,11 L5,11 L14,13 L14,14 L0,14 Z " fill="#673614" transform="translate(158,147)"/>
<path d="M0,0 L18,0 L18,3 L-41,3 L-41,1 Z " fill="#34342A" transform="translate(311,408)"/>
<path d="M0,0 L1,0 L1,54 L16,54 L17,69 L5,67 L6,65 L10,64 L14,62 L15,55 L-1,55 Z " fill="#765E4A" transform="translate(157,92)"/>
<path d="M0,0 L49,0 L54,2 L54,3 L-1,3 Z " fill="#4E4E44" transform="translate(78,425)"/>
<path d="M0,0 L17,0 L17,15 L27,15 L27,16 L18,16 L18,48 L17,48 L17,16 L12,14 L15,13 L14,2 L0,1 Z " fill="#42321C" transform="translate(230,77)"/>
</svg>
