<?xml version="1.0" encoding="UTF-8"?>
<!-- Generator: https://ezgif.com/png-to-svg -->
<svg version="1.1" xmlns="http://www.w3.org/2000/svg" width="512" height="512">
<path d="M0,0 L512,0 L512,512 L0,512 Z " fill="#FEF5D8" transform="translate(0,0)"/>
<path d="M0,0 L66,0 L66,16 L82,16 L83,17 L83,36 L100,35 L135,35 L135,17 L150,17 L150,1 L215,1 L215,18 L232,18 L232,83 L250,84 L249,152 L247,153 L233,153 L233,212 L232,220 L249,220 L249,305 L280,305 L280,357 L163,357 L163,340 L103,340 L103,358 L-98,358 L-98,307 L-103,306 L-103,220 L-83,220 L-83,185 L-66,185 L-66,146 L-50,146 L-49,104 L-32,104 L-32,67 L-16,67 L-16,16 L0,16 Z " fill="#804380" transform="translate(166,73)"/>
<path d="M0,0 L11,1 L11,17 L-7,17 L-7,36 L-22,37 L-23,52 L-6,52 L-6,84 L-23,84 L-23,129 L-24,138 L-42,138 L-43,170 L-58,170 L-59,187 L-132,187 L-134,185 L-134,171 L-151,171 L-152,85 L-152,53 L-169,54 L-169,17 L-187,18 L-187,1 Z " fill="#BC6FAF" transform="translate(387,209)"/>
<path d="M0,0 L65,0 L66,83 L81,84 L81,120 L-131,120 L-133,119 L-133,103 L-144,102 L-148,101 L-149,96 L-149,15 L-68,15 L-67,16 L-67,35 L-50,34 L-15,34 L-15,16 L0,16 Z " fill="#A95E9D" transform="translate(316,74)"/>
<path d="M0,0 L20,0 L18,89 L36,89 L36,106 L22,106 L22,121 L53,121 L88,122 L88,105 L53,106 L53,89 L71,88 L72,73 L87,73 L88,2 L104,3 L104,117 L103,122 L190,122 L190,105 L155,105 L155,1 L173,1 L173,87 L190,87 L191,101 L192,102 L265,103 L265,92 L266,86 L281,86 L281,59 L282,54 L300,54 L300,103 L284,103 L284,120 L367,120 L367,102 L335,102 L335,0 L352,0 L352,85 L383,85 L383,137 L266,137 L266,120 L206,120 L206,138 L5,138 L5,87 L0,86 Z " fill="#1C1D1C" transform="translate(63,293)"/>
<path d="M0,0 L17,0 L17,65 L35,66 L34,134 L32,135 L18,135 L18,194 L17,304 L49,304 L49,322 L-34,322 L-34,305 L-18,305 L-18,247 L-17,202 L0,202 L0,170 L-17,170 L-17,155 L-16,154 L-1,154 L-1,135 L17,135 L17,67 L1,67 L0,66 Z " fill="#5C396F" transform="translate(381,91)"/>
<path d="M0,0 L18,0 L19,49 L18,63 L16,120 L34,120 L34,121 L16,121 L15,153 L0,153 L-1,170 L-74,170 L-76,168 L-76,153 L-60,153 L-57,134 L-53,89 L-52,2 L-51,1 L-34,1 L-34,89 L-37,111 L-38,136 L-40,154 L-10,154 L-7,143 L-4,115 L-1,67 Z " fill="#A45A9E" transform="translate(329,226)"/>
<path d="M0,0 L66,0 L66,16 L1,16 L1,103 L-18,104 L-18,138 L0,138 L0,172 L-11,179 L-14,182 L-26,185 L-32,185 L-33,179 L-33,147 L-49,147 L-49,104 L-32,104 L-32,67 L-16,67 L-16,16 L0,16 Z " fill="#462B5A" transform="translate(166,73)"/>
<path d="M0,0 L33,0 L34,1 L34,31 L31,79 L28,107 L24,118 L-6,118 L-4,75 L-1,53 Z " fill="#C97BB7" transform="translate(295,262)"/>
<path d="M0,0 L17,0 L17,65 L35,66 L34,134 L32,135 L18,135 L18,194 L17,202 L0,202 L0,170 L-17,170 L-17,155 L-16,154 L-1,154 L-1,135 L17,135 L17,67 L1,67 L0,66 Z " fill="#1D1E1C" transform="translate(381,91)"/>
<path d="M0,0 L1,0 L1,52 L-214,52 L-214,35 L0,36 Z " fill="#482C5C" transform="translate(397,158)"/>
<path d="M0,0 L17,1 L17,32 L34,32 L34,51 L17,51 L17,87 L34,87 L34,119 L-1,119 Z " fill="#422956" transform="translate(167,296)"/>
<path d="M0,0 L81,0 L81,1 L65,1 L66,13 L67,43 L67,57 L66,68 L52,68 L51,55 L51,36 L34,36 L34,26 L35,18 L17,17 L17,68 L16,68 L16,55 L1,55 L1,77 L0,77 Z " fill="#A95F9E" transform="translate(167,89)"/>
<path d="M0,0 L1,0 L1,8 L34,8 L34,43 L17,43 L17,75 L-16,75 L-16,58 L0,58 Z " fill="#864586" transform="translate(363,338)"/>
<path d="M0,0 L17,0 L17,19 L34,18 L69,18 L69,0 L84,0 L84,35 L1,35 L0,12 Z " fill="#1B1D1B" transform="translate(232,90)"/>
<path d="M0,0 L66,0 L66,16 L1,16 L1,68 L-15,68 L-16,65 L-16,16 L0,16 Z " fill="#1C1D1C" transform="translate(166,73)"/>
<path d="M0,0 L15,0 L18,1 L18,16 L59,16 L68,19 L68,36 L0,35 Z " fill="#1C1D1B" transform="translate(83,258)"/>
<path d="M0,0 L7,0 L7,76 L6,84 L-12,84 L-12,57 L-11,27 L-9,1 Z " fill="#C97AB8" transform="translate(357,262)"/>
<path d="M0,0 L15,0 L18,1 L17,19 L34,19 L34,51 L0,51 Z " fill="#1B1C1B" transform="translate(184,106)"/>
<path d="M0,0 L17,0 L18,2 L18,18 L33,18 L33,51 L0,51 Z " fill="#1D1E1D" transform="translate(333,107)"/>
<path d="M0,0 L49,0 L49,52 L48,52 L48,35 L35,35 L35,54 L34,54 L34,35 L19,35 L18,17 L0,17 Z " fill="#A95E9C" transform="translate(332,90)"/>
<path d="M0,0 L83,0 L83,17 L82,18 L40,18 L17,17 L17,1 L0,1 Z " fill="#7C427A" transform="translate(233,125)"/>
<path d="M0,0 L29,0 L30,1 L32,26 L32,40 L31,51 L17,51 L16,38 L16,19 L-1,19 L-1,9 Z " fill="#C074B6" transform="translate(202,106)"/>
<path d="M0,0 L65,0 L65,16 L0,16 Z " fill="#1D1F1D" transform="translate(316,74)"/>
<path d="M0,0 L19,0 L59,1 L58,17 L-9,17 L-4,10 Z " fill="#A26592" transform="translate(270,379)"/>
<path d="M0,0 L33,1 L33,17 L16,17 L16,41 L-2,41 L-2,6 Z " fill="#462A5B" transform="translate(84,292)"/>
<path d="M0,0 L17,0 L17,18 L16,53 L0,53 Z " fill="#1A1B1D" transform="translate(364,293)"/>
<path d="M0,0 L16,0 L16,43 L0,43 Z " fill="#1E1F1D" transform="translate(117,177)"/>
<path d="M0,0 L17,0 L17,35 L16,36 L0,36 Z " fill="#8A4788" transform="translate(381,293)"/>
<path d="M0,0 L31,0 L31,36 L30,36 L30,19 L17,19 L17,38 L16,38 L16,19 L1,19 Z " fill="#CC81BE" transform="translate(350,106)"/>
<path d="M0,0 L15,0 L16,5 L16,38 L0,38 Z " fill="#191B19" transform="translate(101,220)"/>
<path d="M0,0 L18,0 L18,14 L21,15 L18,15 L18,33 L0,33 Z " fill="#623B73" transform="translate(81,333)"/>
<path d="M0,0 L1,0 L1,8 L17,8 L17,41 L16,42 L0,42 Z " fill="#5C386E" transform="translate(363,338)"/>
<path d="M0,0 L17,0 L17,34 L1,34 L0,32 Z " fill="#482B5C" transform="translate(183,244)"/>
<path d="M0,0 L15,0 L15,35 L0,35 L-1,33 L-1,20 L-35,19 L-35,18 L0,18 Z " fill="#453157" transform="translate(301,90)"/>
<path d="M0,0 L18,0 L18,18 L-14,18 L-14,1 Z " fill="#884685" transform="translate(412,395)"/>
<path d="M0,0 L17,0 L17,32 L0,32 L-1,26 L-1,15 Z " fill="#965199" transform="translate(364,261)"/>
<path d="M0,0 L15,0 L15,35 L13,36 L-1,36 L-1,20 Z " fill="#1A1C1A" transform="translate(135,141)"/>
<path d="M0,0 L17,0 L17,32 L-1,32 Z " fill="#5B386E" transform="translate(184,383)"/>
<path d="M0,0 L18,0 L18,24 L0,24 Z " fill="#4C2D5F" transform="translate(117,310)"/>
<path d="M0,0 L1,0 L1,18 L18,17 L18,77 L17,77 L17,35 L0,35 Z " fill="#472C58" transform="translate(380,311)"/>
<path d="M0,0 L18,0 L18,16 L0,16 Z " fill="#653C75" transform="translate(116,399)"/>
<path d="M0,0 L16,0 L17,18 L1,19 L0,16 Z " fill="#934F96" transform="translate(363,227)"/>
<path d="M0,0 L16,0 L16,18 L1,18 Z " fill="#F8F0E3" transform="translate(350,106)"/>
<path d="M0,0 L17,0 L17,16 L0,16 Z " fill="#211C25" transform="translate(285,158)"/>
<path d="M0,0 L16,0 L16,17 L0,17 Z " fill="#F9F1E4" transform="translate(202,107)"/>
<path d="M0,0 L15,0 L14,7 L11,16 L-9,16 L-4,9 Z " fill="#77446C" transform="translate(270,380)"/>
<path d="M0,0 L17,2 L17,17 L0,17 Z " fill="#1E1D1F" transform="translate(183,193)"/>
<path d="M0,0 L15,0 L15,16 L10,18 L1,18 L0,16 Z " fill="#1E1E1D" transform="translate(301,90)"/>
<path d="M0,0 L16,0 L16,16 L-1,17 Z " fill="#7C4377" transform="translate(316,90)"/>
<path d="M0,0 L15,0 L15,16 L-1,16 L-1,1 Z " fill="#422958" transform="translate(365,245)"/>
<path d="M0,0 L14,0 L15,4 L15,16 L0,16 Z " fill="#201C23" transform="translate(319,158)"/>
<path d="M0,0 L10,0 L9,16 L-8,16 L-3,9 Z " fill="#7B4770" transform="translate(319,380)"/>
<path d="M0,0 L66,0 L66,15 L56,15 L56,14 L64,14 L64,2 L0,1 Z " fill="#4C4C49" transform="translate(166,73)"/>
<path d="M0,0 L17,0 L17,17 L16,17 L14,1 L1,1 L1,19 L0,19 Z " fill="#3A293A" transform="translate(364,293)"/>
<path d="M0,0 L1,0 L1,11 L2,12 L2,5 L3,5 L3,13 L-10,13 L-15,12 L-15,11 L-10,10 L0,10 Z " fill="#985891" transform="translate(395,213)"/>
<path d="M0,0 L12,1 L12,2 L3,2 L2,5 L1,16 L0,16 Z " fill="#0D0E0D" transform="translate(301,90)"/>
</svg>
