<?xml version="1.0" encoding="UTF-8"?>
<!-- Generator: https://ezgif.com/png-to-svg -->
<svg version="1.1" xmlns="http://www.w3.org/2000/svg" width="512" height="512">
<path d="M0,0 L512,0 L512,512 L0,512 Z " fill="#FEF2D7" transform="translate(0,0)"/>
<path d="M0,0 L69,0 L69,14 L84,14 L84,29 L145,29 L145,15 L148,14 L159,14 L159,0 L227,0 L227,15 L241,15 L241,29 L253,29 L253,88 L278,88 L278,149 L266,149 L266,163 L241,163 L241,200 L257,200 L266,201 L267,219 L279,219 L279,279 L266,279 L266,311 L303,311 L309,312 L309,354 L176,354 L176,329 L109,329 L109,354 L-82,354 L-82,338 L-98,338 L-98,307 L-112,307 L-112,225 L-99,225 L-99,211 L-98,201 L-84,201 L-84,172 L-70,172 L-70,144 L-55,144 L-55,108 L-42,108 L-42,96 L-41,92 L-27,92 L-27,66 L-13,66 L-13,15 L-11,14 L0,14 Z " fill="#D63428" transform="translate(157,74)"/>
<path d="M0,0 L69,0 L69,14 L1,14 L1,77 L-13,77 L-12,134 L-10,144 L-10,151 L-15,150 L-23,138 L-25,133 L-27,133 L-28,108 L-40,108 L-40,151 L-29,169 L-28,175 L-31,179 L-36,179 L-44,169 L-50,161 L-55,160 L-55,173 L-69,173 L-69,191 L-70,203 L-84,203 L-84,225 L-69,224 L-68,218 L-15,218 L-14,237 L1,237 L1,314 L11,314 L11,288 L23,288 L30,294 L31,296 L31,304 L27,310 L22,314 L20,315 L12,315 L13,317 L13,338 L68,338 L68,324 L55,324 L54,323 L54,298 L40,298 L39,295 L39,278 L54,278 L54,226 L68,226 L69,313 L185,312 L185,296 L198,296 L199,279 L213,279 L213,263 L214,250 L227,250 L227,163 L240,162 L241,147 L264,147 L264,134 L32,133 L32,119 L264,119 L264,98 L239,98 L239,30 L227,30 L227,15 L241,15 L241,29 L253,29 L253,88 L278,88 L278,149 L266,149 L266,163 L241,163 L241,200 L257,200 L266,201 L267,219 L279,219 L279,279 L266,279 L266,311 L303,311 L309,312 L309,354 L176,354 L176,329 L109,329 L109,354 L-82,354 L-82,338 L-98,338 L-98,307 L-112,307 L-112,225 L-99,225 L-99,211 L-98,201 L-84,201 L-84,172 L-70,172 L-70,144 L-55,144 L-55,108 L-42,108 L-42,96 L-41,92 L-27,92 L-27,66 L-13,66 L-13,15 L-11,14 L0,14 Z " fill="#111B1C" transform="translate(157,74)"/>
<path d="M0,0 L25,0 L25,70 L20,71 L13,71 L13,84 L12,100 L-2,100 L-2,118 L-16,117 L-16,133 L-23,134 L-132,134 L-133,131 L-133,65 L-132,17 L-130,16 L-104,16 L-104,31 L-90,31 L-90,46 L-28,46 L-27,31 L-15,31 L-15,16 L-14,15 L0,15 Z " fill="#E86412" transform="translate(358,253)"/>
<path d="M0,0 L17,0 L17,8 L16,15 L41,15 L41,45 L57,45 L57,16 L58,15 L68,15 L68,62 L16,62 L18,79 L32,80 L61,81 L64,83 L50,91 L36,102 L35,103 L103,104 L103,105 L31,105 L31,119 L251,119 L251,120 L31,120 L32,139 L32,150 L11,150 L11,273 L19,273 L19,274 L10,274 L10,300 L0,300 L0,223 L-15,223 L-16,215 L-16,204 L-22,205 L-54,205 L-69,204 L-69,210 L-70,211 L-85,211 L-85,189 L-71,189 L-71,177 L-70,159 L-56,159 L-56,146 L-51,146 L-43,156 L-37,164 L-32,164 L-30,161 L-31,155 L-42,137 L-41,94 L-29,94 L-28,104 L-28,119 L-26,119 L-19,130 L-16,134 L-16,136 L-11,137 L-14,120 L-14,63 L0,63 Z " fill="#AD2220" transform="translate(158,88)"/>
<path d="M0,0 L14,0 L14,14 L26,14 L26,73 L51,73 L51,134 L39,134 L39,148 L14,148 L14,185 L30,185 L39,186 L40,204 L52,204 L52,264 L39,264 L39,296 L76,296 L76,297 L26,297 L26,264 L28,263 L37,263 L37,209 L38,205 L12,205 L13,218 L13,254 L-1,255 L-1,283 L-27,283 L-26,281 L-26,264 L-14,264 L-14,248 L-13,235 L0,235 L0,148 L13,147 L14,132 L37,132 L37,119 L-195,118 L-195,104 L37,104 L37,83 L12,83 L12,15 L0,15 Z " fill="#101C1D" transform="translate(384,89)"/>
<path d="M0,0 L26,0 L26,13 L54,13 L55,26 L55,76 L25,76 L25,99 L41,99 L41,113 L14,113 L15,97 L-15,97 L-16,82 L-30,82 L-30,2 L-29,1 L-16,1 L-16,18 L-2,18 L-1,4 Z " fill="#C02520" transform="translate(89,299)"/>
<path d="M0,0 L14,0 L28,1 L28,16 L90,16 L91,1 L117,0 L118,6 L118,39 L115,40 L105,40 L105,49 L104,58 L91,58 L91,75 L31,75 L31,58 L15,58 L15,40 L0,40 Z " fill="#F4C42C" transform="translate(240,283)"/>
<path d="M0,0 L26,0 L25,58 L14,59 L14,92 L27,92 L27,103 L51,103 L55,104 L55,119 L13,119 L13,105 L0,104 L0,118 L-40,118 L-40,101 L-39,78 L-13,78 L-13,50 L-10,49 L1,49 Z " fill="#BC231F" transform="translate(396,294)"/>
<path d="M0,0 L11,0 L26,1 L26,16 L13,16 L13,31 L-1,32 L-2,47 L-14,47 L-14,55 L-15,62 L-77,62 L-77,47 L-91,47 L-91,32 L-100,32 L-105,31 L-105,16 L-119,16 L-119,2 L-117,1 L-92,1 L-92,16 L-86,15 L-77,15 L-77,33 L-14,32 L-14,16 L0,16 Z " fill="#692120" transform="translate(345,237)"/>
<path d="M0,0 L68,0 L68,14 L1,15 L1,41 L9,54 L11,59 L11,71 L9,73 L-4,57 L-5,54 L-9,52 L-16,46 L-16,44 L-23,45 L-31,45 L-22,60 L-21,63 L-21,71 L-25,72 L-26,69 L-30,67 L-40,57 L-51,48 L-55,45 L-77,44 L-76,29 L-14,29 L-14,15 L-11,14 L0,14 Z " fill="#101A1D" transform="translate(316,74)"/>
<path d="M0,0 L232,0 L232,13 L127,13 L0,11 Z " fill="#E64B31" transform="translate(189,208)"/>
<path d="M0,0 L16,0 L16,17 L21,16 L30,16 L30,25 L39,24 L92,24 L93,16 L105,15 L106,12 L107,0 L131,0 L131,18 L117,17 L117,33 L110,34 L1,34 L0,31 Z " fill="#D4300F" transform="translate(225,353)"/>
<path d="M0,0 L25,0 L25,30 L41,30 L41,1 L42,0 L52,0 L52,47 L0,47 Z " fill="#101A1C" transform="translate(174,103)"/>
<path d="M0,0 L14,0 L14,15 L76,15 L76,30 L62,30 L62,47 L54,48 L29,48 L28,31 L14,30 L14,16 L1,15 L0,8 Z " fill="#EF720B" transform="translate(254,284)"/>
<path d="M0,0 L66,0 L66,15 L65,15 L65,1 L51,1 L51,15 L41,16 L40,45 L24,45 L24,15 L-1,15 Z " fill="#E14832" transform="translate(175,88)"/>
<path d="M0,0 L24,0 L24,28 L38,28 L38,42 L30,43 L0,43 Z " fill="#111A1C" transform="translate(345,105)"/>
<path d="M0,0 L50,0 L50,29 L42,31 L35,31 L35,16 L0,16 Z " fill="#E95537" transform="translate(334,88)"/>
<path d="M0,0 L26,0 L26,54 L14,54 L13,15 L-1,16 L-1,1 Z " fill="#E96F1A" transform="translate(344,268)"/>
<path d="M0,0 L18,0 L18,1 L12,2 L13,11 L18,14 L18,16 L27,16 L26,36 L25,40 L-1,40 L-1,23 Z " fill="#882220" transform="translate(357,372)"/>
<path d="M0,0 L28,0 L28,27 L21,27 L15,25 L0,23 Z " fill="#DB3527" transform="translate(115,313)"/>
<path d="M0,0 L10,0 L16,4 L18,9 L18,17 L14,25 L8,28 L1,28 L-5,24 L-8,19 L-8,7 L-3,2 Z " fill="#792322" transform="translate(194,248)"/>
<path d="M0,0 L1,0 L1,24 L29,24 L29,51 L15,51 L14,36 L0,36 Z " fill="#6C2220" transform="translate(59,345)"/>
<path d="M0,0 L7,1 L12,6 L13,7 L13,20 L9,25 L4,27 L-3,26 L-8,20 L-9,18 L-9,8 L-3,1 Z " fill="#782221" transform="translate(186,303)"/>
<path d="M0,0 L18,0 L24,2 L24,14 L22,18 L3,18 L-4,15 L-4,3 L-3,1 Z " fill="#762322" transform="translate(91,342)"/>
<path d="M0,0 L15,0 L16,12 L16,30 L0,30 Z " fill="#E44A0A" transform="translate(225,323)"/>
<path d="M0,0 L16,0 L16,29 L0,29 Z " fill="#DB7548" transform="translate(199,104)"/>
<path d="M0,0 L24,0 L28,1 L28,16 L-13,16 L-13,15 L0,15 Z " fill="#66201F" transform="translate(423,397)"/>
<path d="M0,0 L5,0 L2,1 L3,7 L31,8 L30,23 L1,23 Z " fill="#702221" transform="translate(169,389)"/>
<path d="M0,0 L14,0 L14,29 L13,31 L0,31 Z " fill="#6E2120" transform="translate(144,151)"/>
<path d="M0,0 L5,0 L5,33 L-8,34 L-8,1 Z " fill="#6D2221" transform="translate(405,353)"/>
<path d="M0,0 L32,0 L32,1 L24,1 L33,16 L34,19 L34,27 L30,28 L29,25 L25,23 L15,13 L4,4 Z " fill="#46211F" transform="translate(261,118)"/>
<path d="M0,0 L7,1 L13,10 L12,19 L9,24 L7,25 L-1,25 L-7,20 L-8,18 L-8,11 L-6,5 Z " fill="#4E2120" transform="translate(143,245)"/>
<path d="M0,0 L13,0 L13,31 L0,31 Z " fill="#E4470B" transform="translate(357,322)"/>
<path d="M0,0 L26,0 L26,13 L54,13 L54,14 L-1,14 L-1,4 Z " fill="#752322" transform="translate(89,299)"/>
<path d="M0,0 L17,0 L17,16 L52,16 L52,17 L28,17 L28,29 L26,26 L26,18 L3,18 L0,17 L0,27 L-1,27 L-1,1 Z " fill="#AD2925" transform="translate(317,88)"/>
<path d="M0,0 L2,0 L10,14 L11,17 L11,29 L9,31 L-4,15 L-5,12 L-9,10 L-16,4 L-15,2 L0,2 Z " fill="#40201E" transform="translate(316,116)"/>
<path d="M0,0 L12,0 L13,10 L13,25 L15,26 L0,26 Z " fill="#702120" transform="translate(117,182)"/>
<path d="M0,0 L15,0 L15,20 L1,20 L0,17 Z " fill="#6E2221" transform="translate(196,352)"/>
<path d="M0,0 L15,0 L15,16 L0,16 Z " fill="#161A1C" transform="translate(278,153)"/>
<path d="M0,0 L16,0 L15,16 L1,17 Z " fill="#672120" transform="translate(88,396)"/>
<path d="M0,0 L2,0 L2,16 L-13,16 L-13,1 Z " fill="#BC211E" transform="translate(251,397)"/>
<path d="M0,0 L15,0 L15,15 L0,15 Z " fill="#BB211F" transform="translate(142,398)"/>
<path d="M0,0 L14,0 L14,16 L0,16 Z " fill="#121A1C" transform="translate(331,153)"/>
<path d="M0,0 L2,0 L2,14 L-6,16 L-13,16 L-13,1 Z " fill="#F5D9A6" transform="translate(382,103)"/>
<path d="M0,0 L14,0 L14,14 L0,14 Z " fill="#F5DBA9" transform="translate(200,105)"/>
<path d="M0,0 L14,0 L14,14 L0,14 Z " fill="#0D171A" transform="translate(226,89)"/>
<path d="M0,0 L14,0 L13,14 L0,14 Z " fill="#C7221F" transform="translate(437,398)"/>
<path d="M0,0 L12,0 L11,15 L-1,15 Z " fill="#ED7016" transform="translate(331,284)"/>
<path d="M0,0 L11,0 L12,1 L12,15 L3,15 L1,14 L0,11 Z " fill="#431F1D" transform="translate(102,265)"/>
<path d="M0,0 L14,0 L14,12 L0,12 Z " fill="#692120" transform="translate(60,328)"/>
<path d="M0,0 L12,0 L12,11 L10,12 L1,12 Z " fill="#6B2120" transform="translate(409,329)"/>
</svg>
