<?xml version="1.0" encoding="UTF-8"?>
<!-- Generator: https://ezgif.com/png-to-svg -->
<svg version="1.1" xmlns="http://www.w3.org/2000/svg" width="512" height="512">
<path d="M0,0 L512,0 L512,512 L0,512 Z " fill="#FBF2D5" transform="translate(0,0)"/>
<path d="M0,0 L65,0 L91,1 L91,19 L93,19 L94,37 L147,38 L147,20 L162,20 L161,18 L161,1 L170,0 L244,0 L245,19 L245,73 L266,73 L266,147 L264,148 L246,148 L246,167 L245,168 L227,168 L227,204 L246,204 L246,239 L260,239 L264,240 L264,316 L293,316 L294,347 L294,369 L244,370 L170,370 L169,353 L120,352 L120,370 L44,370 L-77,369 L-77,302 L-91,302 L-91,223 L-74,222 L-73,201 L-55,201 L-55,168 L-54,167 L-37,167 L-37,114 L-19,114 L-19,72 L-1,71 Z " fill="#4F928F" transform="translate(147,72)"/>
<path d="M0,0 L17,0 L17,35 L53,35 L54,36 L55,44 L55,56 L69,56 L71,57 L72,72 L72,127 L71,149 L90,149 L90,185 L160,185 L160,168 L128,168 L128,114 L129,56 L146,56 L147,66 L148,148 L173,149 L173,168 L222,168 L222,149 L242,148 L243,132 L261,132 L261,133 L244,133 L244,149 L261,148 L279,148 L279,139 L280,139 L280,150 L261,150 L263,167 L278,168 L278,184 L330,184 L330,168 L299,168 L299,73 L318,73 L318,149 L347,149 L348,180 L348,202 L298,203 L224,203 L223,186 L174,185 L174,203 L98,203 L-23,202 L-23,135 L-37,135 L-37,56 L-20,55 L-19,34 L-1,34 L-1,1 Z " fill="#212720" transform="translate(93,239)"/>
<path d="M0,0 L171,0 L171,59 L172,57 L191,57 L191,91 L205,91 L205,92 L190,92 L190,187 L221,187 L221,203 L169,203 L169,187 L154,187 L153,186 L152,169 L171,169 L170,167 L152,168 L135,168 L135,152 L134,151 L134,167 L133,168 L113,168 L113,187 L64,187 L64,168 L39,168 L38,167 L37,75 L20,75 L20,36 L0,36 Z " fill="#21271F" transform="translate(202,220)"/>
<path d="M0,0 L37,0 L39,1 L39,38 L19,38 L19,19 L1,19 L1,74 L39,73 L39,39 L132,39 L132,1 L133,0 L190,0 L191,1 L191,38 L190,39 L171,39 L170,38 L170,19 L151,19 L151,74 L191,74 L191,56 L211,55 L211,111 L2,111 L1,129 L-17,129 L-18,112 L-19,54 L-18,1 Z " fill="#61A19D" transform="translate(182,90)"/>
<path d="M0,0 L65,0 L91,1 L91,19 L93,19 L94,37 L147,38 L147,20 L162,20 L161,18 L161,1 L170,0 L244,0 L245,19 L245,74 L226,74 L226,92 L186,92 L186,37 L205,37 L206,56 L225,56 L225,19 L168,19 L167,57 L74,57 L74,91 L72,92 L36,92 L36,37 L54,37 L54,56 L74,56 L74,19 L17,19 L17,72 L1,73 L0,129 L-19,129 L-19,166 L-20,167 L-37,167 L-37,114 L-19,114 L-19,72 L-1,71 Z " fill="#212620" transform="translate(147,72)"/>
<path d="M0,0 L46,0 L55,1 L66,9 L72,17 L72,77 L36,77 L36,97 L89,97 L89,128 L20,128 L16,127 L16,83 L17,76 L0,76 Z " fill="#458281" transform="translate(74,295)"/>
<path d="M0,0 L171,0 L171,19 L153,19 L152,52 L94,53 L20,53 L20,36 L0,36 Z " fill="#E6D04C" transform="translate(202,220)"/>
<path d="M0,0 L20,0 L20,74 L18,75 L0,75 L0,94 L-1,95 L-19,95 L-19,131 L0,131 L-1,134 L-20,134 L-20,95 L-38,95 L-38,94 L-20,94 L-20,75 L-202,75 L-209,74 L-209,56 L0,56 Z " fill="#232820" transform="translate(393,145)"/>
<path d="M0,0 L15,0 L16,1 L17,75 L35,75 L35,61 L36,61 L36,75 L43,75 L43,76 L36,76 L36,112 L17,112 L17,167 L16,167 L16,152 L0,151 L-2,131 L-38,130 L-38,95 L-21,94 L-20,57 L-1,57 L-1,1 Z " fill="#36686B" transform="translate(148,144)"/>
<path d="M0,0 L114,0 L114,20 L96,20 L96,36 L95,37 L75,37 L75,56 L26,56 L26,37 L1,37 L0,36 Z " fill="#D5BE36" transform="translate(240,351)"/>
<path d="M0,0 L18,0 L18,38 L0,38 L0,93 L17,93 L17,57 L37,57 L37,0 L38,0 L38,58 L37,112 L69,112 L69,129 L-1,129 L-1,93 L-20,93 L-20,71 L-19,37 L-2,37 L-1,1 Z " fill="#366D70" transform="translate(184,295)"/>
<path d="M0,0 L25,0 L26,1 L26,35 L-11,36 L-87,36 L-88,35 L-88,1 Z " fill="#EAD452" transform="translate(328,294)"/>
<path d="M0,0 L21,0 L21,21 L53,21 L53,39 L19,40 L19,76 L28,76 L35,77 L35,112 L73,112 L73,126 L72,128 L20,128 L16,127 L16,83 L17,76 L0,76 Z " fill="#29595D" transform="translate(74,295)"/>
<path d="M0,0 L21,0 L21,16 L35,16 L35,17 L20,17 L20,112 L51,112 L51,128 L-1,128 L-1,112 L-16,112 L-17,111 L-18,94 L1,94 L0,29 Z " fill="#3C7575" transform="translate(372,295)"/>
<path d="M0,0 L58,0 L58,23 L-56,23 L-56,33 L-57,33 L-57,23 L-74,23 L-74,1 Z " fill="#6F5421" transform="translate(296,272)"/>
<path d="M0,0 L41,0 L120,1 L120,18 L-49,17 L-49,1 Z " fill="#D3BD34" transform="translate(252,220)"/>
<path d="M0,0 L114,0 L114,22 L0,22 Z " fill="#6C511E" transform="translate(240,329)"/>
<path d="M0,0 L37,0 L37,1 L20,2 L0,2 L-1,75 L-3,74 L-3,44 L-2,21 L-14,22 L-14,32 L-13,35 L-14,36 L-14,42 L-14,45 L-14,55 L-14,58 L-15,79 L-15,88 L-10,89 L1,90 L2,92 L2,110 L49,110 L49,111 L2,111 L1,129 L-17,129 L-18,112 L-19,54 L-18,1 Z M-16,55 Z " fill="#4B8D8A" transform="translate(182,90)"/>
<path d="M0,0 L77,0 L77,19 L0,19 Z " fill="#EBD551" transform="translate(259,351)"/>
<path d="M0,0 L39,0 L40,1 L40,38 L39,39 L20,39 L19,38 L19,19 L0,19 L-1,17 L-1,1 Z " fill="#7CB1AC" transform="translate(333,90)"/>
<path d="M0,0 L21,0 L21,16 L35,16 L35,17 L20,17 L20,56 L1,56 L0,29 Z " fill="#579995" transform="translate(372,295)"/>
<path d="M0,0 L19,0 L19,37 L-1,37 L-1,18 L-19,18 L-19,73 L-20,73 L-20,1 Z " fill="#539490" transform="translate(202,91)"/>
<path d="M0,0 L19,0 L21,17 L36,18 L36,34 L-1,34 L-1,10 Z " fill="#24494A" transform="translate(335,389)"/>
<path d="M0,0 L48,0 L48,19 L-1,19 L-1,18 L47,18 L46,17 L0,17 Z " fill="#B29B21" transform="translate(267,388)"/>
<path d="M0,0 L1,0 L1,58 L0,112 L-1,112 L-1,93 L-20,93 L-20,57 L0,57 Z " fill="#2E646A" transform="translate(221,295)"/>
<path d="M0,0 L17,0 L17,37 L-2,37 L-2,3 Z " fill="#285054" transform="translate(148,219)"/>
<path d="M0,0 L18,0 L17,38 L-1,37 L-1,17 Z " fill="#427F7E" transform="translate(166,295)"/>
<path d="M0,0 L19,0 L20,17 L27,18 L27,19 L21,19 L20,32 L69,33 L69,34 L17,34 L17,18 L2,18 L1,17 Z " fill="#326365" transform="translate(354,389)"/>
<path d="M0,0 L21,0 L21,18 L20,19 L1,19 L0,18 Z " fill="#F2EEE6" transform="translate(352,110)"/>
<path d="M0,0 L34,0 L34,1 L18,1 L18,15 L16,21 L9,22 L0,22 Z " fill="#4D3C19" transform="translate(222,273)"/>
<path d="M0,0 L1,2 L31,2 L31,7 L30,8 L30,15 L0,15 Z " fill="#386C6C" transform="translate(391,406)"/>
<path d="M0,0 L21,0 L21,12 L19,19 L1,19 L1,29 L0,29 Z " fill="#3E7B7A" transform="translate(372,295)"/>
<path d="M0,0 L20,0 L20,18 L0,18 Z " fill="#F5F2EA" transform="translate(201,110)"/>
<path d="M0,0 L1,0 L1,34 L-19,34 L-19,17 L0,17 Z " fill="#D1BC37" transform="translate(353,295)"/>
<path d="M0,0 L19,0 L19,19 L-1,19 L0,17 Z " fill="#78B8AD" transform="translate(202,91)"/>
<path d="M0,0 L19,0 L19,17 L0,16 Z " fill="#95C3BF" transform="translate(354,91)"/>
<path d="M0,0 L6,1 L6,2 L0,2 L0,18 L-18,18 L-18,1 Z " fill="#C1AA27" transform="translate(336,369)"/>
<path d="M0,0 L16,0 L16,15 L0,15 Z " fill="#222B26" transform="translate(265,163)"/>
<path d="M0,0 L16,0 L16,15 L0,15 Z " fill="#1E231D" transform="translate(297,163)"/>
<path d="M0,0 L1,0 L2,20 L1,56 L20,56 L19,59 L0,59 L0,20 L-18,20 L-18,19 L0,19 Z " fill="#6D6A4E" transform="translate(373,220)"/>
<path d="M0,0 L48,0 L48,1 L3,1 L2,4 L1,17 L0,17 Z " fill="#CBC4B4" transform="translate(268,424)"/>
</svg>
