<?xml version="1.0" encoding="UTF-8"?>
<!-- Generator: https://ezgif.com/png-to-svg -->
<svg version="1.1" xmlns="http://www.w3.org/2000/svg" width="512" height="512">
<path d="M0,0 L512,0 L512,512 L0,512 Z " fill="#FEF3D4" transform="translate(0,0)"/>
<path d="M0,0 L66,0 L66,16 L82,16 L82,30 L146,30 L146,16 L162,16 L162,0 L226,0 L226,15 L242,15 L242,80 L258,80 L258,95 L273,95 L273,144 L257,144 L257,160 L242,160 L242,207 L258,207 L258,223 L274,223 L274,287 L258,288 L258,317 L257,319 L305,319 L305,366 L178,366 L178,335 L130,335 L130,366 L-78,366 L-78,351 L-95,351 L-95,319 L-111,319 L-111,223 L-95,223 L-95,175 L-78,175 L-78,144 L-63,144 L-63,111 L-47,111 L-47,95 L-31,95 L-31,48 L-15,48 L-15,16 L0,16 Z " fill="#653B97" transform="translate(159,73)"/>
<path d="M0,0 L31,0 L31,16 L16,16 L16,63 L32,63 L32,79 L48,79 L48,143 L32,144 L32,173 L31,175 L79,175 L79,222 L-48,222 L-48,191 L-96,191 L-96,222 L-304,222 L-304,207 L-321,207 L-321,175 L-337,175 L-337,79 L-321,80 L-321,143 L-257,143 L-257,95 L-240,94 L-240,127 L-225,127 L-225,80 L-217,79 L-208,79 L-208,95 L-193,95 L-193,127 L-208,128 L-209,176 L-193,176 L-193,192 L-176,192 L-176,206 L-144,206 L-144,190 L-160,190 L-160,127 L-176,127 L-176,112 L-160,112 L-160,80 L-145,80 L-144,88 L-144,111 L-113,111 L-113,127 L-129,127 L-129,144 L-143,144 L-144,174 L-66,174 L-66,159 L-33,159 L-33,144 L-17,144 L-17,79 L-33,80 L-33,95 L-129,95 L-129,79 L-33,79 L-33,63 L-17,63 L-17,47 L-144,47 L-144,31 L-33,31 L-33,16 L0,16 Z " fill="#0A162B" transform="translate(385,217)"/>
<path d="M0,0 L66,0 L66,16 L82,16 L82,30 L146,30 L146,16 L162,16 L162,0 L226,0 L226,15 L242,15 L242,80 L258,80 L258,95 L273,95 L273,144 L257,144 L257,127 L17,127 L17,80 L65,80 L65,47 L49,47 L49,31 L1,31 L1,80 L-15,80 L-15,159 L-31,160 L-31,192 L-45,192 L-46,222 L-47,223 L-63,223 L-63,240 L-79,240 L-79,255 L-94,255 L-94,239 L-79,239 L-79,224 L-94,224 L-94,175 L-78,175 L-78,144 L-63,144 L-63,111 L-47,111 L-47,95 L-31,95 L-31,48 L-15,48 L-15,16 L0,16 Z " fill="#804CA4" transform="translate(159,73)"/>
<path d="M0,0 L31,0 L31,16 L16,16 L16,63 L32,63 L32,79 L48,79 L48,143 L32,144 L32,173 L31,191 L16,191 L16,206 L-1,206 L-1,175 L-16,175 L-17,151 L-17,79 L-33,80 L-33,95 L-129,95 L-129,79 L-33,79 L-33,63 L-17,63 L-17,47 L-144,47 L-144,31 L-33,31 L-33,16 L0,16 Z " fill="#623D91" transform="translate(385,217)"/>
<path d="M0,0 L15,0 L15,16 L111,16 L111,1 L127,0 L127,65 L111,65 L111,80 L78,80 L78,95 L0,95 L0,64 L15,65 L15,48 L31,48 L31,32 L0,32 Z " fill="#E7C5B1" transform="translate(241,296)"/>
<path d="M0,0 L15,0 L16,15 L16,64 L0,64 L0,143 L-16,144 L-16,176 L-30,176 L-31,206 L-32,207 L-48,207 L-48,224 L-64,224 L-64,239 L-79,239 L-79,223 L-64,223 L-64,208 L-79,208 L-79,159 L-63,159 L-63,128 L-48,128 L-48,95 L-32,95 L-32,79 L-16,79 L-16,32 L0,32 Z " fill="#372075" transform="translate(144,89)"/>
<path d="M0,0 L219,0 L219,17 L188,17 L188,33 L155,33 L155,48 L44,48 L44,33 L12,33 L12,16 L-4,16 L-4,1 Z " fill="#F0D3B7" transform="translate(197,200)"/>
<path d="M0,0 L4,0 L4,33 L19,33 L19,80 L4,81 L-12,81 L-12,95 L-13,97 L-28,97 L-28,112 L-45,112 L-45,97 L-60,97 L-60,65 L-77,65 L-77,49 L-13,49 L-13,1 Z " fill="#2F1C6C" transform="translate(141,311)"/>
<path d="M0,0 L16,0 L16,16 L32,16 L32,80 L16,81 L16,110 L15,128 L0,128 L0,143 L-17,143 L-17,112 L-32,112 L-33,81 L-17,81 L-17,55 L-16,49 L-1,49 L-1,64 L15,64 L15,50 L0,50 L0,16 L15,16 L15,1 L0,1 Z " fill="#643A97" transform="translate(401,280)"/>
<path d="M0,0 L16,0 L16,48 L0,48 L0,31 L-240,31 L-240,15 L0,15 Z " fill="#0F152E" transform="translate(416,169)"/>
<path d="M0,0 L219,0 L219,17 L188,17 L188,33 L187,33 L187,17 L17,17 L16,23 L14,23 L14,31 L13,31 L12,17 L-4,16 L-4,1 Z " fill="#DCA2B5" transform="translate(197,200)"/>
<path d="M0,0 L64,0 L64,15 L80,15 L80,80 L95,80 L95,95 L79,95 L79,80 L31,80 L31,31 L48,31 L48,47 L63,47 L63,16 L0,16 Z " fill="#0F1532" transform="translate(321,73)"/>
<path d="M0,0 L127,0 L127,16 L111,16 L111,32 L15,32 L15,16 L0,16 Z " fill="#EACCB7" transform="translate(241,264)"/>
<path d="M0,0 L31,0 L31,16 L16,16 L16,64 L31,64 L31,79 L16,79 L16,113 L31,113 L31,127 L15,127 L15,112 L0,112 L-1,144 L-17,144 L-17,112 L-16,96 L0,96 L0,48 L-16,48 L-16,32 L-1,32 L-1,16 Z " fill="#091629" transform="translate(385,217)"/>
<path d="M0,0 L16,0 L16,32 L31,32 L31,16 L48,16 L48,47 L47,48 L31,48 L31,65 L15,65 L15,80 L0,80 L0,64 L15,64 L15,49 L0,49 Z " fill="#0A162C" transform="translate(65,248)"/>
<path d="M0,0 L31,0 L31,16 L47,16 L47,49 L17,49 L0,48 Z " fill="#0A1332" transform="translate(177,104)"/>
<path d="M0,0 L15,0 L15,64 L-2,64 L-2,80 L-31,80 L-31,64 L-17,64 L-17,49 L0,49 Z " fill="#0A152B" transform="translate(129,312)"/>
<path d="M0,0 L111,0 L111,15 L0,15 Z " fill="#1F135E" transform="translate(241,249)"/>
<path d="M0,0 L16,0 L16,31 L-64,32 L-64,15 L0,15 Z " fill="#0B142B" transform="translate(305,89)"/>
<path d="M0,0 L95,0 L95,15 L0,15 Z " fill="#201360" transform="translate(257,297)"/>
<path d="M0,0 L17,0 L17,15 L1,15 L1,32 L-63,32 L-63,15 L0,15 Z " fill="#452A7E" transform="translate(335,329)"/>
<path d="M0,0 L53,0 L53,1 L1,1 L1,16 L41,16 L65,17 L65,30 L66,31 L66,47 L49,47 L49,31 L0,31 Z " fill="#7A4B9C" transform="translate(159,73)"/>
<path d="M0,0 L32,1 L32,17 L16,17 L16,34 L2,34 L1,64 L79,64 L79,49 L96,49 L96,65 L0,65 Z " fill="#8152A8" transform="translate(240,327)"/>
<path d="M0,0 L32,0 L32,17 L16,17 L16,32 L-11,32 L-19,31 L-18,29 L-19,23 L-18,19 L-64,19 L-64,18 L-1,17 Z " fill="#E6C5B4" transform="translate(336,344)"/>
<path d="M0,0 L4,0 L4,33 L19,33 L19,80 L4,81 L-12,81 L-12,95 L-13,95 L-14,81 L-14,65 L3,65 L3,1 Z " fill="#2B1B6A" transform="translate(141,311)"/>
<path d="M0,0 L47,0 L47,16 L32,16 L32,31 L15,31 L15,16 L0,16 Z " fill="#633996" transform="translate(81,392)"/>
<path d="M0,0 L1,0 L1,24 L16,24 L16,55 L-15,55 L-15,23 L0,24 Z " fill="#281967" transform="translate(368,368)"/>
<path d="M0,0 L13,0 L13,16 L-52,16 L-52,1 Z " fill="#0F142E" transform="translate(212,73)"/>
<path d="M0,0 L15,0 L15,63 L0,64 Z " fill="#071527" transform="translate(417,297)"/>
<path d="M0,0 L16,0 L16,47 L1,47 L0,44 Z " fill="#091729" transform="translate(128,121)"/>
<path d="M0,0 L15,0 L16,29 L15,31 L-16,31 L-16,15 L0,15 Z " fill="#0C1434" transform="translate(401,361)"/>
<path d="M0,0 L31,0 L31,16 L16,16 L16,63 L15,63 L15,16 L0,16 Z " fill="#684891" transform="translate(385,217)"/>
<path d="M0,0 L9,0 L9,16 L24,16 L24,48 L8,49 L8,1 L0,1 Z " fill="#2C1A69" transform="translate(168,296)"/>
<path d="M0,0 L31,0 L31,17 L15,17 L15,32 L0,32 L0,16 L15,16 L15,1 L0,1 Z " fill="#1D165A" transform="translate(65,296)"/>
<path d="M0,0 L16,1 L16,32 L1,32 L0,29 Z " fill="#091729" transform="translate(96,184)"/>
<path d="M0,0 L63,0 L63,31 L48,31 L48,14 L34,14 L34,13 L51,12 L53,11 L60,12 L59,9 L61,2 L58,3 L25,3 L22,4 L21,3 L4,3 L3,15 L2,15 L1,31 L0,31 Z " fill="#7A48A0" transform="translate(321,89)"/>
<path d="M0,0 L32,0 L32,15 L0,15 Z " fill="#A16ABA" transform="translate(352,233)"/>
<path d="M0,0 L15,0 L15,32 L0,32 Z " fill="#081529" transform="translate(144,89)"/>
<path d="M0,0 L1,0 L2,7 L5,2 L15,3 L17,5 L17,12 L26,14 L31,15 L31,16 L15,16 L15,32 L0,32 Z M15,13 Z " fill="#3B2179" transform="translate(81,248)"/>
<path d="M0,0 L31,0 L31,15 L0,15 Z " fill="#5E3693" transform="translate(417,408)"/>
<path d="M0,0 L15,0 L15,31 L0,31 Z " fill="#071628" transform="translate(81,217)"/>
<path d="M0,0 L1,0 L1,64 L79,64 L79,49 L96,49 L96,65 L0,65 Z " fill="#573C79" transform="translate(240,327)"/>
<path d="M0,0 L17,0 L17,15 L8,16 L-93,16 L-93,29 L-96,31 L-96,15 L0,15 Z " fill="#433077" transform="translate(352,281)"/>
<path d="M0,0 L1,0 L1,15 L17,15 L17,80 L32,80 L32,95 L16,95 L16,16 L0,16 Z " fill="#2E2D50" transform="translate(384,73)"/>
<path d="M0,0 L11,0 L11,16 L26,16 L26,17 L-6,17 L-6,6 L-5,1 Z " fill="#925FAE" transform="translate(230,264)"/>
<path d="M0,0 L16,0 L16,17 L0,17 Z " fill="#8A58AC" transform="translate(352,344)"/>
<path d="M0,0 L16,0 L16,17 L0,17 Z " fill="#EDD0B6" transform="translate(336,344)"/>
<path d="M0,0 L16,0 L16,17 L0,17 Z " fill="#0D1438" transform="translate(128,200)"/>
<path d="M0,0 L16,0 L16,16 L0,16 Z " fill="#1F165D" transform="translate(96,328)"/>
<path d="M0,0 L16,0 L16,16 L0,16 Z " fill="#181453" transform="translate(112,296)"/>
<path d="M0,0 L16,0 L16,16 L0,16 Z " fill="#F1D6B8" transform="translate(209,104)"/>
<path d="M0,0 L17,0 L17,15 L0,15 Z " fill="#7847A3" transform="translate(256,408)"/>
<path d="M0,0 L17,0 L17,15 L0,15 Z " fill="#7747A2" transform="translate(159,408)"/>
<path d="M0,0 L17,0 L17,15 L0,15 Z " fill="#A56FBB" transform="translate(224,233)"/>
<path d="M0,0 L15,0 L15,15 L0,15 L0,24 L-1,24 L-1,16 L-10,16 L-10,15 L-1,15 L-1,5 Z " fill="#4A2C84" transform="translate(241,281)"/>
<path d="M0,0 L16,0 L16,16 L32,16 L32,80 L31,80 L31,17 L16,17 L16,106 L15,106 L15,50 L0,50 L0,48 L15,48 L15,17 L0,17 L0,16 L15,16 L15,1 L0,1 Z " fill="#605972" transform="translate(401,280)"/>
<path d="M0,0 L16,0 L16,15 L0,15 Z " fill="#673B9A" transform="translate(128,408)"/>
<path d="M0,0 L16,0 L16,15 L0,15 Z " fill="#CD9F9B" transform="translate(336,361)"/>
<path d="M0,0 L16,0 L16,15 L0,15 Z " fill="#361F78" transform="translate(336,329)"/>
<path d="M0,0 L16,0 L16,15 L0,15 Z " fill="#392178" transform="translate(256,329)"/>
<path d="M0,0 L16,0 L16,15 L0,15 Z " fill="#101341" transform="translate(144,265)"/>
<path d="M0,0 L16,0 L16,15 L0,15 Z " fill="#0E1339" transform="translate(160,233)"/>
<path d="M0,0 L16,0 L16,15 L0,15 Z " fill="#091629" transform="translate(112,169)"/>
<path d="M0,0 L15,0 L15,16 L0,16 Z " fill="#FCF3D7" transform="translate(369,104)"/>
<path d="M0,0 L16,0 L16,15 L1,15 L0,14 Z " fill="#0B132A" transform="translate(400,217)"/>
<path d="M0,0 L14,0 L14,17 L0,17 Z " fill="#0C1236" transform="translate(278,142)"/>
<path d="M0,0 L15,0 L15,15 L0,15 Z " fill="#12124A" transform="translate(193,361)"/>
<path d="M0,0 L16,1 L16,15 L0,15 Z " fill="#1D145E" transform="translate(400,329)"/>
<path d="M0,0 L15,0 L15,15 L0,15 Z " fill="#0D123C" transform="translate(193,281)"/>
<path d="M0,0 L13,0 L13,17 L0,17 Z " fill="#0B1233" transform="translate(323,142)"/>
<path d="M0,0 L1,0 L1,15 L-6,16 L-14,16 L-14,1 Z " fill="#141250" transform="translate(383,392)"/>
<path d="M0,0 L16,0 L16,14 L1,14 Z " fill="#0C122B" transform="translate(225,89)"/>
<path d="M0,0 L14,0 L14,15 L0,15 Z " fill="#0B1336" transform="translate(113,233)"/>
<path d="M0,0 L1,0 L2,35 L1,36 L-12,36 L-14,33 L0,33 Z " fill="#5D3A7F" transform="translate(224,120)"/>
<path d="M0,0 L1,3 L8,3 L3,9 L0,9 L0,4 L-16,4 L-16,3 L0,3 Z " fill="#483964" transform="translate(128,165)"/>
</svg>
