<?xml version="1.0" encoding="UTF-8"?>
<!-- Generator: https://ezgif.com/png-to-svg -->
<svg version="1.1" xmlns="http://www.w3.org/2000/svg" width="512" height="512">
<path d="M0,0 L512,0 L512,512 L0,512 Z " fill="#FDEFCA" transform="translate(0,0)"/>
<path d="M0,0 L64,0 L64,16 L81,16 L81,74 L97,74 L97,140 L82,140 L82,164 L65,164 L66,173 L66,200 L82,201 L82,238 L97,238 L98,239 L98,302 L127,302 L127,353 L2,353 L2,336 L-49,336 L-49,354 L-247,354 L-247,301 L-246,291 L-261,291 L-261,212 L-246,212 L-246,191 L-219,191 L-219,157 L-203,157 L-203,105 L-187,105 L-187,71 L-170,71 L-171,59 L-171,16 L-155,16 L-155,1 L-80,1 L-80,16 L-64,16 L-64,33 L-31,32 L-16,32 L-16,16 L0,16 L1,20 L2,42 L2,63 L-31,64 L-31,70 L-33,72 L-43,72 L-46,65 L-75,65 L-80,64 L-81,59 L-81,34 L-88,34 L-88,40 L-89,40 L-89,34 L-106,34 L-106,49 L-91,49 L-90,55 L-89,82 L-93,83 L-123,83 L-124,51 L-124,34 L-139,34 L-138,41 L-138,97 L-131,97 L-123,101 L-119,107 L-118,111 L-118,125 L-123,133 L-131,138 L-134,139 L-146,139 L-155,133 L-158,125 L-159,119 L-171,119 L-171,139 L-187,139 L-187,177 L-203,177 L-202,191 L-187,191 L-187,207 L-153,207 L-153,238 L-138,238 L-138,221 L-133,215 L-130,213 L-118,213 L-112,217 L-109,222 L-107,227 L-107,234 L-112,243 L-118,246 L-130,246 L-137,240 L-137,306 L-138,320 L-120,320 L-120,338 L-64,337 L-64,320 L-91,320 L-92,299 L-102,301 L-112,301 L-119,297 L-122,294 L-124,287 L-124,277 L-121,270 L-112,264 L-109,263 L-91,263 L-91,225 L-90,222 L-75,222 L-75,305 L-49,305 L-49,319 L18,319 L18,298 L34,298 L34,209 L49,209 L49,163 L65,163 L65,138 L-24,139 L-74,139 L-106,138 L-106,124 L-6,123 L80,123 L80,80 L64,80 L63,17 L1,16 L0,10 Z " fill="#1C3218" transform="translate(314,75)"/>
<path d="M0,0 L1,0 L1,6 L63,6 L64,7 L64,70 L80,70 L80,113 L-6,114 L-106,114 L-106,128 L65,128 L65,153 L49,153 L49,199 L34,199 L34,288 L18,288 L18,309 L-49,309 L-49,295 L-75,295 L-75,212 L-90,212 L-91,253 L-109,254 L-119,259 L-122,263 L-123,267 L-123,277 L-120,285 L-115,289 L-112,290 L-102,290 L-91,288 L-91,310 L-64,310 L-63,316 L-63,327 L-64,328 L-120,328 L-120,310 L-138,310 L-138,229 L-130,235 L-118,235 L-112,233 L-110,228 L-108,224 L-108,217 L-112,208 L-118,204 L-130,204 L-136,209 L-137,211 L-138,228 L-153,228 L-153,197 L-187,197 L-187,181 L-202,181 L-203,178 L-203,167 L-187,167 L-187,129 L-171,129 L-171,109 L-159,109 L-158,105 L-156,118 L-153,124 L-146,128 L-134,128 L-124,123 L-119,115 L-119,101 L-122,93 L-128,89 L-138,87 L-139,24 L-124,24 L-123,41 L-123,73 L-89,72 L-90,68 L-91,39 L-106,39 L-106,24 L-81,24 L-80,54 L-45,54 L-43,61 L-33,61 L-31,54 L-21,53 L2,53 L0,6 L-9,6 L-9,5 L0,5 Z " fill="#78BE48" transform="translate(314,85)"/>
<path d="M0,0 L163,0 L163,25 L147,25 L147,71 L132,71 L132,160 L116,160 L116,181 L49,181 L49,167 L23,167 L23,84 L8,84 L8,55 L-8,55 L-8,25 L-23,25 L-23,1 Z " fill="#EDDF8A" transform="translate(216,213)"/>
<path d="M0,0 L28,0 L28,16 L44,16 L44,81 L0,82 L0,99 L28,99 L44,100 L44,112 L60,112 L61,115 L61,129 L29,129 L29,115 L15,115 L15,129 L-16,130 L-16,81 L-31,81 L-31,16 L-1,16 L-1,1 Z " fill="#53A83E" transform="translate(99,283)"/>
<path d="M0,0 L17,0 L17,47 L16,68 L0,68 L0,106 L-16,106 L-15,120 L0,120 L0,136 L34,136 L34,167 L33,167 L33,138 L2,139 L1,147 L0,147 L0,137 L-28,138 L-29,153 L-59,153 L-59,218 L-63,219 L-74,219 L-74,141 L-59,141 L-59,120 L-32,120 L-32,86 L-16,86 L-16,34 L0,34 Z " fill="#172B15" transform="translate(127,146)"/>
<path d="M0,0 L33,0 L33,1 L16,1 L17,10 L17,37 L33,38 L33,75 L48,75 L48,76 L33,76 L33,99 L24,101 L19,103 L16,104 L14,109 L14,116 L17,121 L17,123 L22,125 L32,127 L32,156 L62,156 L62,172 L19,173 L17,164 L17,157 L-15,157 L-15,136 L0,136 L0,47 L-15,47 L-15,46 L0,46 Z " fill="#60B142" transform="translate(363,238)"/>
<path d="M0,0 L58,0 L58,31 L139,30 L139,25 L140,25 L140,46 L107,47 L107,53 L105,55 L95,55 L92,48 L63,48 L58,47 L57,42 L57,17 L50,17 L50,23 L49,23 L49,17 L32,17 L32,32 L47,32 L48,38 L49,65 L45,66 L15,66 L14,34 L14,17 L-1,17 L-1,2 Z " fill="#63B443" transform="translate(176,92)"/>
<path d="M0,0 L74,0 L74,15 L90,15 L90,32 L123,31 L138,31 L138,15 L154,15 L155,19 L155,46 L139,47 L74,47 L74,16 L0,15 Z " fill="#172214" transform="translate(160,76)"/>
<path d="M0,0 L16,0 L16,29 L0,29 L0,50 L-67,50 L-67,36 L-93,36 L-92,10 L-77,10 L-77,23 L-1,22 Z " fill="#E4D46D" transform="translate(332,344)"/>
<path d="M0,0 L1,0 L1,16 L-5,17 L-7,21 L-7,24 L-11,24 L-11,26 L-9,26 L-11,30 L-11,33 L-8,33 L-3,27 L4,24 L12,24 L19,28 L25,34 L28,42 L28,50 L25,57 L17,64 L11,66 L-4,66 L-5,65 L-6,67 L-14,66 L-15,80 L-30,80 L-30,15 L0,15 Z M-12,26 Z M-13,27 Z " fill="#429937" transform="translate(98,284)"/>
<path d="M0,0 L12,0 L18,4 L21,9 L23,14 L23,21 L18,30 L12,33 L0,33 L-7,27 L-7,93 L-8,93 L-8,72 L-23,72 L-23,25 L-8,25 L-8,8 L-3,2 Z " fill="#216E22" transform="translate(184,288)"/>
<path d="M0,0 L17,0 L18,2 L18,15 L35,15 L35,50 L3,50 L0,49 Z " fill="#192A15" transform="translate(329,108)"/>
<path d="M0,0 L29,0 L45,1 L45,13 L61,13 L62,16 L62,30 L30,30 L30,16 L16,16 L16,30 L-2,30 L-1,26 L-1,17 L-2,13 Z " fill="#5EB141" transform="translate(98,382)"/>
<path d="M0,0 L18,0 L18,16 L33,16 L34,22 L35,49 L31,50 L1,50 L0,18 Z " fill="#182815" transform="translate(190,108)"/>
<path d="M0,0 L12,0 L20,6 L23,9 L24,15 L24,28 L19,38 L12,42 L10,43 L-1,43 L-9,39 L-13,33 L-14,28 L-14,16 L-9,7 L-2,1 Z " fill="#216E22" transform="translate(153,227)"/>
<path d="M0,0 L15,0 L16,9 L16,36 L28,37 L31,38 L31,75 L15,75 L15,46 L4,46 L0,45 Z " fill="#182715" transform="translate(364,239)"/>
<path d="M0,0 L8,0 L15,4 L21,10 L24,18 L24,26 L21,33 L13,40 L7,42 L-3,42 L-9,38 L-12,34 L-13,29 L-13,12 L-10,6 L-4,1 Z " fill="#1F6B21" transform="translate(102,308)"/>
<path d="M0,0 L1,0 L1,95 L0,95 L-1,74 L-11,76 L-21,76 L-28,72 L-31,69 L-33,62 L-33,52 L-30,45 L-21,39 L-18,38 L0,38 Z " fill="#2A7B29" transform="translate(223,300)"/>
<path d="M0,0 L1,0 L1,6 L63,6 L64,7 L64,36 L63,36 L62,22 L49,23 L33,23 L32,25 L32,23 L15,23 L15,21 L1,21 L0,6 L-9,6 L-9,5 L0,5 Z " fill="#5EAD41" transform="translate(314,85)"/>
<path d="M0,0 L16,0 L16,43 L-42,43 L-42,42 L0,41 L1,33 L-7,34 L-12,31 L-14,25 L-13,19 L-7,14 L0,12 Z " fill="#5AAB3F" transform="translate(378,155)"/>
<path d="M0,0 L16,0 L16,54 L0,54 Z " fill="#131B11" transform="translate(144,92)"/>
<path d="M0,0 L47,0 L49,16 L-1,16 L-1,4 Z " fill="#237024" transform="translate(333,395)"/>
<path d="M0,0 L1,2 L1,69 L0,69 L0,48 L-15,48 L-15,1 Z " fill="#378D31" transform="translate(176,312)"/>
<path d="M0,0 L16,0 L16,19 L15,34 L0,34 Z " fill="#132012" transform="translate(128,146)"/>
<path d="M0,0 L1,0 L1,15 L72,15 L72,16 L2,16 L2,89 L-15,89 L-15,70 L1,70 L1,16 L-15,16 L-15,58 L-16,58 L-16,15 L0,15 Z " fill="#2D612B" transform="translate(159,76)"/>
<path d="M0,0 L7,0 L7,56 L35,56 L35,57 L6,57 L6,28 L-2,28 L-9,24 L-13,17 L-13,10 L-10,5 L-6,2 Z " fill="#246E24" transform="translate(389,337)"/>
<path d="M0,0 L7,4 L10,9 L11,13 L11,27 L-8,26 L-8,1 Z " fill="#328A2F" transform="translate(185,173)"/>
<path d="M0,0 L13,0 L17,3 L18,7 L18,14 L15,19 L11,21 L3,20 L-2,15 L-3,12 L-3,5 Z " fill="#3F8226" transform="translate(251,158)"/>
<path d="M0,0 L1,0 L1,17 L16,17 L16,39 L0,39 Z " fill="#195C1A" transform="translate(160,343)"/>
<path d="M0,0 L1,0 L1,9 L16,8 L16,29 L1,29 L0,21 Z " fill="#1B601C" transform="translate(111,223)"/>
<path d="M0,0 L18,0 L18,18 L0,18 Z " fill="#2C802B" transform="translate(176,395)"/>
<path d="M0,0 L8,0 L12,4 L12,13 L9,18 L4,20 L-1,19 L-5,17 L-7,11 L-6,5 Z " fill="#2F842C" transform="translate(371,169)"/>
<path d="M0,0 L15,0 L15,18 L14,19 L0,20 Z " fill="#2A7E2A" transform="translate(68,299)"/>
<path d="M0,0 L16,0 L17,7 L17,15 L-1,15 L-1,1 Z " fill="#32882F" transform="translate(395,395)"/>
<path d="M0,0 L15,0 L14,16 L-1,16 L-1,4 Z " fill="#1C631E" transform="translate(333,395)"/>
<path d="M0,0 L16,0 L15,16 L0,16 Z " fill="#175E1A" transform="translate(83,283)"/>
<path d="M0,0 L20,0 L20,12 L0,12 Z " fill="#D4BB41" transform="translate(311,381)"/>
<path d="M0,0 L16,0 L17,4 L17,14 L0,14 Z " fill="#F8F0D4" transform="translate(347,108)"/>
<path d="M0,0 L16,0 L17,16 L16,14 L1,14 L0,11 Z " fill="#489E39" transform="translate(111,252)"/>
<path d="M0,0 L16,0 L16,14 L0,14 Z " fill="#FCF2D4" transform="translate(208,109)"/>
<path d="M0,0 L15,0 L15,14 L0,14 Z " fill="#2C802B" transform="translate(348,285)"/>
<path d="M0,0 L14,0 L14,14 L0,14 Z " fill="#206C21" transform="translate(114,398)"/>
<path d="M0,0 L13,0 L13,15 L0,15 Z " fill="#152413" transform="translate(304,160)"/>
<path d="M0,0 L64,0 L64,2 L49,3 L0,3 Z " fill="#31392A" transform="translate(314,75)"/>
<path d="M0,0 L33,0 L33,1 L1,1 L1,46 L5,47 L1,47 L1,106 L0,106 L0,47 L-15,47 L-15,46 L0,46 Z " fill="#668542" transform="translate(363,238)"/>
<path d="M0,0 L3,0 L5,4 L5,15 L4,16 L-38,16 L-39,13 L-15,12 L2,13 L1,5 L2,1 Z " fill="#549D3A" transform="translate(246,397)"/>
<path d="M0,0 L12,0 L13,1 L13,7 L11,9 L1,9 L0,8 Z " fill="#287522" transform="translate(270,138)"/>
<path d="M0,0 L17,0 L16,2 L11,2 L9,6 L4,8 L3,11 L2,11 L1,37 L0,37 Z " fill="#52A13B" transform="translate(127,214)"/>
<path d="M0,0 L3,1 L3,5 L9,6 L9,7 L32,8 L32,9 L5,9 L2,8 L2,2 L0,2 Z " fill="#D8D3B9" transform="translate(251,99)"/>
<path d="M0,0 L4,0 L4,10 L3,10 L2,3 L0,2 Z " fill="#D8D2B8" transform="translate(64,366)"/>
</svg>
