<?xml version="1.0" encoding="UTF-8"?>
<!-- Generator: https://ezgif.com/png-to-svg -->
<svg version="1.1" xmlns="http://www.w3.org/2000/svg" width="512" height="512">
<path d="M0,0 L512,0 L512,512 L0,512 Z " fill="#FEF1CB" transform="translate(0,0)"/>
<path d="M0,0 L62,0 L62,15 L76,15 L77,16 L77,30 L144,30 L144,15 L159,15 L159,0 L221,0 L221,15 L236,15 L236,30 L250,30 L250,92 L265,92 L265,142 L251,142 L251,156 L236,156 L236,142 L250,142 L250,129 L104,130 L33,130 L34,135 L34,157 L47,157 L47,171 L63,171 L63,308 L176,308 L176,293 L190,293 L190,280 L191,261 L206,261 L206,230 L221,230 L221,156 L235,157 L235,201 L264,201 L264,216 L279,216 L279,261 L264,261 L264,293 L279,293 L279,308 L308,308 L308,339 L293,339 L293,354 L189,354 L189,340 L176,340 L176,323 L99,323 L99,353 L-76,353 L-76,339 L-91,339 L-92,338 L-92,324 L-106,324 L-106,293 L-121,293 L-121,231 L-107,231 L-107,200 L-92,200 L-92,170 L-77,170 L-77,158 L-76,139 L-61,139 L-61,107 L-46,107 L-46,90 L-45,77 L-29,77 L-29,31 L-14,31 L-14,15 L0,15 Z " fill="#112635" transform="translate(159,75)"/>
<path d="M0,0 L76,0 L76,15 L90,15 L90,77 L105,77 L105,127 L91,127 L91,141 L76,141 L76,127 L90,127 L90,114 L-56,115 L-127,115 L-126,120 L-126,142 L-113,142 L-113,156 L-97,156 L-97,185 L-112,185 L-112,293 L-99,293 L-99,308 L-75,308 L-75,324 L-145,324 L-145,293 L-160,293 L-160,263 L-173,263 L-174,262 L-174,202 L-189,202 L-189,247 L-205,247 L-205,262 L-235,262 L-236,231 L-251,231 L-251,185 L-236,185 L-236,201 L-190,201 L-190,185 L-235,185 L-235,156 L-221,156 L-221,140 L-190,140 L-190,124 L-174,124 L-174,62 L-159,62 L-159,77 L-112,77 L-112,65 L-111,62 L-98,62 L-98,31 L-127,31 L-127,16 L-159,16 L-159,1 L-98,1 L-98,16 L-83,16 L-83,31 L0,31 Z " fill="#428BAA" transform="translate(319,90)"/>
<path d="M0,0 L146,0 L146,13 L132,13 L132,27 L147,27 L147,28 L132,28 L132,71 L160,71 L160,72 L131,72 L131,28 L118,28 L117,101 L102,101 L102,132 L87,132 L87,151 L86,164 L72,164 L72,179 L-41,179 L-41,42 L-57,42 L-57,28 L-70,28 L-71,1 Z " fill="#EED378" transform="translate(263,204)"/>
<path d="M0,0 L14,1 L14,45 L43,45 L43,60 L58,60 L58,105 L43,105 L43,137 L58,137 L58,152 L87,152 L87,183 L72,183 L72,198 L-32,198 L-32,184 L-31,184 L-31,197 L71,197 L71,183 L59,183 L58,177 L58,168 L44,168 L44,183 L15,183 L15,168 L0,168 L0,183 L-30,183 L-30,137 L-15,137 L-15,74 L0,74 Z " fill="#153046" transform="translate(380,231)"/>
<path d="M0,0 L15,0 L15,15 L29,15 L29,77 L44,77 L44,127 L30,127 L30,141 L15,141 L15,127 L29,127 L29,114 L-204,114 L-204,98 L-66,98 L-29,97 L-29,96 L27,96 L27,78 L10,78 L8,74 L10,73 L10,75 L12,75 L12,59 L6,60 L9,62 L9,65 L3,65 L4,62 L-31,62 L-31,16 L-15,15 L-14,14 L0,14 Z " fill="#152939" transform="translate(380,90)"/>
<path d="M0,0 L15,0 L15,1 L1,1 L1,31 L16,31 L16,46 L20,45 L31,45 L32,46 L32,77 L62,77 L62,62 L78,62 L78,34 L79,34 L79,89 L78,93 L45,93 L46,99 L46,108 L92,108 L92,123 L107,123 L107,139 L92,139 L92,124 L77,124 L78,128 L78,139 L16,139 L15,138 L15,124 L1,124 L1,93 L-14,93 L-14,31 L0,31 Z " fill="#215683" transform="translate(52,275)"/>
<path d="M0,0 L14,0 L14,31 L28,30 L29,60 L44,60 L45,76 L113,77 L113,61 L128,61 L128,80 L127,93 L113,93 L113,108 L0,108 Z " fill="#E2B942" transform="translate(222,275)"/>
<path d="M0,0 L14,0 L14,62 L29,62 L30,63 L30,77 L44,77 L44,63 L58,62 L87,62 L87,93 L72,93 L72,108 L-32,108 L-32,94 L-31,94 L-31,107 L71,107 L71,93 L59,93 L58,87 L58,78 L44,78 L44,93 L15,93 L15,78 L0,78 L0,93 L-30,93 L-30,47 L-15,47 L-15,15 L1,15 L0,13 Z " fill="#326588" transform="translate(380,321)"/>
<path d="M0,0 L15,0 L15,15 L29,15 L29,97 L-29,97 L-29,96 L27,96 L27,78 L10,78 L8,74 L10,73 L10,75 L12,75 L12,59 L6,60 L9,62 L9,65 L3,65 L4,62 L-31,62 L-31,16 L-15,15 L-14,14 L0,14 Z " fill="#4088A7" transform="translate(380,90)"/>
<path d="M0,0 L146,0 L146,13 L116,13 L116,17 L-45,17 L-52,16 L-53,15 L-53,1 Z " fill="#EFD982" transform="translate(263,204)"/>
<path d="M0,0 L16,0 L16,15 L1,15 L1,45 L-14,44 L-14,60 L-69,60 L-69,44 L-84,44 L-84,14 L-69,13 L-69,28 L-14,28 L-14,14 L0,14 Z " fill="#E2B63E" transform="translate(349,261)"/>
<path d="M0,0 L1,2 L4,2 L3,4 L-3,6 L-3,3 L0,2 Z M27,-21 L28,-18 L23,-16 L22,-10 L23,-12 L38,-11 L38,-10 L23,-9 L23,33 L21,37 L19,29 L13,32 L14,27 L7,26 L5,26 L3,32 L0,33 L-3,34 L6,35 L9,38 L9,46 L11,46 L12,47 L14,50 L12,50 L12,52 L14,52 L15,60 L10,62 L10,64 L7,64 L6,67 L8,67 L8,69 L13,70 L15,65 L17,63 L15,61 L18,58 L23,59 L21,63 L20,69 L19,71 L24,71 L24,72 L-13,72 L-12,67 L-15,66 L-12,63 L-9,64 L-9,62 L-11,61 L-6,60 L-9,52 L-13,50 L-18,51 L-20,54 L-25,53 L-28,60 L-33,59 L-34,56 L-36,56 L-36,58 L-38,58 L-39,61 L-43,57 L-43,55 L-46,56 L-48,59 L-53,58 L-51,57 L-51,55 L-53,54 L-54,53 L-54,44 L-53,37 L-38,37 L-34,39 L-33,40 L-31,40 L-29,44 L-31,48 L-33,49 L-30,52 L-29,47 L-24,47 L-27,46 L-27,44 L-23,44 L-22,46 L-17,46 L-16,43 L-14,44 L-14,41 L-12,41 L-12,38 L-10,38 L-10,36 L-13,35 L-15,31 L-17,30 L-16,27 L-19,26 L-18,24 L-20,24 L-20,21 L-22,21 L-22,19 L-20,18 L-21,13 L-16,12 L-21,9 L-67,9 L-69,10 L-69,8 L-78,9 L-82,7 L-7,7 L-6,9 L-6,6 L-3,7 L-5,7 L-5,9 L-1,8 L-1,12 L1,12 L2,14 L6,12 L9,13 L13,12 L14,8 L16,8 L17,11 L18,6 L18,1 L21,0 L20,-4 L19,-9 L10,-9 L10,-11 L17,-11 L20,-14 L19,-18 Z M-17,13 L-17,15 L-14,14 Z M-35,43 Z M-32,53 L-31,55 Z M10,26 Z M-29,38 L-27,38 L-27,40 L-31,39 Z M-19,66 L-15,66 L-15,68 L-19,68 Z " fill="#4189A9" transform="translate(326,115)"/>
<path d="M0,0 L15,0 L15,31 L1,31 L1,60 L46,60 L46,76 L0,76 L0,60 L-15,60 L-15,91 L-30,91 L-30,61 L-16,61 L-16,30 L-1,30 L-1,18 Z " fill="#0F1F28" transform="translate(83,215)"/>
<path d="M0,0 L15,0 L15,1 L1,1 L1,31 L16,31 L17,47 L16,59 L16,92 L19,93 L17,93 L17,122 L31,122 L31,123 L16,123 L16,93 L-14,93 L-14,31 L0,31 Z " fill="#275B82" transform="translate(52,275)"/>
<path d="M0,0 L14,0 L14,77 L0,77 L0,46 L-15,46 L-15,15 L1,15 L0,13 Z " fill="#4291AF" transform="translate(380,321)"/>
<path d="M0,0 L15,0 L15,16 L45,16 L61,17 L61,27 L48,30 L48,32 L52,31 L52,36 L49,35 L49,33 L29,32 L27,38 L28,40 L22,43 L21,41 L15,42 L15,40 L8,41 L2,41 L2,39 L0,39 Z " fill="#3B87A8" transform="translate(68,275)"/>
<path d="M0,0 L8,0 L8,23 L6,23 L6,25 L11,27 L12,25 L14,25 L15,29 L18,30 L16,28 L15,25 L15,23 L10,23 L10,22 L22,22 L22,36 L47,36 L47,52 L-23,52 L-23,21 L-22,21 L-22,36 L14,35 L15,34 L7,34 L9,32 L12,33 L12,29 L8,28 L7,31 L4,31 L3,25 L1,24 L3,24 L4,20 L7,20 L7,17 L1,16 L1,11 L2,10 L5,10 L5,13 L7,13 L6,10 L7,6 L5,6 L4,4 L0,3 Z " fill="#3888A9" transform="translate(197,362)"/>
<path d="M0,0 L1,3 L-1,3 L-1,5 L3,6 L5,9 L4,11 L6,12 L3,17 L6,17 L6,15 L10,15 L10,25 L27,25 L29,26 L37,27 L42,26 L42,37 L36,37 L34,38 L43,39 L43,71 L26,71 L25,41 L23,39 L10,39 L5,37 L0,39 L-1,47 L-2,47 L-3,70 L-4,70 L-4,10 L-19,10 L-19,9 L-4,9 L-5,4 Z " fill="#3D83A4" transform="translate(149,282)"/>
<path d="M0,0 L29,0 L29,45 L14,45 L14,60 L13,60 L13,45 L0,45 Z " fill="#162A34" transform="translate(409,291)"/>
<path d="M0,0 L46,0 L46,15 L61,15 L61,31 L46,31 L46,16 L31,16 L32,20 L32,31 L15,31 L15,15 L0,15 L-1,13 L-1,1 Z " fill="#4690AD" transform="translate(98,383)"/>
<path d="M0,0 L16,0 L16,15 L31,15 L31,46 L0,46 Z " fill="#0B203C" transform="translate(349,106)"/>
<path d="M0,0 L14,0 L14,31 L1,31 L0,46 L-47,46 L-47,31 L0,31 Z " fill="#194579" transform="translate(207,121)"/>
<path d="M0,0 L61,0 L61,14 L60,16 L47,16 L47,29 L32,29 L32,15 L0,15 Z " fill="#428CAB" transform="translate(160,91)"/>
<path d="M0,0 L61,0 L61,15 L0,15 Z " fill="#172838" transform="translate(319,75)"/>
<path d="M0,0 L61,0 L61,15 L0,15 Z " fill="#12273E" transform="translate(160,75)"/>
<path d="M0,0 L14,0 L14,62 L0,62 Z " fill="#0F1F26" transform="translate(38,306)"/>
<path d="M0,0 L28,0 L29,12 L29,30 L0,30 Z " fill="#1C4C7D" transform="translate(146,215)"/>
<path d="M0,0 L14,0 L14,61 L0,61 Z " fill="#172836" transform="translate(395,106)"/>
<path d="M0,0 L14,0 L15,21 L15,46 L0,46 Z " fill="#0E2238" transform="translate(130,106)"/>
<path d="M0,0 L14,1 L14,45 L0,45 Z " fill="#0C1B22" transform="translate(380,231)"/>
<path d="M0,0 L27,0 L28,30 L13,30 L13,14 L0,14 Z " fill="#0F2023" transform="translate(439,384)"/>
<path d="M0,0 L1,0 L1,46 L-14,46 L-14,31 L-83,31 L-83,16 L-82,16 L-82,30 L-15,30 L-15,15 L0,15 Z " fill="#537486" transform="translate(318,75)"/>
<path d="M0,0 L1,0 L1,15 L32,15 L32,31 L0,31 Z " fill="#235B88" transform="translate(174,383)"/>
<path d="M0,0 L15,0 L19,2 L20,3 L22,3 L24,7 L22,11 L20,12 L23,15 L24,10 L29,10 L26,9 L26,7 L30,7 L31,9 L34,9 L34,11 L36,12 L33,17 L28,16 L25,23 L20,22 L19,19 L17,19 L17,21 L15,21 L14,24 L10,20 L10,18 L7,19 L5,22 L0,21 L2,20 L2,18 L0,17 L-1,16 L-1,7 Z M18,6 Z M21,16 L22,18 Z M24,1 L26,1 L26,3 L22,2 Z " fill="#4088A6" transform="translate(273,152)"/>
<path d="M0,0 L16,0 L16,31 L0,31 Z " fill="#1E5180" transform="translate(176,321)"/>
<path d="M0,0 L16,0 L16,14 L18,14 L18,6 L19,8 L24,5 L25,7 L23,9 L21,12 L21,15 L23,18 L23,21 L27,19 L27,36 L23,38 L19,41 L19,43 L17,43 L16,33 L16,15 L0,15 Z M21,18 Z " fill="#4A91AE" transform="translate(365,106)"/>
<path d="M0,0 L2,4 L2,8 L4,8 L4,10 L9,10 L7,12 L5,11 L5,13 L13,14 L13,16 L15,16 L15,27 L16,29 L-15,29 L-15,14 L0,14 Z " fill="#1D5082" transform="translate(113,201)"/>
<path d="M0,0 L15,0 L15,30 L-1,30 L-1,13 Z " fill="#0D1D28" transform="translate(114,152)"/>
<path d="M0,0 L15,0 L15,31 L0,31 Z " fill="#1E5180" transform="translate(160,275)"/>
<path d="M0,0 L15,0 L15,17 L14,31 L0,31 Z " fill="#0D1D27" transform="translate(98,183)"/>
<path d="M0,0 L61,0 L61,14 L60,16 L47,16 L47,29 L32,29 L32,15 L33,13 L51,13 L50,8 L51,2 L59,2 L58,6 L57,9 L59,10 L60,1 L1,1 L1,15 L0,15 Z " fill="#4895B1" transform="translate(160,91)"/>
<path d="M0,0 L14,0 L14,30 L0,30 Z " fill="#0D1F26" transform="translate(53,368)"/>
<path d="M0,0 L14,0 L14,30 L0,30 Z " fill="#418DAB" transform="translate(409,291)"/>
<path d="M0,0 L14,0 L14,29 L0,29 Z " fill="#215685" transform="translate(84,246)"/>
<path d="M0,0 L16,0 L16,14 L31,14 L31,15 L16,15 L16,58 L44,58 L44,59 L15,59 L15,15 L2,15 L1,14 Z " fill="#CEA653" transform="translate(379,217)"/>
<path d="M0,0 L1,0 L1,46 L-14,46 L-14,30 L0,30 Z " fill="#1F4F7B" transform="translate(206,275)"/>
<path d="M0,0 L16,0 L16,74 L15,74 L15,13 L0,13 Z " fill="#CDA840" transform="translate(364,231)"/>
<path d="M0,0 L15,0 L15,17 L0,17 Z " fill="#386277" transform="translate(68,275)"/>
<path d="M0,0 L1,0 L1,31 L-14,31 L-14,16 L0,16 Z " fill="#E1AB32" transform="translate(364,305)"/>
<path d="M0,0 L14,0 L14,14 L31,15 L31,16 L0,16 Z " fill="#D39933" transform="translate(222,367)"/>
<path d="M0,0 L14,0 L14,14 L29,14 L29,15 L14,15 L14,30 L13,30 L13,15 L0,15 Z " fill="#255080" transform="translate(409,321)"/>
<path d="M0,0 L16,0 L16,15 L1,15 L0,14 Z " fill="#0D2028" transform="translate(67,399)"/>
<path d="M0,0 L12,0 L12,61 L11,61 L11,19 L6,21 L3,16 L2,12 L5,9 L6,6 L2,8 L1,14 L0,14 Z M4,18 Z " fill="#4492B0" transform="translate(382,106)"/>
<path d="M0,0 L15,0 L15,15 L0,15 Z " fill="#1D5384" transform="translate(98,291)"/>
<path d="M0,0 L15,0 L15,15 L0,15 Z " fill="#1C4F7F" transform="translate(130,260)"/>
<path d="M0,0 L15,0 L15,15 L0,15 Z " fill="#E1B034" transform="translate(250,260)"/>
<path d="M0,0 L15,0 L15,15 L0,15 Z " fill="#1D5181" transform="translate(114,245)"/>
<path d="M0,0 L15,0 L15,15 L0,15 Z " fill="#0D2441" transform="translate(318,152)"/>
<path d="M0,0 L14,0 L14,15 L0,15 Z " fill="#1B709B" transform="translate(365,399)"/>
<path d="M0,0 L14,0 L14,15 L0,15 Z " fill="#0A1F3B" transform="translate(273,152)"/>
<path d="M0,0 L15,0 L15,14 L0,14 Z " fill="#E9F1D7" transform="translate(365,106)"/>
<path d="M0,0 L14,0 L14,15 L0,15 Z " fill="#182736" transform="translate(304,90)"/>
<path d="M0,0 L14,0 L14,15 L0,15 Z " fill="#142C43" transform="translate(221,91)"/>
<path d="M0,0 L14,0 L14,15 L0,15 Z " fill="#132A40" transform="translate(145,91)"/>
<path d="M0,0 L14,0 L14,14 L0,14 Z " fill="#162735" transform="translate(380,91)"/>
<path d="M0,0 L15,0 L15,13 L0,13 Z " fill="#DBEAD7" transform="translate(192,107)"/>
<path d="M0,0 L13,0 L13,14 L0,14 Z " fill="#4795B3" transform="translate(425,384)"/>
<path d="M0,0 L12,0 L12,14 L0,14 Z " fill="#1D75A0" transform="translate(439,399)"/>
<path d="M0,0 L15,0 L15,15 L29,15 L29,16 L15,16 L15,77 L14,77 L14,16 L2,16 L2,30 L1,30 L1,16 L-15,16 L-14,14 L0,14 L14,15 L14,1 L0,1 Z " fill="#4A768E" transform="translate(380,90)"/>
<path d="M0,0 L9,0 L9,16 L0,16 Z " fill="#225987" transform="translate(235,398)"/>
<path d="M0,0 L1,0 L1,15 L76,15 L76,16 L1,16 L1,31 L0,31 L0,16 L-14,16 L-14,15 L0,15 Z " fill="#456B7E" transform="translate(159,75)"/>
<path d="M0,0 L1,3 L-1,3 L-1,5 L3,6 L3,9 L1,9 L1,7 L-1,7 L-2,10 L-3,70 L-4,70 L-4,10 L-19,10 L-19,9 L-4,9 L-5,4 Z " fill="#3A6C82" transform="translate(149,282)"/>
<path d="M0,0 L1,0 L1,14 L16,14 L16,15 L1,15 L1,58 L29,58 L29,59 L0,59 L0,15 L-13,15 L-13,14 L0,14 Z " fill="#7E7B73" transform="translate(394,217)"/>
<path d="M0,0 L1,0 L1,31 L-2,30 L-2,17 L-14,17 L-14,16 L0,16 Z " fill="#C2A243" transform="translate(364,305)"/>
<path d="M0,0 L2,1 L17,2 L17,4 L0,4 Z " fill="#C8CBBE" transform="translate(66,412)"/>
</svg>
