<?xml version="1.0" encoding="UTF-8"?>
<!-- Generator: https://ezgif.com/png-to-svg -->
<svg version="1.1" xmlns="http://www.w3.org/2000/svg" width="512" height="512">
<path d="M0,0 L512,0 L512,512 L0,512 Z " fill="#F9EDCE" transform="translate(0,0)"/>
<path d="M0,0 L70,0 L70,17 L87,17 L87,34 L141,34 L141,17 L157,17 L157,0 L228,0 L228,17 L244,17 L244,87 L278,87 L278,143 L261,143 L261,158 L244,158 L244,210 L261,210 L261,227 L277,227 L277,294 L261,294 L261,312 L309,312 L309,347 L175,347 L175,331 L106,332 L106,363 L-68,363 L-68,350 L-84,350 L-84,332 L-101,332 L-101,301 L-119,301 L-119,210 L-101,210 L-101,190 L-84,190 L-84,156 L-67,156 L-67,121 L-50,121 L-50,86 L-33,86 L-33,69 L-16,69 L-16,17 L0,17 Z " fill="#195E29" transform="translate(159,75)"/>
<path d="M0,0 L71,0 L71,17 L87,17 L87,105 L103,105 L103,128 L-120,128 L-120,143 L86,143 L86,157 L70,157 L70,184 L54,184 L54,263 L53,278 L35,278 L35,297 L19,297 L19,313 L-86,313 L-86,281 L-85,225 L-101,225 L-101,244 L-122,244 L-120,264 L-118,271 L-102,272 L-102,300 L-103,313 L-104,313 L-105,305 L-106,303 L-108,303 L-109,305 L-111,301 L-114,302 L-116,305 L-120,304 L-121,300 L-119,298 L-121,297 L-121,295 L-121,290 L-122,299 L-123,299 L-124,288 L-127,281 L-130,279 L-139,278 L-139,246 L-138,225 L-155,225 L-155,149 L-151,141 L-142,132 L-130,123 L-117,117 L-103,113 L-91,107 L-87,104 L-133,104 L-142,109 L-150,115 L-155,119 L-155,86 L-62,86 L-62,69 L-86,69 L-86,35 L-70,35 L-70,51 L-36,51 L-27,57 L-16,66 L-12,71 L-3,83 L1,88 L2,17 L70,17 L70,1 L1,1 L1,17 L0,17 Z M-108,297 L-110,301 L-107,300 Z " fill="#77B132" transform="translate(316,75)"/>
<path d="M0,0 L207,0 L207,14 L191,14 L191,41 L175,41 L175,57 L158,57 L158,73 L141,73 L141,91 L78,91 L78,73 L59,73 L59,57 L38,57 L38,40 L21,40 L21,16 L0,16 Z " fill="#E7C148" transform="translate(195,218)"/>
<path d="M0,0 L21,0 L21,16 L40,16 L40,34 L103,34 L103,16 L120,16 L120,0 L137,0 L137,63 L136,78 L118,78 L118,97 L102,97 L102,113 L-3,113 L-3,81 L-2,44 Z " fill="#62CFA1" transform="translate(233,275)"/>
<path d="M0,0 L17,0 L17,86 L32,86 L32,120 L53,120 L104,121 L104,104 L86,104 L86,87 L191,87 L191,72 L208,72 L208,53 L225,53 L225,87 L208,87 L208,120 L191,120 L191,104 L120,104 L121,106 L121,137 L-52,137 L-52,123 L-68,123 L-68,106 L-35,106 L-35,121 L16,121 L16,88 L-18,88 L-18,70 L0,70 Z " fill="#061C1C" transform="translate(144,301)"/>
<path d="M0,0 L69,0 L69,16 L1,16 L1,88 L-4,83 L-13,72 L-17,66 L-30,55 L-37,51 L-71,50 L-71,34 L-87,34 L-87,68 L-63,68 L-63,85 L-140,85 L-140,33 L-89,33 L-89,18 L-88,17 L-71,17 L-71,33 L-17,33 L-17,16 L0,16 Z " fill="#0B2229" transform="translate(317,76)"/>
<path d="M0,0 L137,0 L137,18 L120,18 L120,34 L103,34 L103,52 L40,52 L40,34 L21,34 L21,18 L0,18 Z " fill="#ECD38D" transform="translate(233,257)"/>
<path d="M0,0 L34,0 L34,56 L17,56 L17,70 L0,70 L0,56 L-207,56 L-207,41 L16,41 L16,18 L0,18 Z " fill="#071C1D" transform="translate(403,162)"/>
<path d="M0,0 L19,0 L22,1 L22,17 L120,17 L120,35 L104,35 L104,51 L-1,51 L-1,19 Z " fill="#60CD9B" transform="translate(231,337)"/>
<path d="M0,0 L16,0 L16,52 L34,52 L34,68 L17,68 L17,104 L33,104 L33,136 L50,136 L50,121 L67,121 L67,136 L81,136 L81,103 L35,103 L35,102 L82,102 L82,137 L-52,137 L-52,121 L-122,121 L-122,120 L-51,120 L-51,136 L16,136 L16,120 L-16,120 L-16,68 L0,68 Z " fill="#62AA2D" transform="translate(386,285)"/>
<path d="M0,0 L207,0 L207,14 L190,14 L190,16 L0,16 Z " fill="#EBDB89" transform="translate(195,218)"/>
<path d="M0,0 L16,0 L16,67 L0,67 L1,85 L47,86 L47,119 L33,119 L33,104 L16,104 L16,119 L-1,119 L-1,87 L-17,87 L-17,51 L0,51 Z " fill="#041B1B" transform="translate(420,302)"/>
<path d="M0,0 L70,0 L70,13 L68,16 L62,17 L2,18 L1,69 L-15,69 L-15,87 L-33,87 L-33,121 L-50,121 L-50,86 L-33,86 L-33,69 L-16,69 L-16,17 L0,17 Z " fill="#081B1F" transform="translate(159,75)"/>
<path d="M0,0 L33,0 L51,1 L51,54 L0,54 L0,37 L16,37 L16,18 L0,18 Z " fill="#56A51E" transform="translate(93,300)"/>
<path d="M0,0 L33,0 L33,19 L17,19 L17,36 L34,36 L33,54 L16,54 L16,70 L-1,70 L-1,36 L-17,36 L-17,1 Z " fill="#1C762F" transform="translate(76,318)"/>
<path d="M0,0 L16,0 L16,26 L15,70 L-1,70 L-1,52 L-34,52 L-34,17 L0,17 Z " fill="#091C22" transform="translate(387,92)"/>
<path d="M0,0 L1,0 L2,12 L19,12 L19,13 L2,14 L1,29 L-50,29 L-50,81 L-66,81 L-67,64 L-67,13 L-66,12 L0,11 Z " fill="#094739" transform="translate(227,80)"/>
<path d="M0,0 L16,0 L16,56 L15,88 L-1,88 L-1,47 L-17,47 L-19,44 L-21,32 L-21,19 L0,19 Z " fill="#051B1B" transform="translate(215,300)"/>
<path d="M0,0 L68,0 L68,33 L18,33 L18,17 L0,17 Z " fill="#085A26" transform="translate(92,389)"/>
<path d="M0,0 L1,0 L1,16 L105,16 L105,32 L0,32 Z " fill="#12B190" transform="translate(230,356)"/>
<path d="M0,0 L97,0 L97,16 L0,16 Z " fill="#9EDBA1" transform="translate(254,338)"/>
<path d="M0,0 L1,0 L2,10 L8,10 L10,6 L15,5 L16,3 L16,54 L1,54 L1,70 L16,70 L16,71 L0,71 L-1,54 L-7,51 L-12,50 L-12,47 L-17,45 L-18,40 L-18,37 L-35,37 L-35,36 L-18,36 L-18,21 L0,21 Z " fill="#33802E" transform="translate(144,229)"/>
<path d="M0,0 L18,0 L18,36 L0,36 L0,51 L-17,51 L-17,34 L0,34 Z " fill="#074722" transform="translate(126,214)"/>
<path d="M0,0 L17,0 L17,54 L12,49 L3,38 L-1,32 L-14,21 L-21,17 L-21,16 L0,16 Z " fill="#0C5225" transform="translate(301,110)"/>
<path d="M0,0 L17,0 L17,34 L1,34 L1,52 L-16,53 L-16,35 L0,35 Z " fill="#04191A" transform="translate(75,231)"/>
<path d="M0,0 L34,0 L34,33 L18,33 L18,17 L0,17 Z " fill="#6FAE23" transform="translate(92,389)"/>
<path d="M0,0 L49,0 L49,16 L-1,16 L-1,6 Z " fill="#60AD2E" transform="translate(179,93)"/>
<path d="M0,0 L15,0 L15,52 L0,52 Z " fill="#041A1B" transform="translate(370,301)"/>
<path d="M0,0 L16,0 L16,94 L15,94 L15,42 L0,42 Z " fill="#136E30" transform="translate(370,259)"/>
<path d="M0,0 L9,0 L14,4 L17,10 L17,18 L15,26 L9,31 L-2,31 L-8,24 L-9,20 L-9,12 L-5,4 Z " fill="#095E28" transform="translate(181,249)"/>
<path d="M0,0 L16,0 L16,17 L34,17 L34,34 L-17,34 L-17,33 L-1,33 L-1,17 L15,17 L15,1 L0,1 Z " fill="#116A2D" transform="translate(214,388)"/>
<path d="M0,0 L17,0 L17,36 L0,36 Z " fill="#3F8233" transform="translate(335,144)"/>
<path d="M0,0 L16,0 L16,35 L0,35 Z " fill="#051A1B" transform="translate(93,196)"/>
<path d="M0,0 L47,0 L47,35 L-87,35 L-87,19 L-157,19 L-157,18 L-86,18 L-86,34 L15,34 L15,19 L32,19 L32,34 L46,34 L46,1 L0,1 Z " fill="#727D64" transform="translate(421,387)"/>
<path d="M0,0 L20,0 L20,28 L4,28 L2,25 L0,13 Z " fill="#0E6B2C" transform="translate(194,319)"/>
<path d="M0,0 L17,0 L17,30 L0,30 Z " fill="#041919" transform="translate(58,376)"/>
<path d="M0,0 L71,0 L71,18 L19,18 L19,35 L2,35 L2,17 L70,17 L70,1 L1,1 L1,17 L0,17 Z " fill="#5C8259" transform="translate(316,75)"/>
<path d="M0,0 L25,0 L25,17 L0,17 Z " fill="#095228" transform="translate(229,144)"/>
<path d="M0,0 L23,0 L23,18 L0,18 Z " fill="#9BDAA1" transform="translate(231,319)"/>
<path d="M0,0 L1,0 L2,12 L19,12 L19,13 L1,14 L-48,13 L-49,29 L-66,29 L-66,12 L0,11 Z " fill="#3A8840" transform="translate(227,80)"/>
<path d="M0,0 L18,0 L18,1 L1,1 L1,37 L-16,37 L-16,19 L-1,19 Z " fill="#36792D" transform="translate(402,352)"/>
<path d="M0,0 L21,0 L21,16 L0,16 Z " fill="#CAC663" transform="translate(195,218)"/>
<path d="M0,0 L16,0 L16,54 L15,54 L14,21 L9,18 L0,16 Z " fill="#357C38" transform="translate(302,110)"/>
<path d="M0,0 L17,0 L17,19 L0,18 Z " fill="#9FDCA4" transform="translate(352,319)"/>
<path d="M0,0 L18,0 L18,17 L0,17 Z " fill="#075626" transform="translate(126,283)"/>
<path d="M0,0 L17,0 L17,18 L0,18 Z " fill="#0B272A" transform="translate(285,162)"/>
<path d="M0,0 L17,0 L17,17 L-1,17 L-1,1 Z " fill="#081A21" transform="translate(229,93)"/>
<path d="M0,0 L17,0 L17,17 L0,17 Z " fill="#061C1B" transform="translate(403,285)"/>
<path d="M0,0 L17,0 L17,17 L0,17 Z " fill="#0B272B" transform="translate(335,163)"/>
<path d="M0,0 L18,0 L18,16 L0,16 Z " fill="#5FA82C" transform="translate(230,405)"/>
<path d="M0,0 L18,0 L18,16 L0,16 Z " fill="#0F3447" transform="translate(369,109)"/>
<path d="M0,0 L18,0 L18,16 L0,16 Z " fill="#C7F2BF" transform="translate(369,93)"/>
<path d="M0,0 L31,0 L31,1 L17,1 L17,16 L0,16 Z " fill="#096424" transform="translate(419,405)"/>
<path d="M0,0 L15,0 L15,18 L0,18 Z " fill="#23C19A" transform="translate(336,354)"/>
<path d="M0,0 L10,0 L17,1 L17,16 L0,16 Z " fill="#71AF30" transform="translate(93,337)"/>
<path d="M0,0 L16,0 L16,16 L0,16 Z " fill="#C5F1BC" transform="translate(212,93)"/>
<path d="M0,0 L17,0 L17,15 L0,15 Z " fill="#5EAE15" transform="translate(436,406)"/>
<path d="M0,0 L17,0 L17,15 L0,15 Z " fill="#04181A" transform="translate(385,406)"/>
<path d="M0,0 L17,0 L17,15 L0,15 Z " fill="#74B323" transform="translate(143,406)"/>
<path d="M0,0 L14,0 L14,14 L0,14 Z " fill="#438B45" transform="translate(320,95)"/>
<path d="M0,0 L1,0 L2,12 L19,12 L19,13 L1,14 L-66,13 L-66,12 L0,11 Z " fill="#326A38" transform="translate(227,80)"/>
<path d="M0,0 L1,0 L1,14 L18,14 L18,15 L1,15 L1,84 L0,84 L0,15 L-5,15 L-5,14 L0,14 Z " fill="#3E493C" transform="translate(402,218)"/>
<path d="M0,0 L1,0 L2,12 L19,12 L19,13 L1,14 L-7,13 L-6,11 L0,11 Z " fill="#2E3A36" transform="translate(227,80)"/>
</svg>
