<?xml version="1.0" encoding="UTF-8"?>
<!-- Generator: https://ezgif.com/png-to-svg -->
<svg version="1.1" xmlns="http://www.w3.org/2000/svg" width="512" height="512">
<path d="M0,0 L512,0 L512,512 L0,512 Z " fill="#FEF1CE" transform="translate(0,0)"/>
<path d="M0,0 L68,0 L68,15 L36,16 L15,16 L16,31 L52,31 L52,40 L51,49 L67,49 L67,32 L68,16 L84,16 L85,17 L85,31 L148,31 L148,15 L164,15 L164,0 L230,0 L230,15 L229,17 L247,17 L247,82 L262,82 L262,97 L278,97 L278,147 L262,147 L262,163 L246,163 L246,212 L262,212 L262,277 L246,277 L246,309 L308,309 L308,357 L180,357 L180,326 L101,326 L101,357 L-81,357 L-81,326 L-97,326 L-97,311 L-113,311 L-113,229 L-97,229 L-97,210 L-81,210 L-81,180 L-80,179 L-64,179 L-64,145 L-48,145 L-48,111 L-32,110 L-31,68 L-16,68 L-16,16 L-15,15 L0,15 Z " fill="#F6C52A" transform="translate(156,74)"/>
<path d="M0,0 L68,0 L68,15 L36,16 L15,16 L16,31 L52,31 L52,40 L51,49 L67,49 L67,32 L68,16 L84,16 L85,17 L85,31 L148,31 L148,15 L164,15 L164,0 L230,0 L230,15 L229,17 L247,17 L247,82 L262,82 L262,97 L278,97 L278,147 L262,147 L262,132 L33,132 L33,116 L39,114 L40,111 L34,107 L35,102 L39,99 L50,98 L54,96 L53,92 L57,93 L57,90 L66,88 L68,84 L27,85 L25,86 L25,83 L17,82 L16,105 L16,116 L14,120 L15,133 L15,146 L51,146 L51,162 L20,164 L3,164 L-1,174 L-5,180 L-12,186 L-19,189 L-27,189 L-34,182 L-34,171 L-30,162 L-26,156 L-19,150 L-17,149 L-18,148 L-47,146 L-47,180 L-64,180 L-64,145 L-48,145 L-48,111 L-32,110 L-31,68 L-16,68 L-16,16 L-15,15 L0,15 Z M68,83 Z " fill="#F4C42B" transform="translate(156,74)"/>
<path d="M0,0 L31,0 L31,16 L15,16 L15,65 L31,65 L31,130 L15,130 L15,162 L77,162 L77,210 L-51,210 L-51,179 L-130,179 L-130,210 L-312,210 L-312,179 L-328,179 L-328,164 L-344,164 L-344,82 L-328,82 L-328,63 L-312,63 L-312,33 L-296,33 L-296,81 L-327,81 L-326,135 L-316,135 L-318,122 L-317,110 L-312,103 L-307,100 L-297,100 L-293,102 L-293,111 L-295,132 L-282,132 L-278,134 L-288,135 L-288,138 L-286,138 L-287,143 L-292,146 L-290,148 L-290,157 L-292,161 L-294,162 L-304,163 L-304,166 L-307,167 L-305,175 L-306,178 L-311,179 L-296,179 L-296,195 L-262,195 L-263,178 L-278,178 L-278,149 L-274,146 L-270,145 L-247,145 L-247,112 L-253,115 L-259,116 L-267,116 L-275,112 L-280,106 L-280,85 L-276,81 L-230,81 L-231,178 L-246,178 L-246,194 L-230,194 L-230,179 L-214,179 L-214,194 L-176,194 L-176,179 L-180,179 L-180,65 L-163,66 L-163,112 L-164,163 L-157,162 L-51,162 L-51,146 L-34,146 L-34,114 L-17,114 L-17,49 L-1,49 L-1,16 L0,15 Z " fill="#05171F" transform="translate(387,221)"/>
<path d="M0,0 L146,0 L146,14 L129,15 L129,48 L145,48 L145,81 L128,81 L128,113 L111,113 L111,129 L-2,130 L-2,79 L-1,14 Z " fill="#F4D668" transform="translate(225,254)"/>
<path d="M0,0 L68,0 L68,15 L36,16 L15,16 L16,31 L52,31 L52,40 L51,49 L67,49 L67,32 L68,16 L84,16 L85,17 L85,31 L148,31 L148,15 L164,15 L164,0 L230,0 L230,15 L229,16 L165,16 L166,43 L180,52 L180,66 L174,66 L158,54 L151,50 L127,50 L136,56 L136,66 L119,67 L107,59 L93,49 L84,48 L84,33 L68,33 L68,58 L67,81 L16,81 L16,116 L14,120 L15,133 L15,146 L51,146 L51,162 L20,164 L3,164 L-1,174 L-5,180 L-12,186 L-19,189 L-27,189 L-34,182 L-34,171 L-30,162 L-26,156 L-19,150 L-17,149 L-18,148 L-47,146 L-47,180 L-64,180 L-64,145 L-48,145 L-48,111 L-32,110 L-31,68 L-16,68 L-16,16 L-15,15 L0,15 Z " fill="#DD8D16" transform="translate(156,74)"/>
<path d="M0,0 L31,0 L31,16 L15,16 L15,65 L31,65 L31,130 L15,130 L15,162 L77,162 L77,163 L15,163 L15,179 L30,179 L30,195 L-2,195 L-2,178 L-17,178 L-17,195 L-34,195 L-34,114 L-17,114 L-17,49 L-1,49 L-1,16 L0,15 Z " fill="#D6921E" transform="translate(387,221)"/>
<path d="M0,0 L15,0 L29,1 L31,3 L22,10 L16,19 L14,25 L14,36 L20,42 L28,42 L38,37 L44,30 L47,27 L48,51 L48,82 L2,83 L-1,86 L-1,107 L4,113 L11,116 L19,116 L27,114 L30,113 L31,106 L32,106 L32,144 L31,146 L8,147 L3,149 L0,150 L0,179 L15,179 L16,186 L16,196 L-18,196 L-18,180 L-33,180 L-33,164 L-32,164 L-32,179 L-28,179 L-29,168 L-27,167 L-28,162 L-25,163 L-16,162 L-14,161 L-13,158 L-13,149 L-15,146 L-10,144 L-8,139 L-10,139 L-10,136 L-13,135 L-4,134 L-17,133 L-17,118 L-16,112 L-16,103 L-19,102 L-29,102 L-34,104 L-36,108 L-38,111 L-39,125 L-38,132 L-38,136 L-49,137 L-49,82 L-18,82 L-18,34 L-33,34 L-33,33 L-17,33 L0,34 Z " fill="#E7A21C" transform="translate(109,220)"/>
<path d="M0,0 L1,0 L1,33 L-16,33 L-16,65 L-33,65 L-33,81 L-146,82 L-146,31 L-145,2 L-138,1 L-127,1 L-127,19 L-121,18 L-108,18 L-108,34 L-34,34 L-34,18 L-16,18 L-16,1 Z " fill="#A7C48E" transform="translate(369,302)"/>
<path d="M0,0 L66,0 L66,15 L65,16 L1,16 L2,43 L16,52 L16,66 L10,66 L-6,54 L-13,50 L-37,50 L-28,56 L-28,66 L-45,67 L-57,59 L-71,49 L-80,48 L-80,33 L-96,33 L-96,58 L-97,81 L-148,81 L-148,32 L-112,32 L-113,49 L-97,49 L-97,32 L-96,16 L-80,16 L-79,17 L-79,31 L-16,31 L-16,15 L0,15 Z " fill="#08171E" transform="translate(320,74)"/>
<path d="M0,0 L16,0 L16,48 L-15,48 L-14,102 L-4,102 L-6,89 L-5,77 L0,70 L5,67 L15,67 L19,69 L19,78 L17,99 L30,99 L34,101 L24,102 L24,105 L26,105 L25,110 L20,113 L22,115 L22,124 L20,128 L18,129 L8,130 L8,133 L5,134 L7,142 L6,145 L1,146 L-16,146 L-16,131 L-32,131 L-32,49 L-16,49 L-16,30 L0,30 Z " fill="#E49D1A" transform="translate(75,254)"/>
<path d="M0,0 L16,0 L16,49 L0,49 L0,34 L-229,34 L-229,20 L-46,20 L0,21 Z " fill="#05141C" transform="translate(418,172)"/>
<path d="M0,0 L15,0 L29,1 L31,3 L22,10 L16,19 L14,25 L14,36 L20,42 L28,42 L38,37 L44,30 L47,27 L48,51 L48,82 L2,83 L0,84 L-16,84 L-19,86 L-23,86 L-48,85 L-49,82 L-18,82 L-18,34 L-33,34 L-33,33 L-17,33 L0,34 Z " fill="#DF8D14" transform="translate(109,220)"/>
<path d="M0,0 L46,0 L45,97 L14,99 L14,97 L-2,97 L-2,68 L2,65 L6,64 L29,64 L29,31 L23,34 L17,35 L9,35 L1,31 L-4,25 L-4,4 Z " fill="#04151D" transform="translate(111,302)"/>
<path d="M0,0 L31,0 L31,16 L15,16 L15,65 L31,65 L31,130 L15,130 L15,66 L-1,66 L-1,107 L-2,114 L-17,114 L-17,49 L-1,49 L-1,16 L0,15 Z " fill="#091B21" transform="translate(387,221)"/>
<path d="M0,0 L1,3 L7,2 L19,2 L19,20 L28,19 L38,19 L38,34 L112,34 L112,18 L113,17 L130,17 L130,34 L113,34 L113,50 L0,51 Z " fill="#42AB89" transform="translate(223,333)"/>
<path d="M0,0 L17,0 L17,36 L16,66 L1,66 L1,48 L-1,48 L0,63 L-35,63 L-35,14 L-15,14 L-15,32 L0,32 Z " fill="#031723" transform="translate(386,91)"/>
<path d="M0,0 L1,0 L1,13 L15,13 L15,14 L1,15 L-1,63 L-52,63 L-52,14 L-16,14 L-17,31 L-1,31 L-1,14 Z " fill="#031726" transform="translate(224,92)"/>
<path d="M0,0 L68,0 L68,15 L36,16 L1,16 L1,68 L-15,68 L-15,15 L0,15 Z " fill="#07151D" transform="translate(156,74)"/>
<path d="M0,0 L15,0 L15,43 L0,44 L-1,78 L-16,78 L-16,112 L-33,112 L-33,77 L-17,77 L-17,43 L-1,42 Z " fill="#05151D" transform="translate(125,142)"/>
<path d="M0,0 L16,0 L16,81 L32,81 L32,97 L16,97 L16,82 L0,82 Z " fill="#05151C" transform="translate(43,303)"/>
<path d="M0,0 L2,4 L18,5 L18,20 L33,20 L33,36 L1,36 L1,19 L-14,19 L-14,36 L-31,36 L-31,6 L0,5 Z " fill="#EFAF1F" transform="translate(384,380)"/>
<path d="M0,0 L31,0 L31,16 L15,16 L15,39 L14,65 L-1,65 L-2,58 L-2,50 L-16,50 L-16,113 L-3,113 L-3,66 L-2,66 L-2,114 L-17,114 L-17,49 L-1,49 L-1,16 L0,15 Z " fill="#02131D" transform="translate(387,221)"/>
<path d="M0,0 L17,0 L18,11 L32,20 L32,34 L26,34 L10,22 L3,18 L-21,18 L-12,24 L-12,34 L-29,35 L-41,27 L-55,17 L-55,16 L0,16 Z " fill="#1D6982" transform="translate(304,106)"/>
<path d="M0,0 L8,0 L13,5 L13,23 L10,30 L3,38 L-7,43 L-15,43 L-22,36 L-22,25 L-18,16 L-14,10 L-7,4 Z " fill="#044A67" transform="translate(144,220)"/>
<path d="M0,0 L31,0 L31,2 L32,2 L32,17 L31,34 L15,34 L15,25 L16,16 L-20,16 L-21,12 L-21,1 Z " fill="#F3D241" transform="translate(192,89)"/>
<path d="M0,0 L16,0 L16,48 L-16,49 L-16,30 L0,30 Z " fill="#09171E" transform="translate(75,254)"/>
<path d="M0,0 L30,0 L30,30 L24,33 L18,34 L10,34 L2,30 L-3,24 L-3,3 Z " fill="#024A68" transform="translate(110,303)"/>
<path d="M0,0 L16,0 L16,64 L0,64 Z " fill="#E69D18" transform="translate(386,287)"/>
<path d="M0,0 L1,0 L1,54 L23,54 L22,59 L20,59 L22,66 L25,63 L34,63 L38,66 L38,75 L36,79 L34,80 L24,81 L24,84 L21,85 L23,93 L22,96 L16,97 L16,81 L0,81 Z " fill="#D78C16" transform="translate(59,303)"/>
<path d="M0,0 L51,0 L51,32 L36,32 L36,14 L2,14 L0,4 Z " fill="#FAD643" transform="translate(335,91)"/>
<path d="M0,0 L16,0 L31,1 L31,2 L16,2 L17,3 L23,3 L23,4 L18,4 L19,5 L27,5 L29,4 L30,8 L32,8 L32,12 L38,14 L41,17 L43,20 L43,27 L42,28 L36,28 L28,23 L28,31 L30,31 L30,39 L31,49 L34,49 L33,51 L17,51 L14,53 L10,53 L-15,52 L-16,49 L15,49 L15,1 L0,1 Z " fill="#D28617" transform="translate(76,253)"/>
<path d="M0,0 L12,0 L19,8 L19,20 L16,28 L11,33 L6,35 L2,35 L-3,28 L-5,22 L-5,7 L-2,1 Z " fill="#197086" transform="translate(171,257)"/>
<path d="M0,0 L9,0 L12,3 L13,5 L13,16 L7,27 L2,30 L-9,30 L-13,25 L-14,16 L-7,6 Z " fill="#064A67" transform="translate(159,174)"/>
<path d="M0,0 L14,0 L13,34 L-3,34 L-3,1 Z " fill="#F6CB33" transform="translate(357,268)"/>
<path d="M0,0 L16,0 L17,6 L17,31 L0,31 Z " fill="#05161D" transform="translate(353,335)"/>
<path d="M0,0 L31,0 L31,16 L15,17 L-1,17 L0,15 Z " fill="#D99217" transform="translate(387,221)"/>
<path d="M0,0 L15,0 L15,32 L0,32 Z " fill="#02141D" transform="translate(386,352)"/>
<path d="M0,0 L183,0 L183,1 L45,2 L2,2 L2,13 L229,13 L229,14 L0,14 Z " fill="#463F22" transform="translate(189,192)"/>
<path d="M0,0 L1,0 L1,31 L-15,31 L-15,1 Z " fill="#F8D33A" transform="translate(401,320)"/>
<path d="M0,0 L14,0 L14,32 L-2,32 Z " fill="#DF9B19" transform="translate(372,238)"/>
<path d="M0,0 L1,0 L2,38 L-20,38 L-22,33 L-21,19 L-17,20 L-6,18 L-6,20 L-2,17 L-1,13 L-4,13 L-4,11 L-1,11 L-1,2 Z " fill="#F8D242" transform="translate(205,363)"/>
<path d="M0,0 L10,0 L14,2 L14,11 L9,21 L4,25 L-4,25 L-9,19 L-9,9 L-5,3 Z " fill="#054967" transform="translate(80,321)"/>
<path d="M0,0 L23,0 L23,15 L-8,15 L-8,4 L-4,1 Z " fill="#034764" transform="translate(117,366)"/>
<path d="M0,0 L8,0 L13,4 L15,7 L15,13 L11,17 L5,19 L-7,19 L-12,15 L-12,9 L-7,4 Z " fill="#207286" transform="translate(244,224)"/>
<path d="M0,0 L1,0 L1,42 L3,42 L4,39 L5,45 L3,55 L2,55 L1,106 L-15,106 L-15,90 L0,90 Z " fill="#EDA91B" transform="translate(156,309)"/>
<path d="M0,0 L18,0 L18,19 L4,19 L1,18 L1,52 L0,52 Z " fill="#C46E0C" transform="translate(206,268)"/>
<path d="M0,0 L7,1 L10,4 L10,15 L7,22 L2,27 L-4,27 L-7,23 L-7,9 L-3,3 Z " fill="#186F86" transform="translate(177,317)"/>
<path d="M0,0 Z M-1,1 Z M-3,-14 L13,-14 L13,7 L-33,7 L-187,6 L-187,5 L-8,4 L-5,5 L-5,2 L-2,1 L0,3 L1,5 L10,4 L10,-5 L11,-11 L9,-11 L6,-8 L6,-12 L-1,-10 L-6,-8 L-7,-12 Z " fill="#F9D631" transform="translate(405,186)"/>
<path d="M0,0 L5,0 L6,4 L0,11 L-10,17 L-15,19 L-25,19 L-29,16 L-28,11 L-24,8 L-13,7 L-3,1 Z " fill="#17657C" transform="translate(219,165)"/>
<path d="M0,0 L16,0 L17,1 L17,15 L80,15 L80,16 L17,16 L17,30 L16,30 L16,17 L1,17 Z " fill="#011B2E" transform="translate(224,90)"/>
<path d="M0,0 L1,0 L1,8 L3,8 L3,10 L6,11 L18,12 L17,31 L10,30 L4,26 L0,21 Z " fill="#197086" transform="translate(107,306)"/>
<path d="M0,0 L17,0 L17,17 L0,17 Z " fill="#27A099" transform="translate(336,350)"/>
<path d="M0,0 L15,0 L15,18 L-1,18 L-1,9 Z " fill="#F5ECCF" transform="translate(208,105)"/>
<path d="M0,0 L16,0 L17,6 L17,16 L7,16 L0,15 Z " fill="#F2BD28" transform="translate(108,400)"/>
<path d="M0,0 L16,1 L17,4 L17,14 L32,15 L32,16 L0,16 Z " fill="#D8820F" transform="translate(385,400)"/>
<path d="M0,0 L15,0 L15,17 L0,17 Z " fill="#015474" transform="translate(370,399)"/>
<path d="M0,0 L25,0 L25,15 L-6,15 L-6,14 L10,14 L9,1 L0,1 Z " fill="#E29617" transform="translate(392,400)"/>
<path d="M0,0 L14,0 L14,18 L0,18 Z " fill="#FCF2D4" transform="translate(371,104)"/>
<path d="M0,0 L6,0 L10,5 L9,14 L5,18 L-2,18 L-7,13 L-7,5 L-2,1 Z " fill="#1B7288" transform="translate(175,361)"/>
<path d="M0,0 L9,0 L13,3 L13,12 L11,16 L9,17 L1,17 L-3,12 L-4,10 L-4,4 Z " fill="#074866" transform="translate(84,366)"/>
<path d="M0,0 L15,0 L15,16 L0,16 Z " fill="#03131B" transform="translate(403,221)"/>
<path d="M0,0 L16,0 L16,15 L0,15 Z " fill="#0C1E2F" transform="translate(278,157)"/>
<path d="M0,0 L15,0 L15,15 L0,15 Z " fill="#F6C327" transform="translate(225,400)"/>
<path d="M0,0 L12,0 L15,11 L15,16 L0,16 Z " fill="#BC6006" transform="translate(92,286)"/>
<path d="M0,0 L15,0 L14,15 L0,15 Z " fill="#021827" transform="translate(333,156)"/>
<path d="M0,0 L14,0 L14,15 L0,15 Z " fill="#E39816" transform="translate(433,400)"/>
<path d="M0,0 L14,0 L14,15 L0,15 Z " fill="#02141D" transform="translate(403,157)"/>
<path d="M0,0 L13,0 L13,15 L-2,15 L0,14 Z " fill="#E39B19" transform="translate(405,206)"/>
<path d="M0,0 L50,0 L50,32 L35,32 L35,31 L49,31 L48,13 L46,11 L46,2 L37,4 L0,2 Z " fill="#DCC45B" transform="translate(336,91)"/>
<path d="M0,0 L12,0 L12,15 L0,15 Z " fill="#0F768B" transform="translate(212,400)"/>
<path d="M0,0 L16,0 L17,1 L17,15 L80,15 L80,16 L17,16 L17,30 L16,30 L16,17 L1,17 L1,16 L15,16 L15,2 L0,2 Z " fill="#5B5B56" transform="translate(224,90)"/>
<path d="M0,0 L17,0 L17,1 L1,1 L2,17 L-43,19 L-44,22 L-51,20 L-55,16 L0,16 Z " fill="#2E5D63" transform="translate(304,106)"/>
<path d="M0,0 L1,0 L1,42 L3,42 L4,39 L5,45 L3,55 L2,55 L1,91 L-15,91 L-15,90 L0,90 Z " fill="#9C8A37" transform="translate(156,309)"/>
<path d="M0,0 L5,2 L8,7 L8,14 L7,15 L1,15 L-2,11 L-2,2 Z " fill="#0A4664" transform="translate(111,266)"/>
<path d="M0,0 L7,0 L8,2 L7,11 L2,10 L1,15 L32,15 L32,16 L0,16 Z " fill="#B37219" transform="translate(385,400)"/>
<path d="M0,0 L11,0 L11,1 L1,1 L2,14 L3,6 L4,6 L6,23 L3,23 L2,27 L0,27 Z " fill="#D4B031" transform="translate(321,90)"/>
<path d="M0,0 L3,0 L2,5 L-1,5 L-1,21 L-2,21 L-2,5 L-17,5 L-17,2 L-8,2 L-8,3 L-2,4 Z " fill="#B87B1B" transform="translate(77,379)"/>
<path d="M0,0 L1,0 L1,8 L3,8 L3,10 L6,11 L18,12 L18,18 L17,18 L17,13 L2,13 L2,22 L0,21 Z " fill="#055A7A" transform="translate(107,306)"/>
<path d="M0,0 L15,0 L14,15 L0,15 L0,14 L13,14 L13,2 L0,2 Z " fill="#29272A" transform="translate(333,156)"/>
<path d="M0,0 L8,0 L8,6 L7,7 L2,7 L-1,3 Z " fill="#115E7B" transform="translate(390,173)"/>
<path d="M0,0 L1,0 L2,27 L5,31 L4,33 L6,34 L1,34 L0,30 Z " fill="#B47117" transform="translate(124,186)"/>
<path d="M0,0 L1,0 L1,16 L-16,16 L-16,15 L-1,14 Z " fill="#C49626" transform="translate(369,400)"/>
<path d="M0,0 L32,0 L32,1 L10,2 L2,3 Z " fill="#205769" transform="translate(249,122)"/>
<path d="M0,0 L15,0 L14,3 L2,3 L2,9 L1,9 L1,2 Z " fill="#295D64" transform="translate(370,399)"/>
<path d="M0,0 L1,0 L1,8 L-5,8 L-3,3 Z " fill="#F1DF7A" transform="translate(368,327)"/>
<path d="M0,0 L1,0 L1,8 L3,8 L3,10 L6,12 L1,12 L1,21 L0,21 Z " fill="#436260" transform="translate(107,306)"/>
<path d="M0,0 L1,0 L2,6 L4,10 L2,13 L-1,13 Z " fill="#C6B140" transform="translate(190,266)"/>
<path d="M0,0 L16,0 L16,1 L4,1 L4,3 L0,2 Z " fill="#AEA950" transform="translate(276,140)"/>
<path d="M0,0 L12,0 L13,3 L9,3 L9,1 L0,1 Z " fill="#BF7B17" transform="translate(125,185)"/>
<path d="M0,0 L6,0 L7,2 L5,5 Z " fill="#DDBD4E" transform="translate(282,123)"/>
<path d="M0,0 L1,2 L7,2 L7,3 L-3,4 L-2,1 Z " fill="#CEB53B" transform="translate(390,170)"/>
</svg>
