<?xml version="1.0" encoding="UTF-8"?>
<!-- Generator: https://ezgif.com/png-to-svg -->
<svg version="1.1" xmlns="http://www.w3.org/2000/svg" width="512" height="512">
<path d="M0,0 L512,0 L512,512 L0,512 Z " fill="#FEF7DE" transform="translate(0,0)"/>
<path d="M0,0 L30,0 L30,17 L47,17 L48,36 L100,36 L100,17 L115,17 L115,0 L184,0 L184,17 L201,17 L202,72 L220,73 L220,142 L202,142 L202,159 L185,159 L185,141 L-4,141 L-4,160 L12,160 L12,197 L30,197 L30,237 L29,313 L65,313 L65,317 L132,317 L132,299 L151,299 L151,237 L168,237 L168,160 L185,160 L185,196 L202,196 L202,236 L212,236 L220,237 L220,260 L219,313 L237,312 L237,350 L162,351 L132,351 L132,334 L65,334 L65,351 L-128,350 L-128,298 L-146,298 L-146,246 L-145,223 L-128,223 L-128,190 L-110,190 L-110,153 L-93,152 L-92,107 L-76,106 L-75,72 L-58,72 L-58,18 L-40,18 L-40,1 Z " fill="#D83B1D" transform="translate(202,74)"/>
<path d="M0,0 L189,0 L189,18 L206,18 L206,19 L172,19 L172,96 L155,96 L155,158 L136,158 L136,176 L69,176 L69,172 L33,172 L33,96 L34,56 L16,56 L16,19 L0,19 Z " fill="#6EDD8D" transform="translate(198,215)"/>
<path d="M0,0 L17,0 L17,36 L34,36 L34,76 L44,76 L52,77 L52,100 L51,153 L69,152 L69,190 L-6,191 L-36,191 L-36,174 L-103,174 L-103,191 L-296,190 L-296,138 L-314,138 L-314,86 L-313,63 L-296,63 L-296,137 L-279,137 L-279,173 L-242,172 L-226,172 L-226,155 L-260,155 L-260,138 L-226,138 L-226,64 L-209,64 L-209,137 L-191,137 L-191,172 L-121,172 L-121,154 L-156,154 L-156,77 L-139,77 L-139,153 L-103,153 L-103,157 L-36,157 L-36,139 L-17,139 L-17,77 L0,77 Z " fill="#1B1B13" transform="translate(370,234)"/>
<path d="M0,0 L30,0 L30,17 L47,17 L48,36 L100,36 L100,17 L115,17 L115,0 L184,0 L185,17 L185,105 L168,105 L168,124 L-4,124 L-4,106 L-23,106 L-23,87 L12,86 L13,53 L-4,53 L-5,48 L-5,35 L-24,36 L-25,50 L-26,50 L-26,33 L-23,34 L-23,18 L-27,17 L-21,16 L29,16 L29,1 L0,1 Z " fill="#ED5229" transform="translate(202,74)"/>
<path d="M0,0 L17,0 L17,89 L13,90 L0,90 L1,123 L1,139 L17,140 L17,163 L9,170 L2,171 L0,205 L-70,205 L-70,172 L-52,172 L-52,135 L-35,134 L-34,89 L-18,88 L-17,54 L0,54 Z " fill="#B82111" transform="translate(144,92)"/>
<path d="M0,0 L104,0 L105,32 L123,33 L123,58 L104,58 L104,74 L87,74 L87,1 L70,1 L70,75 L36,75 L36,92 L70,92 L70,109 L54,110 L17,110 L17,74 L0,74 Z " fill="#BA2714" transform="translate(74,297)"/>
<path d="M0,0 L17,0 L17,36 L34,36 L34,76 L44,76 L44,77 L34,77 L34,154 L51,154 L51,173 L-16,173 L-17,163 L-17,77 L0,77 Z " fill="#D53C1D" transform="translate(370,234)"/>
<path d="M0,0 L18,0 L18,69 L0,69 L0,86 L-17,86 L-17,68 L-206,68 L-206,52 L1,52 L0,44 Z " fill="#191811" transform="translate(404,147)"/>
<path d="M0,0 L18,0 L18,46 L35,46 L35,63 L102,62 L102,52 L103,46 L121,46 L121,63 L102,63 L102,81 L35,81 L35,77 L-1,77 L-1,1 Z " fill="#51CA78" transform="translate(232,310)"/>
<path d="M0,0 L189,0 L189,18 L118,19 L0,19 Z " fill="#47C570" transform="translate(198,215)"/>
<path d="M0,0 L69,0 L69,16 L1,16 L1,52 L-11,53 L-84,53 L-84,18 L-68,18 L-67,36 L-15,36 L-15,17 L0,17 Z " fill="#1A1912" transform="translate(317,74)"/>
<path d="M0,0 L17,0 L17,36 L34,36 L34,76 L17,76 L17,86 L15,87 L15,82 L13,82 L14,72 L11,72 L10,77 L5,78 L5,88 L3,90 L3,76 L1,76 L1,123 L0,137 L-17,137 L-17,77 L0,77 Z " fill="#C6361A" transform="translate(370,234)"/>
<path d="M0,0 L17,0 L17,37 L1,38 L0,53 L52,53 L52,70 L-18,70 L-18,37 L0,37 Z " fill="#191A12" transform="translate(92,227)"/>
<path d="M0,0 L18,0 L18,34 L35,34 L35,53 L-32,53 L-33,43 L-33,17 L-16,17 L-16,3 L-15,3 L-15,52 L0,52 Z " fill="#C92B15" transform="translate(386,354)"/>
<path d="M0,0 L16,0 L17,55 L17,107 L4,107 L4,106 L16,106 L15,105 L-1,105 L0,94 L-1,70 L-1,37 Z M1,93 Z " fill="#DA3C1D" transform="translate(387,91)"/>
<path d="M0,0 L19,0 L20,17 L35,18 L35,51 L16,52 L1,52 L1,70 L-14,69 L-14,53 L0,52 Z " fill="#181911" transform="translate(335,109)"/>
<path d="M0,0 L19,0 L20,18 L37,18 L37,51 L36,52 L0,52 Z " fill="#1B1912" transform="translate(178,109)"/>
<path d="M0,0 L30,0 L30,45 L29,45 L28,36 L15,36 L16,50 L14,49 L13,53 L-4,53 L-5,48 L-5,35 L-24,36 L-25,50 L-26,50 L-26,33 L-23,34 L-23,18 L-27,17 L-21,16 L29,16 L29,1 L0,1 Z " fill="#E85A2E" transform="translate(202,74)"/>
<path d="M0,0 L17,0 L17,35 L0,35 L0,62 L-1,80 L-17,80 L-17,35 L-1,34 Z " fill="#1B1A12" transform="translate(127,146)"/>
<path d="M0,0 L12,0 L12,20 L-21,20 L-54,19 L-54,1 Z " fill="#C72D14" transform="translate(306,126)"/>
<path d="M0,0 L50,0 L50,17 L36,17 L36,35 L20,35 L19,34 L19,17 L0,17 Z " fill="#F2592C" transform="translate(335,92)"/>
<path d="M0,0 L1,0 L1,47 L0,61 L-17,61 L-17,1 Z " fill="#1A1911" transform="translate(370,310)"/>
<path d="M0,0 L69,0 L69,15 L19,16 L0,16 Z " fill="#181710" transform="translate(162,75)"/>
<path d="M0,0 L16,0 L16,55 L0,55 Z " fill="#191A12" transform="translate(387,91)"/>
<path d="M0,0 L16,0 L16,53 L0,53 Z " fill="#191911" transform="translate(145,92)"/>
<path d="M0,0 L1,0 L1,42 L18,42 L19,74 L33,75 L33,76 L0,76 Z " fill="#3BB262" transform="translate(231,311)"/>
<path d="M0,0 L16,0 L16,40 L-1,40 L-1,1 Z " fill="#1C1A12" transform="translate(388,270)"/>
<path d="M0,0 L13,0 L17,1 L17,17 L15,17 L16,19 L16,38 L15,44 L14,44 L14,36 L0,36 L0,53 L-1,53 L-1,1 Z " fill="#E64725" transform="translate(162,91)"/>
<path d="M0,0 L18,0 L18,17 L-1,17 L-1,35 L-26,35 L-26,34 L-17,34 L-17,16 L-1,16 L-1,6 Z " fill="#39AD5E" transform="translate(335,356)"/>
<path d="M0,0 L35,1 L35,18 L19,19 L0,19 Z " fill="#D6341A" transform="translate(109,388)"/>
<path d="M0,0 L18,0 L18,34 L0,34 Z " fill="#961B10" transform="translate(386,354)"/>
<path d="M0,0 L17,0 L17,36 L0,36 Z " fill="#1A1B12" transform="translate(370,234)"/>
<path d="M0,0 L15,0 L15,17 L1,17 L1,35 L-15,35 L-16,34 L-16,17 L0,16 L0,6 L1,2 Z " fill="#EF6136" transform="translate(370,92)"/>
<path d="M0,0 L16,0 L16,23 L8,30 L4,31 L-4,24 L-6,21 L-6,12 L-2,3 Z " fill="#8D2616" transform="translate(145,232)"/>
<path d="M0,0 L4,0 L4,52 L195,52 L195,55 L4,55 L2,53 L2,1 Z " fill="#D0CEBD" transform="translate(70,372)"/>
<path d="M0,0 L19,0 L19,26 L0,26 Z " fill="#982916" transform="translate(179,254)"/>
<path d="M0,0 L1,0 L1,34 L-16,34 L-16,40 L-17,40 L-17,14 L0,14 Z " fill="#A11C0F" transform="translate(370,357)"/>
<path d="M0,0 L18,0 L18,18 L0,18 Z " fill="#952716" transform="translate(161,198)"/>
<path d="M0,0 L18,0 L18,17 L0,17 Z " fill="#3BB362" transform="translate(352,252)"/>
<path d="M0,0 L17,0 L17,18 L0,18 Z " fill="#F7F1EB" transform="translate(198,109)"/>
<path d="M0,0 L10,0 L10,17 L-8,17 L-8,1 Z " fill="#B83218" transform="translate(188,388)"/>
<path d="M0,0 L18,0 L18,16 L-1,16 L-1,6 Z " fill="#49C371" transform="translate(335,356)"/>
<path d="M0,0 L16,0 L16,17 L0,17 Z " fill="#FBF9F4" transform="translate(354,109)"/>
<path d="M0,0 L13,0 L13,16 L-1,16 L-1,1 Z " fill="#1A1810" transform="translate(273,162)"/>
<path d="M0,0 L1,0 L1,19 L-16,19 L-16,56 L-14,57 L-15,58 L-16,65 L-17,65 L-17,59 L-28,60 L-30,64 L-29,64 L-29,69 L-33,68 L-33,56 L-17,56 L-17,18 L0,18 Z M-32,65 Z M-19,64 L-17,66 L-18,70 L-16,71 L-20,71 Z " fill="#8D1F12" transform="translate(126,208)"/>
<path d="M0,0 L1,0 L2,17 L3,17 L3,49 L16,49 L19,51 L16,52 L1,52 L1,70 L-4,70 L0,69 L0,53 L-6,53 L-6,52 L0,52 Z " fill="#592918" transform="translate(335,109)"/>
<path d="M0,0 L1,0 L1,69 L0,69 L0,27 L-2,27 L-2,1 Z " fill="#3F3F35" transform="translate(421,147)"/>
<path d="M0,0 L3,0 L3,31 L0,31 Z " fill="#E1DFCE" transform="translate(403,91)"/>
<path d="M0,0 L1,0 L2,27 L3,31 L7,30 L18,30 L18,31 L0,33 Z " fill="#333229" transform="translate(74,264)"/>
</svg>
