<?xml version="1.0" encoding="UTF-8"?>
<!-- Generator: https://ezgif.com/png-to-svg -->
<svg version="1.1" xmlns="http://www.w3.org/2000/svg" width="512" height="512">
<path d="M0,0 L512,0 L512,512 L0,512 Z " fill="#FEF2CF" transform="translate(0,0)"/>
<path d="M0,0 L24,0 L65,1 L65,15 L80,15 L80,31 L142,31 L142,15 L156,15 L156,1 L221,1 L221,15 L237,15 L237,31 L252,31 L252,93 L268,93 L268,110 L283,110 L283,140 L268,140 L268,171 L253,171 L253,155 L34,155 L34,140 L19,140 L19,155 L18,171 L40,171 L50,172 L50,187 L65,187 L64,218 L80,218 L80,249 L95,249 L95,296 L111,296 L111,311 L173,311 L173,296 L189,296 L189,281 L205,281 L205,250 L221,249 L221,188 L222,187 L236,187 L236,171 L252,171 L252,201 L268,201 L269,225 L270,232 L272,229 L272,233 L284,233 L284,280 L283,281 L268,281 L268,296 L299,296 L299,327 L283,327 L283,342 L174,342 L174,327 L142,327 L143,358 L64,358 L64,343 L-60,343 L-60,328 L-76,328 L-76,313 L-91,313 L-92,312 L-92,281 L-107,281 L-107,188 L-92,188 L-92,155 L-76,155 L-76,125 L-61,125 L-61,93 L-50,93 L-45,94 L-45,77 L-30,77 L-30,31 L-15,31 L-15,15 L0,15 Z " fill="#134E18" transform="translate(160,76)"/>
<path d="M0,0 L65,0 L65,14 L81,14 L81,30 L96,30 L96,92 L112,92 L112,109 L127,109 L127,139 L112,139 L112,170 L97,170 L97,154 L-122,154 L-122,139 L-137,139 L-137,154 L-138,170 L-154,170 L-154,139 L-138,139 L-138,124 L-92,124 L-93,109 L-138,108 L-138,93 L-107,93 L-107,77 L-92,77 L-92,93 L-77,92 L-54,92 L-46,93 L-44,99 L-41,98 L-40,94 L-41,92 L-37,93 L-34,96 L-32,95 L-31,104 L-29,101 L-29,108 L-14,108 L-14,92 L-30,92 L-30,91 L-22,90 L-23,88 L-23,87 L-27,85 L-25,81 L-26,80 L-29,80 L-28,76 L-33,78 L-44,77 L-44,92 L-45,92 L-45,77 L-91,77 L-92,76 L-92,46 L-123,46 L-123,30 L-14,30 L-14,14 L0,14 Z " fill="#65C025" transform="translate(316,77)"/>
<path d="M0,0 L15,0 L15,15 L234,15 L234,31 L217,31 L217,47 L203,48 L202,109 L196,110 L186,110 L186,141 L170,141 L170,156 L154,156 L154,171 L92,171 L92,156 L76,156 L76,109 L61,109 L61,78 L45,78 L45,54 L46,47 L31,47 L31,32 L-1,31 L-1,15 Z " fill="#ECCF15" transform="translate(179,216)"/>
<path d="M0,0 L65,0 L65,14 L81,14 L81,30 L96,30 L96,92 L112,92 L112,109 L127,109 L127,139 L112,139 L112,170 L97,170 L97,154 L-122,154 L-122,139 L-137,138 L-137,137 L-123,136 L-123,138 L-109,137 L-107,135 L-101,136 L-101,132 L-99,132 L-98,128 L-95,127 L-93,130 L-94,135 L-95,137 L10,137 L11,133 L14,131 L15,128 L20,129 L21,127 L27,126 L30,127 L32,125 L37,126 L37,121 L32,123 L30,120 L33,117 L33,114 L31,114 L31,111 L18,112 L14,114 L14,118 L12,118 L11,121 L9,120 L11,114 L9,113 L10,112 L7,110 L10,107 L13,108 L14,106 L14,108 L16,108 L16,92 L17,91 L33,91 L33,78 L17,78 L17,32 L18,30 L50,30 L50,46 L65,46 L65,77 L81,77 L81,31 L65,31 L65,15 L22,15 L0,14 Z M-93,129 Z " fill="#63BC27" transform="translate(316,77)"/>
<path d="M0,0 L15,0 L15,47 L31,47 L31,62 L93,62 L93,47 L109,47 L109,32 L125,32 L125,47 L124,48 L124,62 L110,62 L110,79 L203,78 L203,93 L94,93 L94,78 L62,78 L63,109 L-16,109 L-16,95 L-15,94 L15,94 L16,79 L30,79 L31,94 L47,94 L46,90 L46,78 L31,78 L31,63 L16,63 L16,48 L0,48 Z " fill="#0A200B" transform="translate(240,325)"/>
<path d="M0,0 L65,0 L65,14 L81,14 L81,30 L96,30 L96,92 L112,92 L112,109 L126,109 L126,138 L112,138 L112,124 L96,124 L96,109 L81,109 L81,92 L65,93 L34,93 L34,77 L17,77 L17,32 L18,30 L50,30 L50,46 L65,46 L65,77 L81,77 L81,31 L65,31 L65,15 L22,15 L0,14 Z " fill="#0D2113" transform="translate(316,77)"/>
<path d="M0,0 L36,0 L79,1 L79,17 L95,17 L95,63 L79,63 L79,32 L64,32 L64,16 L32,16 L31,62 L30,62 L30,47 L-5,47 L-62,46 L-62,16 L0,16 Z " fill="#14621C" transform="translate(302,91)"/>
<path d="M0,0 L1,0 L2,22 L5,20 L4,25 L10,27 L10,28 L47,29 L47,77 L63,77 L63,92 L78,92 L78,107 L93,107 L94,123 L78,123 L77,120 L77,108 L63,108 L63,123 L62,124 L31,124 L-93,123 L-93,122 L31,122 L31,91 L16,91 L16,77 L0,77 L-1,76 L-1,30 Z " fill="#38A51E" transform="translate(193,296)"/>
<path d="M0,0 L1,0 L1,15 L17,15 L17,31 L77,30 L77,14 L47,16 L34,16 L33,15 L33,0 L93,0 L94,15 L109,16 L109,30 L94,31 L94,46 L78,46 L78,61 L16,61 L16,46 L0,46 Z " fill="#E4B500" transform="translate(255,326)"/>
<path d="M0,0 L233,0 L233,31 L218,31 L218,15 L-1,15 L-1,3 Z " fill="#07230C" transform="translate(195,216)"/>
<path d="M0,0 L15,0 L15,32 L61,32 L61,47 L77,47 L77,62 L55,62 L48,61 L47,56 L47,46 L15,46 L15,63 L4,63 L0,62 L0,125 L-15,125 L-15,32 L0,32 Z " fill="#08210E" transform="translate(68,232)"/>
<path d="M0,0 L45,0 L45,16 L30,16 L30,31 L1,31 L1,47 L47,47 L47,63 L-31,63 L-31,48 L-46,48 L-46,47 L-32,47 L-32,28 L-31,31 L-16,31 L-17,28 L-17,16 L0,16 Z " fill="#247727" transform="translate(115,341)"/>
<path d="M0,0 L160,0 L160,1 L155,1 L155,17 L96,17 L0,16 Z " fill="#F6EB2D" transform="translate(225,231)"/>
<path d="M0,0 L1,0 L2,44 L17,45 L17,61 L49,61 L49,62 L18,62 L18,77 L63,77 L63,78 L17,78 L17,93 L-14,93 L-14,108 L-18,109 L-61,109 L-61,61 L-50,61 L-50,62 L-60,62 L-59,63 L-54,63 L-58,64 L-58,87 L-56,87 L-57,90 L-52,91 L-52,92 L-45,93 L-45,77 L1,77 L0,45 Z " fill="#278B22" transform="translate(160,108)"/>
<path d="M0,0 L16,0 L16,30 L32,30 L32,62 L16,62 L16,47 L0,47 L-1,78 L-15,78 L-15,17 L-14,16 L0,16 Z " fill="#09260E" transform="translate(396,247)"/>
<path d="M0,0 L1,0 L2,22 L5,20 L4,25 L10,27 L10,28 L47,29 L47,77 L46,77 L46,61 L31,61 L31,77 L0,77 L-1,76 L-1,30 Z " fill="#115B1A" transform="translate(193,296)"/>
<path d="M0,0 L16,0 L17,30 L75,31 L80,29 L82,31 L80,33 L81,32 L84,33 L85,37 L84,38 L87,38 L86,43 L94,44 L94,62 L77,62 L75,51 L73,50 L73,48 L69,48 L67,54 L64,53 L63,49 L54,49 L54,47 L16,47 L16,31 L1,31 L1,44 L0,44 Z " fill="#16671E" transform="translate(208,123)"/>
<path d="M0,0 L47,0 L47,16 L63,16 L63,62 L47,62 L47,31 L32,31 L32,15 L0,15 Z " fill="#63BF26" transform="translate(334,92)"/>
<path d="M0,0 L32,0 L32,15 L47,15 L47,16 L16,16 L16,46 L-15,46 L-16,31 L-16,16 L0,16 Z " fill="#44AE20" transform="translate(396,341)"/>
<path d="M0,0 L1,0 L1,15 L16,15 L15,46 L-31,46 L-32,16 L0,16 Z " fill="#33A11C" transform="translate(209,248)"/>
<path d="M0,0 L17,0 L17,16 L48,15 L64,15 L64,32 L28,33 L19,32 L21,34 L25,35 L23,40 L23,42 L25,42 L25,44 L27,45 L27,48 L22,50 L20,48 L19,44 L15,46 L13,43 L16,40 L16,37 L14,37 L14,34 L1,35 L-3,37 L-3,41 L-5,41 L-6,44 L-8,43 L-6,37 L-8,36 L-7,35 L-10,33 L-7,30 L-4,31 L-3,29 L-3,31 L-1,31 L-1,15 L0,14 L16,14 L16,1 L0,1 Z " fill="#54BA24" transform="translate(333,154)"/>
<path d="M0,0 L47,0 L47,18 L46,25 L44,29 L42,28 L42,33 L40,35 L44,36 L47,33 L47,36 L51,37 L50,41 L47,43 L49,44 L48,45 L71,46 L71,47 L32,47 L31,46 L31,16 L0,16 Z M50,34 L52,35 L49,35 Z " fill="#5DBA26" transform="translate(193,107)"/>
<path d="M0,0 L16,0 L16,15 L47,15 L47,46 L31,46 L31,30 L0,30 Z " fill="#0B220D" transform="translate(412,357)"/>
<path d="M0,0 L64,0 L64,14 L79,14 L79,30 L63,30 L63,15 L16,15 L0,14 Z " fill="#0B1C14" transform="translate(161,77)"/>
<path d="M0,0 L15,0 L15,15 L31,15 L31,31 L0,31 L0,47 L-15,47 L-11,41 L-13,41 L-13,18 L-14,17 L-14,40 L-15,40 L-15,16 L0,16 Z " fill="#081F0F" transform="translate(115,154)"/>
<path d="M0,0 L24,0 L24,1 L1,1 L1,15 L17,15 L64,16 L64,31 L33,31 L33,47 L32,47 L32,31 L1,31 L0,16 Z " fill="#46AE25" transform="translate(160,76)"/>
<path d="M0,0 L15,0 L16,1 L16,17 L15,62 L0,62 Z " fill="#1E6F27" transform="translate(145,91)"/>
<path d="M0,0 L61,0 L61,15 L0,15 Z " fill="#0B1E14" transform="translate(240,107)"/>
<path d="M0,0 L16,0 L16,15 L32,15 L32,7 L33,7 L34,14 L36,11 L36,15 L48,15 L48,62 L47,62 L47,16 L33,17 L32,31 L-1,31 L-1,10 Z " fill="#37A81E" transform="translate(396,294)"/>
<path d="M0,0 L61,0 L61,14 L1,14 Z " fill="#D28C00" transform="translate(271,372)"/>
<path d="M0,0 L22,0 L18,1 L18,18 L17,62 L16,62 L16,47 L0,47 L0,31 L1,29 L7,27 L0,24 L0,20 L3,19 L-14,18 L-14,17 L0,16 Z " fill="#2B8A22" transform="translate(316,91)"/>
<path d="M0,0 L61,0 L61,15 L45,15 L42,10 L39,5 L38,6 L36,6 L36,7 L38,7 L37,12 L36,10 L28,9 L26,10 L27,12 L22,12 L18,6 L18,4 L15,4 L15,14 L13,15 L-1,15 Z " fill="#309920" transform="translate(101,388)"/>
<path d="M0,0 L46,0 L46,15 L0,15 Z " fill="#39AA1C" transform="translate(193,326)"/>
<path d="M0,0 L14,0 L14,46 L-1,46 L-1,1 Z " fill="#06200B" transform="translate(429,310)"/>
<path d="M0,0 L4,2 L2,4 L3,3 L6,4 L7,8 L6,9 L9,9 L8,14 L16,15 L16,33 L-1,33 L-3,22 L-5,21 L-5,19 L-9,19 L-11,25 L-14,24 L-15,20 L-24,20 L-24,17 L-16,17 L-16,2 L-3,2 Z " fill="#62BC25" transform="translate(286,152)"/>
<path d="M0,0 L14,0 L14,46 L0,46 Z " fill="#0A1C13" transform="translate(131,107)"/>
<path d="M0,0 L17,0 L17,16 L48,16 L48,17 L18,17 L19,32 L21,34 L25,35 L23,40 L23,42 L25,42 L25,44 L27,45 L27,48 L22,50 L20,48 L19,44 L15,46 L13,43 L16,40 L16,37 L14,37 L14,34 L1,35 L-3,37 L-3,41 L-5,41 L-6,44 L-8,43 L-6,37 L-8,36 L-7,35 L-10,33 L-7,30 L-4,31 L-3,29 L-3,31 L-1,31 L-1,15 L0,14 L16,14 L16,1 L0,1 Z " fill="#69C627" transform="translate(333,154)"/>
<path d="M0,0 L17,0 L17,13 L16,15 L30,15 L30,9 L31,9 L32,4 L35,4 L39,11 L43,9 L46,8 L48,9 L49,7 L51,9 L54,10 L55,7 L52,8 L51,4 L53,4 L54,3 L58,4 L58,7 L60,10 L61,1 L62,1 L62,15 L78,15 L78,16 L0,16 Z " fill="#297E26" transform="translate(84,388)"/>
<path d="M0,0 L16,0 L16,31 L0,31 Z " fill="#07240D" transform="translate(224,294)"/>
<path d="M0,0 L16,0 L16,31 L0,31 Z " fill="#5DBD26" transform="translate(381,123)"/>
<path d="M0,0 L31,0 L31,16 L0,16 Z " fill="#FCF2D1" transform="translate(193,107)"/>
<path d="M0,0 L31,0 L31,15 L15,16 L-1,16 Z " fill="#0E5918" transform="translate(366,154)"/>
<path d="M0,0 L5,0 L5,31 L2,32 L-10,32 L-10,1 Z " fill="#06220D" transform="translate(375,325)"/>
<path d="M0,0 L31,0 L31,15 L0,15 Z " fill="#41AF1E" transform="translate(412,388)"/>
<path d="M0,0 L15,0 L15,31 L0,31 Z " fill="#051C0C" transform="translate(146,294)"/>
<path d="M0,0 L31,0 L31,15 L1,15 L0,8 Z " fill="#35A71D" transform="translate(350,388)"/>
<path d="M0,0 L14,0 L30,1 L30,16 L14,16 L0,15 Z " fill="#FBF1D1" transform="translate(367,107)"/>
<path d="M0,0 L15,0 L15,12 L14,31 L0,31 Z " fill="#0A2210" transform="translate(69,357)"/>
<path d="M0,0 L16,0 L16,15 L0,16 L-124,15 L-124,14 L0,14 Z " fill="#366539" transform="translate(224,404)"/>
<path d="M0,0 L6,0 L6,1 L1,1 L2,8 L2,19 L1,30 L16,30 L16,47 L0,47 L-1,31 L-1,17 L-14,17 L-14,16 L0,16 Z " fill="#0E5F19" transform="translate(396,247)"/>
<path d="M0,0 L17,0 L17,17 L0,17 Z " fill="#319D1F" transform="translate(177,387)"/>
<path d="M0,0 L17,0 L17,16 L0,16 Z " fill="#0B2511" transform="translate(333,170)"/>
<path d="M0,0 L31,0 L31,1 L15,1 L15,17 L0,17 Z " fill="#1D7220" transform="translate(397,169)"/>
<path d="M0,0 L17,0 L17,13 L16,16 L0,16 Z " fill="#0A2311" transform="translate(84,388)"/>
<path d="M0,0 L15,0 L15,16 L-29,16 L-29,15 L0,15 Z " fill="#0F4F18" transform="translate(145,357)"/>
<path d="M0,0 L16,0 L16,15 L-1,15 L-1,1 Z " fill="#EFDC24" transform="translate(365,310)"/>
<path d="M0,0 L15,0 L16,1 L16,16 L1,16 L0,15 Z " fill="#0C1F15" transform="translate(145,91)"/>
<path d="M0,0 L14,0 L15,1 L15,17 L1,17 L0,16 Z " fill="#EFDB25" transform="translate(348,325)"/>
<path d="M0,0 L8,0 L8,16 L-8,16 L-8,1 Z " fill="#63C31F" transform="translate(170,231)"/>
<path d="M0,0 L15,0 L15,16 L0,16 Z " fill="#0E5B19" transform="translate(209,387)"/>
<path d="M0,0 L15,0 L15,16 L0,16 Z " fill="#0B5416" transform="translate(240,388)"/>
<path d="M0,0 L16,0 L16,15 L0,15 Z " fill="#25AE1E" transform="translate(146,232)"/>
<path d="M0,0 L16,0 L16,15 L0,15 Z " fill="#13661A" transform="translate(412,186)"/>
<path d="M0,0 L15,0 L15,16 L0,16 Z " fill="#258E18" transform="translate(224,154)"/>
<path d="M0,0 L15,0 L15,16 L1,16 L0,15 Z " fill="#E7BE00" transform="translate(256,294)"/>
<path d="M0,0 L15,0 L15,15 L0,15 Z " fill="#09210F" transform="translate(287,170)"/>
<path d="M0,0 L14,0 L14,16 L0,16 Z " fill="#0B1C12" transform="translate(302,91)"/>
<path d="M0,0 L9,1 L14,0 L14,14 L31,14 L31,6 L32,6 L33,13 L35,10 L35,14 L47,14 L47,61 L46,61 L46,15 L16,16 L14,17 L12,16 L11,12 L9,10 L11,9 L13,1 L12,4 L8,6 L7,9 L3,8 L2,7 L1,23 L0,23 Z M8,11 Z " fill="#589A40" transform="translate(397,295)"/>
<path d="M0,0 L15,0 L15,14 L10,15 L1,15 Z " fill="#1F8519" transform="translate(365,357)"/>
<path d="M0,0 L1,0 L1,46 L14,46 L14,53 L13,57 L11,56 L11,54 L6,54 L9,48 L7,47 L7,50 L3,51 L1,62 L0,62 L0,47 L-15,47 L-15,46 L0,46 Z " fill="#355C34" transform="translate(130,107)"/>
<path d="M0,0 L16,0 L16,1 L3,1 L3,28 L16,29 L16,30 L0,30 Z " fill="#DFDAC1" transform="translate(412,247)"/>
<path d="M0,0 L11,0 L11,1 L1,1 L2,2 L7,2 L3,3 L3,26 L5,26 L4,29 L9,30 L9,31 L0,32 Z " fill="#3A4734" transform="translate(99,169)"/>
<path d="M0,0 L6,0 L6,1 L1,1 L2,8 L2,19 L1,30 L16,30 L16,31 L-1,31 L-1,17 L-14,17 L-14,16 L0,16 Z " fill="#304215" transform="translate(396,247)"/>
<path d="M0,0 L1,0 L2,8 L3,10 L7,12 L5,16 L1,16 L1,47 L0,47 Z " fill="#476F46" transform="translate(68,341)"/>
<path d="M0,0 L2,3 L0,5 L3,5 L4,7 L4,23 L18,23 L18,24 L3,24 L3,8 L-5,7 L-5,3 L-5,1 Z " fill="#73A84A" transform="translate(363,99)"/>
<path d="M0,0 L8,1 L5,2 L5,17 L4,17 L4,3 L0,1 Z " fill="#276120" transform="translate(157,213)"/>
<path d="M0,0 L1,0 L2,9 L5,9 L5,13 L0,13 Z " fill="#243320" transform="translate(224,420)"/>
</svg>
