<?xml version="1.0" encoding="UTF-8"?>
<!-- Generator: https://ezgif.com/png-to-svg -->
<svg version="1.1" xmlns="http://www.w3.org/2000/svg" width="512" height="512">
<path d="M0,0 L512,0 L512,512 L0,512 Z " fill="#F9ECCD" transform="translate(0,0)"/>
<path d="M0,0 L67,0 L67,17 L83,17 L83,32 L146,32 L146,17 L161,17 L161,1 L227,0 L227,16 L243,16 L244,82 L261,82 L261,99 L279,99 L279,151 L262,151 L262,166 L245,166 L245,214 L261,214 L261,230 L279,230 L279,295 L262,295 L262,312 L296,312 L296,361 L182,361 L182,345 L116,345 L116,361 L-85,361 L-85,329 L-101,329 L-102,328 L-102,313 L-115,313 L-117,312 L-117,229 L-101,229 L-101,196 L-85,196 L-85,164 L-68,164 L-68,132 L-51,132 L-51,98 L-33,98 L-33,80 L-32,66 L-17,65 L-17,17 L-16,16 L0,16 Z " fill="#4F3782" transform="translate(157,73)"/>
<path d="M0,0 L2,0 L2,48 L19,48 L19,64 L37,64 L37,129 L20,129 L20,146 L54,146 L54,195 L-60,195 L-60,179 L-126,179 L-126,195 L-327,195 L-327,163 L-343,163 L-344,162 L-344,147 L-357,147 L-359,146 L-359,64 L-344,64 L-343,81 L-343,98 L-327,97 L-327,81 L-308,81 L-308,100 L-309,113 L-327,113 L-327,122 L-328,128 L-335,129 L-343,129 L-343,146 L-310,146 L-310,178 L-276,178 L-276,162 L-259,162 L-259,178 L-227,178 L-227,161 L-243,161 L-243,145 L-294,145 L-294,129 L-260,129 L-260,113 L-251,113 L-244,114 L-244,48 L-229,48 L-228,128 L-211,128 L-211,162 L-194,162 L-194,178 L-143,178 L-144,162 L-159,162 L-159,145 L-175,145 L-174,64 L-159,64 L-159,144 L-125,144 L-125,162 L-75,162 L-75,144 L-59,144 L-59,130 L-45,130 L-44,134 L-43,178 L-13,178 L-13,163 L1,163 L0,146 L-14,145 L-14,39 L-13,9 L-12,1 Z " fill="#0A1726" transform="translate(399,239)"/>
<path d="M0,0 L227,0 L227,16 L209,16 L193,15 L193,31 L179,31 L179,65 L163,64 L163,48 L142,48 L142,64 L140,64 L140,66 L142,66 L142,71 L165,72 L165,85 L179,85 L180,110 L180,128 L166,128 L164,145 L149,145 L149,161 L132,161 L132,176 L99,176 L98,169 L98,161 L81,161 L81,145 L64,145 L63,129 L49,129 L49,96 L34,96 L33,86 L33,63 L15,64 L15,30 L0,30 Z " fill="#734A8B" transform="translate(191,207)"/>
<path d="M0,0 L1,0 L1,16 L17,16 L18,82 L25,82 L25,83 L18,83 L18,99 L1,99 L1,115 L18,115 L18,100 L35,100 L35,120 L-28,120 L-192,119 L-192,84 L-160,84 L-160,51 L-176,51 L-176,32 L-80,32 L-80,17 L-65,17 L-65,1 Z " fill="#784F91" transform="translate(383,73)"/>
<path d="M0,0 L39,0 L39,14 L51,14 L51,27 L58,27 L58,13 L68,13 L68,0 L102,0 L102,13 L116,13 L117,38 L117,56 L103,56 L101,73 L86,73 L86,89 L69,89 L69,104 L36,104 L35,97 L35,89 L18,89 L18,73 L1,73 L0,57 L-14,57 L-14,14 L0,14 Z " fill="#F3C939" transform="translate(254,279)"/>
<path d="M0,0 L16,0 L17,1 L17,14 L19,15 L35,16 L35,17 L18,17 L18,65 L17,65 L17,17 L15,18 L3,18 L2,56 L1,162 L15,162 L16,163 L16,180 L2,180 L2,195 L-28,195 L-29,183 L-30,147 L-44,147 L-44,161 L-60,161 L-60,179 L-110,179 L-110,161 L-144,161 L-144,114 L-129,113 L-129,130 L-112,130 L-112,146 L-95,146 L-94,161 L-61,161 L-61,146 L-44,146 L-44,130 L-29,130 L-28,112 L-13,113 L-14,95 L-14,70 L-28,70 L-28,57 L-52,57 L-51,51 L-53,51 L-53,49 L-51,49 L-51,33 L-30,33 L-30,49 L-15,49 L-14,16 L0,16 Z " fill="#4B347E" transform="translate(384,222)"/>
<path d="M0,0 L10,0 L10,17 L28,17 L28,69 L11,69 L11,83 L-6,83 L-7,81 L-7,68 L10,68 L10,52 L2,53 L-184,53 L-217,52 L-217,38 L10,38 L10,18 L-7,18 L-7,33 L-24,33 L-24,17 L-7,17 L-7,1 Z " fill="#091420" transform="translate(408,155)"/>
<path d="M0,0 L1,0 L1,16 L17,16 L17,80 L16,83 L-33,83 L-33,33 L-15,33 L-15,50 L1,50 L1,17 L-65,17 L-65,1 Z " fill="#081528" transform="translate(383,73)"/>
<path d="M0,0 L47,0 L47,65 L31,64 L31,79 L-3,79 L-3,50 L-2,32 L-1,31 L16,31 L16,48 L32,48 L32,31 L17,31 L17,14 L0,14 Z " fill="#774E8F" transform="translate(108,288)"/>
<path d="M0,0 L32,0 L33,17 L49,18 L49,51 L0,51 Z " fill="#071528" transform="translate(174,106)"/>
<path d="M0,0 L17,0 L17,16 L34,16 L34,49 L25,50 L-1,50 L-1,66 L-17,66 L-17,33 L-1,32 Z " fill="#30265A" transform="translate(107,172)"/>
<path d="M0,0 L67,0 L67,17 L0,17 L-1,66 L-15,66 L-16,59 L-16,16 L0,16 Z " fill="#0D192A" transform="translate(157,73)"/>
<path d="M0,0 L16,0 L16,31 L24,31 L24,49 L0,50 L0,64 L-17,64 L-17,32 L0,32 Z " fill="#081420" transform="translate(73,238)"/>
<path d="M0,0 L34,0 L34,21 L198,21 L198,22 L34,22 L34,36 L15,36 L1,35 Z " fill="#312657" transform="translate(157,171)"/>
<path d="M0,0 L15,0 L15,16 L1,16 L1,33 L-63,33 L-63,16 L0,16 Z " fill="#061425" transform="translate(303,90)"/>
<path d="M0,0 L26,0 L26,16 L25,18 L41,17 L41,35 L-5,35 L-4,7 L-3,1 Z " fill="#302659" transform="translate(114,252)"/>
<path d="M0,0 L15,0 L16,26 L15,82 L0,82 Z " fill="#07141E" transform="translate(40,303)"/>
<path d="M0,0 L17,0 L18,65 L-1,65 Z " fill="#443375" transform="translate(401,303)"/>
<path d="M0,0 L49,0 L49,33 L33,33 L33,16 L15,16 L15,26 L14,26 L14,16 L1,16 L0,12 Z " fill="#6F4497" transform="translate(335,90)"/>
<path d="M0,0 L25,0 L25,25 L-10,25 L-10,3 L-9,1 Z " fill="#393170" transform="translate(264,254)"/>
<path d="M0,0 L1,0 L1,18 L-13,18 L-15,35 L-30,35 L-30,51 L-47,51 L-47,31 L-29,31 L-29,13 L0,13 Z " fill="#D19A24" transform="translate(370,317)"/>
<path d="M0,0 L29,0 L29,17 L15,17 L15,32 L0,32 Z " fill="#72488B" transform="translate(371,385)"/>
<path d="M0,0 L18,0 L18,18 L34,18 L34,38 L18,38 L18,22 L1,22 Z " fill="#CF9821" transform="translate(254,330)"/>
<path d="M0,0 L10,0 L10,17 L24,17 L24,18 L-7,18 L-7,33 L-24,33 L-24,17 L-7,17 L-7,1 Z " fill="#3E3672" transform="translate(408,155)"/>
<path d="M0,0 L13,0 L13,42 L-1,42 L-1,7 Z " fill="#DEAA41" transform="translate(241,294)"/>
<path d="M0,0 L17,0 L17,17 L32,17 L32,34 L16,34 L16,17 L-1,17 L-1,4 Z " fill="#1C1935" transform="translate(108,302)"/>
<path d="M0,0 L17,0 L17,33 L0,33 Z " fill="#071421" transform="translate(107,172)"/>
<path d="M0,0 L17,0 L18,16 L1,16 L1,33 L-14,33 L-14,16 L0,16 Z " fill="#4F3A83" transform="translate(318,90)"/>
<path d="M0,0 L17,0 L17,32 L0,31 Z " fill="#32275B" transform="translate(188,336)"/>
<path d="M0,0 L16,0 L16,33 L0,33 Z " fill="#081420" transform="translate(90,205)"/>
<path d="M0,0 L16,0 L16,32 L0,32 Z " fill="#071423" transform="translate(125,140)"/>
<path d="M0,0 L31,0 L32,2 L32,16 L0,16 Z " fill="#784E90" transform="translate(224,401)"/>
<path d="M0,0 L33,0 L34,7 L34,15 L0,15 Z " fill="#71478B" transform="translate(401,402)"/>
<path d="M0,0 L34,0 L34,15 L1,15 L0,8 Z " fill="#D29C25" transform="translate(289,368)"/>
<path d="M0,0 L20,0 L20,23 L-1,24 L0,18 L-2,18 L-2,16 L0,16 Z " fill="#362D5F" transform="translate(333,255)"/>
<path d="M0,0 L17,0 L17,18 L16,28 L6,28 L0,27 Z " fill="#32275B" transform="translate(157,223)"/>
<path d="M0,0 L1,0 L0,37 L-11,37 L-12,17 L-12,1 L-1,1 Z " fill="#E3AE45" transform="translate(369,292)"/>
<path d="M0,0 L31,0 L31,12 L0,12 Z " fill="#E6B146" transform="translate(324,280)"/>
<path d="M0,0 L16,0 L16,13 L18,14 L34,15 L34,16 L17,16 L17,64 L16,64 L16,16 L14,17 L2,17 L1,55 L0,55 Z " fill="#383076" transform="translate(385,223)"/>
<path d="M0,0 L2,0 L2,49 L-112,49 L-112,47 L0,47 L0,2 L-32,2 L-32,1 Z " fill="#373A3A" transform="translate(451,385)"/>
<path d="M0,0 L17,0 L17,18 L0,18 Z " fill="#0C1423" transform="translate(319,154)"/>
<path d="M0,0 L18,0 L18,33 L217,33 L217,34 L16,34 L16,2 L0,2 Z " fill="#4A4B4A" transform="translate(56,400)"/>
<path d="M0,0 L6,0 L5,20 L-9,20 L-9,1 Z " fill="#31275B" transform="translate(200,285)"/>
<path d="M0,0 L16,0 L17,17 L0,17 Z " fill="#071425" transform="translate(271,154)"/>
<path d="M0,0 L17,0 L17,16 L0,16 Z " fill="#30265B" transform="translate(223,223)"/>
<path d="M0,0 L16,0 L16,17 L0,17 Z " fill="#E9DCC0" transform="translate(368,106)"/>
<path d="M0,0 L19,1 L19,15 L0,15 Z " fill="#4A3780" transform="translate(400,353)"/>
<path d="M0,0 L9,0 L9,17 L-6,17 L-7,11 L-7,1 Z " fill="#06121B" transform="translate(408,155)"/>
<path d="M0,0 L1,0 L1,20 L-14,20 L-14,3 L0,3 Z " fill="#342B6A" transform="translate(318,103)"/>
<path d="M0,0 L16,0 L16,16 L0,16 Z " fill="#E5DABB" transform="translate(207,107)"/>
<path d="M0,0 L13,0 L13,20 L1,21 L0,11 Z " fill="#32275B" transform="translate(177,258)"/>
<path d="M0,0 L16,0 L16,15 L0,15 Z " fill="#795093" transform="translate(156,401)"/>
<path d="M0,0 L15,0 L15,15 L0,15 Z " fill="#2F2452" transform="translate(370,369)"/>
<path d="M0,0 L15,0 L15,15 L0,15 Z " fill="#061425" transform="translate(224,91)"/>
<path d="M0,0 L1,0 L1,17 L-13,17 L-14,2 L0,2 Z " fill="#282046" transform="translate(400,400)"/>
<path d="M0,0 L14,0 L14,15 L0,15 Z " fill="#2C285D" transform="translate(385,141)"/>
<path d="M0,0 L1,0 L1,27 L-10,27 L-10,13 L0,13 Z " fill="#E0AF44" transform="translate(322,279)"/>
<path d="M0,0 L1,0 L1,18 L-13,18 L-14,27 L-15,27 L-15,16 L-14,14 L-28,14 L-28,35 L-30,35 L-31,38 L-31,32 L-46,32 L-47,36 L-47,31 L-29,31 L-29,13 L0,13 Z " fill="#BB8A20" transform="translate(370,317)"/>
<path d="M0,0 L2,1 L18,2 L18,3 L1,3 L1,51 L0,51 L0,3 L-2,4 L-14,4 L-15,42 L-16,42 L-16,2 L0,2 Z " fill="#34353C" transform="translate(401,236)"/>
<path d="M0,0 L1,0 L1,33 L-15,32 L-15,31 L-1,31 L-1,18 L-33,18 L-34,16 L-34,8 L-33,8 L-33,15 L0,15 Z " fill="#5C415E" transform="translate(323,368)"/>
<path d="M0,0 L11,0 L11,12 L0,12 Z " fill="#E5B047" transform="translate(293,294)"/>
<path d="M0,0 L1,0 L1,19 L7,19 L7,22 L3,23 L2,27 L0,27 L0,19 L-17,19 L-17,51 L-18,51 L-18,18 L0,18 Z " fill="#66606F" transform="translate(124,153)"/>
<path d="M0,0 L1,0 L1,18 L-9,18 L-12,17 L-12,13 L0,13 Z " fill="#906048" transform="translate(370,317)"/>
<path d="M0,0 L1,0 L1,9 L2,12 L32,13 L32,6 L33,6 L33,14 L-1,14 L-1,5 Z " fill="#5D3A75" transform="translate(402,403)"/>
<path d="M0,0 L1,0 L1,14 L-37,14 L-37,13 L-2,13 Z " fill="#F7E9CA" transform="translate(302,90)"/>
<path d="M0,0 L1,0 L1,13 L-7,13 L-7,9 L0,9 Z " fill="#414697" transform="translate(253,279)"/>
<path d="M0,0 L1,0 L1,15 L8,15 L8,16 L1,16 L0,18 L-1,13 Z " fill="#625D69" transform="translate(400,140)"/>
<path d="M0,0 L1,0 L1,14 L-2,14 Z " fill="#C4BCAD" transform="translate(302,90)"/>
</svg>
