<svg xmlns="http://www.w3.org/2000/svg" width="96" height="96"><path fill="#57080C" d="M39 14h17l1 2 6 1v3h3v3h3v3h3v6h3v23h-3v3l-3 1v2l-10 1v14l-3 3h-3v3H39v-3h-3v-3h-3V63l3-1v-4h-6v-3h-6v-3h-3v-3h-3V38h3v-6h3v-6h3v-3h3v-3h3v-3h6Z"/><path fill="#4B040A" d="M56 17h7v3h3v3h3v3h3v6h3v23h-3v3l-3 1v2H56l-1-4h10v-3h-3v-3h-6v3h-4v-6h-9v3h-3v-6h-9v-3h31v-9h3v-3h-4v3h-2v2h-4v-2h-2v-7h-3v-2h3v-3h2v3h4v-4h-3Z"/><path fill="#DD4634" d="m40 17 10 1v2h9v4h-4v-3h-2v3h-3v2h3v7h2v2h4v-2h2v-3h4v3h-3v9h-7v-3H28v3h-3v3h-3v-6h3v-6h3v-6h3v-3h3v-3h6Z"/><path fill="#7D7A75" d="M0 0h96v96H0Zm1 1v94h94V1Z"/><path fill="#950F14" d="M53 21h2v3h4v-3h3v3h3v3h3v6h3v21h-3v-6h-6v-3h-7v-3h7v-9h3v-3h-4v3h-2v2h-4v-2h-2v-7h-3v-2h3Z"/><path fill="#C48C61" d="M43 51h3v3h4v3h2v12h-2l-1 6h-3v3h-6v-3h-3V63h3v-9h3Z"/><path fill="#BF231F" d="M43 30h3v3h9v2h4v-2h2v-3h4v3h-3v9h-7v-3H28v3h-3v3h-3v-6h3v-6h3v3h13v-3h2Z"/><path fill="#920D12" d="M28 39h27v3H31v3h9v6h3v3h-9v-3h-9v-3h-3v-3h3v-3h3Z"/><path fill="#77291B" d="M43 48h9v6h4v-3h6v3h3v3H55l1 3v15h-4v3h-6v-3h3l1-6h2V57h-2v-3h-4v-3h-3Z"/><path fill="#EFD3A8" d="M43 57h6v9h-3v3h-3v3h-3v-3h-2v-5h2v-4h3Z"/><path fill="#863824" d="M31 45h9v6h3v3h-9v-3h-6v-3h3Z"/><path fill="#9B5034" d="M43 48h9l1 6v9h2v6h-2v3h-3v-3h2V57h-2v-3h-4v-3h-3Z"/><path fill="#BE4F3A" d="M61 30h4v3h-3v9h-7v-6h-2v-3h2v2h4v-2h2Z"/><path fill="#AD6B47" d="m37 63 3 1h-2v5h2v4l9-1v3h-3v3h-6v-3h-3Z"/><path fill="#C62821" d="M53 21h2l1 6h3v8h-4v-2h-2v-7h-3v-2h3Z"/><path fill="#E56647" d="M28 27h6v9h-6Z"/><path fill="#D74A39" d="M25 33h3v3h3v3h-3v3h-3v3h-3v-6h3Z"/><path fill="#86080F" d="M68 39h3v15h-3Z"/><path fill="#420208" d="M39 79h14v3H39Z"/><path fill="#E8BB91" d="M46 27h7v6h-7Z"/><path fill="#6A241A" d="M34 54h6v9h-3v9l-1-3h-2v-3h2v-6h3v-5h-5Z"/><path fill="#D15945" d="m49 18 1 2h9v4h-4v-3h-2v3h-3l-1 2Z"/><path fill="#9E5134" d="M28 48h9v6h-3v-3h-6Z"/><path fill="#823422" d="M43 45h10v9h-1v-6h-9Z"/><path fill="#D6956F" d="M40 17h6v4h-2v3h-4Z"/><path fill="#C99568" d="M46 66h3v6l-9 1 3-1v-3h3Z"/><path fill="#883A26" d="M49 72h4l-1 6h-6v-3h3Z"/><path fill="#E0B789" d="M46 57h3v9h-3Z"/><path fill="#A8603E" d="M43 48h6v6h-3v-3h-3Z"/><path fill="#F2D2A8" d="M28 27h6v3h-3v3h-3Z"/><path fill="#580209" d="M39 14h17v3h-3v-2H40l-1 2Z"/><path fill="#D9A679" d="M56 36h6v5h-3v-2h-3Z"/><path fill="#A81A19" d="M46 17h10v3h-6v-2Z"/><path fill="#A55E3D" d="M40 75h6v3h-6Z"/><path fill="#6B2318" d="M49 45h4v9h-1v-6h-3Z"/><path fill="#A65D3D" d="M68 39h3v6h-3Z"/><path fill="#D3755F" d="M61 30h4v3h-3v2h-3v-2h2Z"/><path fill="#710F15" d="M25 27h3v6h-3Z"/><path fill="#C5956C" d="m37 63 3 1h-2v5h2v3h-3Z"/></svg>