<svg xmlns="http://www.w3.org/2000/svg" width="96" height="96"><path fill="#052E25" d="M66 17h9v36h-2v6h-3v5h-3v3h-2v3h-6v3H40v-3h-4v6h-3v3H23v-8h3v-5l2-1 1-4h-3v-5h-3V37h3v-6h3v-3h3v-3h5v-2l2-1h9l2-3h15Z"/><path fill="#105A35" d="M44 26h11v9h-2v5h3v-2h2v-3h3v14l-5 1v2h5v9h-3v2l-5 1v5H41v-5l-3-1v-2h-2l-1 5h-2v6h-3v-6h2v-5h-2v-6h-3V38h3v-6h5v-3h9Z"/><path fill="#09462F" d="M67 18h7v17l-1 1-1 10h-3v3h-3v3H56v-2l5-1V35h-3v3h-2v2h-3v-5h2v-9H44v-3h5l1-4h15l2 1Z"/><path fill="#348947" d="M44 26h11v9h-2v5h3v-2h2v-3h3v14h-8v3h-9v-3h3v-3h3v-2h2v-3l-2-1h2v-2h-2v-6h-3v9h-3v3h-3v5h-5v3h-3v-3h-5V38h2v-6h5v-3h9Z"/><path fill="#181817" d="M0 0h96v96H0Zm1 1v94h94V1Z"/><path fill="#166538" d="M44 23h20v6h3v-5h2v14h-5v3h3v5h-3v3h-3V35h-3v3h-2v2h-3v-5h2v-9H44Z"/><path fill="#1A6C3A" d="m42 53 16 2v3h-3v5h-2v-2H36l-1 5h-2v-6h2v-2h4v-3Z"/><path fill="#41954D" d="M30 32h8v3h3v6h-5v5h-4v-2h-2Z"/><path fill="#338946" d="M53 41h5v3h-2l-1 3h-2v5h-9v-3h3v-3h6Z"/><path fill="#20753D" d="M44 55h14v3h-5v2h-6v-2h-3Z"/><path fill="#7CC472" d="M33 32h5v3h3v6h-3v-3h-5Z"/><path fill="#0E5233" d="M38 26h6v3h-9v3h-5v-3h3v-2Z"/><path fill="#022019" d="M50 19h15v1h-7v3h-9Z"/><path fill="#0C5132" d="M44 23h12l-1 3H44Z"/><path fill="#4FA455" d="M53 41h5v3h-2l-1 3h-2v2h-3v-3h3Z"/><path fill="#63B360" d="M30 38h2v3h3v5h-3v-2h-2Z"/><path fill="#3F964C" d="M44 55h6v5h-3v-2h-3Z"/><path fill="#66B462" d="M33 32h5v3h-2v3h-3Z"/><path fill="#318A45" d="M56 44h2v5h-5v-2Z"/></svg>