<svg xmlns="http://www.w3.org/2000/svg" width="96" height="96"><path fill="#0A2402" d="M48 7h3l4 8v16l-1 7-3 4-1 4v14l6-13 6-9 4-4 4 1-1 5-8 20-8 28-1 1H40l-5-20-8-24-6-11v-5h4l8 10 8 16 2 5 1-18-3-4V21l2-8Z"/><path fill="#280602" d="M48 7h3l4 8v16l-1 7-4 4-7-2-2-2V21l2-8Z"/><path fill="#255205" d="m22 28 4 2 9 12 6 13v18l-5-1-9-27-6-11v-5Z"/><path fill="#565453" d="M0 0h96v96h-1V1H1v95H0Z"/><path fill="#346904" d="m63 37 2 1v7l-1 2h-2v2h-2l-1 8-2 3-1 6h-2l-1 9h-2V58l5-11 6-9Z"/><path fill="#4F1C09" d="M47 8h1v5h2v13l-2 7h-2l-1 3-2-5h-2V21l2-8Z"/><path fill="#5E2810" d="M47 8h1v5h2v7l-2 6h-3V15h-2l2-4Z"/><path fill="#1B3C0D" d="m22 28 4 2 5 6-1 2-2-1v-2h-3l1 6-3-3-2-4v-5Z"/><path fill="#204C05" d="M45 42h2v21h-2l-1-2V50Z"/><path fill="#3B7400" d="M30 42h2v2h3v6h2v6h-2v-3h-2v-3l-3-1Z"/><path fill="#824017" d="M45 17h3l-1 9h-2Z"/></svg>