<svg xmlns="http://www.w3.org/2000/svg" width="96" height="96"><path fill="#3782B7" d="M34 23h28v3h3v3h3v2h2v3h3v3h3v8h-3v3h-2l-1 2h-2v3h-3v3h-3v3h-3v3h-3v5h-3v3h-3v3h-5v-3h-3v-2l-2-1v-5h-3v-3h-3v-3h-3v-3h-3v-3h-2v-2h-3v-3h-3v-8h3v-3l3-3h2v-2h3v-3h3Z"/><path fill="#103E72" d="M34 23h28v3h3v3h3v2h2v3h3v3h3v8h-3v3h-2l-1 2h-2v3h-3v3h-3v3h-3v3h-3v5h-3v3h-3v3h-5v-3h-3v-2l-2-1v-5h-3v-3h-3v-3h-3v-3h-3v-3h-2v-2h-3v-3h-3v-8h3v-3l3-3h2v-2h3v-3h3Zm1 4v3h-3v2h-3v3h-3v3h-2v6h2v3h3v2h3v3h3v3h3v3h2v3h3l1 5h2v3h3v-3h3V55h3v-8h3v-3h9v-4h2v-2h-2v-6h-3v-3h-3v-2Z"/><path fill="#515151" d="M0 0h96v96H0Zm1 1v94h94V1Z"/><path fill="#A3DEF8" d="M35 29h5v3h4v-2h16v1h-5v4h-3v3h-3v3h-3v3h-8v2h2v6h-2v-5h-3v-3h-6v-3h-3v-6h3v-3h3v-2Z"/><path fill="#67BAE5" d="M35 27h26v2h3v3h3v6h2v2h-2v4H46v-3h3v-3h3v-3h3v-4l-11-1v2h-4v-3h-5Z"/><path fill="#010E24" d="M20 37h3v7h3v3h3v2h3v3h3v3h3v3h2v3h3l1 5h2v3h3v-3h3v-5h3v-3h3v-3h3v-3h3v-3h3v-2h3v3h-2v3h-3v3h-3v3h-3v3h-3v5h-3v3h-3v3h-5v-3h-3v-2l-2-1v-5h-3v-3h-3v-3h-3v-3h-3v-3h-2v-2h-3v-3h-3Z"/><path fill="#51A2D1" d="M24 38h2v3h3v3h6v3h3v5h2v-6h-2v-2h3v5h2v6h3v6h-6v-3h-2v-3h-3v-3h-3v-3h-3v-2h-3v-3h-2Z"/><path fill="#B1E5FA" d="M35 29h5v3h4v-2h16v1h-5v4H38v3h-4v2h-7v-2l5-1v-7Z"/><path fill="#154373" d="M34 24h24v2l3 1H35v3h-3v2h-3v3h-3v3h-2v6h-1V34l3-3h2v-2h3v-3h3Z"/><path fill="#062146" d="M20 37h3v7h3v3h3v2h3v3h3v3h3v3h2v3h3l1 5 2 1h-6v-5h-3v-3h-3v-3h-3v-3h-3v-3h-2v-2h-3v-3h-3Z"/><path fill="#020E28" d="M34 23h28v3h3v3h3v2h2v3h3v3h3v8h-3v3l-3-1v-3h2v-6h-2v-3h-3v-3h-3v-3h-3v-3h-3v-2H34Z"/><path fill="#3986BB" d="M41 44h17v3h-3v2h-3l-1 3h-5v3h-3v-6h-2Z"/><path fill="#3D94CC" d="M61 29h3v3h3v6h2v2h-2v4h-6v-3h-3v-9h3Z"/><path fill="#226097" d="M49 55h3v11h-3v3h-3v-3h-2l-1-5 1 2h4Z"/><path fill="#2670AA" d="M61 29h3v3h3v6h2v2h-2v4h-3l-1-14Z"/><path fill="#5AADDB" d="M49 38h5v4l7 1v1H46v-3h3Z"/><path fill="#E6FBFE" d="M32 32h5v5l-3 3h-7v-2l5-1Z"/><path fill="#143A64" d="M28 29h3v3h-2v3h-3v3h-2v6h-1V34l3-3h2Z"/><path fill="#9CCFE8" d="M29 32h3v5l-6 1v-3h3Z"/><path fill="#68B8E3" d="M38 44h3v5h2v6h-2l-1-9h-2Z"/><path fill="#66B8E2" d="M24 38h2v3h3v3h-5Z"/><path fill="#3C8ABF" d="m46 55 1 3h2l-1 5h-4v-2h2Z"/><path fill="#3B8FC4" d="m35 52 5 1v5h-2v-3h-3Z"/><path fill="#26679E" d="M52 49h3v6h-3Z"/><path fill="#0F365E" d="M32 52h3v3h3v3h-4v-5Z"/></svg>