<svg xmlns="http://www.w3.org/2000/svg" width="96" height="96"><path fill="#95522F" d="M57 22h11l4 1v2h2v2h2v4h2v12h-2v2h-2v2h2v2h10v6h-2v2h-2v2h-2v2h-4v2h-4v2h-2v2h-4v2h-2v2h-4v2h-2v2H47v-2h-6v-2H31v-2h-6v-2h-4v-2h-2v-2h-2v-4h-2V45h2v-2h2v-2h2v-2h2v-2h14v-2h4v-2h4v-2h4l2-4h2v-2h2l1-2Z"/><path fill="#F1C284" d="M57 24h10v2h4v2h2v6h-4v4h-2v2h-2v2h-4v2h-4v2h-4v2h-4v2h-2l-2 4h-6l-1 2v-6h-2v-2h-2v-2h-2l-1-4 1-2h6v-2h3v-2h4v-2h4v-2h2v-2h2v-2h2v-2h2Z"/><path fill="#3D190F" d="M57 22h11l4 1v2h2v2h2v4h2v12h-2v2h-2v2h2v2h10v6h-2v2h-2v2h-2v2h-4v2h-4v2h-2v2h-4v2h-2v2h-4v2h-2v2H47v-2h-6v-2H31v-2h-6v-2h-4v-2h-2v-2h-2v-4h-2V45h2v-2h2v-2h2v-2h2v-2h14v-2h4v-2h4v-2h4l2-4h2v-2h2l1-2Zm0 2v2h-2v2h-2v2h-2v2h-2v2h-4v2h-4v2h-3v2H23v2h-2v2h-2l-1 2v12l1 4h2v2h5v2h9v2h6v2h6v2l8 1 2-1v-2h2v-2h4v-2h2v-2h4v-2h2v-2h4v-2h4v-2h2v-2h2v-2h-8v-2h-4v-2h-6v2h-2v2h-5v-2h3v-2h2v-2h6v-2h4v-2h2V32h-2v-4h-2v-2h-4v-2Z"/><path fill="#9B9A97" d="M0 0h96v96H0Zm1 1v94h94V1Z"/><path fill="#E0A467" d="M67 52h16v2h-2v2h-2v2h-4v2h-4v2h-2v2h-4v2h-2v2h-4v2h-2v2l-3 1-7-1v-2h-6v-2h-5v-2l10-1 3-1v-2h4v-2h2v-2h4l1-3 7-1Z"/><path fill="#DFA66B" d="M57 24h10v2h4v2h2v6h-4v4h-2v2h-2v2h-4v2h-4v2h-4v2h-4v2h-2l-2 4h-5v-4h4l1-2h2v-2h2v-2l7-2v-2h3v-2h4l3-11-10 3v2h-3v2h-2v2l-8 3h-5l3-1v-2h4v-2h4v-2h2v-2h2v-2h2v-2h2Z"/><path fill="#542114" d="M65 48h6v2h4v2h-8v2l-7 2-1 2h-4v2h-2v2h-4v2l-3 2H36l-1 2v-4h-3l-2-4h2v-2h2v-4h2l1-3v11l-1 2h2v-2h2v-2h3v-2h4v-2h2v-2h4v-2h4l1-2v2h5v-2h2Z"/><path fill="#A45D35" d="M73 32h2v10h-2v2h-4v2h-6v2h-2v2h-4v2l-6 1-4-1v-2h2v-2h4v-2h4v-2h4v-2h4v-2h2v-2h2v-4h4Z"/><path fill="#EAB577" d="M65 56h4v4h2v2h-2v2h-4v2h-2v2h-4v2l-2 1h-6l4-1-1-2h-2v-2h5v-2h-2v-3l8-1v-2h2Z"/><path fill="#8D4829" d="M65 48h6v2h4v2h-8v2l-7 2-1 2h-4v2h-2v2h-4v2l-3 2h-7l1-2h4v-3l6-1v-2h3v-2h2v-2l8-1v-3h2Z"/><path fill="#522114" d="M22 44h9l-2 4h-3v2h4l1 2v6h-2v2h-3v-2h2v-6h-3v-2h-2v6h-2l-1-10h2Z"/><path fill="#FCDEA2" d="M62 27h4l-1 5-5 2v2h-5v2h-4v2h-3l1-4h2v-2h2v-2h3v-2Z"/><path fill="#AC6B3E" d="M23 40h9v4H22v2h-2v12h-2V46l1-2h2v-2h2Z"/><path fill="#F9DBA0" d="M40 40h3v2h2v2l-3 2h-4l1 5-3-1v-2h-2v-2h-2l1-4 6 1Z"/><path fill="#652E1B" d="M20 50h1v6h2v-6h2v2h3l1 4-1 2h-2v2h-6l-1 2Z"/><path fill="#B87545" d="M49 62h2v5l-5 1 3 1v3h-2v-2h-6v-2h-5v-2l10-1 3-1Z"/><path fill="#76422A" d="m31 44 1 2h2v2h2v2h2v14h-2V54h-2v-2h-2v-4l-3-1Z"/><path fill="#CC8751" d="M63 54h4v2h-2v2h-2v2l-10 2v-2h2v-2h4l1-3Z"/><path fill="#AD693D" d="M20 60h4v2l11 2v2h-9v-2h-5Z"/><path fill="#B66F40" d="M73 32h1l-1 9h-2v-2h-3v3h-3v-2h2v-2h2v-4h4Z"/><path fill="#4A2316" d="M41 34h4v2h-4v2h-3v2H24v-1h13v-4Z"/><path fill="#CC8D56" d="M67 52h16v2h-2v2h-2v2h-2l1-4H67Z"/><path fill="#995431" d="m24 50 1 2h3l1 4-1 2h-2v-2h-2Z"/><path fill="#B26B3D" d="M61 42h4v4h-8v-2h4Z"/><path fill="#CD9059" d="M24 40h8v4l-5-1-3-1Z"/><path fill="#A86F45" d="M57 24h10v1l-8 2-4 1v-2h2Z"/><path fill="#AE693D" d="m39 54 1 4h3v2h-3v2h-2v-6Z"/><path fill="#844327" d="M20 50h1l1 9 2 1h-4l-1 2Z"/><path fill="#BF7946" d="M40 50h4v2l2 1-1 1h-5Z"/><path fill="#2D130C" d="M82 55h2v2h-2v2h-2v2l-4-1h3v-4Z"/></svg>