<svg xmlns="http://www.w3.org/2000/svg" width="96" height="96"><path fill="#144D70" d="M41 18h14v2h2v5h3v7l-2 1v6h4l4 5v3h2l2 6v8l-2 5h-2l-1 5h-2l-2 4-6 1v2H41v-2l-6-1-2-4h-2v-2h-2l-1-7h-2V52h2l1-8h2v-2l3-3h4v-6l-2-1v-7h3v-5h2Z"/><path fill="#236D96" d="M38 27h20v5h-2l1 8 4 1 2 4v3h-2v5h-8v3h-2v3h2v2h-2v3l-4 1v2h-9l-5-2v-4h-4v-8l1-5h2v-3l2-1 1-3 5-1 1-9h-3Z"/><path fill="#10C248" d="m40 42 7 2 2 4-1 5h5v3h-2v3h2v2h-2v3l-4 1v2h-9l-5-2-1-4v-8h3l-1-7 3-1v-2Z"/><path fill="#051424" d="M41 18h14v2h2v5h3v7h-2v-5H38v4h3v7l-3 3h-3l-1 4h-2v3h-2v18h2l1 5h-2v-2h-2l-1-7h-2V52h2l1-8h2v-2l3-3h4v-6l-2-1v-7h3v-5h2Z"/><path fill="#041527" d="m56 32 2 1v6h4l4 5v3h2l2 6v8l-2 5h-2l-1 5h-2l-2 4-6 1v2H41v-2l-6-1-2-4 9 1v3l16-1v-2h3l1-3h2l1-8h2l-1-13h-2v-3h-2l-1-4-5-1Z"/><path fill="#078E3C" d="M53 53h8v8h-2v3l-3 3h-3v2l-5 1H38l-1-3-3-1 2-1 2 1 9 1v-2l4-1v-3h2v-2h-2v-3h2Z"/><path fill="#092D49" d="M38 27h20v5h-2l1 8 4 2-7-1-1-3h-2v-5h-9v5h-1v-7h-3Z"/><path fill="#7DCEDA" d="m40 42 7 2 2 4-1 5h-8v3h-5l-1-10 3-1v-2Z"/><path fill="#035E34" d="M61 53h3v8h-2l-1 5-4 4h-3v2H35l-3-3v-3h-2v-5h3l2 5 3 3h15v-2h3l1-3h2v-3h2Z"/><path fill="#4590AC" d="m38 40 10 1 1 4 4 1v7h-5l-1-8-7-2h-3v2l-2 1v7h-3v8h-3v-8l1-5h2v-3l2-1 1-3Z"/><path fill="#021223" d="M29 44h2l-1 17v5h2l1 5h-2v-2h-2l-1-7h-2V52h2Z"/><path fill="#925B2F" d="M42 21h12v5H42Z"/><path fill="#DAF6D6" d="M38 45h5l-1 5-4 1v2h2v3h-5v-8h2Z"/><path fill="#6BA4B5" d="M38 27h12l1 4H38Z"/><path fill="#134D6D" d="M30 61h3l2 5 3 3 4 1v2h-7l-3-3v-3h-2Z"/><path fill="#19567E" d="M44 33h7v5h2v-5h1v8l2 1h-8l1-8h-4l-1 4Z"/><path fill="#499DB9" d="M42 42h6l1 3 4 1v7h-5l-1-8-5-2Z"/><path fill="#5FDA53" d="M35 56h5v8h-5Z"/><path fill="#64E155" d="M40 53h13v3H40Z"/><path fill="#20A049" d="M32 53h3v11h2l-1 2-3-1-1-4Z"/><path fill="#1C6587" d="M64 49h1v16l-4 2v2h-2l2-4 1-4h2Z"/><path fill="#1C5C82" d="M50 27h8v4h-7Z"/><path fill="#0FC048" d="M53 53h8v3h-8Z"/><path fill="#2C7494" d="m29 53 3 2v6h-3Z"/><path fill="#011121" d="m33 71 5 1v2h3v2l-6-1Z"/></svg>