<?xml version="1.0" encoding="UTF-8"?>
<!-- Generator: https://ezgif.com/png-to-svg -->
<svg version="1.1" xmlns="http://www.w3.org/2000/svg" width="512" height="512">
<path d="M0,0 L79,0 L79,17 L99,17 L99,35 L141,36 L141,17 L160,17 L160,0 L240,0 L240,17 L258,17 L258,77 L279,77 L279,155 L258,155 L258,175 L240,175 L240,211 L258,211 L258,230 L279,230 L279,290 L297,290 L297,350 L172,350 L172,336 L118,335 L118,350 L-74,350 L-74,292 L-92,292 L-92,192 L-74,192 L-74,173 L-55,173 L-55,112 L-36,112 L-36,56 L-18,56 L-18,17 L0,17 Z M60,38 L60,56 L78,56 L78,38 Z M220,38 L220,56 L238,56 L238,38 Z " fill="#235F21" transform="translate(150,78)"/>
<path d="M0,0 L79,0 L79,17 L99,17 L99,35 L141,36 L141,17 L160,17 L160,0 L240,0 L240,17 L258,17 L258,37 L239,37 L239,19 L161,19 L161,57 L98,57 L98,37 L79,37 L79,19 L1,19 L1,57 L-17,57 L-17,113 L-35,113 L-35,174 L-54,174 L-54,193 L-17,193 L-17,211 L-54,211 L-54,210 L-18,210 L-18,194 L-55,194 L-55,175 L-72,175 L-72,193 L-74,194 L-90,194 L-90,290 L-74,290 L-74,270 L-73,270 L-72,291 L-72,348 L117,348 L117,333 L118,329 L183,329 L183,291 L201,291 L201,271 L220,271 L220,174 L239,174 L239,154 L21,154 L21,133 L239,133 L239,114 L256,114 L256,133 L269,133 L269,97 L257,97 L257,77 L279,77 L279,155 L258,155 L258,175 L240,175 L240,211 L258,211 L258,230 L279,230 L279,290 L297,290 L297,350 L172,350 L172,336 L118,335 L118,350 L-74,350 L-74,292 L-92,292 L-92,192 L-74,192 L-74,173 L-55,173 L-55,112 L-36,112 L-36,56 L-18,56 L-18,17 L0,17 Z " fill="#123313" transform="translate(150,78)"/>
<path d="M0,0 L199,0 L199,20 L180,20 L180,117 L161,117 L161,137 L143,137 L143,175 L77,175 L77,156 L58,156 L58,137 L39,137 L39,76 L20,76 L20,20 L0,20 Z " fill="#F7DA0E" transform="translate(190,232)"/>
<path d="M0,0 L78,0 L78,18 L97,18 L97,58 L96,78 L108,78 L108,114 L95,114 L95,95 L78,95 L78,114 L-140,114 L-140,95 L-160,95 L-160,39 L-159,1 L-83,1 L-83,17 L-140,17 L-140,76 L-82,76 L-82,18 L-63,18 L-63,38 L0,38 Z M59,19 L59,37 L77,37 L77,19 Z " fill="#4FA83B" transform="translate(311,97)"/>
<path d="M0,0 L22,0 L22,78 L1,78 L1,98 L-17,98 L-17,134 L1,134 L1,153 L22,153 L22,213 L40,213 L40,273 L-83,273 L-82,271 L38,271 L38,215 L21,215 L21,154 L0,154 L-1,153 L-1,135 L-19,135 L-19,98 L-18,77 L-236,77 L-236,56 L-18,56 L-18,37 L-1,37 L-1,56 L12,56 L12,20 L0,20 Z " fill="#133615" transform="translate(407,155)"/>
<path d="M0,0 L56,0 L56,19 L74,19 L74,59 L56,59 L56,79 L38,79 L38,98 L74,98 L74,117 L19,117 L19,79 L0,79 Z " fill="#4FA83B" transform="translate(77,290)"/>
<path d="M0,0 L19,0 L18,38 L36,38 L37,56 L37,97 L19,97 L19,136 L58,136 L58,155 L-18,155 L-18,136 L0,136 L0,98 L-18,98 L-18,117 L-19,117 L-19,97 L0,97 Z " fill="#173915" transform="translate(370,252)"/>
<path d="M0,0 L39,0 L39,19 L57,19 L58,20 L58,58 L0,58 Z " fill="#133614" transform="translate(331,115)"/>
<path d="M0,0 L39,0 L39,19 L57,19 L58,20 L58,58 L0,58 Z " fill="#133614" transform="translate(171,115)"/>
<path d="M0,0 L19,0 L19,19 L39,19 L39,39 L77,39 L77,58 L0,58 Z " fill="#4FA83B" transform="translate(171,349)"/>
<path d="M0,0 L18,0 L18,39 L57,39 L57,58 L-19,58 L-19,39 L0,39 Z " fill="#50A93B" transform="translate(371,349)"/>
<path d="M0,0 L19,0 L19,60 L38,60 L38,79 L0,79 Z " fill="#143614" transform="translate(210,309)"/>
<path d="M0,0 L19,0 L19,40 L38,40 L38,59 L19,59 L19,79 L0,79 Z " fill="#33882E" transform="translate(77,290)"/>
<path d="M0,0 L1,0 L1,38 L-65,38 L-65,19 L0,20 Z " fill="#E0C608" transform="translate(332,369)"/>
<path d="M0,0 L18,0 L18,60 L-1,60 Z " fill="#133714" transform="translate(97,192)"/>
<path d="M0,0 L21,0 L21,78 L0,78 L0,98 L-18,98 L-18,134 L0,134 L0,153 L21,153 L21,213 L39,213 L39,273 L-84,273 L-83,271 L37,271 L37,215 L20,215 L20,154 L-1,154 L-2,153 L-2,135 L-20,135 L-20,98 L-18,96 L-2,96 L-2,77 L-1,76 L20,76 L19,2 L0,1 Z " fill="#061406" transform="translate(408,155)"/>
<path d="M0,0 L36,0 L55,1 L55,20 L18,20 L18,1 L0,1 Z " fill="#266E25" transform="translate(115,191)"/>
<path d="M0,0 L18,0 L18,40 L0,40 Z " fill="#50A93B" transform="translate(389,309)"/>
<path d="M0,0 L1,0 L1,21 L20,21 L20,40 L1,40 L1,98 L0,98 Z " fill="#296E26" transform="translate(170,309)"/>
<path d="M0,0 L1,0 L1,59 L-19,59 L-19,40 L0,40 Z " fill="#287026" transform="translate(209,309)"/>
<path d="M0,0 L19,0 L19,21 L0,21 Z " fill="#50A93B" transform="translate(151,211)"/>
<path d="M0,0 L18,0 L18,21 L0,21 Z " fill="#266D26" transform="translate(115,309)"/>
<path d="M0,0 L19,0 L19,19 L0,19 Z " fill="#256C25" transform="translate(77,290)"/>
<path d="M0,0 L19,0 L19,19 L0,19 Z " fill="#4EA73B" transform="translate(96,252)"/>
<path d="M0,0 L17,0 L17,19 L0,19 Z " fill="#153A15" transform="translate(294,173)"/>
<path d="M0,0 L17,0 L17,19 L0,19 Z " fill="#153A15" transform="translate(259,173)"/>
<path d="M0,0 L17,0 L17,18 L0,18 Z " fill="#113413" transform="translate(134,290)"/>
<path d="M0,0 L80,0 L80,17 L98,17 L98,36 L97,36 L97,19 L78,19 L78,1 L2,1 L2,18 L-18,18 L-18,36 L-19,36 L-19,17 L0,17 Z " fill="#030A03" transform="translate(310,78)"/>
<path d="M0,0 L58,0 L59,1 L59,23 L57,21 L57,2 L39,2 L0,1 Z " fill="#40862E" transform="translate(331,114)"/>
<path d="M0,0 L18,0 L19,2 L2,2 L2,40 L0,39 Z " fill="#040D04" transform="translate(132,95)"/>
<path d="M0,0 L1,0 L2,15 L4,15 L4,17 L14,16 L16,15 L19,19 L0,19 Z " fill="#D9C711" transform="translate(248,369)"/>
<path d="M0,0 L1,0 L2,15 L-1,16 L-1,2 Z " fill="#35521B" transform="translate(323,412)"/>
</svg>
