<?xml version="1.0" encoding="UTF-8"?>
<!-- Generator: https://ezgif.com/png-to-svg -->
<svg version="1.1" xmlns="http://www.w3.org/2000/svg" width="512" height="512">
<path d="M0,0 L88,0 L90,2 L90,17 L107,17 L108,18 L108,39 L145,39 L145,19 L146,18 L162,18 L162,3 L163,2 L242,2 L244,6 L244,71 L263,71 L264,72 L265,99 L265,152 L264,153 L244,153 L244,186 L242,187 L222,187 L222,209 L250,209 L251,210 L252,245 L252,302 L296,302 L298,304 L298,326 L297,365 L296,366 L163,366 L162,365 L162,350 L116,350 L116,366 L114,368 L-93,368 L-95,366 L-95,325 L-97,325 L-97,279 L-96,213 L-95,211 L-58,211 L-58,145 L-57,144 L-39,144 L-39,105 L-38,104 L-21,104 L-21,62 L-2,62 L-2,2 Z M70,38 L70,56 L88,56 L88,38 Z M205,38 L205,56 L225,56 L225,38 Z " fill="#091A19" transform="translate(153,73)"/>
<path d="M0,0 L73,0 L73,20 L53,20 L30,19 L31,46 L31,75 L73,75 L73,40 L146,39 L147,1 L210,1 L210,20 L169,20 L169,75 L210,75 L210,56 L228,56 L228,115 L45,115 L22,114 L22,135 L45,134 L207,134 L207,156 L188,156 L188,278 L169,278 L169,291 L149,291 L149,308 L98,308 L98,294 L59,294 L58,293 L58,229 L40,229 L40,309 L83,309 L83,331 L-1,331 L-1,196 L-55,196 L-55,127 L-37,127 L-37,87 L-16,87 L-16,46 L0,46 Z " fill="#2F7D74" transform="translate(169,91)"/>
<path d="M0,0 L162,0 L162,22 L143,22 L143,144 L124,144 L124,157 L104,157 L104,174 L53,174 L53,160 L14,160 L13,159 L13,22 L-2,22 L-2,1 Z " fill="#F3B327" transform="translate(214,225)"/>
<path d="M0,0 L73,0 L73,20 L53,20 L30,19 L31,46 L31,75 L73,75 L73,40 L146,39 L147,1 L210,1 L210,20 L169,20 L169,75 L210,75 L210,56 L228,56 L228,115 L45,115 L45,113 L21,113 L21,87 L-1,87 L-1,47 L-15,47 L-15,86 L-16,86 L-16,46 L0,46 Z " fill="#43948B" transform="translate(169,91)"/>
<path d="M0,0 L56,0 L74,1 L74,47 L73,65 L38,65 L38,85 L55,85 L73,86 L73,118 L0,118 Z " fill="#21645D" transform="translate(77,304)"/>
<path d="M0,0 L15,0 L15,95 L60,95 L60,121 L-15,121 L-35,120 L-35,88 L-15,88 L-15,69 L0,69 Z " fill="#2A766E" transform="translate(372,300)"/>
<path d="M0,0 L162,0 L162,22 L13,23 L-2,22 L-2,1 Z " fill="#F6BC2F" transform="translate(214,225)"/>
<path d="M0,0 L19,0 L19,21 L34,21 L34,94 L18,94 L18,21 L0,21 Z " fill="#25675F" transform="translate(193,226)"/>
<path d="M0,0 L20,0 L20,17 L36,17 L36,32 L80,32 L80,8 L50,8 L50,7 L95,7 L95,33 L20,33 L0,32 Z " fill="#246A63" transform="translate(337,388)"/>
<path d="M0,0 L38,0 L38,46 L19,46 L19,19 L0,19 Z " fill="#31827A" transform="translate(95,305)"/>
<path d="M0,0 L62,0 L62,19 L21,19 L0,18 Z " fill="#2D7E76" transform="translate(317,92)"/>
<path d="M0,0 L22,0 L22,26 L46,26 L46,27 L23,27 L23,48 L0,48 Z " fill="#236760" transform="translate(168,178)"/>
<path d="M0,0 L15,0 L15,51 L0,51 Z " fill="#2D7E76" transform="translate(372,300)"/>
<path d="M0,0 L17,1 L17,40 L0,40 Z " fill="#2D7D74" transform="translate(115,247)"/>
<path d="M0,0 L20,0 L20,32 L0,32 Z " fill="#154742" transform="translate(337,388)"/>
<path d="M0,0 L19,0 L19,31 L1,31 L1,15 L0,14 Z " fill="#2D7D75" transform="translate(131,390)"/>
<path d="M0,0 L43,0 L43,22 L-41,22 L-41,5 L-19,5 L-19,21 L42,21 L42,1 L0,1 Z " fill="#1E5B55" transform="translate(209,400)"/>
<path d="M0,0 L20,0 L20,23 L0,23 Z " fill="#19534C" transform="translate(133,264)"/>
<path d="M0,0 L18,0 L18,13 L-165,13 L-165,12 L0,12 Z " fill="#245C57" transform="translate(379,193)"/>
<path d="M0,0 L18,0 L18,16 L73,16 L73,17 L0,17 Z " fill="#14443F" transform="translate(77,405)"/>
<path d="M0,0 L16,0 L16,16 L0,16 Z " fill="#0B1D1C" transform="translate(275,161)"/>
<path d="M0,0 L15,0 L15,16 L0,16 Z " fill="#0B1D1C" transform="translate(303,161)"/>
<path d="M0,0 L19,0 L19,1 L11,2 L2,2 L2,18 L-51,18 L-51,17 L0,17 Z " fill="#312B15" transform="translate(318,382)"/>
<path d="M0,0 L1,0 L1,13 L-19,13 L-19,30 L-21,29 L-21,15 L-28,15 L-27,13 L-25,13 L-25,11 L0,12 Z " fill="#B78913" transform="translate(337,369)"/>
<path d="M0,0 L3,4 L3,12 L0,12 Z " fill="#213C38" transform="translate(56,352)"/>
<path d="M0,0 Z " fill="#203935" transform="translate(404,440)"/>
</svg>
