<?xml version="1.0" encoding="UTF-8"?>
<!-- Generator: https://ezgif.com/png-to-svg -->
<svg version="1.1" xmlns="http://www.w3.org/2000/svg" width="512" height="512">
<path d="M0,0 L66,0 L66,14 L83,14 L83,31 L151,31 L151,14 L167,14 L167,0 L232,0 L233,3 L232,14 L249,14 L249,30 L265,30 L265,90 L279,90 L279,150 L264,150 L264,165 L249,165 L249,208 L279,208 L279,223 L293,223 L293,277 L279,277 L279,304 L297,304 L298,305 L298,319 L314,319 L314,351 L281,351 L281,369 L203,369 L203,351 L167,351 L167,335 L113,335 L113,368 L-64,368 L-64,352 L-78,352 L-78,337 L-94,337 L-94,321 L-108,321 L-108,306 L-124,306 L-123,236 L-108,236 L-108,200 L-94,200 L-94,176 L-78,176 L-78,145 L-64,145 L-64,114 L-63,113 L-48,113 L-48,85 L-36,84 L-33,85 L-33,31 L-31,30 L-20,30 L-17,31 L-17,14 L0,14 Z M34,33 L34,49 L48,49 L48,33 Z M217,33 L217,49 L231,49 L231,33 Z " fill="#1C3606" transform="translate(156,69)"/>
<path d="M0,0 L65,0 L66,3 L65,14 L82,14 L82,30 L98,30 L98,90 L112,90 L112,150 L97,150 L97,165 L82,165 L82,208 L112,208 L112,223 L126,223 L126,277 L112,277 L112,304 L130,304 L131,305 L131,319 L147,319 L147,351 L114,351 L114,369 L36,369 L36,351 L0,351 L0,335 L-54,335 L-54,368 L-231,368 L-231,352 L-245,352 L-245,337 L-261,337 L-261,321 L-275,321 L-275,306 L-291,306 L-290,236 L-275,236 L-275,303 L-273,305 L-273,319 L-230,320 L-230,336 L-167,336 L-166,320 L-151,320 L-151,351 L-102,351 L-102,320 L-118,320 L-118,221 L-102,221 L-102,302 L-85,302 L-85,318 L-1,318 L-1,302 L15,302 L15,286 L32,286 L32,256 L48,256 L48,172 L64,172 L64,164 L81,164 L81,150 L96,150 L96,135 L-152,135 L-152,121 L96,121 L96,91 L81,91 L81,31 L65,31 L65,16 L0,16 L0,31 L-16,31 L-16,14 L0,14 Z " fill="#0A1C06" transform="translate(323,69)"/>
<path d="M0,0 L248,0 L248,15 L233,15 L233,29 L216,29 L216,37 L200,37 L200,121 L184,121 L184,151 L167,151 L167,167 L151,167 L151,183 L67,183 L67,167 L50,167 L50,86 L34,86 L34,29 L19,29 L19,15 L0,15 Z " fill="#D0B51B" transform="translate(171,204)"/>
<path d="M0,0 L64,0 L64,15 L81,15 L81,33 L150,33 L150,15 L166,15 L166,0 L231,0 L231,15 L247,15 L247,75 L262,75 L262,105 L15,105 L15,69 L48,69 L48,16 L0,16 Z M216,17 L216,33 L230,33 L230,17 Z " fill="#678E14" transform="translate(157,85)"/>
<path d="M0,0 L65,0 L65,15 L81,15 L81,75 L96,75 L96,105 L95,105 L95,81 L66,81 L66,80 L80,80 L80,70 L18,70 L18,80 L25,80 L25,81 L18,81 L18,87 L57,87 L57,88 L33,88 L34,102 L32,102 L32,88 L18,88 L18,104 L17,104 L17,88 L12,88 L12,93 L11,93 L11,88 L-1,88 L-1,102 L-2,102 L-2,88 L-12,88 L-12,102 L-13,102 L-13,95 L-18,96 L-18,94 L-13,94 L-13,88 L-21,88 L-21,104 L-22,104 L-22,88 L-47,88 L-47,104 L-48,104 L-48,88 L-54,88 L-54,87 L-48,87 L-48,76 L-47,80 L-39,79 L-27,79 L-27,75 L-31,74 L-27,74 L-26,71 L-26,79 L-22,79 L-22,70 L-33,70 L-33,69 L-22,69 L-22,64 L-33,64 L-31,63 L-31,59 L-26,59 L-26,62 L-23,62 L-23,59 L-21,59 L-21,63 L-17,63 L-16,59 L-16,63 L-13,63 L-12,59 L-12,63 L-7,63 L-6,60 L-6,63 L-3,63 L-2,57 L17,57 L17,44 L-7,44 L-7,52 L-6,56 L-3,58 L-34,58 L-34,75 L-52,75 L-52,57 L-22,57 L-22,52 L-33,52 L-33,47 L-27,47 L-27,45 L-32,45 L-32,44 L-22,44 L-22,40 L-34,40 L-34,43 L-36,43 L-36,40 L-47,40 L-47,39 L-36,39 L-36,35 L-86,34 L-86,16 L-102,16 L-102,15 L-85,15 L-85,33 L-16,33 L-16,15 L0,15 Z M50,17 L50,33 L64,33 L64,17 Z " fill="#678E13" transform="translate(323,85)"/>
<path d="M0,0 L17,0 L17,14 L59,14 L59,29 L-9,29 L-9,37 L-24,37 L-24,28 L-6,28 L-6,21 L-4,21 L-4,28 L12,28 L12,20 L-25,20 L-25,38 L-9,38 L-9,52 L75,52 L75,38 L92,38 L92,68 L75,68 L75,84 L59,84 L59,100 L-25,100 L-25,84 L-42,84 L-42,3 L-41,3 L-41,19 L16,19 L16,14 L0,14 Z " fill="#D19402" transform="translate(263,287)"/>
<path d="M0,0 L65,0 L66,3 L65,14 L82,14 L82,30 L98,30 L98,90 L112,90 L112,150 L97,150 L97,165 L82,165 L82,208 L111,208 L111,210 L81,210 L80,208 L80,165 L81,150 L96,150 L96,135 L-152,135 L-152,121 L96,121 L96,91 L81,91 L81,31 L65,31 L65,16 L0,16 L0,31 L-16,31 L-16,14 L0,14 Z " fill="#091B06" transform="translate(323,69)"/>
<path d="M0,0 L31,0 L31,15 L164,15 L164,29 L132,29 L132,46 L116,46 L116,60 L74,60 L74,46 L57,46 L57,60 L73,60 L73,65 L16,65 L15,46 L0,46 Z " fill="#EBD058" transform="translate(206,241)"/>
<path d="M0,0 L15,0 L15,112 L31,112 L31,143 L-18,143 L-18,112 L-33,112 L-33,29 L-18,29 L-18,16 L0,16 Z " fill="#404905" transform="translate(190,277)"/>
<path d="M0,0 L31,0 L31,62 L16,62 L16,78 L1,78 L1,95 L35,94 L39,93 L40,95 L63,96 L63,113 L31,113 L0,112 L0,96 L-30,96 L-30,52 L-44,52 L-44,13 L-30,13 L-30,27 L-13,27 L-13,13 L0,13 Z " fill="#365A06" transform="translate(93,293)"/>
<path d="M0,0 L248,0 L248,15 L0,15 Z " fill="#E0C859" transform="translate(171,204)"/>
<path d="M0,0 L15,0 L15,35 L0,35 L0,54 L-17,54 L-17,68 L-101,68 L-101,54 L-117,54 L-117,36 L-80,36 L-80,44 L-96,44 L-96,37 L-98,44 L-116,44 L-116,53 L-101,53 L-101,45 L-33,45 L-33,30 L-16,30 L-16,16 L0,16 Z " fill="#ECD057" transform="translate(355,271)"/>
<path d="M0,0 L16,0 L16,14 L31,14 L31,61 L0,61 L0,74 L-13,74 L-13,88 L-30,88 L-30,38 L-14,38 L-14,13 L0,13 Z " fill="#491603" transform="translate(93,232)"/>
<path d="M0,0 L17,0 L17,14 L59,14 L59,29 L-9,29 L-9,37 L-24,37 L-24,28 L-6,28 L-6,21 L-4,21 L-4,28 L12,28 L12,20 L-25,20 L-25,38 L-26,52 L-10,52 L-10,69 L59,69 L59,83 L-25,83 L-25,68 L-41,68 L-41,19 L16,19 L16,14 L0,14 Z " fill="#DEB916" transform="translate(263,287)"/>
<path d="M0,0 L1,0 L1,15 L17,15 L17,75 L32,75 L32,105 L31,105 L31,81 L2,81 L2,80 L16,80 L16,70 L-46,70 L-46,80 L-39,80 L-39,81 L-46,81 L-46,87 L-7,87 L-7,88 L-31,88 L-30,102 L-32,102 L-32,88 L-46,88 L-46,104 L-47,104 L-47,88 L-52,88 L-52,93 L-53,93 L-53,88 L-65,88 L-65,102 L-66,102 L-66,88 L-76,88 L-76,102 L-77,102 L-77,95 L-82,96 L-82,94 L-77,94 L-77,88 L-85,88 L-85,104 L-86,104 L-86,88 L-111,88 L-111,104 L-112,104 L-112,88 L-118,88 L-118,87 L-112,87 L-112,76 L-111,80 L-103,79 L-90,80 L-90,81 L-111,81 L-111,87 L-86,87 L-85,83 L-85,87 L-77,87 L-77,82 L-76,82 L-76,87 L-66,87 L-65,83 L-65,87 L-47,87 L-47,81 L-62,81 L-62,80 L-47,80 L-48,69 L-36,69 L-36,64 L-47,64 L-47,63 L-33,63 L-32,1 L-31,1 L-31,6 L-16,6 L-16,2 L-18,1 L-15,1 L-15,6 L-7,6 L-6,3 L-6,6 L-1,6 L-1,7 L-6,7 L-6,14 L-7,14 L-7,7 L-31,7 L-31,15 L0,15 Z M-14,17 L-14,33 L0,33 L0,17 Z " fill="#648B13" transform="translate(387,85)"/>
<path d="M0,0 L48,0 L48,53 L0,53 Z M33,1 L33,17 L47,17 L47,1 Z " fill="#091C07" transform="translate(157,101)"/>
<path d="M0,0 L1,0 L1,16 L17,16 L17,7 L8,7 L8,9 L6,9 L6,7 L2,6 L17,6 L18,3 L18,16 L31,16 L31,28 L18,28 L17,32 L17,28 L-1,28 L-1,33 L28,33 L29,29 L29,33 L31,34 L18,34 L18,57 L31,57 L31,58 L15,58 L15,75 L-1,75 L-1,57 L17,57 L17,44 L-7,44 L-7,52 L-6,56 L-3,58 L-34,58 L-34,75 L-52,75 L-52,57 L-22,57 L-22,52 L-33,52 L-33,47 L-27,47 L-27,45 L-32,45 L-32,44 L-22,44 L-22,40 L-34,40 L-34,43 L-36,43 L-36,40 L-47,40 L-47,39 L-36,39 L-36,35 L-86,34 L-86,16 L-102,16 L-102,15 L-85,15 L-85,33 L-16,33 L-16,15 L0,15 Z " fill="#628612" transform="translate(323,85)"/>
<path d="M0,0 L14,0 L14,18 L31,18 L31,31 L47,31 L47,47 L64,47 L64,62 L19,62 L19,47 L0,47 Z " fill="#3B6107" transform="translate(357,358)"/>
<path d="M0,0 L512,0 L512,512 L0,512 Z M1,1 L1,511 L511,511 L511,1 Z " fill="#2C351D" transform="translate(0,0)"/>
<path d="M0,0 L19,0 L19,19 L34,19 L34,36 L19,36 L19,52 L1,52 L1,65 L-14,65 L-14,19 L0,19 Z " fill="#4B1703" transform="translate(171,241)"/>
<path d="M0,0 L1,0 L1,112 L-16,112 L-16,93 L-31,93 L-31,122 L-32,122 L-32,92 L-16,92 L-16,8 L0,8 Z " fill="#5D8512" transform="translate(387,233)"/>
<path d="M0,0 L49,0 L49,31 L0,31 Z " fill="#3A6007" transform="translate(172,389)"/>
<path d="M0,0 L33,0 L33,27 L16,27 L16,46 L0,46 L0,27 L-15,27 L-15,10 L0,10 Z " fill="#4A1703" transform="translate(124,173)"/>
<path d="M0,0 L31,0 L31,1 L17,1 L17,17 L31,17 L31,53 L0,53 Z " fill="#081C06" transform="translate(356,101)"/>
<path d="M0,0 L29,0 L29,33 L15,33 L15,53 L0,53 Z " fill="#4C1503" transform="translate(404,293)"/>
<path d="M0,0 L30,0 L30,28 L17,28 L17,42 L0,42 Z " fill="#4A1703" transform="translate(63,278)"/>
<path d="M0,0 L107,0 L107,13 L11,13 L11,11 L15,11 L15,7 L18,7 L19,10 L20,7 L29,7 L31,4 L33,4 L33,9 L36,4 L30,3 L29,6 L26,6 L26,4 L0,3 Z M39,3 L40,12 L60,12 L62,8 L65,6 L61,6 L61,3 Z " fill="#E9CF5D" transform="translate(311,205)"/>
<path d="M0,0 L53,0 L53,17 L0,17 Z " fill="#4C1503" transform="translate(254,101)"/>
<path d="M0,0 L14,0 L14,15 L30,15 L30,33 L-16,33 L-16,25 L0,25 Z " fill="#395D06" transform="translate(79,245)"/>
<path d="M0,0 L16,0 L16,53 L0,53 Z " fill="#668D14" transform="translate(140,101)"/>
<path d="M0,0 L1,0 L1,91 L-16,91 L-16,72 L-31,72 L-31,101 L-32,101 L-32,71 L-16,71 L-16,52 L0,52 Z " fill="#3D5F07" transform="translate(387,254)"/>
<path d="M0,0 L15,0 L15,33 L-16,33 L-16,19 L0,19 Z " fill="#5F8512" transform="translate(109,306)"/>
<path d="M0,0 L44,0 L44,4 L35,4 L35,10 L33,10 L33,7 L31,7 L30,12 L29,10 L27,9 L29,9 L29,7 L27,6 L33,5 L26,4 L26,13 L42,13 L42,14 L-33,14 L-33,30 L-49,30 L-49,13 L10,13 L10,10 L7,10 L7,6 L10,6 L10,4 L6,4 L6,12 L5,12 L5,4 L-6,4 L-6,3 L0,3 Z " fill="#E9CE56" transform="translate(296,257)"/>
<path d="M0,0 L42,0 L42,14 L0,14 Z " fill="#D29202" transform="translate(280,301)"/>
<path d="M0,0 L17,0 L17,31 L0,31 Z " fill="#4C1803" transform="translate(371,345)"/>
<path d="M0,0 L17,0 L17,17 L1,17 L1,31 L-16,31 L-16,17 L0,17 Z " fill="#D29E07" transform="translate(338,270)"/>
<path d="M0,0 L31,0 L31,16 L0,16 Z " fill="#5F8512" transform="translate(421,389)"/>
<path d="M0,0 L30,0 L30,16 L0,16 Z " fill="#3D6207" transform="translate(94,389)"/>
<path d="M0,0 L31,0 L31,15 L0,15 Z " fill="#0A1D07" transform="translate(93,278)"/>
<path d="M0,0 L14,0 L14,32 L0,32 Z " fill="#618813" transform="translate(419,293)"/>
<path d="M0,0 L33,0 L33,17 L32,13 L27,13 L27,9 L19,8 L18,11 L17,9 L17,16 L0,17 Z " fill="#4C1603" transform="translate(172,371)"/>
<path d="M0,0 L14,0 L14,26 L0,26 Z " fill="#4A1703" transform="translate(49,345)"/>
<path d="M0,0 L1,0 L1,32 L15,32 L15,33 L1,33 L1,53 L-14,53 L-14,32 L0,32 Z " fill="#405D07" transform="translate(418,293)"/>
<path d="M0,0 L14,0 L14,24 L0,24 Z " fill="#4F1703" transform="translate(404,346)"/>
<path d="M0,0 L16,0 L16,19 L0,19 Z " fill="#D39704" transform="translate(355,306)"/>
<path d="M0,0 L16,0 L16,17 L0,17 Z " fill="#D2AF10" transform="translate(247,270)"/>
<path d="M0,0 L16,0 L16,17 L0,17 Z " fill="#091C07" transform="translate(272,143)"/>
<path d="M0,0 L14,0 L14,19 L0,19 Z " fill="#4E1603" transform="translate(419,326)"/>
<path d="M0,0 L16,0 L16,16 L0,16 Z " fill="#3B6107" transform="translate(140,389)"/>
<path d="M0,0 L17,0 L17,15 L0,15 Z " fill="#608613" transform="translate(404,405)"/>
<path d="M0,0 L15,0 L15,17 L0,17 Z " fill="#091B07" transform="translate(322,143)"/>
<path d="M0,0 L14,0 L14,18 L0,18 Z " fill="#3A6206" transform="translate(157,371)"/>
<path d="M0,0 L15,0 L15,16 L0,16 Z " fill="#5E8512" transform="translate(205,389)"/>
<path d="M0,0 L15,0 L15,16 L0,16 Z " fill="#608812" transform="translate(388,389)"/>
<path d="M0,0 L17,0 L17,14 L0,14 Z " fill="#D2AD0F" transform="translate(263,287)"/>
<path d="M0,0 L1,0 L1,15 L17,15 L17,16 L1,16 L1,69 L0,69 L0,16 L-31,16 L-31,69 L-32,69 L-32,1 L-31,1 L-31,6 L-16,6 L-16,2 L-18,1 L-15,1 L-15,6 L-7,6 L-6,3 L-6,6 L-1,6 L-1,7 L-6,7 L-6,14 L-7,14 L-7,7 L-31,7 L-31,15 L0,15 Z " fill="#46640E" transform="translate(387,85)"/>
<path d="M0,0 L15,0 L15,15 L0,15 Z " fill="#608612" transform="translate(238,405)"/>
<path d="M0,0 L14,0 L14,16 L0,16 Z " fill="#5E8612" transform="translate(110,389)"/>
<path d="M0,0 Z " fill="#4D691C" transform="translate(384,116)"/>
<path d="M0,0 Z " fill="#57731E" transform="translate(385,103)"/>
</svg>
