<?xml version="1.0" encoding="UTF-8"?>
<!-- Generator: https://ezgif.com/png-to-svg -->
<svg version="1.1" xmlns="http://www.w3.org/2000/svg" width="512" height="512">
<path d="M0,0 L93,0 L93,18 L110,18 L111,37 L155,37 L158,38 L158,18 L176,18 L176,1 L177,0 L265,0 L266,1 L266,18 L284,18 L284,104 L314,104 L314,168 L297,168 L297,185 L281,185 L281,219 L280,220 L263,220 L263,236 L280,236 L280,314 L321,314 L321,367 L193,367 L193,349 L110,349 L110,366 L-87,366 L-87,319 L-105,319 L-105,216 L-87,216 L-87,197 L-69,197 L-69,163 L-68,162 L-52,162 L-52,105 L-51,104 L-35,104 L-35,69 L-18,69 L-18,18 L0,18 Z " fill="#060505" transform="translate(150,77)"/>
<path d="M0,0 L72,0 L72,35 L157,35 L157,0 L244,0 L244,88 L230,88 L230,86 L228,86 L228,17 L212,17 L212,72 L194,72 L194,17 L175,17 L175,86 L174,88 L158,88 L157,87 L157,72 L139,72 L143,70 L144,67 L141,66 L141,64 L144,64 L144,62 L122,61 L122,72 L105,72 L105,88 L122,88 L122,107 L17,107 L17,127 L228,127 L228,107 L246,107 L246,88 L259,88 L259,107 L276,107 L276,127 L259,127 L259,162 L258,163 L242,163 L242,181 L52,181 L52,297 L71,297 L71,327 L59,327 L59,308 L51,309 L50,311 L49,327 L0,327 L0,288 L-18,288 L-19,287 L-19,201 L-24,199 L-31,190 L-31,188 L-33,188 L-33,185 L-35,185 L-36,182 L-54,181 L-54,107 L-37,107 L-37,88 L-19,88 L-19,38 L-18,37 L0,37 Z " fill="#58504D" transform="translate(170,98)"/>
<path d="M0,0 L17,1 L18,7 L18,36 L1,36 L1,52 L18,52 L18,130 L59,130 L59,183 L-69,183 L-69,165 L-152,165 L-152,182 L-320,182 L-320,180 L-322,181 L-344,181 L-347,179 L-156,179 L-156,177 L-162,177 L-162,176 L-186,175 L-186,174 L-158,173 L-158,170 L-164,169 L-164,168 L-176,167 L-176,166 L-158,165 L-158,164 L-168,163 L-170,163 L-170,134 L-190,134 L-190,18 L0,18 Z " fill="#020202" transform="translate(412,261)"/>
<path d="M0,0 L72,0 L72,35 L157,35 L157,0 L244,0 L244,88 L230,88 L230,86 L228,86 L228,17 L212,17 L212,72 L194,72 L194,17 L175,17 L175,86 L174,88 L158,88 L157,87 L157,72 L139,72 L143,70 L144,67 L141,66 L141,64 L144,64 L144,62 L122,61 L122,72 L105,72 L105,88 L122,88 L122,107 L89,107 L89,88 L72,88 L72,86 L70,86 L70,74 L89,74 L89,52 L87,52 L87,54 L69,54 L65,50 L57,49 L57,52 L54,52 L54,72 L36,72 L36,17 L17,17 L17,88 L4,88 L2,84 L0,84 L0,52 L-19,52 L-19,38 L-18,37 L0,37 Z " fill="#968D85" transform="translate(170,98)"/>
<path d="M0,0 L39,0 L44,5 L49,14 L49,16 L52,17 L53,20 L55,46 L56,51 L56,65 L53,73 L47,81 L39,89 L26,95 L19,95 L19,109 L70,109 L70,130 L0,130 L0,91 L-17,91 L-17,18 L0,18 Z " fill="#514946" transform="translate(81,295)"/>
<path d="M0,0 L108,0 L130,1 L131,3 L131,10 L129,15 L120,21 L113,24 L112,36 L110,42 L21,42 L21,21 L0,21 Z " fill="#48413E" transform="translate(238,367)"/>
<path d="M0,0 L87,0 L87,88 L73,88 L73,86 L71,86 L71,17 L55,17 L55,72 L37,72 L37,17 L18,17 L18,66 L0,66 L0,53 L12,52 L12,49 L0,47 Z " fill="#928B83" transform="translate(327,98)"/>
<path d="M0,0 L211,0 L211,20 L0,20 Z " fill="#040303" transform="translate(187,205)"/>
<path d="M0,0 L72,0 L72,35 L87,35 L86,39 L87,41 L55,41 L54,72 L36,72 L36,17 L17,17 L17,88 L4,88 L2,84 L0,84 L0,52 L-19,52 L-19,38 L-18,37 L0,37 Z " fill="#9B948D" transform="translate(170,98)"/>
<path d="M0,0 L19,0 L19,55 L37,55 L37,35 L40,35 L40,32 L48,32 L52,36 L70,37 L70,35 L72,35 L72,57 L53,57 L53,69 L55,69 L55,71 L72,71 L72,90 L54,90 L54,73 L0,73 L0,76 L-17,76 L-17,73 L-36,73 L-36,35 L-17,35 L-17,67 L-15,67 L-13,70 L0,71 Z " fill="#574D49" transform="translate(187,115)"/>
<path d="M0,0 L139,0 L142,6 L142,14 L141,17 L136,21 L128,25 L4,25 L0,21 Z " fill="#6A615C" transform="translate(238,331)"/>
<path d="M0,0 L154,0 L158,4 L159,7 L159,15 L157,15 L155,19 L150,22 L0,22 Z " fill="#665E5A" transform="translate(238,295)"/>
<path d="M0,0 L3,0 L4,66 L14,80 L20,84 L21,86 L21,101 L-45,101 L-45,81 L-38,73 L-29,59 L-24,50 L-18,33 L-16,20 L-14,20 L-12,11 L-9,5 Z " fill="#5B524E" transform="translate(409,324)"/>
<path d="M0,0 L2,2 L2,13 L5,14 L5,17 L11,17 L11,39 L32,39 L32,40 L11,40 L11,55 L33,55 L33,56 L11,56 L11,124 L-7,124 L-8,123 L-8,37 L-13,35 L-20,26 L-20,24 L-22,24 L-22,21 L-24,21 L-25,18 L-43,17 L-43,2 L0,2 Z " fill="#413A38" transform="translate(159,262)"/>
<path d="M0,0 L39,0 L44,5 L49,14 L49,16 L52,17 L53,20 L53,46 L52,48 L50,48 L48,53 L45,57 L43,57 L41,61 L35,68 L33,68 L33,59 L38,52 L39,49 L42,49 L44,45 L44,40 L40,37 L40,35 L33,35 L32,40 L29,44 L27,44 L25,48 L21,53 L19,53 L19,55 L14,55 L14,43 L18,38 L20,38 L20,36 L7,35 L7,37 L0,37 L-1,34 L-1,50 L-2,53 L-17,53 L-17,18 L0,18 Z " fill="#635A56" transform="translate(81,295)"/>
<path d="M0,0 L16,0 L17,9 L35,9 L35,11 L52,11 L52,18 L71,18 L71,48 L59,48 L59,29 L51,30 L50,32 L49,48 L0,48 Z " fill="#6E6560" transform="translate(170,377)"/>
<path d="M0,0 L108,0 L108,21 L0,21 Z " fill="#605753" transform="translate(238,367)"/>
<path d="M0,0 L18,0 L18,2 L37,2 L37,5 L54,5 L54,2 L71,1 L89,1 L108,2 L108,19 L54,19 L54,39 L37,39 L37,19 L0,19 Z " fill="#645C58" transform="translate(133,186)"/>
<path d="M0,0 L23,0 L22,3 L19,3 L19,5 L27,5 L23,8 L21,10 L17,10 L17,31 L20,29 L33,29 L33,32 L47,32 L50,33 L51,37 L50,42 L17,42 L17,44 L52,45 L52,36 L105,36 L105,37 L122,38 L122,39 L105,39 L104,46 L0,46 L0,27 L-17,27 L-17,11 L0,11 Z " fill="#59524E" transform="translate(292,159)"/>
<path d="M0,0 L512,0 L512,512 L39,512 L39,511 L511,511 L511,1 L1,1 L1,512 L0,512 Z " fill="#DCDCDC" transform="translate(0,0)"/>
<path d="M0,0 L54,0 L54,12 L67,12 L66,17 L69,18 L54,18 L54,31 L72,31 L72,51 L71,53 L55,53 L54,52 L54,37 L36,37 L40,35 L41,32 L38,31 L38,29 L41,29 L41,27 L19,26 L19,18 L0,18 Z " fill="#898079" transform="translate(273,133)"/>
<path d="M0,0 L15,0 L19,4 L20,7 L20,15 L18,15 L16,19 L11,22 L-109,22 L-114,20 L-114,19 L-107,18 L-107,17 L-85,16 L-85,8 L-33,8 L-33,17 L-29,15 L0,15 L0,7 L-104,7 L-104,6 L0,6 Z " fill="#5B534F" transform="translate(377,295)"/>
<path d="M0,0 L33,0 L33,6 L34,7 L34,0 L45,0 L43,4 L37,9 L26,14 L19,14 L19,28 L70,28 L70,48 L1,48 L1,38 L33,38 L33,39 L27,40 L47,41 L46,44 L55,47 L55,29 L1,29 Z " fill="#5D534F" transform="translate(81,376)"/>
<path d="M0,0 L50,0 L50,76 L36,76 L36,74 L34,74 L34,5 L18,5 L0,4 Z " fill="#999189" transform="translate(364,110)"/>
<path d="M0,0 L13,0 L13,19 L30,19 L30,39 L-18,39 L-18,19 L0,19 Z " fill="#928981" transform="translate(416,186)"/>
<path d="M0,0 L18,0 L18,6 L35,6 L35,51 L22,51 L20,47 L18,47 L18,15 L-1,15 L-1,1 Z " fill="#8F867E" transform="translate(152,135)"/>
<path d="M0,0 L1,3 L4,4 L1,5 L3,12 L5,13 L5,21 L-1,38 L-3,45 L-3,52 L-1,56 L1,56 L1,58 L5,60 L9,66 L12,69 L14,72 L-32,72 L-32,67 L-25,59 L-16,45 L-11,36 L-5,19 L-3,6 L-1,6 Z " fill="#4C4341" transform="translate(396,338)"/>
<path d="M0,0 L18,0 L18,55 L0,55 Z " fill="#010101" transform="translate(345,115)"/>
<path d="M0,0 L18,0 L18,55 L0,55 Z " fill="#010101" transform="translate(187,115)"/>
<path d="M0,0 L18,0 L18,55 L0,55 Z " fill="#FFFFFF" transform="translate(364,115)"/>
<path d="M0,0 L18,0 L18,55 L0,55 Z " fill="#FEFEFE" transform="translate(206,115)"/>
<path d="M0,0 L54,0 L54,30 L42,30 L42,11 L34,12 L33,14 L32,30 L18,30 L18,14 L13,14 L12,13 L1,12 L1,9 L18,9 L18,1 L0,1 Z " fill="#988F88" transform="translate(187,395)"/>
<path d="M0,0 L33,0 L33,4 L33,5 L118,6 L118,16 L85,16 L85,7 L33,7 L33,13 L48,13 L49,16 L13,17 L13,18 L5,19 L9,21 L0,21 Z " fill="#7C726C" transform="translate(259,296)"/>
<path d="M0,0 L3,0 L3,49 L-1,49 L-1,53 L-3,53 L-3,55 L-1,56 L0,59 L0,68 L-15,68 L-17,66 L-17,59 L-12,43 L-9,35 L-9,27 L-12,23 L-13,18 L-12,17 L-12,11 L-9,5 Z " fill="#857A73" transform="translate(409,324)"/>
<path d="M0,0 L23,0 L22,3 L19,3 L19,5 L27,5 L23,8 L21,10 L17,10 L17,31 L20,29 L33,29 L33,32 L0,32 L0,27 L-17,27 L-17,11 L0,11 Z " fill="#635B56" transform="translate(292,159)"/>
<path d="M0,0 L16,0 L16,57 L0,56 Z " fill="#030202" transform="translate(382,115)"/>
<path d="M0,0 L30,0 L30,25 L-6,25 L-7,20 L-5,7 L-3,2 Z " fill="#8C847C" transform="translate(192,318)"/>
<path d="M0,0 L16,0 L16,19 L15,22 L29,22 L30,25 L-92,25 L-91,22 L-72,21 L-70,20 L-70,22 L-59,21 L-57,19 L-9,19 L-13,21 L-4,24 L-4,21 L-2,21 L-1,7 L-5,5 L-5,2 Z " fill="#070505" transform="translate(438,406)"/>
<path d="M0,0 L52,0 L52,16 L22,16 L0,15 Z " fill="#6D645F" transform="translate(170,302)"/>
<path d="M0,0 L52,0 L52,23 L51,25 L49,25 L47,30 L44,34 L42,34 L40,38 L34,45 L32,45 L32,36 L37,29 L38,26 L41,26 L43,22 L43,17 L39,14 L39,12 L22,12 L21,6 L15,4 L8,3 L7,8 L6,10 L0,10 Z " fill="#827771" transform="translate(82,318)"/>
<path d="M0,0 L21,0 L21,2 L24,2 L25,6 L27,6 L27,11 L34,11 L34,12 L26,12 L26,14 L20,18 L18,18 L18,20 L34,20 L34,21 L15,21 L15,25 L-6,25 L-7,22 L-9,21 L-9,4 L-6,2 L0,2 Z " fill="#7F746F" transform="translate(170,254)"/>
<path d="M0,0 L54,0 L54,14 L0,14 Z " fill="#47403D" transform="translate(116,205)"/>
<path d="M0,0 L33,0 L35,2 L35,10 L34,17 L48,17 L44,19 L47,21 L1,21 L0,18 Z " fill="#544C49" transform="translate(292,243)"/>
<path d="M0,0 L29,0 L32,6 L32,14 L31,17 L26,21 L18,25 L0,25 Z " fill="#524A47" transform="translate(348,331)"/>
<path d="M0,0 L21,0 L21,6 L30,6 L30,24 L34,25 L4,25 L0,21 Z " fill="#4F4744" transform="translate(238,331)"/>
<path d="M0,0 L18,0 L18,2 L29,2 L35,4 L35,20 L0,20 Z " fill="#4E4744" transform="translate(170,405)"/>
<path d="M0,0 L37,0 L37,18 L0,18 Z " fill="#807871" transform="translate(309,368)"/>
<path d="M0,0 L108,0 L108,1 L36,1 L36,9 L21,9 L21,21 L0,21 Z " fill="#47403E" transform="translate(238,367)"/>
<path d="M0,0 L1,4 L-2,12 L1,15 L0,17 L-6,18 L-7,21 L-2,22 L-2,23 L4,24 L2,27 L4,29 L0,29 L1,31 L29,31 L32,30 L35,32 L36,29 L37,34 L26,35 L24,37 L20,36 L20,33 L-31,33 L-31,19 L-22,17 L-10,11 L-1,2 Z " fill="#151212" transform="translate(131,371)"/>
<path d="M0,0 L18,0 L23,8 L28,17 L29,21 L-22,21 L-22,15 L0,15 Z " fill="#857B74" transform="translate(104,296)"/>
<path d="M0,0 L14,0 L15,2 L15,11 L38,11 L38,16 L-51,16 L-51,11 L-1,11 L-1,2 Z " fill="#6C635D" transform="translate(310,393)"/>
<path d="M0,0 L26,0 L30,6 L30,21 L8,21 L0,20 Z " fill="#857B74" transform="translate(116,241)"/>
<path d="M0,0 L22,0 L21,2 L19,2 L17,11 L16,25 L52,25 L52,26 L16,26 L16,31 L0,31 Z " fill="#7C746D" transform="translate(170,318)"/>
<path d="M0,0 L17,0 L17,2 L19,2 L21,7 L21,12 L-33,12 L-33,2 L0,1 Z " fill="#4F4743" transform="translate(397,413)"/>
<path d="M0,0 L50,0 L50,11 L0,11 Z " fill="#9D968F" transform="translate(364,98)"/>
<path d="M0,0 L16,0 L16,2 L30,2 L30,0 L47,0 L46,4 L30,4 L30,17 L-1,17 L-1,9 Z " fill="#514946" transform="translate(382,257)"/>
<path d="M0,0 L19,0 L20,6 L20,19 L46,19 L45,25 L19,25 L19,18 L0,18 Z " fill="#534C48" transform="translate(273,133)"/>
<path d="M0,0 L21,0 L21,22 L0,22 Z " fill="#59514D" transform="translate(238,295)"/>
<path d="M0,0 L18,0 L18,17 L-11,17 L-11,16 L0,16 L0,10 L-7,13 L-18,13 L-18,4 L0,4 Z " fill="#888079" transform="translate(223,188)"/>
<path d="M0,0 L1,0 L2,91 L0,93 L-70,93 L-70,90 L-49,90 L-49,88 L-46,87 L-14,86 L-14,88 L0,88 Z " fill="#57504C" transform="translate(414,98)"/>
<path d="M0,0 L18,0 L18,23 L0,23 Z " fill="#918981" transform="translate(274,243)"/>
<path d="M0,0 L39,0 L39,1 L23,1 L23,16 L1,16 L0,18 Z " fill="#544C49" transform="translate(81,295)"/>
<path d="M0,0 L17,0 L19,1 L19,20 L0,21 Z " fill="#433C3A" transform="translate(151,115)"/>
<path d="M0,0 L17,0 L17,20 L0,20 Z " fill="#9E9790" transform="translate(170,205)"/>
<path d="M0,0 L16,0 L16,19 L0,19 L0,7 L-4,6 L-5,2 Z " fill="#473F3D" transform="translate(438,406)"/>
<path d="M0,0 L17,0 L17,16 L-3,16 L-4,14 L-4,4 Z " fill="#8E857C" transform="translate(242,243)"/>
<path d="M0,0 L19,0 L19,17 L0,17 Z " fill="#99928A" transform="translate(151,188)"/>
<path d="M0,0 L15,0 L15,20 L0,20 Z " fill="#71655F" transform="translate(136,404)"/>
<path d="M0,0 L17,0 L20,5 L35,6 L35,10 L37,11 L0,11 Z " fill="#655D59" transform="translate(170,350)"/>
<path d="M0,0 L17,0 L17,2 L2,2 L1,3 L17,3 L18,4 L18,15 L17,17 L1,17 L0,16 Z " fill="#978F87" transform="translate(327,169)"/>
<path d="M0,0 L15,0 L15,22 L1,22 L1,21 L13,21 L13,17 L0,17 Z " fill="#574E4B" transform="translate(259,243)"/>
<path d="M0,0 L20,0 L20,14 L4,14 L0,13 Z " fill="#837973" transform="translate(268,342)"/>
<path d="M0,0 L17,0 L17,16 L0,16 Z " fill="#020202" transform="translate(310,170)"/>
<path d="M0,0 L17,0 L17,16 L0,16 Z " fill="#040404" transform="translate(275,170)"/>
<path d="M0,0 L16,0 L14,1 L14,3 L17,3 L17,17 L4,17 L2,13 L0,13 Z " fill="#9C948D" transform="translate(170,169)"/>
<path d="M0,0 L17,0 L19,2 L19,13 L0,13 Z " fill="#7C706B" transform="translate(344,260)"/>
<path d="M0,0 L36,0 L36,1 L26,3 L20,4 L20,6 L10,12 L4,12 L1,8 L1,6 L-16,6 L-16,5 L0,5 Z " fill="#A19A95" transform="translate(186,344)"/>
<path d="M0,0 L5,0 L5,5 L-9,5 L-9,11 L-11,11 L-11,13 L-29,13 L-33,9 L-41,8 L-41,11 L-44,11 L-44,6 L-11,5 L-11,4 L-26,3 L-26,2 L0,1 Z " fill="#948C84" transform="translate(268,139)"/>
<path d="M0,0 L22,0 L21,2 L19,2 L16,13 L0,13 Z " fill="#675F5A" transform="translate(170,318)"/>
<path d="M0,0 L46,0 L46,1 L16,1 L16,9 L47,9 L47,10 L0,10 Z " fill="#504845" transform="translate(382,244)"/>
<path d="M0,0 L1,0 L1,12 L14,12 L13,17 L16,18 L1,18 L1,31 L19,31 L19,40 L2,39 L3,37 L18,38 L18,36 L0,37 Z " fill="#867D74" transform="translate(326,133)"/>
<path d="M0,0 L52,0 L52,1 L34,1 L34,5 L51,5 L51,6 L33,6 L33,1 L17,1 L17,13 L0,12 Z " fill="#4F4946" transform="translate(292,303)"/>
<path d="M0,0 L13,0 L12,4 L9,8 L7,8 L5,12 L1,17 L-1,17 L-1,19 L-6,19 L-6,7 L-2,2 L0,2 Z " fill="#8C817B" transform="translate(101,331)"/>
<path d="M0,0 L12,0 L12,2 L16,5 L16,12 L15,15 L0,15 Z " fill="#817770" transform="translate(64,333)"/>
<path d="M0,0 L16,0 L18,2 L18,10 L17,12 L0,12 Z " fill="#897E77" transform="translate(309,243)"/>
<path d="M0,0 L16,0 L16,12 L33,12 L33,17 L15,17 L15,10 L0,10 Z " fill="#A19A92" transform="translate(259,174)"/>
<path d="M0,0 L18,0 L18,2 L5,3 L5,6 L11,6 L11,7 L18,8 L17,16 L6,16 L6,18 L1,18 L0,16 Z " fill="#736A64" transform="translate(151,150)"/>
<path d="M0,0 L13,0 L13,12 L-5,12 L-5,6 L-3,2 Z " fill="#887E76" transform="translate(368,243)"/>
<path d="M0,0 L20,0 L20,10 L0,10 Z " fill="#8E857E" transform="translate(326,376)"/>
<path d="M0,0 L14,0 L14,2 L17,2 L17,12 L0,12 Z " fill="#8A7F78" transform="translate(170,241)"/>
<path d="M0,0 L36,0 L35,6 L0,6 Z " fill="#A8A29C" transform="translate(186,331)"/>
<path d="M0,0 L7,0 L7,2 L11,4 L16,9 L17,12 L-6,12 L-3,2 Z " fill="#B3ADA9" transform="translate(192,318)"/>
<path d="M0,0 L24,0 L24,8 L0,8 Z " fill="#918880" transform="translate(205,396)"/>
<path d="M0,0 L18,0 L18,6 L35,6 L35,7 L18,7 L18,9 L0,9 L-1,13 L-1,1 Z " fill="#8A8179" transform="translate(152,135)"/>
<path d="M0,0 L21,0 L21,9 L0,9 Z " fill="#59524F" transform="translate(288,331)"/>
<path d="M0,0 L19,0 L19,10 L0,10 Z " fill="#897F78" transform="translate(269,331)"/>
<path d="M0,0 L22,0 L22,8 L0,8 Z " fill="#847B74" transform="translate(326,331)"/>
<path d="M0,0 L33,0 L33,5 L0,5 Z " fill="#827872" transform="translate(344,296)"/>
<path d="M0,0 L14,0 L14,4 L28,4 L24,6 L27,8 L-3,8 L-3,4 L1,4 Z " fill="#574F4C" transform="translate(312,256)"/>
<path d="M0,0 L16,0 L17,10 L0,10 Z " fill="#4F4844" transform="translate(170,394)"/>
<path d="M0,0 L14,0 L14,13 L3,13 L0,3 Z " fill="#807670" transform="translate(415,412)"/>
<path d="M0,0 L14,0 L15,2 L15,10 L-1,10 L-1,2 Z " fill="#867C75" transform="translate(310,393)"/>
<path d="M0,0 L17,0 L17,9 L0,9 Z " fill="#504A47" transform="translate(170,196)"/>
<path d="M0,0 L52,0 L52,5 L34,6 L18,5 L17,7 L9,5 L9,2 L1,1 L0,3 Z " fill="#443E3C" transform="translate(187,180)"/>
<path d="M0,0 L50,0 L50,3 L0,3 Z " fill="#463F3B" transform="translate(259,405)"/>
<path d="M0,0 L37,0 L37,4 L0,4 Z " fill="#9F978F" transform="translate(205,98)"/>
<path d="M0,0 L35,0 L35,1 L26,1 L26,8 L14,8 L14,6 L10,4 L1,3 Z " fill="#A7A09B" transform="translate(186,376)"/>
<path d="M0,0 L38,0 L38,1 L20,1 L20,10 L10,10 L9,4 L0,1 Z " fill="#978E88" transform="translate(94,320)"/>
<path d="M0,0 L18,0 L18,8 L0,8 Z " fill="#9A918B" transform="translate(223,188)"/>
<path d="M0,0 L13,0 L12,3 L17,4 L17,5 L9,5 L9,8 L7,8 L5,14 L2,15 L2,17 L0,17 Z " fill="#857C76" transform="translate(133,186)"/>
<path d="M0,0 L17,0 L17,8 L0,8 Z " fill="#A49D96" transform="translate(327,131)"/>
<path d="M0,0 L34,0 L34,4 L0,4 Z " fill="#9D968E" transform="translate(170,98)"/>
<path d="M0,0 L33,0 L34,4 L0,4 Z " fill="#756B66" transform="translate(344,313)"/>
<path d="M0,0 L5,0 L5,17 L-3,17 L-3,2 Z " fill="#8B7F78" transform="translate(164,256)"/>
<path d="M0,0 L34,0 L34,5 L15,5 L0,3 Z " fill="#5A504D" transform="translate(225,167)"/>
<path d="M0,0 L4,0 L4,2 L1,2 L1,13 L60,12 L63,11 L66,13 L67,10 L68,15 L57,16 L55,18 L51,17 L51,14 L0,14 Z " fill="#332E2C" transform="translate(100,390)"/>
<path d="M0,0 L21,0 L21,6 L0,6 Z " fill="#574E4C" transform="translate(288,350)"/>
<path d="M0,0 L21,0 L21,6 L0,6 Z " fill="#544D4A" transform="translate(288,343)"/>
<path d="M0,0 L52,0 L52,1 L34,1 L34,6 L20,6 L20,1 L0,1 Z " fill="#8D847D" transform="translate(170,302)"/>
<path d="M0,0 L17,0 L18,3 L33,3 L33,4 L18,5 L16,6 L0,6 Z " fill="#7F746E" transform="translate(274,380)"/>
<path d="M0,0 L17,0 L17,8 L0,8 Z " fill="#A79F98" transform="translate(225,120)"/>
<path d="M0,0 L14,0 L14,11 L-5,11 L-5,9 L3,8 L0,3 L2,3 L2,1 Z " fill="#4D4643" transform="translate(156,175)"/>
<path d="M0,0 L5,0 L5,5 L-9,5 L-9,11 L-11,11 L-11,7 L-41,8 L-41,11 L-44,11 L-44,6 L-11,5 L-11,4 L-26,3 L-26,2 L0,1 Z " fill="#7F766D" transform="translate(268,139)"/>
<path d="M0,0 L16,0 L16,7 L0,7 Z " fill="#4B4542" transform="translate(170,386)"/>
<path d="M0,0 L32,0 L32,4 L20,4 L17,2 L16,4 L0,4 Z " fill="#6F6560" transform="translate(205,260)"/>
<path d="M0,0 L1,0 L1,12 L14,12 L13,17 L16,18 L1,18 L1,37 L0,37 Z " fill="#68605B" transform="translate(326,133)"/>
<path d="M0,0 L15,0 L15,10 L8,10 L3,4 L0,1 Z " fill="#897E77" transform="translate(396,393)"/>
<path d="M0,0 L18,0 L18,4 L36,5 L36,6 L0,6 Z " fill="#A59E97" transform="translate(327,103)"/>
<path d="M0,0 L33,0 L33,6 L4,6 L4,5 L19,5 L19,2 L0,1 Z " fill="#6F6560" transform="translate(344,303)"/>
<path d="M0,0 L3,0 L3,9 L-8,9 L-9,14 L-12,14 L-11,9 L-9,5 Z " fill="#69605A" transform="translate(409,324)"/>
<path d="M0,0 L17,0 L17,6 L0,6 Z " fill="#928881" transform="translate(274,267)"/>
<path d="M0,0 L9,0 L14,2 L14,4 L32,5 L32,6 L0,6 Z " fill="#9B938D" transform="translate(82,311)"/>
<path d="M0,0 L19,0 L19,2 L52,2 L52,3 L0,3 Z " fill="#5D544F" transform="translate(82,406)"/>
<path d="M0,0 L18,0 L18,5 L0,5 Z " fill="#7D746E" transform="translate(274,374)"/>
<path d="M0,0 L18,0 L18,5 L0,5 Z " fill="#817772" transform="translate(274,368)"/>
<path d="M0,0 L22,0 L22,4 L0,4 Z " fill="#847B74" transform="translate(326,344)"/>
<path d="M0,0 L2,0 L4,3 L16,4 L16,7 L0,7 L-19,6 L-19,4 L0,4 Z " fill="#716962" transform="translate(170,182)"/>
<path d="M0,0 L23,0 L23,4 L7,4 L0,3 Z " fill="#4D4642" transform="translate(325,405)"/>
<path d="M0,0 L2,2 L2,6 L-15,6 L-33,5 L-33,4 L-14,3 L-14,2 L0,2 Z " fill="#857C76" transform="translate(220,389)"/>
<path d="M0,0 L14,0 L14,6 L0,6 Z " fill="#A29A92" transform="translate(431,219)"/>
<path d="M0,0 L14,0 L14,6 L0,6 Z " fill="#9B948B" transform="translate(431,212)"/>
<path d="M0,0 L17,0 L13,4 L16,6 L1,6 Z " fill="#867C75" transform="translate(187,397)"/>
<path d="M0,0 L30,0 L30,3 L8,3 L0,2 Z " fill="#6B615D" transform="translate(116,259)"/>
<path d="M0,0 L20,0 L20,4 L0,4 Z " fill="#8D837B" transform="translate(239,260)"/>
<path d="M0,0 L14,0 L14,6 L1,6 Z " fill="#9F9690" transform="translate(172,243)"/>
<path d="M0,0 L17,0 L15,1 L15,5 L0,5 Z " fill="#877C76" transform="translate(170,274)"/>
<path d="M0,0 L15,0 L15,5 L0,5 Z " fill="#5C534F" transform="translate(259,368)"/>
<path d="M0,0 L8,0 L8,19 L7,19 L7,1 L3,2 L1,11 L-1,19 L-2,19 L-2,3 Z " fill="#1C1918" transform="translate(221,406)"/>
<path d="M0,0 L13,0 L13,3 L24,3 L24,5 L3,5 L5,4 L5,2 L0,1 Z " fill="#716762" transform="translate(91,311)"/>
<path d="M0,0 L18,0 L18,4 L0,4 Z " fill="#897F79" transform="translate(223,188)"/>
<path d="M0,0 L18,0 L18,4 L0,4 Z " fill="#A29B94" transform="translate(274,160)"/>
<path d="M0,0 L41,0 L41,1 L31,2 L17,1 L17,4 L12,4 L11,3 L0,2 Z " fill="#7C736D" transform="translate(188,405)"/>
<path d="M0,0 L5,0 L5,5 L23,5 L23,6 L-6,6 L-4,2 Z " fill="#8C857D" transform="translate(199,295)"/>
<path d="M0,0 L14,0 L14,6 L0,6 Z " fill="#685E5A" transform="translate(398,260)"/>
<path d="M0,0 L14,0 L14,3 L12,3 L12,6 L4,6 L0,2 Z " fill="#887E78" transform="translate(312,256)"/>
<path d="M0,0 L18,0 L18,2 L31,2 L31,3 L0,3 Z " fill="#745750" transform="translate(364,170)"/>
<path d="M0,0 L6,2 L6,4 L17,4 L17,6 L19,7 L1,7 Z " fill="#99928C" transform="translate(185,366)"/>
<path d="M0,0 L22,0 L22,3 L0,3 Z " fill="#857A73" transform="translate(326,349)"/>
<path d="M0,0 L22,0 L22,3 L0,3 Z " fill="#867D76" transform="translate(326,340)"/>
<path d="M0,0 L22,0 L22,3 L0,3 Z " fill="#5C5451" transform="translate(82,296)"/>
<path d="M0,0 L16,0 L16,4 L0,4 Z " fill="#635B57" transform="translate(292,304)"/>
<path d="M0,0 L16,0 L16,4 L0,4 Z " fill="#7B726A" transform="translate(205,295)"/>
<path d="M0,0 L16,0 L16,4 L0,4 Z " fill="#A59E96" transform="translate(398,103)"/>
<path d="M0,0 L12,0 L12,6 L-2,6 L0,4 Z " fill="#9F9790" transform="translate(433,205)"/>
<path d="M0,0 L16,0 L16,4 L1,4 Z " fill="#8C827B" transform="translate(365,260)"/>
<path d="M0,0 L21,0 L21,3 L1,3 Z " fill="#948B84" transform="translate(238,256)"/>
<path d="M0,0 L15,0 L15,4 L0,4 Z " fill="#776D68" transform="translate(309,304)"/>
<path d="M0,0 L21,0 L21,13 L18,12 L18,10 L0,10 L0,9 L20,9 L19,5 L20,1 L0,1 Z " fill="#473F3D" transform="translate(238,303)"/>
<path d="M0,0 L9,0 L9,4 L-5,4 L-10,2 L-10,1 Z " fill="#978E88" transform="translate(212,383)"/>
<path d="M0,0 L2,2 L2,5 L-9,6 L-11,8 L-15,7 L-15,3 L-6,2 L-3,1 L0,3 Z " fill="#151212" transform="translate(166,400)"/>
<path d="M0,0 L14,0 L15,4 L0,4 Z " fill="#9A918A" transform="translate(309,146)"/>
<path d="M0,0 L14,0 L15,4 L0,4 Z " fill="#958B84" transform="translate(293,146)"/>
<path d="M0,0 L20,0 L20,3 L2,3 L2,1 Z " fill="#7D736C" transform="translate(409,408)"/>
<path d="M0,0 L17,0 L17,2 L12,3 L12,4 L0,4 Z " fill="#716863" transform="translate(170,350)"/>
<path d="M0,0 L14,0 L13,3 L1,3 L1,5 L13,5 L13,6 L0,6 Z " fill="#AEA8A1" transform="translate(259,151)"/>
<path d="M0,0 L18,0 L18,3 L0,3 Z " fill="#A8A19B" transform="translate(327,112)"/>
<path d="M0,0 L33,0 L32,3 L22,3 L22,1 L0,1 Z " fill="#817672" transform="translate(170,309)"/>
<path d="M0,0 L13,0 L13,4 L0,4 Z " fill="#847870" transform="translate(259,304)"/>
<path d="M0,0 L17,0 L17,3 L0,3 Z " fill="#7B716B" transform="translate(205,309)"/>
<path d="M0,0 L17,0 L17,3 L0,3 Z " fill="#857C75" transform="translate(364,256)"/>
<path d="M0,0 L17,0 L17,3 L0,3 Z " fill="#AAA49E" transform="translate(170,142)"/>
<path d="M0,0 L17,0 L17,3 L0,3 Z " fill="#A19B91" transform="translate(225,116)"/>
<path d="M0,0 L16,0 L16,2 L18,3 L1,3 Z " fill="#796F69" transform="translate(406,404)"/>
<path d="M0,0 L14,0 L10,1 L10,3 L14,4 L0,4 Z " fill="#716964" transform="translate(170,304)"/>
<path d="M0,0 L16,0 L16,1 L11,1 L10,4 L0,4 Z " fill="#645D5A" transform="translate(170,197)"/>
<path d="M0,0 L16,0 L16,3 L0,3 Z " fill="#746B64" transform="translate(205,188)"/>
<path d="M0,0 L15,0 L15,3 L0,3 Z " fill="#857B75" transform="translate(309,376)"/>
<path d="M0,0 L15,0 L15,3 L0,3 Z " fill="#7C736E" transform="translate(309,296)"/>
<path d="M0,0 L13,0 L13,4 L3,4 L3,1 Z " fill="#8C827A" transform="translate(399,344)"/>
<path d="M0,0 L15,0 L16,4 L10,4 L10,2 L0,2 Z " fill="#7D726D" transform="translate(309,150)"/>
<path d="M0,0 L9,0 L9,2 L13,3 L13,4 L0,4 Z " fill="#A59E96" transform="translate(259,146)"/>
<path d="M0,0 L11,0 L8,3 L4,3 L4,8 L0,8 Z " fill="#7C706B" transform="translate(64,320)"/>
<path d="M0,0 L10,0 L10,4 L0,4 Z " fill="#989088" transform="translate(104,304)"/>
<path d="M0,0 L13,0 L13,3 L0,3 Z " fill="#988E87" transform="translate(205,417)"/>
<path d="M0,0 L15,0 L15,3 L-1,3 Z " fill="#746A64" transform="translate(244,169)"/>
<path d="M0,0 L11,0 L11,2 L8,2 L8,4 L0,4 Z " fill="#90867E" transform="translate(115,304)"/>
<path d="M0,0 L13,0 L13,3 L1,3 Z " fill="#867C74" transform="translate(399,340)"/>
<path d="M0,0 L8,0 L8,4 L0,4 L-2,2 L0,2 Z " fill="#958D83" transform="translate(317,160)"/>
<path d="M0,0 L13,0 L12,3 L0,3 Z " fill="#807670" transform="translate(64,329)"/>
<path d="M0,0 L7,0 L7,2 L18,2 L18,3 L0,3 Z " fill="#968E87" transform="translate(345,112)"/>
<path d="M0,0 L7,0 L7,4 L0,4 Z " fill="#6D635F" transform="translate(81,333)"/>
<path d="M0,0 L10,0 L10,3 L2,3 Z " fill="#756B66" transform="translate(314,259)"/>
<path d="M0,0 L17,0 L17,1 L3,1 L4,4 L0,4 Z " fill="#69605B" transform="translate(309,255)"/>
<path d="M0,0 L7,1 L8,4 L1,4 Z " fill="#776D67" transform="translate(365,260)"/>
<path d="M0,0 L15,0 L15,1 L4,1 L4,4 L2,4 L2,2 L0,2 Z " fill="#857C74" transform="translate(398,182)"/>
<path d="M0,0 L6,0 L6,2 L8,3 L-1,3 Z " fill="#9A938A" transform="translate(318,156)"/>
<path d="M0,0 L6,0 L4,4 L0,3 Z " fill="#36302F" transform="translate(151,404)"/>
<path d="M0,0 L7,0 L7,3 L1,3 Z " fill="#9B938B" transform="translate(318,151)"/>
<path d="M0,0 L7,0 L5,3 L-2,3 L0,2 Z " fill="#7F766F" transform="translate(96,313)"/>
<path d="M0,0 L3,1 Z " fill="#FFFFFF" transform="translate(21,511)"/>
<path d="M0,0 L2,1 Z " fill="#FFFFFF" transform="translate(6,511)"/>
<path d="M0,0 L2,1 Z " fill="#FFFFFF" transform="translate(2,511)"/>
</svg>
