<?xml version="1.0" encoding="UTF-8"?>
<!-- Generator: https://ezgif.com/png-to-svg -->
<svg version="1.1" xmlns="http://www.w3.org/2000/svg" width="512" height="512">
<path d="M0,0 L75,0 L75,16 L91,16 L91,31 L149,31 L149,16 L164,16 L164,0 L232,0 L232,16 L247,16 L247,31 L261,31 L261,91 L286,91 L286,152 L271,152 L271,167 L258,167 L258,206 L271,206 L271,222 L286,222 L286,280 L271,280 L271,315 L317,315 L317,360 L181,360 L181,331 L113,331 L113,360 L-79,360 L-79,334 L-91,334 L-91,313 L-105,313 L-105,232 L-91,232 L-91,206 L-87,205 L-77,205 L-76,176 L-61,176 L-61,141 L-46,141 L-46,106 L-30,106 L-30,73 L-15,73 L-15,16 L0,16 Z " fill="#BC201D" transform="translate(153,71)"/>
<path d="M0,0 L75,0 L75,16 L91,16 L91,31 L149,31 L149,16 L164,16 L164,0 L232,0 L232,16 L247,16 L247,31 L261,31 L261,91 L286,91 L286,152 L271,152 L271,167 L258,167 L258,206 L271,206 L271,222 L286,222 L286,280 L271,280 L271,315 L317,315 L317,360 L181,360 L181,331 L113,331 L113,360 L-79,360 L-79,334 L-91,334 L-91,313 L-105,313 L-105,232 L-91,232 L-91,206 L-87,205 L-77,205 L-76,176 L-61,176 L-61,141 L-46,141 L-46,106 L-30,106 L-30,73 L-15,73 L-15,16 L0,16 Z M1,17 L1,74 L-14,74 L-14,107 L-29,107 L-29,156 L-45,156 L-45,192 L-60,192 L-60,218 L-14,218 L-14,233 L-89,233 L-89,312 L-75,312 L-75,326 L-61,326 L-61,343 L-29,343 L-29,326 L-45,326 L-45,311 L-14,311 L-14,234 L3,234 L3,308 L17,308 L17,343 L68,343 L68,326 L56,326 L56,234 L72,234 L72,312 L194,312 L194,291 L212,291 L212,256 L226,256 L226,166 L242,166 L242,151 L270,151 L270,137 L269,136 L31,136 L31,123 L269,123 L269,104 L244,104 L244,33 L230,33 L230,17 L165,17 L164,69 L152,56 L146,49 L74,49 L74,17 Z " fill="#16191A" transform="translate(153,71)"/>
<path d="M0,0 L22,0 L22,20 L40,20 L40,36 L103,36 L103,20 L121,20 L121,0 L140,0 L140,88 L122,88 L122,109 L0,109 Z " fill="#E6650D" transform="translate(225,274)"/>
<path d="M0,0 L22,0 L22,20 L40,20 L40,36 L103,36 L103,20 L122,20 L122,54 L106,54 L106,76 L37,76 L37,56 L0,56 Z " fill="#F6A922" transform="translate(225,274)"/>
<path d="M0,0 L28,0 L28,54 L13,54 L13,102 L57,102 L57,119 L0,119 L0,102 L-16,102 L-16,119 L-32,119 L-32,83 L-15,83 L-15,40 L0,40 Z " fill="#B01C1B" transform="translate(395,295)"/>
<path d="M0,0 L238,0 L238,14 L0,14 Z " fill="#D42720" transform="translate(185,208)"/>
<path d="M0,0 L19,0 L19,33 L42,33 L42,36 L91,36 L91,33 L121,33 L121,31 L140,31 L140,32 L122,32 L122,53 L0,53 Z " fill="#D2261E" transform="translate(225,330)"/>
<path d="M0,0 L57,0 L57,64 L42,64 L42,62 L40,61 L41,34 L22,34 L22,17 L5,17 L0,16 Z " fill="#D92B22" transform="translate(170,88)"/>
<path d="M0,0 L17,0 L17,16 L0,16 L0,40 L-42,40 L-47,35 L-47,16 L-61,16 L-61,31 L-75,31 L-75,15 L0,15 Z " fill="#A4191A" transform="translate(139,289)"/>
<path d="M0,0 L15,0 L15,48 L0,48 L0,99 L-8,93 L-15,86 L-18,84 L-18,82 L-15,82 L-15,33 L0,33 Z " fill="#600E14" transform="translate(139,145)"/>
<path d="M0,0 L16,0 L16,17 L35,17 L35,44 L0,44 Z " fill="#191B1C" transform="translate(176,105)"/>
<path d="M0,0 L18,0 L18,17 L34,17 L34,43 L0,43 Z " fill="#151C1C" transform="translate(349,105)"/>
<path d="M0,0 L22,0 L22,20 L19,20 L19,56 L0,56 Z " fill="#E7660C" transform="translate(225,274)"/>
<path d="M0,0 L1,0 L1,24 L14,24 L15,60 L19,56 L26,56 L33,62 L33,72 L29,77 L25,79 L16,79 L14,78 L14,74 L0,74 Z " fill="#A51B1B" transform="translate(156,305)"/>
<path d="M0,0 L14,0 L14,77 L0,77 Z " fill="#161B1C" transform="translate(50,305)"/>
<path d="M0,0 L68,0 L68,16 L83,16 L83,31 L97,31 L97,91 L122,91 L122,152 L107,152 L107,167 L94,167 L94,206 L106,206 L106,207 L92,207 L92,166 L105,166 L105,151 L106,150 L120,150 L120,93 L95,93 L95,33 L82,33 L82,18 L67,18 L67,2 L1,2 L1,17 L0,18 L-13,18 L-13,33 L-75,33 L-75,31 L-15,31 L-15,16 L0,16 Z " fill="#030505" transform="translate(317,71)"/>
<path d="M0,0 L27,0 L27,20 L43,20 L43,37 L25,37 L25,20 L0,20 Z " fill="#540B11" transform="translate(222,237)"/>
<path d="M0,0 L17,0 L17,16 L-31,16 L-31,31 L-47,31 L-47,16 L-61,16 L-61,31 L-75,31 L-75,15 L0,15 Z " fill="#711015" transform="translate(139,289)"/>
<path d="M0,0 L31,0 L31,17 L46,17 L46,32 L30,32 L29,26 L28,26 L28,15 L17,15 L17,30 L16,30 L16,15 L0,15 Z " fill="#361216" transform="translate(108,382)"/>
<path d="M0,0 L238,0 L238,1 L1,1 L1,30 L-14,30 L-14,1 Z " fill="#681216" transform="translate(184,207)"/>
<path d="M0,0 L33,0 L33,20 L0,20 Z " fill="#E6640C" transform="translate(280,310)"/>
<path d="M0,0 L31,0 L31,20 L0,20 Z " fill="#8D1417" transform="translate(92,339)"/>
<path d="M0,0 L17,0 L17,19 L16,36 L0,36 Z " fill="#761116" transform="translate(363,378)"/>
<path d="M0,0 L9,0 L14,5 L16,9 L16,16 L13,22 L8,25 L0,25 L-7,19 L-8,16 L-8,8 L-2,1 Z " fill="#570B11" transform="translate(196,261)"/>
<path d="M0,0 L8,0 L15,6 L16,8 L16,16 L13,21 L7,25 L1,25 L-5,21 L-8,16 L-8,9 L-4,3 Z " fill="#560B12" transform="translate(181,300)"/>
<path d="M0,0 L9,0 L15,5 L16,7 L16,17 L12,23 L7,25 L0,24 L-6,19 L-7,16 L-7,8 L-3,2 Z " fill="#6F0F14" transform="translate(142,250)"/>
<path d="M0,0 L29,0 L29,16 L0,16 Z " fill="#CE231E" transform="translate(423,397)"/>
<path d="M0,0 L14,0 L14,33 L0,33 Z " fill="#11191A" transform="translate(125,145)"/>
<path d="M0,0 L25,0 L25,16 L51,16 L51,17 L0,17 Z " fill="#A11A1A" transform="translate(170,397)"/>
<path d="M0,0 L7,0 L14,6 L14,16 L10,21 L6,23 L-3,23 L-5,22 L-5,18 L-19,18 L-19,17 L-5,17 L-5,5 Z " fill="#761015" transform="translate(175,361)"/>
<path d="M0,0 L14,0 L14,26 L0,26 Z " fill="#121A1B" transform="translate(64,278)"/>
<path d="M0,0 L18,0 L28,14 L35,23 L35,25 L26,25 L18,18 L1,2 Z " fill="#A01A1B" transform="translate(262,120)"/>
<path d="M0,0 L19,0 L19,17 L0,17 Z " fill="#E5E7E7" transform="translate(192,105)"/>
<path d="M0,0 L18,0 L18,17 L0,17 Z " fill="#580B11" transform="translate(328,257)"/>
<path d="M0,0 L17,0 L17,18 L0,18 Z " fill="#5B0B11" transform="translate(346,239)"/>
<path d="M0,0 L29,0 L29,31 L60,31 L60,32 L28,32 L28,15 L14,15 L14,1 L0,1 Z " fill="#9A191A" transform="translate(64,382)"/>
<path d="M0,0 L16,0 L16,17 L0,17 Z " fill="#CF271F" transform="translate(233,397)"/>
<path d="M0,0 L16,0 L16,17 L0,17 Z " fill="#E5E7E7" transform="translate(367,104)"/>
<path d="M0,0 L16,0 L16,16 L0,16 Z " fill="#B01D1D" transform="translate(318,88)"/>
<path d="M0,0 L16,0 L16,15 L0,15 Z " fill="#841316" transform="translate(333,155)"/>
<path d="M0,0 L9,0 L15,10 L16,16 L0,16 Z " fill="#640D13" transform="translate(109,265)"/>
<path d="M0,0 L19,0 L19,21 L14,17 L7,9 L0,1 Z " fill="#690E13" transform="translate(299,120)"/>
<path d="M0,0 L11,0 L13,3 L13,17 L-1,17 Z " fill="#391015" transform="translate(125,397)"/>
<path d="M0,0 L15,0 L15,13 L0,13 Z " fill="#D3251F" transform="translate(139,400)"/>
<path d="M0,0 L1,0 L1,26 L-14,26 L-14,15 L0,15 Z " fill="#711015" transform="translate(92,263)"/>
<path d="M0,0 L14,0 L14,12 L0,12 Z " fill="#7F1215" transform="translate(284,155)"/>
<path d="M0,0 L1,0 L1,16 L17,15 L16,14 L16,4 L4,3 L4,1 L19,0 L19,17 L0,17 Z " fill="#C5C4C4" transform="translate(192,105)"/>
<path d="M0,0 L3,0 L3,3 L18,3 L18,4 L3,4 L3,17 L18,17 L18,18 L2,18 L1,12 L0,12 Z " fill="#691918" transform="translate(136,396)"/>
</svg>
