<?xml version="1.0" encoding="UTF-8"?>
<!-- Generator: https://ezgif.com/png-to-svg -->
<svg version="1.1" xmlns="http://www.w3.org/2000/svg" width="512" height="512">
<path d="M0,0 L83,0 L83,17 L99,17 L99,34 L146,34 L146,17 L163,17 L163,0 L231,0 L231,17 L248,17 L248,82 L265,82 L265,149 L248,149 L248,166 L231,166 L231,212 L248,212 L248,294 L281,294 L280,346 L163,346 L163,330 L99,330 L99,346 L-84,346 L-84,212 L-67,212 L-67,164 L-51,164 L-51,130 L-34,130 L-34,80 L-17,80 L-17,17 L0,17 Z " fill="#C67626" transform="translate(160,72)"/>
<path d="M0,0 L83,0 L83,17 L99,17 L99,34 L146,34 L146,17 L163,17 L163,0 L231,0 L231,17 L248,17 L248,82 L265,82 L265,149 L248,149 L248,166 L231,166 L231,212 L248,212 L248,294 L281,294 L280,346 L163,346 L163,330 L99,330 L99,346 L-84,346 L-84,212 L-67,212 L-67,164 L-51,164 L-51,130 L-34,130 L-34,80 L-17,80 L-17,17 L0,17 Z M17,18 L17,35 L1,35 L1,100 L-16,100 L-16,131 L-33,131 L-33,182 L-16,182 L-16,198 L1,198 L1,230 L17,230 L17,279 L33,279 L33,329 L81,329 L81,312 L65,312 L65,230 L82,230 L82,295 L98,295 L98,311 L181,311 L181,279 L197,279 L197,197 L213,197 L213,165 L230,165 L230,148 L51,148 L51,131 L246,131 L246,83 L197,83 L197,35 L214,35 L214,52 L230,52 L230,18 L181,18 L181,35 L164,35 L164,52 L81,52 L81,18 Z " fill="#362818" transform="translate(160,72)"/>
<path d="M0,0 L164,0 L164,16 L147,16 L147,48 L131,48 L131,130 L115,130 L115,162 L32,162 L32,146 L16,146 L16,16 L0,16 Z " fill="#F1BC3A" transform="translate(226,221)"/>
<path d="M0,0 L83,0 L83,17 L99,17 L99,34 L146,34 L146,17 L163,17 L163,0 L231,0 L231,17 L248,17 L248,82 L265,82 L265,149 L248,149 L248,166 L231,166 L231,212 L248,212 L248,294 L279,294 L279,295 L246,295 L246,214 L231,214 L214,213 L214,165 L230,165 L230,148 L51,148 L51,131 L246,131 L246,83 L197,83 L197,35 L214,35 L214,52 L230,52 L230,18 L181,18 L181,35 L164,35 L164,52 L81,52 L81,18 L17,18 L17,35 L1,35 L1,100 L-16,100 L-16,131 L-34,131 L-34,80 L-17,80 L-17,17 L0,17 Z " fill="#372918" transform="translate(160,72)"/>
<path d="M0,0 L16,0 L16,65 L32,65 L32,81 L17,81 L17,113 L16,130 L32,130 L32,162 L16,163 L-17,163 L-17,147 L-34,147 L-34,96 L-17,96 L-17,65 L0,65 Z " fill="#A75D20" transform="translate(161,107)"/>
<path d="M0,0 L17,0 L17,31 L33,31 L33,48 L50,48 L50,113 L-16,113 L-16,97 L0,97 L0,63 L-16,63 L-16,31 L0,31 Z " fill="#A55B20" transform="translate(110,254)"/>
<path d="M0,0 L1,0 L1,48 L17,48 L17,147 L50,147 L50,164 L-16,164 L-16,147 L0,147 L0,80 L-15,80 L-15,130 L-32,130 L-32,114 L-16,114 L-16,32 L0,32 Z " fill="#BB6D24" transform="translate(373,237)"/>
<path d="M0,0 L512,0 L512,512 L0,512 Z M1,1 L1,511 L511,511 L511,1 Z " fill="#867356" transform="translate(0,0)"/>
<path d="M0,0 L1,0 L1,82 L17,82 L17,99 L-31,99 L-31,15 L-14,15 L-14,49 L-30,49 L-30,81 L-13,81 L-13,65 L0,65 Z " fill="#A35E21" transform="translate(224,302)"/>
<path d="M0,0 L16,0 L16,18 L34,18 L34,34 L50,34 L50,50 L16,50 L16,34 L0,34 Z " fill="#D69623" transform="translate(242,333)"/>
<path d="M0,0 L16,0 L16,17 L32,17 L32,48 L0,48 Z " fill="#392A19" transform="translate(194,107)"/>
<path d="M0,0 L18,0 L18,16 L-65,16 L-65,1 Z " fill="#A75C20" transform="translate(323,124)"/>
<path d="M0,0 L1,0 L1,147 L0,147 L0,80 L-15,80 L-15,130 L-32,130 L-32,114 L-16,114 L-16,32 L0,32 Z " fill="#6E4017" transform="translate(373,237)"/>
<path d="M0,0 L17,0 L17,16 L34,16 L34,113 L33,113 L33,48 L16,48 L16,31 L0,31 Z " fill="#693A15" transform="translate(127,254)"/>
<path d="M0,0 L50,0 L50,17 L0,17 Z " fill="#693A15" transform="translate(110,384)"/>
<path d="M0,0 L16,0 L16,50 L0,50 Z " fill="#6B3B15" transform="translate(177,351)"/>
<path d="M0,0 L33,0 L33,18 L0,18 Z " fill="#C97727" transform="translate(127,333)"/>
<path d="M0,0 L16,0 L16,16 L1,16 L1,98 L-16,98 L-16,82 L0,82 Z " fill="#A26021" transform="translate(357,269)"/>
<path d="M0,0 L16,0 L16,34 L0,34 Z " fill="#6A3B15" transform="translate(94,367)"/>
<path d="M0,0 L16,0 L16,34 L0,34 Z " fill="#6A3A15" transform="translate(194,317)"/>
<path d="M0,0 L16,0 L16,34 L0,34 Z " fill="#683A15" transform="translate(94,317)"/>
<path d="M0,0 L17,0 L17,32 L0,32 Z " fill="#A75D20" transform="translate(225,270)"/>
<path d="M0,0 L17,0 L17,32 L0,32 Z " fill="#6A3B15" transform="translate(160,188)"/>
<path d="M0,0 L1,0 L1,17 L17,17 L17,48 L0,48 Z " fill="#6B3D16" transform="translate(373,107)"/>
<path d="M0,0 L68,0 L68,17 L85,17 L85,82 L102,82 L102,149 L85,149 L85,166 L68,166 L68,212 L67,212 L67,165 L83,165 L83,148 L84,147 L100,147 L100,84 L84,84 L83,83 L83,18 L67,18 L67,1 L1,1 L1,17 L0,17 Z " fill="#0F0B06" transform="translate(323,72)"/>
<path d="M0,0 L16,0 L16,32 L0,32 Z " fill="#693A14" transform="translate(161,237)"/>
<path d="M0,0 L30,0 L30,16 L0,16 Z " fill="#CA7926" transform="translate(211,384)"/>
<path d="M0,0 L1,0 L1,33 L82,33 L82,0 L100,0 L100,17 L83,17 L83,34 L0,34 Z " fill="#663A16" transform="translate(241,90)"/>
<path d="M0,0 L18,0 L18,17 L0,17 Z " fill="#693914" transform="translate(291,155)"/>
<path d="M0,0 L17,0 L17,17 L0,17 Z " fill="#A65C20" transform="translate(110,384)"/>
<path d="M0,0 L17,0 L17,17 L0,17 Z " fill="#693915" transform="translate(110,237)"/>
<path d="M0,0 L17,0 L17,17 L0,17 Z " fill="#A55C20" transform="translate(194,203)"/>
<path d="M0,0 L17,0 L17,17 L0,17 Z " fill="#6B3B14" transform="translate(324,155)"/>
<path d="M0,0 L17,0 L17,17 L0,17 Z " fill="#6B3B15" transform="translate(144,155)"/>
<path d="M0,0 L18,0 L18,16 L0,16 Z " fill="#D39422" transform="translate(323,367)"/>
<path d="M0,0 L16,0 L16,18 L0,18 Z " fill="#DEA22A" transform="translate(341,333)"/>
<path d="M0,0 L16,0 L16,17 L0,17 Z " fill="#A65C20" transform="translate(144,384)"/>
<path d="M0,0 L16,0 L16,17 L0,17 Z " fill="#6C3C15" transform="translate(341,384)"/>
<path d="M0,0 L16,0 L16,17 L0,17 Z " fill="#A55C20" transform="translate(194,285)"/>
<path d="M0,0 L17,0 L17,16 L0,16 Z " fill="#A25920" transform="translate(225,172)"/>
<path d="M0,0 L16,0 L16,17 L0,17 Z " fill="#EEBA39" transform="translate(374,107)"/>
<path d="M0,0 L16,0 L16,17 L0,17 Z " fill="#EFBB39" transform="translate(211,107)"/>
<path d="M0,0 L16,0 L16,17 L0,17 Z " fill="#6A3A14" transform="translate(161,90)"/>
<path d="M0,0 L16,0 L16,16 L0,16 Z " fill="#C97826" transform="translate(390,384)"/>
<path d="M0,0 L16,0 L16,16 L0,16 Z " fill="#924F1C" transform="translate(242,367)"/>
<path d="M0,0 L16,0 L16,16 L0,16 Z " fill="#A65C20" transform="translate(374,317)"/>
<path d="M0,0 L16,0 L16,16 L0,16 Z " fill="#A25920" transform="translate(374,172)"/>
<path d="M0,0 L17,0 L17,15 L0,15 Z " fill="#683914" transform="translate(110,302)"/>
<path d="M0,0 L16,0 L16,82 L47,82 L47,83 L14,83 L14,2 L-1,2 Z " fill="#18120A" transform="translate(392,284)"/>
<path d="M0,0 L17,0 L17,17 L64,17 L64,0 L81,0 L81,1 L66,1 L66,19 L16,19 L15,18 L15,1 L0,1 Z " fill="#0D0905" transform="translate(242,89)"/>
<path d="M0,0 Z " fill="#473924" transform="translate(76,419)"/>
<path d="M0,0 Z " fill="#563D22" transform="translate(405,239)"/>
</svg>
