<?xml version="1.0" encoding="UTF-8"?>
<!-- Generator: https://ezgif.com/png-to-svg -->
<svg version="1.1" xmlns="http://www.w3.org/2000/svg" width="512" height="512">
<path d="M0,0 L62,0 L62,16 L77,16 L77,32 L112,32 L112,16 L127,16 L127,0 L188,0 L188,16 L203,16 L203,32 L217,32 L218,87 L231,87 L231,132 L216,132 L217,141 L217,147 L214,149 L203,148 L203,191 L216,191 L217,192 L217,205 L231,206 L231,263 L246,263 L246,309 L231,309 L231,324 L142,324 L143,309 L77,309 L77,324 L-117,324 L-117,294 L-130,294 L-130,265 L-144,265 L-144,201 L-130,201 L-130,176 L-117,176 L-117,160 L-103,160 L-103,146 L-89,146 L-89,117 L-74,117 L-74,101 L-59,101 L-59,88 L-56,87 L-45,88 L-45,73 L-29,73 L-29,32 L-15,32 L-15,16 L0,16 Z " fill="#DB9040" transform="translate(206,79)"/>
<path d="M0,0 L62,0 L62,16 L77,16 L77,32 L112,32 L112,16 L127,16 L127,0 L188,0 L188,16 L203,16 L203,32 L217,32 L218,87 L231,87 L231,132 L216,132 L217,141 L217,147 L214,149 L203,148 L203,191 L216,191 L217,192 L217,205 L231,206 L231,263 L246,263 L246,309 L231,309 L231,324 L142,324 L143,309 L77,309 L77,324 L-117,324 L-117,294 L-130,294 L-130,265 L-144,265 L-144,201 L-130,201 L-130,176 L-117,176 L-117,160 L-103,160 L-103,146 L-89,146 L-89,117 L-74,117 L-74,101 L-59,101 L-59,88 L-56,87 L-45,88 L-45,73 L-29,73 L-29,32 L-15,32 L-15,16 L0,16 Z M1,17 L1,32 L-14,32 L-14,88 L-44,88 L-44,102 L-58,102 L-58,118 L-73,118 L-73,147 L-88,147 L-88,250 L-59,250 L-59,192 L-73,192 L-73,177 L-44,177 L-44,191 L-14,191 L-14,293 L1,293 L1,308 L61,308 L61,278 L77,278 L77,293 L127,293 L127,278 L143,278 L143,250 L158,250 L158,308 L231,308 L231,278 L215,278 L215,250 L202,250 L202,235 L215,235 L215,207 L202,207 L202,191 L187,191 L187,147 L202,147 L202,131 L-14,131 L-14,117 L215,117 L215,88 L202,88 L202,32 L187,32 L187,17 L128,17 L128,47 L76,47 L76,32 L61,32 L61,17 Z " fill="#252321" transform="translate(206,79)"/>
<path d="M0,0 L141,0 L141,59 L127,59 L127,89 L112,89 L112,117 L96,117 L96,132 L46,132 L46,117 L30,117 L30,103 L14,103 L14,30 L0,30 Z " fill="#F7BB62" transform="translate(237,240)"/>
<path d="M0,0 L28,0 L28,73 L57,73 L57,15 L43,15 L43,0 L72,0 L72,14 L102,14 L102,43 L87,43 L87,131 L72,131 L72,116 L58,116 L58,131 L43,131 L43,116 L0,116 L0,87 L-13,87 L-13,25 L0,25 Z " fill="#A1571F" transform="translate(90,256)"/>
<path d="M0,0 L44,0 L44,71 L29,71 L29,16 L15,16 L15,71 L13,71 L13,45 L0,45 L0,69 L3,70 L-10,70 L-10,87 L0,87 L0,88 L6,89 L9,91 L12,91 L13,88 L14,91 L34,91 L34,89 L36,90 L40,91 L46,92 L49,91 L53,91 L58,93 L59,89 L61,90 L61,93 L63,93 L63,91 L71,91 L71,99 L-26,99 L-26,98 L-5,98 L-4,95 L1,95 L2,93 L-11,93 L-12,92 L-14,93 L-14,91 L-30,91 L-30,87 L-43,87 L-43,86 L-30,86 L-30,71 L-44,71 L-44,86 L-46,89 L-48,89 L-48,92 L-31,92 L-31,98 L-97,98 L-98,91 L-97,16 L-82,16 L-82,44 L0,44 Z " fill="#E08F3D" transform="translate(349,96)"/>
<path d="M0,0 L30,0 L30,16 L43,16 L43,44 L30,44 L30,59 L43,59 L43,87 L59,87 L59,117 L-14,117 L-14,29 L0,29 Z " fill="#BE722E" transform="translate(378,270)"/>
<path d="M0,0 L29,0 L29,14 L59,14 L59,43 L44,43 L44,101 L-15,101 L-15,87 L15,87 L15,14 L0,14 Z " fill="#673717" transform="translate(133,256)"/>
<path d="M0,0 L15,0 L15,58 L31,58 L31,102 L-29,102 L-29,87 L-44,87 L-44,72 L-43,59 L-1,59 L-1,73 L-16,73 L-17,79 L-25,79 L-24,83 L-27,83 L-27,87 L-1,87 L-1,74 L0,74 L0,87 L15,87 L15,73 L0,73 Z " fill="#DD8D3C" transform="translate(236,285)"/>
<path d="M0,0 L229,0 L229,1 L216,1 L216,14 L0,14 Z " fill="#522D14" transform="translate(192,196)"/>
<path d="M0,0 L13,0 L13,13 L21,14 L21,17 L27,18 L28,14 L28,57 L58,57 L58,87 L14,87 L14,72 L0,72 Z " fill="#E59945" transform="translate(379,300)"/>
<path d="M0,0 L15,0 L15,15 L29,15 L29,73 L0,73 Z " fill="#E08F3D" transform="translate(118,256)"/>
<path d="M0,0 L15,0 L15,44 L-67,44 L-67,15 L-52,15 L-52,30 L0,30 Z " fill="#B86A29" transform="translate(334,96)"/>
<path d="M0,0 L14,0 L14,55 L28,55 L28,56 L14,57 L1,57 L0,65 L1,66 L3,67 L-3,75 L-6,75 L-7,77 L-7,75 L-16,73 L-16,72 L-25,71 L-25,54 L-15,53 L-15,29 L-2,29 L-2,55 L0,55 Z " fill="#DC913F" transform="translate(364,112)"/>
<path d="M0,0 L14,0 L14,72 L29,72 L29,87 L0,87 Z " fill="#A2581F" transform="translate(364,300)"/>
<path d="M0,0 L30,0 L30,29 L15,29 L15,59 L0,59 Z " fill="#A45A20" transform="translate(162,270)"/>
<path d="M0,0 L15,0 L15,58 L31,58 L31,72 L0,72 Z " fill="#2A2622" transform="translate(236,285)"/>
<path d="M0,0 L29,0 L29,71 L14,71 L13,16 L0,15 Z " fill="#F3B65C" transform="translate(364,96)"/>
<path d="M0,0 L29,0 L29,15 L14,15 L14,71 L0,71 Z " fill="#F5BC62" transform="translate(222,96)"/>
<path d="M0,0 L15,0 L15,72 L5,72 L0,71 Z " fill="#DC8B3A" transform="translate(207,96)"/>
<path d="M0,0 L81,0 L81,13 L-4,13 L-4,15 L-6,15 L-4,6 L3,4 L2,1 L2,4 L0,4 Z " fill="#272624" transform="translate(354,388)"/>
<path d="M0,0 L13,0 L13,5 L27,5 L27,19 L13,19 L13,62 L0,62 Z " fill="#6B3716" transform="translate(77,281)"/>
<path d="M0,0 L13,0 L13,72 L0,72 Z " fill="#262423" transform="translate(148,271)"/>
<path d="M0,0 L15,0 L15,55 L0,55 Z " fill="#F6B95F" transform="translate(252,112)"/>
<path d="M0,0 L15,0 L15,55 L0,55 Z " fill="#292622" transform="translate(236,112)"/>
<path d="M0,0 L50,0 L50,15 L0,15 Z " fill="#DE8E3D" transform="translate(283,357)"/>
<path d="M0,0 L13,0 L13,55 L0,55 Z " fill="#262422" transform="translate(364,112)"/>
<path d="M0,0 L15,0 L15,44 L0,44 Z " fill="#F3B45B" transform="translate(118,256)"/>
<path d="M0,0 L12,0 L12,1 L1,1 L1,4 L12,4 L12,43 L0,43 Z " fill="#A85C21" transform="translate(365,329)"/>
<path d="M0,0 L16,0 L16,30 L0,30 Z " fill="#A65B21" transform="translate(421,357)"/>
<path d="M0,0 L15,0 L15,31 L0,31 Z " fill="#DD8D3C" transform="translate(378,239)"/>
<path d="M0,0 L29,0 L29,15 L0,15 Z " fill="#643315" transform="translate(104,372)"/>
<path d="M0,0 L28,0 L28,15 L0,15 Z " fill="#E08F3D" transform="translate(393,372)"/>
<path d="M0,0 L30,0 L30,14 L0,14 Z " fill="#272423" transform="translate(118,343)"/>
<path d="M0,0 L14,0 L14,29 L0,29 Z " fill="#252322" transform="translate(364,300)"/>
<path d="M0,0 L13,0 L13,29 L0,28 Z " fill="#272523" transform="translate(77,343)"/>
<path d="M0,0 L13,0 L13,28 L0,28 Z " fill="#9E531C" transform="translate(408,329)"/>
<path d="M0,0 L13,0 L13,28 L0,28 Z " fill="#A0551D" transform="translate(408,286)"/>
<path d="M0,0 L1,0 L1,43 L16,43 L16,57 L0,57 Z " fill="#E19E4C" transform="translate(251,286)"/>
<path d="M0,0 L15,0 L15,16 L0,16 Z " fill="#D48839" transform="translate(393,210)"/>
<path d="M0,0 L15,0 L15,16 L0,16 Z " fill="#9B521C" transform="translate(334,96)"/>
<path d="M0,0 L15,0 L15,15 L0,15 Z " fill="#A75B21" transform="translate(192,357)"/>
<path d="M0,0 L15,0 L15,15 L0,15 Z " fill="#DF8F3D" transform="translate(118,256)"/>
<path d="M0,0 L16,0 L16,14 L0,14 Z " fill="#E1913F" transform="translate(333,343)"/>
<path d="M0,0 L16,0 L16,14 L0,14 Z " fill="#E0913F" transform="translate(267,343)"/>
<path d="M0,0 L16,0 L16,14 L0,14 Z " fill="#884618" transform="translate(251,343)"/>
<path d="M0,0 L15,0 L15,14 L0,14 Z " fill="#F6BA61" transform="translate(236,358)"/>
<path d="M0,0 L15,0 L15,14 L0,14 Z " fill="#292422" transform="translate(133,256)"/>
<path d="M0,0 L15,0 L15,14 L0,14 Z " fill="#272523" transform="translate(267,97)"/>
<path d="M0,0 L14,0 L14,14 L0,14 Z " fill="#AC5F22" transform="translate(148,256)"/>
<path d="M0,0 L14,0 L14,14 L0,14 Z " fill="#292521" transform="translate(339,167)"/>
<path d="M0,0 L13,0 L13,14 L0,14 Z " fill="#292421" transform="translate(306,167)"/>
<path d="M0,0 L1,0 L1,45 L-15,45 L-15,43 L-1,43 L-1,3 L-14,3 L-14,1 Z " fill="#100F0E" transform="translate(436,166)"/>
<path d="M0,0 L2,1 L1,44 L0,44 L0,16 L-13,16 L-13,15 L0,15 L0,2 L-13,2 L-13,1 Z " fill="#543321" transform="translate(421,270)"/>
<path d="M0,0 L15,0 L15,16 L27,16 L27,17 L14,17 L13,16 L13,2 L0,2 Z " fill="#060605" transform="translate(394,95)"/>
<path d="M0,0 L12,0 L15,2 L2,2 L2,16 L0,16 Z " fill="#0F0E0D" transform="translate(132,180)"/>
<path d="M0,0 L2,3 L2,15 L-1,17 L-12,16 L-9,14 L0,14 Z " fill="#514C47" transform="translate(421,211)"/>
<path d="M0,0 L2,1 L2,14 L0,15 L0,2 L-13,2 L-13,1 Z " fill="#4C443D" transform="translate(421,270)"/>
</svg>
