<?xml version="1.0" encoding="UTF-8"?>
<!-- Generator: https://ezgif.com/png-to-svg -->
<svg version="1.1" xmlns="http://www.w3.org/2000/svg" width="512" height="512">
<path d="M0,0 L77,0 L78,1 L78,17 L93,17 L97,18 L97,36 L154,36 L154,17 L169,17 L169,0 L233,0 L235,2 L235,17 L248,17 L252,19 L252,80 L267,80 L269,82 L269,95 L286,95 L287,96 L287,151 L269,151 L269,171 L252,171 L252,210 L268,210 L269,211 L269,229 L285,229 L286,230 L286,284 L270,284 L270,321 L310,320 L311,321 L311,374 L310,375 L183,375 L182,374 L182,347 L183,340 L147,340 L147,374 L101,375 L-74,375 L-74,357 L-91,357 L-92,324 L-108,324 L-109,323 L-109,230 L-108,229 L-91,229 L-91,179 L-74,179 L-74,141 L-73,140 L-54,141 L-54,107 L-36,106 L-35,54 L-17,54 L-17,17 L0,17 Z " fill="#091223" transform="translate(152,69)"/>
<path d="M0,0 L19,0 L19,18 L37,18 L38,19 L38,36 L115,36 L115,0 L174,0 L175,1 L175,34 L174,35 L156,35 L156,18 L138,18 L138,66 L191,66 L192,67 L192,78 L209,78 L209,96 L-38,96 L-38,115 L-21,114 L208,114 L208,131 L175,131 L175,153 L18,153 L18,172 L157,172 L157,282 L156,283 L139,283 L139,301 L36,301 L36,266 L37,265 L53,265 L53,245 L37,245 L36,244 L36,188 L17,188 L17,320 L34,320 L34,337 L-5,337 L-5,319 L-21,319 L-22,302 L-40,301 L-41,294 L-41,269 L-21,269 L-22,246 L-41,245 L-41,208 L-58,208 L-58,173 L-39,173 L-39,136 L-59,136 L-58,68 L18,68 L18,35 L0,35 L-1,17 Z " fill="#5C3477" transform="translate(211,88)"/>
<path d="M0,0 L77,0 L78,1 L78,17 L93,17 L97,18 L97,36 L154,36 L154,17 L169,17 L169,0 L233,0 L235,2 L235,17 L248,17 L252,19 L252,80 L267,80 L269,82 L269,95 L286,95 L287,96 L287,151 L269,151 L269,171 L252,171 L252,210 L268,210 L269,211 L269,229 L285,229 L286,230 L286,284 L269,284 L269,320 L268,320 L267,212 L252,212 L250,211 L250,169 L251,151 L267,151 L267,133 L21,134 L21,115 L268,115 L268,97 L251,97 L250,86 L197,85 L197,37 L215,37 L215,54 L233,53 L233,20 L174,19 L174,55 L97,55 L96,38 L78,37 L77,19 L2,19 L1,56 L-16,56 L-16,109 L-34,110 L-35,142 L-53,142 L-53,168 L-54,181 L-71,181 L-71,216 L-53,216 L-53,230 L-73,230 L-73,246 L-74,247 L-89,247 L-89,355 L-72,355 L-72,373 L82,373 L88,374 L88,375 L-74,375 L-74,357 L-91,357 L-92,324 L-108,324 L-109,323 L-109,230 L-108,229 L-91,229 L-91,179 L-74,179 L-74,141 L-73,140 L-54,141 L-54,107 L-36,106 L-35,54 L-17,54 L-17,17 L0,17 Z " fill="#071020" transform="translate(152,69)"/>
<path d="M0,0 L75,0 L75,1 L57,1 L57,36 L75,36 L75,69 L-1,69 L-1,125 L-2,137 L18,137 L18,174 L-1,174 L-1,209 L16,209 L16,246 L35,246 L36,247 L36,270 L16,270 L17,302 L0,302 L-1,227 L-18,226 L-18,210 L-36,210 L-36,227 L-19,227 L-18,254 L-18,285 L-38,285 L-38,304 L-54,304 L-54,321 L-21,321 L-20,322 L-20,338 L-55,338 L-55,321 L-73,321 L-74,305 L-91,304 L-91,229 L-76,228 L-75,212 L-55,212 L-55,198 L-73,198 L-73,163 L-56,163 L-56,150 L-55,124 L-37,124 L-37,92 L-36,91 L-18,91 L-18,38 L-1,38 L-1,1 Z " fill="#311D5B" transform="translate(154,87)"/>
<path d="M0,0 L138,0 L138,110 L137,111 L120,111 L120,129 L17,129 L17,94 L18,93 L34,93 L34,73 L18,73 L17,72 L17,15 L-1,15 L-1,1 Z " fill="#36225B" transform="translate(230,260)"/>
<path d="M0,0 L33,0 L33,1 L17,1 L17,19 L16,61 L33,62 L34,81 L34,133 L17,133 L17,171 L34,171 L34,190 L57,190 L57,207 L18,207 L17,190 L0,189 L0,207 L-33,207 L-33,189 L-32,188 L-18,188 L-19,151 L-18,41 L-157,41 L-157,22 L0,22 Z " fill="#0B1426" transform="translate(386,219)"/>
<path d="M0,0 L229,0 L229,17 L196,17 L196,39 L20,39 L21,21 L0,21 Z " fill="#CA918F" transform="translate(190,202)"/>
<path d="M0,0 L17,0 L17,18 L35,18 L36,44 L36,75 L16,75 L16,94 L0,94 L0,111 L33,111 L34,112 L34,128 L-1,128 L-1,111 L-19,111 L-20,95 L-37,94 L-37,19 L-22,18 L-21,2 L-1,1 Z " fill="#311D5B" transform="translate(100,297)"/>
<path d="M0,0 L18,0 L18,20 L35,20 L35,71 L18,71 L18,109 L35,109 L35,128 L58,128 L58,145 L19,145 L18,128 L1,127 L1,145 L-32,145 L-32,127 L-31,126 L-17,126 L-17,90 L0,90 Z " fill="#422663" transform="translate(385,281)"/>
<path d="M0,0 L137,0 L137,36 L18,36 L17,16 L-1,15 L-1,1 Z " fill="#E2B799" transform="translate(230,260)"/>
<path d="M0,0 L15,0 L15,25 L-2,25 L-3,46 L-87,46 L-87,26 L-105,26 L-105,8 L0,8 Z " fill="#E6BD9B" transform="translate(352,306)"/>
<path d="M0,0 L193,1 L191,2 L193,9 L193,19 L193,22 L187,23 L20,23 L21,5 L0,5 Z " fill="#E1BA9F" transform="translate(190,218)"/>
<path d="M0,0 L17,0 L17,18 L35,18 L35,61 L7,62 L-21,62 L-21,2 L-1,1 Z " fill="#593277" transform="translate(100,297)"/>
<path d="M0,0 L37,0 L37,17 L55,17 L55,49 L0,49 Z " fill="#091426" transform="translate(174,106)"/>
<path d="M0,0 L16,1 L16,17 L102,18 L102,36 L-1,36 L-1,1 Z " fill="#D7A790" transform="translate(248,353)"/>
<path d="M0,0 L17,0 L17,20 L101,20 L101,6 L102,6 L102,21 L119,21 L119,39 L21,39 L16,38 L16,22 L4,22 L4,21 L16,21 L16,1 L0,1 Z " fill="#653D78" transform="translate(248,332)"/>
<path d="M0,0 L34,0 L34,18 L57,18 L57,35 L18,35 L17,18 L0,17 Z " fill="#573071" transform="translate(386,391)"/>
<path d="M0,0 L19,0 L19,18 L18,34 L17,35 L0,35 L-1,17 Z " fill="#5E3775" transform="translate(211,88)"/>
<path d="M0,0 L5,0 L6,1 L6,17 L-28,17 L-28,1 Z " fill="#583276" transform="translate(128,408)"/>
<path d="M0,0 L3,1 L3,54 L2,55 L-125,55 L-123,53 L0,53 L0,3 L-39,3 L-39,1 Z " fill="#010408" transform="translate(460,389)"/>
<path d="M0,0 L17,0 L17,33 L34,33 L34,51 L188,51 L194,52 L194,53 L32,53 L32,35 L15,35 L15,1 L0,1 Z " fill="#000205" transform="translate(46,391)"/>
<path d="M0,0 L20,0 L20,22 L0,22 Z " fill="#0B1427" transform="translate(170,334)"/>
<path d="M0,0 L18,0 L19,1 L19,20 L0,20 Z " fill="#0C1428" transform="translate(153,241)"/>
<path d="M0,0 L17,1 L17,21 L0,22 Z " fill="#311D59" transform="translate(247,332)"/>
<path d="M0,0 L33,0 L33,1 L17,1 L17,19 L0,19 Z " fill="#5F376F" transform="translate(386,219)"/>
<path d="M0,0 L18,0 L18,18 L0,18 Z " fill="#5B3570" transform="translate(368,241)"/>
<path d="M0,0 L16,0 L16,19 L-1,19 Z " fill="#573172" transform="translate(386,353)"/>
<path d="M0,0 L20,0 L20,15 L0,15 Z " fill="#301C5A" transform="translate(79,299)"/>
<path d="M0,0 L17,0 L17,17 L0,17 Z " fill="#0B1428" transform="translate(97,332)"/>
<path d="M0,0 L17,0 L17,17 L0,17 Z " fill="#ECD1AF" transform="translate(368,106)"/>
<path d="M0,0 L16,0 L16,18 L0,18 Z " fill="#5A3378" transform="translate(153,408)"/>
<path d="M0,0 L16,0 L16,17 L-1,17 L-1,1 Z " fill="#EAD0B2" transform="translate(212,106)"/>
<path d="M0,0 L16,0 L16,17 L0,17 Z " fill="#D9A890" transform="translate(351,353)"/>
<path d="M0,0 L15,0 L16,1 L16,17 L0,17 Z " fill="#091325" transform="translate(100,268)"/>
<path d="M0,0 L15,0 L15,17 L0,17 Z " fill="#563171" transform="translate(264,408)"/>
<path d="M0,0 L14,0 L14,16 L0,16 Z " fill="#0D1428" transform="translate(212,317)"/>
<path d="M0,0 L14,0 L14,16 L0,16 Z " fill="#0B1427" transform="translate(111,237)"/>
<path d="M0,0 L14,0 L14,16 L0,16 Z " fill="#0B1426" transform="translate(291,144)"/>
<path d="M0,0 L13,0 L14,1 L14,16 L0,16 Z " fill="#0C1427" transform="translate(328,144)"/>
<path d="M0,0 L13,0 L13,16 L0,16 Z " fill="#0B1427" transform="translate(191,363)"/>
<path d="M0,0 L13,0 L13,16 L0,16 Z " fill="#0C1428" transform="translate(191,276)"/>
<path d="M0,0 L12,0 L12,15 L0,15 Z " fill="#0A1327" transform="translate(133,198)"/>
</svg>
