<?xml version="1.0" encoding="UTF-8"?>
<!-- Generator: https://ezgif.com/png-to-svg -->
<svg version="1.1" xmlns="http://www.w3.org/2000/svg" width="512" height="512">
<path d="M0,0 L69,0 L69,17 L85,17 L85,33 L137,33 L137,17 L153,16 L154,0 L225,0 L225,17 L238,17 L238,33 L252,33 L252,84 L267,84 L267,152 L252,152 L252,170 L236,170 L236,202 L252,202 L252,235 L267,235 L267,301 L287,301 L287,337 L286,338 L272,338 L272,355 L167,355 L167,336 L97,336 L97,355 L42,356 L-96,355 L-96,302 L-106,302 L-106,220 L-90,220 L-90,185 L-74,185 L-74,150 L-59,150 L-59,118 L-44,118 L-44,84 L-31,84 L-31,52 L-17,52 L-17,17 L0,17 Z M53,35 L53,52 L67,52 L67,35 Z M208,35 L208,52 L223,52 L223,35 Z M271,337 Z " fill="#0D2533" transform="translate(160,72)"/>
<path d="M0,0 L70,0 L70,16 L83,16 L83,66 L97,66 L97,115 L-129,115 L-129,133 L80,133 L80,150 L66,150 L66,217 L51,217 L51,262 L38,262 L38,283 L22,283 L22,299 L-71,299 L-71,283 L-85,283 L-85,218 L-100,218 L-100,255 L-114,255 L-114,269 L-134,269 L-134,283 L-144,283 L-144,218 L-150,218 L-150,203 L-165,203 L-165,153 L-149,153 L-149,101 L-136,101 L-136,67 L-86,67 L-86,16 L-70,16 L-70,35 L0,35 Z M54,17 L54,34 L69,34 L69,17 Z " fill="#5294BA" transform="translate(314,90)"/>
<path d="M0,0 L189,0 L189,17 L175,17 L175,84 L160,84 L160,129 L147,129 L147,150 L131,150 L131,166 L38,166 L38,150 L24,150 L24,52 L10,52 L10,18 L0,18 Z " fill="#E4D593" transform="translate(205,223)"/>
<path d="M0,0 L69,0 L69,17 L85,17 L85,33 L137,33 L137,17 L153,16 L154,0 L225,0 L225,17 L238,17 L238,33 L252,33 L252,84 L267,84 L267,152 L252,152 L252,170 L236,170 L236,202 L252,202 L252,235 L267,235 L267,301 L287,301 L287,337 L286,338 L272,338 L271,337 L271,317 L251,317 L251,235 L235,235 L235,203 L220,203 L220,168 L234,168 L234,151 L25,151 L25,133 L251,133 L251,84 L237,84 L237,34 L224,34 L224,18 L154,18 L154,53 L84,53 L84,34 L68,34 L68,18 L1,18 L1,53 L-15,53 L-15,103 L-30,103 L-30,119 L-39,119 L-39,151 L-58,151 L-58,186 L-73,187 L-89,187 L-89,220 L-90,220 L-90,185 L-74,185 L-74,150 L-59,150 L-59,118 L-44,118 L-44,84 L-31,84 L-31,52 L-17,52 L-17,17 L0,17 Z " fill="#0B212E" transform="translate(160,72)"/>
<path d="M0,0 L67,0 L67,67 L17,67 L17,101 L4,101 L4,153 L-12,153 L-12,185 L-74,185 L-74,168 L-59,168 L-59,133 L-40,133 L-40,101 L-31,101 L-31,85 L-16,85 L-16,35 L0,35 Z M52,17 L52,34 L66,34 L66,17 Z " fill="#2F6583" transform="translate(161,90)"/>
<path d="M0,0 L48,0 L48,15 L65,15 L65,81 L48,81 L48,97 L65,97 L65,116 L47,116 L47,97 L33,97 L33,116 L0,116 L0,97 L15,97 L15,81 L33,81 L33,53 L15,53 L15,67 L0,67 L0,49 L-13,49 L-13,15 L0,15 Z " fill="#5293BA" transform="translate(84,292)"/>
<path d="M0,0 L226,0 L226,19 L225,36 L195,36 L195,35 L209,35 L209,18 L0,18 Z " fill="#163242" transform="translate(185,205)"/>
<path d="M0,0 L15,0 L15,32 L31,32 L31,114 L51,114 L51,134 L31,134 L30,133 L30,114 L16,114 L16,133 L15,134 L-27,134 L-27,114 L0,114 L0,33 L-15,33 L-15,32 L0,32 Z " fill="#214D66" transform="translate(380,275)"/>
<path d="M0,0 L189,0 L189,17 L188,14 L176,15 L175,16 L17,16 L17,14 L0,14 Z " fill="#E7D897" transform="translate(205,223)"/>
<path d="M0,0 L17,0 L17,66 L0,66 L0,82 L17,82 L17,101 L-1,101 L-1,82 L-15,82 L-15,101 L-48,101 L-48,82 L-33,82 L-33,66 L-15,66 L-15,38 L16,38 L16,1 L0,1 Z " fill="#306583" transform="translate(132,307)"/>
<path d="M0,0 L52,0 L52,1 L37,1 L37,18 L53,18 L53,50 L0,50 Z " fill="#0B2330" transform="translate(331,106)"/>
<path d="M0,0 L14,0 L14,30 L29,30 L29,44 L107,44 L107,60 L14,60 L14,44 L0,44 Z " fill="#D5C785" transform="translate(229,329)"/>
<path d="M0,0 L51,0 L51,50 L0,50 Z M36,1 L36,18 L50,18 L50,1 Z " fill="#0B2230" transform="translate(177,106)"/>
<path d="M0,0 L67,0 L67,16 L16,16 L16,67 L0,67 Z " fill="#5497BC" transform="translate(161,90)"/>
<path d="M0,0 L15,0 L15,32 L31,32 L31,70 L15,70 L15,84 L0,84 L0,33 L-15,33 L-15,32 L0,32 Z " fill="#4E8DB1" transform="translate(380,275)"/>
<path d="M0,0 L48,0 L48,15 L47,15 L47,1 L16,1 L16,35 L33,35 L33,53 L15,53 L15,67 L0,67 L0,49 L-13,49 L-13,15 L0,15 Z " fill="#326888" transform="translate(84,292)"/>
<path d="M0,0 L14,0 L14,15 L1,15 L1,49 L14,49 L14,67 L29,67 L29,53 L47,53 L47,81 L29,81 L29,97 L14,97 L14,81 L0,81 Z " fill="#183D53" transform="translate(70,292)"/>
<path d="M0,0 L14,0 L14,30 L42,30 L42,49 L-19,49 L-19,30 L0,30 Z " fill="#4D8CB2" transform="translate(200,359)"/>
<path d="M0,0 L6,0 L6,65 L16,65 L16,51 L36,51 L36,81 L17,81 L17,100 L0,100 Z " fill="#1E4961" transform="translate(164,308)"/>
<path d="M0,0 L17,0 L17,16 L1,16 L1,51 L-70,51 L-70,35 L0,35 Z " fill="#2D5F7D" transform="translate(314,90)"/>
<path d="M0,0 L16,0 L16,2 L2,2 L2,80 L12,80 L12,133 L201,133 L201,114 L275,114 L275,133 L362,133 L376,134 L376,135 L273,135 L273,116 L203,116 L203,135 L148,136 L10,135 L10,82 L0,82 Z " fill="#02070B" transform="translate(54,292)"/>
<path d="M0,0 L15,0 L15,52 L-15,52 L-15,35 L0,35 Z " fill="#1A435B" transform="translate(102,223)"/>
<path d="M0,0 L65,0 L65,15 L0,15 Z " fill="#102D3E" transform="translate(162,74)"/>
<path d="M0,0 L42,0 L42,20 L0,20 Z " fill="#4F91B8" transform="translate(353,389)"/>
<path d="M0,0 L15,0 L15,65 L29,65 L29,66 L15,66 L15,80 L2,80 L2,65 L14,65 L14,22 L1,22 L1,81 L0,81 L0,51 L-14,51 L-14,37 L0,37 Z " fill="#1F3D4D" transform="translate(214,308)"/>
<path d="M0,0 L512,0 L512,62 L511,62 L511,1 L1,1 L1,262 L0,262 Z " fill="#000000" transform="translate(0,0)"/>
<path d="M0,0 L20,0 L20,37 L0,38 Z " fill="#15374B" transform="translate(144,205)"/>
<path d="M0,0 L15,0 L15,36 L-1,36 L-1,16 L-13,16 L-13,15 L0,15 Z " fill="#265672" transform="translate(84,292)"/>
<path d="M0,0 L32,0 L32,18 L15,18 L0,17 Z " fill="#194057" transform="translate(117,275)"/>
<path d="M0,0 L1,0 L1,32 L-16,32 L-16,2 Z " fill="#1A4158" transform="translate(383,124)"/>
<path d="M0,0 L14,0 L14,33 L12,34 L0,34 Z " fill="#0F2631" transform="translate(380,241)"/>
<path d="M0,0 L15,0 L15,31 L0,31 Z " fill="#0B2230" transform="translate(395,276)"/>
<path d="M0,0 L2,1 L2,33 L1,34 L-12,35 L-13,66 L-25,66 L-25,100 L-26,101 L-40,101 L-40,131 L-42,133 L-55,133 L-55,167 L-56,168 L-72,168 L-72,201 L-73,201 L-73,166 L-57,166 L-57,131 L-42,131 L-42,99 L-27,99 L-27,65 L-14,65 L-14,33 L0,33 Z " fill="#01060A" transform="translate(143,91)"/>
<path d="M0,0 L15,0 L15,29 L0,29 Z " fill="#15384C" transform="translate(212,126)"/>
<path d="M0,0 L21,0 L21,20 L1,20 L0,19 Z " fill="#4985A9" transform="translate(410,389)"/>
<path d="M0,0 L21,0 L21,17 L0,17 Z " fill="#1E465E" transform="translate(165,258)"/>
<path d="M0,0 L14,0 L14,19 L42,19 L42,20 L0,20 Z " fill="#2F627E" transform="translate(353,389)"/>
<path d="M0,0 L16,0 L16,19 L0,19 Z " fill="#1E475F" transform="translate(184,308)"/>
<path d="M0,0 L14,1 L14,22 L0,22 Z " fill="#193B50" transform="translate(365,308)"/>
<path d="M0,0 L1,0 L1,81 L0,81 L0,51 L-14,51 L-14,37 L0,37 Z " fill="#2B5A75" transform="translate(214,308)"/>
<path d="M0,0 L1,0 L1,273 L0,273 Z " fill="#000000" transform="translate(511,120)"/>
<path d="M0,0 L13,0 L14,1 L14,18 L1,18 L1,39 L0,39 Z " fill="#D0C383" transform="translate(351,334)"/>
<path d="M0,0 L16,0 L16,17 L0,17 Z " fill="#122F40" transform="translate(315,157)"/>
<path d="M0,0 L16,0 L16,17 L0,17 Z " fill="#0B212E" transform="translate(280,157)"/>
<path d="M0,0 L15,0 L15,18 L0,18 Z " fill="#153345" transform="translate(383,173)"/>
<path d="M0,0 L16,0 L16,16 L0,16 Z " fill="#336886" transform="translate(161,90)"/>
<path d="M0,0 L16,0 L16,16 L0,16 Z " fill="#316684" transform="translate(315,90)"/>
<path d="M0,0 L14,0 L14,18 L0,18 Z " fill="#1F4A63" transform="translate(164,173)"/>
<path d="M0,0 L14,0 L14,17 L0,17 Z " fill="#2E6281" transform="translate(87,258)"/>
<path d="M0,0 L14,0 L14,14 L0,14 Z " fill="#D5C784" transform="translate(336,359)"/>
<path d="M0,0 L4,0 L4,32 L0,32 Z " fill="#163C52" transform="translate(117,191)"/>
<path d="M0,0 L1,0 L1,104 L0,104 Z " fill="#000000" transform="translate(0,408)"/>
<path d="M0,0 L18,0 L18,3 L1,3 L1,38 L0,38 Z " fill="#1E465D" transform="translate(131,370)"/>
<path d="M0,0 L1,0 L1,19 L17,19 L17,20 L7,20 L6,22 L0,21 L-1,19 L-1,4 Z " fill="#4680A4" transform="translate(183,308)"/>
<path d="M0,0 L1,0 L1,56 L0,56 Z " fill="#000000" transform="translate(511,63)"/>
<path d="M0,0 L1,0 L1,43 L0,43 Z " fill="#000000" transform="translate(511,456)"/>
<path d="M0,0 L1,0 L1,27 L0,27 Z " fill="#000000" transform="translate(511,396)"/>
<path d="M0,0 L1,0 L1,21 L0,21 Z " fill="#000000" transform="translate(511,432)"/>
<path d="M0,0 L1,0 L1,7 L0,7 Z " fill="#000000" transform="translate(511,424)"/>
<path d="M0,0 L1,0 L1,6 L0,6 Z " fill="#000000" transform="translate(511,500)"/>
<path d="M0,0 Z " fill="#000000" transform="translate(511,507)"/>
<path d="M0,0 L2,1 Z " fill="#000000" transform="translate(92,511)"/>
<path d="M0,0 Z " fill="#000000" transform="translate(0,266)"/>
<path d="M0,0 Z " fill="#000000" transform="translate(511,511)"/>
<path d="M0,0 Z " fill="#000000" transform="translate(0,400)"/>
<path d="M0,0 Z " fill="#000000" transform="translate(0,397)"/>
<path d="M0,0 Z " fill="#000000" transform="translate(511,394)"/>
<path d="M0,0 Z " fill="#000001" transform="translate(0,287)"/>
<path d="M0,0 Z " fill="#000000" transform="translate(0,281)"/>
<path d="M0,0 Z " fill="#000001" transform="translate(0,272)"/>
<path d="M0,0 Z " fill="#000000" transform="translate(0,264)"/>
</svg>
