<?xml version="1.0" encoding="UTF-8"?>
<!-- Generator: https://ezgif.com/png-to-svg -->
<svg version="1.1" xmlns="http://www.w3.org/2000/svg" width="512" height="512">
<path d="M0,0 L92,0 L93,2 L93,17 L110,17 L110,34 L172,34 L172,17 L187,17 L187,0 L270,0 L270,17 L285,17 L286,78 L285,101 L302,101 L302,118 L318,118 L318,152 L302,152 L302,169 L286,170 L286,230 L302,230 L302,309 L286,309 L286,329 L345,329 L345,378 L325,379 L240,379 L202,378 L202,346 L127,346 L127,378 L110,379 L-48,379 L-79,378 L-79,330 L-94,330 L-94,231 L-87,230 L-79,231 L-79,213 L-63,213 L-63,181 L-47,181 L-47,135 L-31,135 L-31,101 L-15,101 L-15,17 L0,17 Z " fill="#3C225B" transform="translate(136,69)"/>
<path d="M0,0 L92,0 L93,2 L93,17 L110,17 L110,34 L172,34 L172,17 L187,17 L187,0 L270,0 L270,17 L285,17 L286,78 L285,101 L302,101 L302,118 L318,118 L318,152 L302,152 L302,169 L286,170 L286,230 L302,230 L302,309 L286,309 L286,329 L345,329 L345,378 L325,379 L240,379 L202,378 L202,346 L127,346 L127,378 L110,379 L-48,379 L-79,378 L-79,330 L-94,330 L-94,231 L-87,230 L-79,231 L-79,213 L-63,213 L-63,181 L-47,181 L-47,135 L-31,135 L-31,101 L-15,101 L-15,17 L0,17 Z M1,18 L1,101 L-14,101 L-15,102 L-15,136 L-31,136 L-31,211 L-30,214 L1,214 L3,218 L12,227 L15,227 L17,215 L31,202 L31,200 L47,200 L48,204 L58,213 L62,216 L64,227 L70,231 L71,238 L63,246 L55,253 L54,254 L31,255 L31,314 L32,314 L33,304 L41,303 L50,304 L58,304 L64,306 L65,308 L65,320 L55,330 L51,330 L49,326 L47,323 L47,318 L56,318 L57,312 L56,309 L54,308 L46,308 L38,315 L36,318 L36,325 L44,334 L49,339 L56,339 L61,335 L67,330 L77,329 L77,214 L93,214 L93,329 L223,329 L223,312 L239,312 L239,280 L253,280 L253,231 L269,231 L269,168 L285,168 L285,151 L32,151 L32,136 L301,136 L301,119 L285,119 L285,101 L269,101 L269,18 L188,18 L188,54 L92,54 L92,18 Z " fill="#05091C" transform="translate(136,69)"/>
<path d="M0,0 L177,0 L177,63 L161,63 L161,112 L147,112 L147,144 L131,144 L131,161 L1,161 L1,46 L-15,46 L-15,14 L0,14 Z " fill="#124038" transform="translate(228,237)"/>
<path d="M0,0 L237,0 L237,16 L45,16 L45,30 L30,30 L30,177 L20,178 L14,183 L9,187 L2,187 L-3,182 L-11,173 L-11,166 L-4,158 L-1,156 L7,156 L9,157 L10,164 L9,166 L0,166 L1,173 L4,176 L4,178 L9,177 L18,168 L18,156 L16,153 L11,152 L-3,152 L-10,151 L-14,152 L-15,162 L-16,162 L-16,103 L7,102 L14,95 L22,88 L24,86 L23,79 L17,75 L15,64 L0,51 L0,48 L-16,48 L-18,52 L-30,63 L-32,75 L-36,74 L-46,64 L-46,62 L-77,62 L-78,59 L-78,30 L-77,2 L-76,2 L-76,29 L-31,30 L-31,16 L0,16 L0,7 L4,3 L9,2 L4,2 L0,3 Z " fill="#351D54" transform="translate(183,221)"/>
<path d="M0,0 L62,0 L93,31 L93,65 L82,76 L74,83 L65,92 L64,98 L47,98 L47,114 L93,114 L93,129 L17,129 L17,98 L0,98 Z " fill="#2C1749" transform="translate(58,300)"/>
<path d="M0,0 L16,0 L31,1 L31,82 L1,82 L1,98 L-86,98 L-86,49 L-57,49 L-57,33 L-15,33 L-15,16 L0,16 Z " fill="#E3A213" transform="translate(343,283)"/>
<path d="M0,0 L15,0 L16,32 L47,32 L54,40 L58,44 L61,45 L62,33 L69,26 L76,20 L77,18 L93,18 L96,23 L109,34 L111,45 L117,49 L118,56 L109,65 L101,72 L100,73 L77,73 L78,122 L85,120 L96,121 L104,121 L110,123 L112,126 L112,138 L101,149 L97,148 L92,141 L93,136 L102,136 L102,127 L92,127 L85,133 L83,136 L83,143 L91,152 L95,156 L102,156 L107,152 L113,147 L123,147 L123,163 L158,163 L158,178 L77,178 L76,177 L75,65 L69,60 L69,58 L66,57 L66,53 L62,53 L62,50 L32,49 L32,33 L10,33 L0,32 Z " fill="#1C1039" transform="translate(90,251)"/>
<path d="M0,0 L16,0 L16,66 L0,66 L0,103 L4,105 L13,114 L58,115 L58,130 L-30,130 L-30,50 L-16,50 L-16,1 Z " fill="#241340" transform="translate(405,299)"/>
<path d="M0,0 L19,0 L29,4 L38,10 L45,18 L49,26 L50,30 L50,45 L47,55 L42,63 L34,71 L23,76 L20,77 L0,77 L-12,72 L-22,63 L-27,55 L-30,44 L-30,33 L-27,23 L-21,13 L-13,6 L-3,1 Z " fill="#6C539F" transform="translate(178,89)"/>
<path d="M0,0 L19,0 L31,5 L39,12 L45,20 L48,28 L48,47 L43,59 L34,69 L25,74 L17,77 L2,77 L-9,73 L-17,67 L-25,58 L-28,51 L-29,46 L-29,31 L-26,22 L-20,13 L-13,6 L-3,1 Z " fill="#EBBC37" transform="translate(357,90)"/>
<path d="M0,0 L169,0 L169,13 L44,13 L45,32 L44,46 L58,46 L58,79 L14,79 L14,46 L29,46 L29,31 L43,31 L43,14 L14,14 L14,33 L-14,32 L-14,14 L0,14 Z " fill="#277A50" transform="translate(228,237)"/>
<path d="M0,0 L1,0 L2,33 L316,33 L316,34 L47,34 L47,49 L300,49 L300,66 L299,66 L299,50 L62,50 L62,53 L66,51 L72,51 L71,53 L64,55 L63,57 L62,66 L31,66 L31,80 L-6,80 L-14,79 L-16,80 L-16,34 L0,34 Z " fill="#261443" transform="translate(121,171)"/>
<path d="M0,0 L27,0 L27,16 L42,16 L42,49 L13,49 L13,64 L0,65 L-29,65 L-29,16 L0,16 Z " fill="#D35F22" transform="translate(286,316)"/>
<path d="M0,0 L192,0 L192,16 L0,16 Z " fill="#53336E" transform="translate(228,221)"/>
<path d="M0,0 L19,0 L29,4 L38,10 L45,18 L49,26 L50,30 L50,45 L47,55 L42,63 L34,71 L23,76 L20,77 L0,77 L-12,72 L-22,63 L-27,55 L-30,44 L-30,33 L-27,23 L-21,13 L-13,6 L-3,1 Z M5,9 L-5,13 L-14,21 L-19,32 L-19,46 L-13,58 L-4,65 L1,67 L19,67 L29,62 L36,55 L40,46 L40,32 L36,23 L29,15 L19,10 L16,9 Z " fill="#EBBC37" transform="translate(178,89)"/>
<path d="M0,0 L19,0 L31,5 L39,12 L45,20 L48,28 L48,47 L43,59 L34,69 L25,74 L17,77 L2,77 L-9,73 L-17,67 L-25,58 L-28,51 L-29,46 L-29,31 L-26,22 L-20,13 L-13,6 L-3,1 Z M1,10 L-8,15 L-15,22 L-19,30 L-19,46 L-16,54 L-10,61 L-2,66 L1,67 L17,67 L27,63 L35,55 L39,45 L39,32 L33,20 L25,13 L18,10 Z " fill="#EABC37" transform="translate(357,90)"/>
<path d="M0,0 L14,0 L14,2 L27,2 L28,17 L27,33 L41,33 L41,66 L14,66 L14,33 L0,33 Z " fill="#0F4239" transform="translate(272,250)"/>
<path d="M0,0 L44,0 L44,33 L0,33 Z " fill="#49853B" transform="translate(242,283)"/>
<path d="M0,0 L46,0 L46,14 L30,14 L30,30 L15,30 L15,47 L0,47 Z " fill="#9B2926" transform="translate(313,269)"/>
<path d="M0,0 L11,0 L18,3 L24,8 L27,15 L27,27 L22,35 L15,40 L11,41 L2,41 L-6,38 L-12,31 L-14,27 L-14,14 L-9,6 Z " fill="#EBBC36" transform="translate(182,107)"/>
<path d="M0,0 L17,0 L27,5 L34,13 L38,22 L38,35 L34,45 L26,53 L16,57 L0,57 L-8,53 L-15,47 L-19,40 L-20,36 L-20,20 L-15,11 L-8,4 Z M3,8 L-5,13 L-10,19 L-12,23 L-12,33 L-8,41 L-1,47 L3,49 L12,49 L20,46 L27,40 L30,33 L30,24 L26,16 L19,10 L15,8 Z " fill="#6B52A1" transform="translate(358,100)"/>
<path d="M0,0 L29,0 L29,1 L15,1 L15,17 L29,17 L29,49 L0,49 Z " fill="#C75025" transform="translate(257,332)"/>
<path d="M0,0 L71,0 L71,16 L0,16 Z " fill="#1A623E" transform="translate(257,381)"/>
<path d="M0,0 L16,0 L31,1 L31,33 L1,33 L1,17 L-15,17 L-15,16 L0,16 Z " fill="#D46124" transform="translate(343,283)"/>
<path d="M0,0 L16,0 L16,16 L30,16 L30,66 L16,66 L16,82 L15,82 L15,1 L0,1 Z " fill="#606F33" transform="translate(359,283)"/>
<path d="M0,0 L12,0 L19,4 L23,10 L23,18 L20,24 L15,28 L12,29 L1,29 L-6,24 L-9,17 L-9,10 L-5,4 Z " fill="#2B1849" transform="translate(172,283)"/>
<path d="M0,0 L4,1 L3,4 L8,4 L8,6 L14,6 L14,8 L5,9 L-1,16 L-1,23 L2,28 L4,29 L16,29 L20,26 L21,29 L24,30 L26,25 L28,25 L27,30 L22,36 L17,39 L13,40 L4,40 L-4,37 L-10,30 L-12,26 L-12,13 L-7,5 Z " fill="#EFBE37" transform="translate(180,108)"/>
<path d="M0,0 L46,0 L46,13 L31,13 L31,2 L41,2 L44,3 L45,1 L16,1 L16,14 L29,14 L29,29 L15,29 L15,14 L0,14 Z " fill="#AE3027" transform="translate(313,269)"/>
<path d="M0,0 L2,1 L2,3 L5,3 L7,8 L13,7 L13,13 L28,13 L28,31 L13,31 L13,17 L-2,17 L-2,31 L-3,31 L-3,17 L-11,17 L-11,19 L-14,19 L-14,17 L-16,17 L-17,13 L-2,13 L-2,2 Z " fill="#2E1A4D" transform="translate(139,157)"/>
<path d="M0,0 L30,0 L30,17 L0,17 Z " fill="#C38B0C" transform="translate(344,348)"/>
<path d="M0,0 L31,0 L31,16 L0,16 Z " fill="#253926" transform="translate(344,365)"/>
<path d="M0,0 L15,0 L15,33 L0,33 Z " fill="#267F4C" transform="translate(242,348)"/>
<path d="M0,0 L15,0 L15,33 L0,33 Z " fill="#2E864E" transform="translate(242,283)"/>
<path d="M0,0 L29,0 L29,16 L0,16 Z " fill="#3B1D20" transform="translate(257,365)"/>
<path d="M0,0 L14,0 L14,16 L13,32 L0,32 Z " fill="#071E26" transform="translate(375,349)"/>
<path d="M0,0 L29,0 L29,14 L0,14 Z " fill="#392056" transform="translate(93,414)"/>
<path d="M0,0 L7,0 L14,6 L14,15 L10,20 L8,21 L-1,21 L-6,16 L-7,14 L-7,7 L-2,1 Z " fill="#6F569F" transform="translate(185,117)"/>
<path d="M0,0 L7,0 L12,3 L14,6 L14,15 L10,20 L8,21 L0,21 L-5,17 L-6,15 L-6,6 L-1,1 Z " fill="#6C53A2" transform="translate(363,118)"/>
<path d="M0,0 L33,0 L33,30 L31,27 L26,17 L18,9 L10,5 L4,3 L-10,2 L-10,1 Z " fill="#43295C" transform="translate(372,88)"/>
<path d="M0,0 L1,0 L1,346 L0,346 Z " fill="#484549" transform="translate(0,0)"/>
<path d="M0,0 L16,0 L16,16 L-42,16 L-42,15 L0,15 Z " fill="#B3820F" transform="translate(328,365)"/>
<path d="M0,0 L15,0 L15,17 L0,17 Z " fill="#5F6532" transform="translate(313,299)"/>
<path d="M0,0 L15,0 L15,17 L0,17 Z " fill="#9DA22D" transform="translate(257,283)"/>
<path d="M0,0 L15,0 L15,17 L0,17 Z " fill="#0B0A26" transform="translate(137,204)"/>
<path d="M0,0 L14,0 L14,18 L0,18 Z " fill="#3A9F63" transform="translate(214,251)"/>
<path d="M0,0 L15,0 L15,16 L0,16 Z " fill="#435424" transform="translate(344,365)"/>
<path d="M0,0 L15,0 L15,16 L0,16 Z " fill="#AC7611" transform="translate(359,349)"/>
<path d="M0,0 L15,0 L15,16 L0,16 Z " fill="#461721" transform="translate(313,283)"/>
<path d="M0,0 L14,0 L14,17 L0,17 Z " fill="#1E6442" transform="translate(299,283)"/>
<path d="M0,0 L14,0 L14,16 L0,16 Z " fill="#8B2B21" transform="translate(272,365)"/>
<path d="M0,0 L14,0 L14,16 L0,16 Z " fill="#429E5C" transform="translate(243,300)"/>
<path d="M0,0 L16,0 L16,14 L0,14 Z " fill="#363351" transform="translate(389,269)"/>
<path d="M0,0 L14,0 L14,16 L0,16 Z " fill="#160D34" transform="translate(152,171)"/>
<path d="M0,0 L15,0 L15,14 L0,14 Z " fill="#29814E" transform="translate(257,269)"/>
<path d="M0,0 L15,0 L15,14 L0,14 Z " fill="#51346F" transform="translate(213,237)"/>
<path d="M0,0 L13,0 L13,16 L0,16 Z " fill="#261547" transform="translate(286,154)"/>
<path d="M0,0 L14,0 L14,14 L0,14 Z " fill="#451C37" transform="translate(299,269)"/>
<path d="M0,0 L5,0 L4,3 L7,4 L10,7 L9,12 L9,16 L9,18 L3,19 L-2,15 L-3,13 L-3,4 Z " fill="#6E55A1" transform="translate(360,120)"/>
<path d="M0,0 L4,1 L7,7 L11,6 L13,3 L16,5 L18,8 L17,12 L13,15 L4,15 L0,9 Z " fill="#6B52A2" transform="translate(180,123)"/>
<path d="M0,0 L7,0 L10,2 L10,10 L8,12 L2,12 L-2,9 L-2,2 Z " fill="#120B2F" transform="translate(175,292)"/>
<path d="M0,0 L1,0 L1,117 L0,117 Z " fill="#363438" transform="translate(0,395)"/>
<path d="M0,0 L1,0 L1,19 L0,19 L0,14 L-8,14 L-8,9 L-1,6 Z " fill="#CFAB33" transform="translate(404,118)"/>
<path d="M0,0 L3,3 L2,8 L-1,6 L-2,8 L-7,7 L-7,5 L-9,5 L-8,2 L-1,1 Z M-1,7 Z " fill="#603F53" transform="translate(393,170)"/>
<path d="M0,0 L1,0 L1,13 L-1,10 L-8,10 L-7,5 L-3,4 L-2,3 Z " fill="#684559" transform="translate(285,134)"/>
<path d="M0,0 L9,0 L6,2 L7,6 L3,7 L0,4 Z " fill="#583654" transform="translate(320,174)"/>
<path d="M0,0 L1,0 L1,35 L0,35 Z " fill="#312F38" transform="translate(0,347)"/>
<path d="M0,0 L16,0 L15,2 L14,5 L12,8 L10,7 L12,1 L0,1 Z " fill="#4D374F" transform="translate(183,166)"/>
<path d="M0,0 L4,2 L3,6 L-2,5 L-1,1 Z " fill="#ECC633" transform="translate(366,125)"/>
<path d="M0,0 L5,1 L4,6 L0,5 Z " fill="#EAC332" transform="translate(186,125)"/>
<path d="M0,0 L1,0 L1,8 L0,8 Z " fill="#2D2C34" transform="translate(0,384)"/>
</svg>
