<?xml version="1.0" encoding="UTF-8"?>
<!-- Generator: https://ezgif.com/png-to-svg -->
<svg version="1.1" xmlns="http://www.w3.org/2000/svg" width="512" height="512">
<path d="M0,0 L77,0 L77,18 L95,18 L95,37 L146,37 L146,18 L162,18 L162,0 L239,0 L239,18 L257,18 L258,20 L258,92 L290,92 L290,148 L274,148 L274,167 L257,167 L257,219 L276,219 L276,302 L268,302 L268,320 L316,320 L316,358 L182,358 L182,337 L111,337 L111,369 L-63,369 L-63,362 L-69,362 L-69,342 L-88,342 L-88,322 L-99,322 L-99,306 L-115,306 L-115,206 L-99,206 L-99,196 L-83,196 L-83,165 L-65,165 L-65,128 L-49,128 L-49,92 L-47,91 L-47,93 L-33,93 L-33,74 L-18,74 L-18,19 L-17,18 L0,18 Z " fill="#22623C" transform="translate(151,72)"/>
<path d="M0,0 L77,0 L77,18 L95,18 L95,37 L146,37 L146,18 L162,18 L162,0 L239,0 L239,18 L257,18 L258,20 L258,92 L290,92 L290,148 L274,148 L274,167 L257,167 L257,219 L276,219 L276,302 L268,302 L268,320 L316,320 L316,358 L182,358 L182,337 L111,337 L111,369 L-63,369 L-63,362 L-69,362 L-69,342 L-88,342 L-88,322 L-99,322 L-99,306 L-115,306 L-115,206 L-99,206 L-99,196 L-83,196 L-83,165 L-65,165 L-65,128 L-49,128 L-49,92 L-47,91 L-47,93 L-33,93 L-33,74 L-18,74 L-18,19 L-17,18 L0,18 Z M1,19 L1,75 L-16,75 L-16,93 L-32,93 L-32,129 L-48,129 L-48,166 L-63,166 L-63,184 L-32,184 L-32,205 L-63,205 L-63,223 L-32,223 L-32,242 L-97,242 L-97,261 L-77,261 L-77,281 L-97,281 L-97,301 L-82,301 L-82,321 L-65,321 L-65,341 L-49,341 L-49,358 L-32,358 L-32,341 L1,341 L1,321 L-32,321 L-32,301 L1,301 L1,223 L20,223 L20,282 L34,283 L39,288 L39,300 L35,305 L33,306 L20,307 L20,321 L39,321 L39,355 L93,355 L93,337 L75,337 L75,321 L56,321 L56,223 L75,223 L75,318 L183,318 L183,301 L202,301 L202,282 L219,282 L219,341 L238,341 L238,355 L300,355 L300,337 L271,337 L271,321 L238,321 L238,301 L257,301 L257,281 L220,281 L220,223 L238,223 L238,261 L256,261 L256,222 L238,222 L238,166 L256,166 L256,148 L38,148 L38,130 L273,130 L273,112 L257,112 L257,93 L238,93 L238,75 L204,75 L204,38 L220,38 L220,56 L238,56 L238,19 L163,19 L162,77 L144,59 L143,56 L94,56 L94,37 L76,37 L76,19 Z " fill="#122B2B" transform="translate(151,72)"/>
<path d="M0,0 L228,0 L228,18 L210,18 L210,74 L228,74 L228,113 L210,113 L210,75 L192,75 L192,133 L229,133 L229,153 L210,153 L210,173 L243,173 L243,189 L272,189 L272,207 L210,207 L210,193 L191,193 L191,134 L174,134 L174,153 L155,153 L155,170 L47,170 L47,75 L28,75 L28,173 L47,173 L47,189 L65,189 L65,207 L11,207 L11,173 L-8,173 L-8,159 L5,158 L10,154 L11,152 L11,140 L6,135 L-8,134 L-8,74 L-27,74 L-27,18 L-23,17 L-11,8 Z " fill="#55B494" transform="translate(179,220)"/>
<path d="M0,0 L56,0 L56,18 L74,18 L74,37 L123,37 L126,42 L142,58 L143,0 L218,0 L218,37 L200,37 L200,19 L184,19 L184,56 L218,56 L218,74 L237,74 L237,93 L253,93 L253,111 L19,111 L20,107 L27,102 L47,98 L55,92 L53,92 L53,90 L42,94 L27,98 L15,101 L0,109 L-14,119 L-19,120 L-19,74 L55,74 L55,19 L0,19 Z " fill="#699E3D" transform="translate(171,91)"/>
<path d="M0,0 L217,0 L217,18 L199,18 L199,36 L180,36 L180,57 L164,57 L164,75 L146,75 L146,94 L76,94 L76,75 L55,75 L55,57 L36,57 L36,36 L19,36 L19,18 L0,18 Z " fill="#E2D199" transform="translate(190,220)"/>
<path d="M0,0 L11,0 L11,18 L30,18 L30,36 L47,36 L47,75 L28,75 L28,173 L47,173 L47,189 L65,189 L65,207 L11,207 L11,173 L-8,173 L-8,159 L5,158 L10,154 L11,152 L11,140 L6,135 L-8,134 L-8,74 L-27,74 L-27,18 L-23,17 L-11,8 Z " fill="#6EA23D" transform="translate(179,220)"/>
<path d="M0,0 L19,0 L19,38 L37,38 L37,77 L19,77 L19,39 L1,39 L1,97 L38,97 L38,117 L19,117 L19,137 L52,137 L52,153 L81,153 L81,171 L19,171 L19,157 L0,157 Z " fill="#3A783D" transform="translate(370,256)"/>
<path d="M0,0 L127,0 L127,19 L108,19 L108,36 L0,36 Z " fill="#57B697" transform="translate(226,354)"/>
<path d="M0,0 L180,0 L180,18 L0,18 Z " fill="#D9BE5B" transform="translate(209,238)"/>
<path d="M0,0 L55,0 L55,55 L0,55 Z " fill="#14322E" transform="translate(171,110)"/>
<path d="M0,0 L108,0 L108,20 L0,20 Z " fill="#8CCCAA" transform="translate(245,334)"/>
<path d="M0,0 L17,0 L17,20 L50,20 L50,40 L17,40 L17,57 L0,57 L0,40 L-16,40 L-16,20 L0,20 Z " fill="#39763A" transform="translate(102,373)"/>
<path d="M0,0 L47,0 L47,40 L0,40 Z " fill="#5A933B" transform="translate(88,314)"/>
<path d="M0,0 L108,0 L108,17 L0,17 Z " fill="#2E8B7B" transform="translate(226,373)"/>
<path d="M0,0 L17,0 L17,22 L36,22 L36,23 L17,23 L17,82 L0,82 L0,42 L-16,42 L-16,22 L0,22 Z " fill="#4C893A" transform="translate(135,272)"/>
<path d="M0,0 L19,0 L19,1 L1,1 L1,32 L-14,32 L-14,41 L-15,42 L-30,42 L-30,138 L-16,138 L-14,139 L-14,154 L-4,154 L-3,155 L-3,174 L16,174 L16,194 L21,194 L22,195 L22,201 L192,201 L192,170 L193,169 L266,169 L267,170 L267,191 L397,191 L397,155 L349,155 L349,134 L357,134 L357,54 L340,54 L340,53 L359,53 L359,136 L351,136 L351,154 L399,154 L399,192 L265,192 L265,171 L194,171 L194,203 L20,203 L20,196 L14,196 L14,176 L-5,176 L-5,156 L-16,156 L-16,140 L-32,140 L-32,40 L-16,40 L-16,30 L0,30 Z " fill="#040D12" transform="translate(68,238)"/>
<path d="M0,0 L5,1 L1,6 L-4,9 L-24,13 L-31,18 L-32,21 L-33,39 L-43,40 L-54,48 L-67,58 L-70,57 L-70,30 L-64,27 L-54,20 L-38,11 L-29,8 L-12,4 Z " fill="#407F3B" transform="translate(222,181)"/>
<path d="M0,0 L29,0 L29,18 L-33,18 L-33,4 L0,4 Z " fill="#3A7A3A" transform="translate(422,409)"/>
<path d="M0,0 L512,0 L512,14 L511,14 L511,1 L1,1 L1,240 L0,240 Z " fill="#000000" transform="translate(0,0)"/>
<path d="M0,0 L37,0 L37,19 L0,19 Z " fill="#BCB681" transform="translate(171,91)"/>
<path d="M0,0 L18,0 L18,38 L0,38 Z " fill="#6FA33C" transform="translate(389,295)"/>
<path d="M0,0 L37,0 L37,18 L0,18 Z " fill="#25653C" transform="translate(207,409)"/>
<path d="M0,0 L33,0 L33,20 L0,20 Z " fill="#6DA03C" transform="translate(389,393)"/>
<path d="M0,0 L19,0 L19,34 L0,34 Z " fill="#25653C" transform="translate(171,393)"/>
<path d="M0,0 L16,0 L16,40 L0,40 Z " fill="#76A83D" transform="translate(119,314)"/>
<path d="M0,0 L74,0 L74,18 L57,18 L40,17 L40,1 L0,1 Z " fill="#8EBB41" transform="translate(315,92)"/>
<path d="M0,0 L16,0 L16,37 L0,37 Z " fill="#11282A" transform="translate(119,219)"/>
<path d="M0,0 L77,0 L77,18 L95,18 L95,93 L76,93 L76,75 L77,75 L77,92 L94,92 L94,20 L-15,20 L-15,37 L-16,37 L-16,18 L0,18 Z M2,2 L2,18 L75,18 L75,2 Z " fill="#050E15" transform="translate(313,72)"/>
<path d="M0,0 L10,0 L16,5 L17,7 L17,17 L13,22 L9,24 L1,24 L-5,20 L-7,16 L-7,7 L-2,1 Z " fill="#1F5939" transform="translate(175,253)"/>
<path d="M0,0 L14,0 L19,4 L20,6 L20,18 L15,24 L13,25 L0,25 Z " fill="#21623B" transform="translate(171,354)"/>
<path d="M0,0 L19,0 L19,20 L0,20 Z " fill="#6BA03C" transform="translate(389,353)"/>
<path d="M0,0 L19,0 L19,19 L0,19 Z " fill="#42803B" transform="translate(152,91)"/>
<path d="M0,0 L18,0 L18,20 L0,20 Z " fill="#71A53D" transform="translate(371,373)"/>
<path d="M0,0 L18,0 L18,20 L0,20 Z " fill="#27683C" transform="translate(389,333)"/>
<path d="M0,0 L18,0 L18,19 L0,19 Z " fill="#9EC23D" transform="translate(189,314)"/>
<path d="M0,0 L18,0 L18,19 L0,19 Z " fill="#193B30" transform="translate(337,165)"/>
<path d="M0,0 L18,0 L19,1 L19,18 L0,18 Z " fill="#CBC081" transform="translate(190,220)"/>
<path d="M0,0 L17,0 L17,20 L0,20 Z " fill="#3F9D89" transform="translate(227,333)"/>
<path d="M0,0 L18,0 L18,18 L0,18 Z " fill="#6DA13D" transform="translate(226,409)"/>
<path d="M0,0 L18,0 L18,18 L0,18 Z " fill="#C7BD80" transform="translate(389,220)"/>
<path d="M0,0 L18,0 L18,18 L0,18 Z " fill="#339183" transform="translate(371,110)"/>
<path d="M0,0 L17,0 L17,19 L0,19 Z " fill="#6EA13C" transform="translate(135,394)"/>
<path d="M0,0 L17,0 L17,19 L0,19 Z " fill="#21623B" transform="translate(135,295)"/>
<path d="M0,0 L16,0 L16,20 L0,20 Z " fill="#6A9E3C" transform="translate(86,393)"/>
<path d="M0,0 L17,0 L17,18 L0,18 Z " fill="#C1DFC8" transform="translate(372,92)"/>
<path d="M0,0 L18,0 L18,17 L0,17 Z " fill="#70A53D" transform="translate(209,92)"/>
<path d="M0,0 L16,0 L16,19 L0,19 Z " fill="#BCE0C6" transform="translate(354,314)"/>
<path d="M0,0 L15,0 L16,20 L0,20 Z " fill="#399987" transform="translate(354,334)"/>
<path d="M0,0 L17,0 L17,17 L0,17 Z " fill="#E0E8D4" transform="translate(190,92)"/>
<path d="M0,0 L17,0 L17,17 L0,17 Z " fill="#11272A" transform="translate(227,92)"/>
<path d="M0,0 L15,0 L15,19 L0,19 Z " fill="#15362F" transform="translate(282,165)"/>
<path d="M0,0 L15,0 L15,18 L0,18 Z " fill="#1B4F38" transform="translate(298,110)"/>
<path d="M0,0 L15,0 L15,1 L1,1 L1,21 L-16,21 L-16,73 L-18,73 L-18,21 L-17,2 L-16,2 L-16,19 L-1,19 L-1,1 Z " fill="#060F12" transform="translate(424,218)"/>
<path d="M0,0 L2,3 L2,33 L1,34 L-14,34 L-14,69 L-16,69 L-16,32 L0,32 Z " fill="#050F14" transform="translate(102,168)"/>
<path d="M0,0 L1,0 L1,45 L0,45 Z " fill="#000000" transform="translate(0,449)"/>
<path d="M0,0 L1,0 L1,18 L0,18 Z " fill="#000000" transform="translate(511,212)"/>
<path d="M0,0 L1,0 L1,17 L0,17 Z " fill="#000000" transform="translate(0,495)"/>
<path d="M0,0 L1,0 L1,17 L0,17 Z " fill="#000000" transform="translate(511,272)"/>
<path d="M0,0 L1,0 L1,15 L0,15 Z " fill="#000000" transform="translate(511,256)"/>
<path d="M0,0 L1,0 L1,14 L0,14 Z " fill="#000000" transform="translate(511,316)"/>
<path d="M0,0 L1,0 L1,12 L0,12 Z " fill="#000000" transform="translate(0,432)"/>
<path d="M0,0 L1,0 L1,11 L0,11 Z " fill="#000000" transform="translate(511,304)"/>
<path d="M0,0 L1,0 L1,11 L0,11 Z " fill="#000000" transform="translate(511,236)"/>
<path d="M0,0 L1,0 L1,9 L0,9 Z " fill="#000000" transform="translate(511,180)"/>
<path d="M0,0 L1,0 L1,8 L0,8 Z " fill="#000000" transform="translate(0,421)"/>
<path d="M0,0 L1,0 L1,5 L0,5 Z " fill="#000000" transform="translate(511,295)"/>
<path d="M0,0 L1,0 L1,5 L0,5 Z " fill="#000000" transform="translate(511,192)"/>
<path d="M0,0 L1,0 L1,5 L0,5 Z " fill="#000000" transform="translate(511,163)"/>
<path d="M0,0 L1,0 L1,5 L0,5 Z " fill="#000000" transform="translate(511,156)"/>
<path d="M0,0 L1,4 Z " fill="#000000" transform="translate(511,251)"/>
<path d="M0,0 L1,4 Z " fill="#000000" transform="translate(511,231)"/>
<path d="M0,0 L3,1 Z " fill="#000000" transform="translate(485,511)"/>
<path d="M0,0 L3,1 Z " fill="#000000" transform="translate(481,511)"/>
<path d="M0,0 Z " fill="#000000" transform="translate(511,354)"/>
<path d="M0,0 Z " fill="#000000" transform="translate(511,344)"/>
<path d="M0,0 Z " fill="#000000" transform="translate(511,340)"/>
<path d="M0,0 Z " fill="#000504" transform="translate(0,248)"/>
<path d="M0,0 Z " fill="#000000" transform="translate(511,140)"/>
<path d="M0,0 Z " fill="#000000" transform="translate(511,124)"/>
<path d="M0,0 Z " fill="#000000" transform="translate(511,88)"/>
<path d="M0,0 L2,1 Z " fill="#000000" transform="translate(502,511)"/>
<path d="M0,0 L2,1 Z " fill="#000000" transform="translate(454,511)"/>
<path d="M0,0 L2,1 Z " fill="#000000" transform="translate(446,511)"/>
<path d="M0,0 L2,1 Z " fill="#000000" transform="translate(413,511)"/>
<path d="M0,0 L2,1 Z " fill="#000000" transform="translate(402,511)"/>
<path d="M0,0 L2,1 Z " fill="#000000" transform="translate(382,511)"/>
<path d="M0,0 L2,1 Z " fill="#000000" transform="translate(129,511)"/>
<path d="M0,0 L2,1 Z " fill="#000000" transform="translate(117,511)"/>
<path d="M0,0 L2,1 Z " fill="#000000" transform="translate(92,511)"/>
<path d="M0,0 Z " fill="#000101" transform="translate(0,414)"/>
<path d="M0,0 Z " fill="#000000" transform="translate(511,332)"/>
<path d="M0,0 Z " fill="#000000" transform="translate(511,292)"/>
<path d="M0,0 Z " fill="#000000" transform="translate(511,207)"/>
<path d="M0,0 Z " fill="#000000" transform="translate(511,203)"/>
<path d="M0,0 Z " fill="#000000" transform="translate(511,200)"/>
<path d="M0,0 Z " fill="#000000" transform="translate(511,64)"/>
<path d="M0,0 Z " fill="#000000" transform="translate(511,511)"/>
<path d="M0,0 Z " fill="#000000" transform="translate(478,511)"/>
<path d="M0,0 Z " fill="#000000" transform="translate(475,511)"/>
<path d="M0,0 Z " fill="#000000" transform="translate(471,511)"/>
<path d="M0,0 Z " fill="#000000" transform="translate(466,511)"/>
<path d="M0,0 Z " fill="#000000" transform="translate(419,511)"/>
<path d="M0,0 Z " fill="#000000" transform="translate(411,511)"/>
<path d="M0,0 Z " fill="#000000" transform="translate(399,511)"/>
<path d="M0,0 Z " fill="#000000" transform="translate(394,511)"/>
<path d="M0,0 Z " fill="#000000" transform="translate(392,511)"/>
<path d="M0,0 Z " fill="#000000" transform="translate(390,511)"/>
<path d="M0,0 Z " fill="#000000" transform="translate(374,511)"/>
<path d="M0,0 Z " fill="#000000" transform="translate(134,511)"/>
<path d="M0,0 Z " fill="#000000" transform="translate(0,447)"/>
<path d="M0,0 Z " fill="#000000" transform="translate(0,445)"/>
<path d="M0,0 Z " fill="#22442E" transform="translate(436,431)"/>
<path d="M0,0 Z " fill="#21442F" transform="translate(396,431)"/>
<path d="M0,0 Z " fill="#000000" transform="translate(0,430)"/>
<path d="M0,0 Z " fill="#000000" transform="translate(511,352)"/>
<path d="M0,0 Z " fill="#000000" transform="translate(511,336)"/>
<path d="M0,0 Z " fill="#000000" transform="translate(511,248)"/>
<path d="M0,0 Z " fill="#000000" transform="translate(511,176)"/>
<path d="M0,0 Z " fill="#000000" transform="translate(511,172)"/>
<path d="M0,0 Z " fill="#000000" transform="translate(511,148)"/>
<path d="M0,0 Z " fill="#000000" transform="translate(511,128)"/>
<path d="M0,0 Z " fill="#000000" transform="translate(511,120)"/>
<path d="M0,0 Z " fill="#000000" transform="translate(511,114)"/>
<path d="M0,0 Z " fill="#000000" transform="translate(511,112)"/>
<path d="M0,0 Z " fill="#000000" transform="translate(511,104)"/>
<path d="M0,0 Z " fill="#000000" transform="translate(511,100)"/>
<path d="M0,0 Z " fill="#000000" transform="translate(511,97)"/>
<path d="M0,0 Z " fill="#000000" transform="translate(511,56)"/>
<path d="M0,0 Z " fill="#000000" transform="translate(511,20)"/>
</svg>
