<?xml version="1.0" encoding="UTF-8"?>
<!-- Generator: https://ezgif.com/png-to-svg -->
<svg version="1.1" xmlns="http://www.w3.org/2000/svg" width="512" height="512">
<path d="M0,0 L91,0 L91,17 L110,17 L111,18 L111,27 L110,36 L147,36 L147,17 L166,17 L166,0 L255,0 L255,17 L273,17 L273,104 L306,104 L306,172 L273,172 L273,215 L259,216 L257,218 L256,229 L272,229 L273,231 L272,312 L314,312 L314,365 L310,366 L185,366 L184,350 L103,350 L102,365 L95,366 L-102,366 L-103,361 L-103,318 L-102,314 L-119,314 L-118,310 L-117,214 L-101,214 L-102,201 L-102,197 L-101,196 L-82,196 L-83,170 L-65,170 L-66,160 L-65,136 L-63,134 L-63,136 L-52,135 L-49,134 L-49,104 L-35,104 L-34,102 L-33,71 L-18,72 L-19,20 L-20,18 L-18,17 L0,17 L-1,8 L-1,2 Z M-50,135 Z M-102,363 Z " fill="#CB5D00" transform="translate(159,78)"/>
<path d="M0,0 L91,0 L91,17 L110,17 L111,18 L111,27 L110,36 L147,36 L147,17 L166,17 L166,0 L255,0 L255,17 L273,17 L273,104 L306,104 L306,172 L273,172 L273,215 L259,216 L257,218 L256,229 L272,229 L273,231 L272,312 L314,312 L314,365 L310,366 L185,366 L184,350 L103,350 L102,365 L95,366 L-102,366 L-103,361 L-103,318 L-102,314 L-119,314 L-118,310 L-117,214 L-101,214 L-102,201 L-102,197 L-101,196 L-82,196 L-83,170 L-65,170 L-66,160 L-65,136 L-63,134 L-63,136 L-52,135 L-49,134 L-49,104 L-35,104 L-34,102 L-33,71 L-18,72 L-19,20 L-20,18 L-18,17 L0,17 L-1,8 L-1,2 Z M91,54 L91,106 L1,106 L1,73 L-15,73 L-15,106 L-31,106 L-31,137 L-47,137 L-47,171 L-64,171 L-64,204 L-63,205 L-32,205 L-32,214 L-101,214 L-101,308 L-84,308 L-84,347 L-16,347 L-16,326 L-38,326 L-38,313 L-16,313 L-16,230 L-27,222 L-31,215 L-11,216 L1,228 L2,347 L72,347 L72,328 L54,327 L53,324 L47,322 L41,315 L39,314 L38,298 L25,288 L22,281 L19,281 L20,274 L31,262 L36,256 L40,258 L46,265 L49,279 L50,308 L57,309 L64,316 L66,317 L90,317 L90,332 L186,332 L186,308 L212,308 L217,296 L235,251 L239,241 L239,204 L254,204 L254,171 L36,171 L36,153 L288,153 L288,123 L254,123 L254,106 L166,106 L166,54 Z M-50,135 Z M-102,363 Z " fill="#441200" transform="translate(159,78)"/>
<path d="M0,0 L16,0 L28,3 L40,9 L49,18 L53,26 L53,28 L57,28 L57,6 L58,2 L67,2 L68,33 L73,25 L79,17 L87,9 L101,2 L114,0 L126,0 L126,28 L119,37 L112,43 L104,47 L91,51 L71,53 L70,54 L69,67 L81,58 L86,57 L114,57 L114,74 L107,81 L93,90 L83,93 L68,93 L67,102 L59,102 L52,94 L32,91 L22,86 L12,78 L8,73 L8,57 L38,57 L48,63 L58,69 L58,54 L40,51 L22,47 L10,41 L0,32 L-1,31 L-1,6 Z " fill="#483D00" transform="translate(239,291)"/>
<path d="M0,0 L3,0 L4,79 L9,84 L9,86 L27,86 L27,84 L44,84 L44,105 L-49,105 L-49,80 L-31,79 L-15,38 Z " fill="#C65000" transform="translate(410,320)"/>
<path d="M0,0 L2,0 L2,52 L19,52 L19,53 L3,53 L3,87 L-13,87 L-13,118 L-29,118 L-29,152 L-46,152 L-45,185 L-14,186 L-14,195 L-83,195 L-84,182 L-84,178 L-83,177 L-64,177 L-65,151 L-47,151 L-48,141 L-47,117 L-45,115 L-45,117 L-34,116 L-31,115 L-31,85 L-17,85 L-16,83 L-15,52 L0,53 Z M-32,116 Z " fill="#3F1000" transform="translate(141,97)"/>
<path d="M0,0 L9,6 L20,14 L22,15 L23,37 L23,51 L37,51 L37,70 L19,71 L8,83 L-2,93 L-7,98 L-12,99 L-13,55 L-15,52 L-7,51 L-12,46 L-20,37 L-22,36 L-22,17 L-11,8 Z " fill="#BA4900" transform="translate(173,251)"/>
<path d="M0,0 L87,0 L87,35 L71,35 L71,17 L17,17 L17,35 L0,35 Z " fill="#BB4B00" transform="translate(326,97)"/>
<path d="M0,0 L16,0 L17,19 L21,16 L25,17 L33,23 L33,48 L19,57 L14,55 L4,49 L4,51 L0,51 L0,67 L15,67 L15,68 L-16,68 L-17,67 L-17,34 L0,34 Z " fill="#9D3300" transform="translate(112,215)"/>
<path d="M0,0 L9,6 L21,15 L21,36 L13,44 L5,51 L2,53 L-5,53 L-10,48 L-20,37 L-22,36 L-22,17 L-11,8 Z " fill="#932600" transform="translate(173,251)"/>
<path d="M0,0 L91,0 L91,18 L2,19 L2,3 L1,4 Z " fill="#401000" transform="translate(159,78)"/>
<path d="M0,0 L2,0 L10,18 L26,19 L20,26 L14,33 L17,46 L19,51 L18,55 L3,46 L-2,47 L-16,56 L-18,56 L-14,40 L-13,34 L-26,21 L-26,19 L-9,17 Z " fill="#F6DBB7" transform="translate(203,120)"/>
<path d="M0,0 L2,0 L10,18 L25,19 L23,24 L14,33 L15,40 L19,53 L18,56 L8,49 L3,46 L-2,47 L-16,56 L-18,56 L-16,46 L-13,36 L-14,32 L-25,21 L-25,19 L-9,18 Z " fill="#F4D9B4" transform="translate(369,120)"/>
<path d="M0,0 L6,1 L16,8 L16,33 L4,41 L-2,40 L-14,32 L-14,9 Z " fill="#962800" transform="translate(160,196)"/>
<path d="M0,0 L36,0 L36,35 L18,35 L18,17 L0,17 Z " fill="#BD4C00" transform="translate(213,97)"/>
<path d="M0,0 L34,0 L34,17 L16,17 L16,35 L0,35 Z " fill="#AC4100" transform="translate(161,97)"/>
<path d="M0,0 L1,0 L1,9 L20,9 L20,10 L1,10 L0,12 L0,10 L-12,10 L-9,17 L-3,25 L-1,27 L-1,34 L-6,38 L-10,43 L-20,45 L-26,37 L-33,30 L-33,18 L-30,9 L0,9 Z " fill="#942900" transform="translate(127,283)"/>
<path d="M0,0 L19,0 L20,1 L20,10 L19,10 L18,2 L4,3 L2,5 L1,36 L0,89 L-90,89 L-90,56 L-106,56 L-106,55 L-89,55 L-89,88 L-1,88 L-1,2 L-37,2 L-37,19 L-55,19 L-55,2 L-72,2 L-72,1 Z " fill="#772A00" transform="translate(250,95)"/>
<path d="M0,0 L9,3 L16,11 L16,17 L12,24 L5,30 L-7,30 L-11,25 L-15,21 L-15,14 L-7,7 Z " fill="#912500" transform="translate(107,335)"/>
<path d="M0,0 L2,0 L2,86 L35,86 L35,154 L2,154 L2,197 L-16,197 L-16,196 L0,196 L0,153 L1,152 L33,152 L33,88 L0,88 Z " fill="#190501" transform="translate(430,96)"/>
<path d="M0,0 L17,0 L17,21 L-1,21 L-13,8 L-17,4 L-17,2 L0,2 Z " fill="#A03700" transform="translate(437,404)"/>
<path d="M0,0 L16,0 L16,33 L0,33 Z " fill="#A23A00" transform="translate(144,151)"/>
<path d="M0,0 L3,1 L12,13 L22,26 L31,37 L31,39 L16,39 L12,31 L0,17 L-4,11 Z " fill="#AD3C00" transform="translate(384,386)"/>
<path d="M0,0 L1,0 L1,16 L-5,21 L-12,29 L-24,41 L-29,46 L-34,47 L-34,36 L-26,29 L-9,12 L-2,4 Z " fill="#8B2600" transform="translate(195,303)"/>
<path d="M0,0 L1,0 L1,7 L17,7 L17,31 L1,31 L1,39 L0,39 Z " fill="#973300" transform="translate(75,386)"/>
<path d="M0,0 L4,0 L3,7 L-5,17 L-16,25 L-27,29 L-33,29 L-27,22 L-14,9 L-4,2 Z " fill="#E99000" transform="translate(347,303)"/>
<path d="M0,0 L18,0 L18,1 L5,2 L14,10 L18,11 L18,25 L0,25 Z " fill="#AD3F00" transform="translate(361,400)"/>
<path d="M0,0 L7,4 L19,16 L26,24 L28,26 L27,30 L22,34 L18,34 L12,23 L2,13 L0,12 Z " fill="#9D3100" transform="translate(161,359)"/>
<path d="M0,0 L20,0 L20,17 L0,17 Z " fill="#963300" transform="translate(360,97)"/>
<path d="M0,0 L16,0 L17,2 L16,83 L58,83 L58,135 L57,135 L57,85 L14,85 L14,2 L0,2 Z " fill="#1E0702" transform="translate(415,307)"/>
<path d="M0,0 L9,0 L19,1 L19,17 L-1,17 L-1,1 Z " fill="#461100" transform="translate(271,200)"/>
<path d="M0,0 L7,1 L17,9 L29,20 L33,26 L26,26 L17,22 L3,9 L0,4 Z " fill="#DF8100" transform="translate(254,304)"/>
<path d="M0,0 L18,0 L18,16 L0,16 Z " fill="#431100" transform="translate(307,201)"/>
<path d="M0,0 L16,0 L16,17 L0,17 Z " fill="#C14F00" transform="translate(161,115)"/>
<path d="M0,0 L16,0 L16,17 L0,17 Z " fill="#C55200" transform="translate(344,97)"/>
<path d="M0,0 L56,0 L88,1 L89,3 L-23,3 L-24,1 Z " fill="#7A634B" transform="translate(108,441)"/>
<path d="M0,0 L2,1 L2,26 L-3,24 L-12,15 L-10,11 L-1,1 Z " fill="#C95200" transform="translate(195,342)"/>
<path d="M0,0 L1,0 L1,27 L-1,27 L-9,17 L-9,11 L-1,1 Z " fill="#AC3D00" transform="translate(412,369)"/>
<path d="M0,0 L3,1 L8,7 L9,26 L4,22 L-4,12 Z " fill="#8D2900" transform="translate(384,386)"/>
<path d="M0,0 L8,0 L3,5 L-6,11 L-15,14 L-21,14 L-19,10 L-9,3 Z " fill="#E48E00" transform="translate(332,359)"/>
<path d="M0,0 L8,0 L15,3 L26,10 L29,12 L29,14 L20,13 L4,5 Z " fill="#DF8600" transform="translate(261,359)"/>
<path d="M0,0 L2,0 L2,49 L21,49 L21,50 L0,52 L-1,47 L-1,4 Z M0,49 Z " fill="#76492B" transform="translate(57,392)"/>
<path d="M0,0 L7,0 L15,8 L19,10 L19,18 L8,11 L4,7 L3,1 Z " fill="#8C2800" transform="translate(178,358)"/>
<path d="M0,0 L31,0 L31,1 L22,3 L-34,3 L-35,1 Z " fill="#4F3924" transform="translate(296,425)"/>
<path d="M0,0 L7,0 L7,47 L12,47 L12,48 L6,48 L5,19 L2,5 L0,1 Z " fill="#AD4800" transform="translate(203,338)"/>
<path d="M0,0 L2,0 L2,29 L-16,29 L-16,43 L-17,43 L-18,31 L-20,30 L-18,26 L1,26 Z " fill="#4F2715" transform="translate(76,248)"/>
<path d="M0,0 L46,0 L46,1 L3,1 L3,17 L1,17 L0,6 Z " fill="#4E271B" transform="translate(158,80)"/>
<path d="M0,0 L11,0 L15,2 L10,3 L-30,3 L-28,1 Z " fill="#7D6A56" transform="translate(229,441)"/>
<path d="M0,0 L17,0 L17,2 L3,2 L2,18 L0,18 Z " fill="#8E2E00" transform="translate(268,199)"/>
<path d="M0,0 L17,0 L18,1 L18,10 L17,10 L16,2 L0,2 Z " fill="#593320" transform="translate(252,95)"/>
<path d="M0,0 L15,0 L20,1 L19,3 L6,3 L0,1 Z " fill="#5F493F" transform="translate(453,441)"/>
<path d="M0,0 L21,0 L21,2 L14,3 L0,1 Z " fill="#3E2419" transform="translate(240,441)"/>
<path d="M0,0 L3,3 L6,5 L0,9 L-2,9 Z " fill="#D9C4A5" transform="translate(187,167)"/>
<path d="M0,0 L3,0 L3,2 L5,2 L7,6 L4,6 L0,2 Z " fill="#E2C9A9" transform="translate(177,139)"/>
<path d="M0,0 L9,0 L9,1 L0,1 Z " fill="#975C32" transform="translate(440,388)"/>
<path d="M0,0 L1,0 L1,6 L0,6 Z " fill="#9E6338" transform="translate(40,341)"/>
<path d="M0,0 L1,4 L-1,1 Z " fill="#B7855E" transform="translate(40,292)"/>
<path d="M0,0 L3,1 Z " fill="#A2693F" transform="translate(451,388)"/>
<path d="M0,0 Z " fill="#9C6136" transform="translate(40,352)"/>
<path d="M0,0 L3,1 Z " fill="#9A5F38" transform="translate(427,294)"/>
<path d="M0,0 L3,1 Z " fill="#90522B" transform="translate(137,148)"/>
<path d="M0,0 L2,1 Z " fill="#A77046" transform="translate(455,388)"/>
<path d="M0,0 Z " fill="#9E643B" transform="translate(40,376)"/>
<path d="M0,0 Z " fill="#9B6035" transform="translate(40,369)"/>
<path d="M0,0 Z " fill="#9C6036" transform="translate(40,360)"/>
<path d="M0,0 Z " fill="#9B5E34" transform="translate(40,356)"/>
<path d="M0,0 Z " fill="#9F6338" transform="translate(40,337)"/>
<path d="M0,0 Z " fill="#A1653A" transform="translate(40,328)"/>
<path d="M0,0 L2,1 Z " fill="#92552E" transform="translate(424,294)"/>
<path d="M0,0 Z " fill="#9E6035" transform="translate(56,288)"/>
<path d="M0,0 Z " fill="#8F5026" transform="translate(139,144)"/>
<path d="M0,0 L2,1 Z " fill="#935329" transform="translate(297,112)"/>
<path d="M0,0 L2,1 Z " fill="#94552C" transform="translate(278,112)"/>
<path d="M0,0 Z " fill="#A06840" transform="translate(304,96)"/>
<path d="M0,0 L2,1 Z " fill="#B5835E" transform="translate(248,76)"/>
<path d="M0,0 Z " fill="#B6845C" transform="translate(466,388)"/>
<path d="M0,0 Z " fill="#864820" transform="translate(435,388)"/>
<path d="M0,0 Z " fill="#84461D" transform="translate(432,388)"/>
<path d="M0,0 Z " fill="#9D6337" transform="translate(40,373)"/>
<path d="M0,0 Z " fill="#9D6036" transform="translate(40,365)"/>
<path d="M0,0 Z " fill="#9D6438" transform="translate(40,348)"/>
<path d="M0,0 Z " fill="#9F6339" transform="translate(40,333)"/>
<path d="M0,0 Z " fill="#AA7148" transform="translate(40,308)"/>
<path d="M0,0 Z " fill="#B27B52" transform="translate(40,301)"/>
<path d="M0,0 Z " fill="#B47F58" transform="translate(40,297)"/>
<path d="M0,0 Z " fill="#A36B44" transform="translate(431,294)"/>
<path d="M0,0 Z " fill="#A0663C" transform="translate(56,285)"/>
<path d="M0,0 Z " fill="#A87146" transform="translate(56,280)"/>
<path d="M0,0 Z " fill="#89461D" transform="translate(433,251)"/>
<path d="M0,0 Z " fill="#874920" transform="translate(92,245)"/>
<path d="M0,0 Z " fill="#8C4B25" transform="translate(92,241)"/>
<path d="M0,0 Z " fill="#8D542C" transform="translate(104,212)"/>
<path d="M0,0 Z " fill="#8D5027" transform="translate(108,208)"/>
<path d="M0,0 Z " fill="#975C35" transform="translate(119,180)"/>
<path d="M0,0 Z " fill="#9C633B" transform="translate(133,148)"/>
<path d="M0,0 Z " fill="#A5724D" transform="translate(127,148)"/>
<path d="M0,0 Z " fill="#95582E" transform="translate(293,112)"/>
<path d="M0,0 Z " fill="#8E5025" transform="translate(273,112)"/>
<path d="M0,0 Z " fill="#965B33" transform="translate(304,100)"/>
<path d="M0,0 Z " fill="#AE7A53" transform="translate(251,79)"/>
<path d="M0,0 Z " fill="#AC7B58" transform="translate(324,77)"/>
<path d="M0,0 Z " fill="#BA8962" transform="translate(411,76)"/>
<path d="M0,0 Z " fill="#A9734D" transform="translate(207,76)"/>
</svg>
