<?xml version="1.0" encoding="UTF-8"?>
<!-- Generator: https://ezgif.com/png-to-svg -->
<svg version="1.1" xmlns="http://www.w3.org/2000/svg" width="512" height="512">
<path d="M0,0 L89,0 L89,44 L146,44 L146,24 L147,23 L160,23 L160,1 L240,1 L241,37 L241,72 L260,72 L260,144 L242,144 L242,164 L231,164 L231,202 L247,202 L248,203 L248,234 L264,234 L264,314 L297,314 L297,369 L160,369 L160,352 L105,352 L105,370 L-88,370 L-89,369 L-89,315 L-101,315 L-101,233 L-85,233 L-85,200 L-71,200 L-71,159 L-54,159 L-54,111 L-37,111 L-37,77 L-19,77 L-19,24 L-18,23 L-1,23 L-1,1 Z M53,39 L53,58 L72,58 L72,39 Z M204,40 L204,58 L222,58 L222,40 Z " fill="#1B2D24" transform="translate(151,71)"/>
<path d="M0,0 L56,0 L56,15 L34,16 L15,16 L15,68 L57,68 L57,37 L156,37 L156,1 L207,1 L207,16 L168,16 L168,68 L205,68 L205,38 L207,38 L207,54 L224,54 L224,104 L7,104 L7,121 L25,120 L207,120 L207,137 L199,137 L199,326 L160,326 L160,311 L84,310 L84,294 L42,294 L42,222 L25,222 L25,140 L-2,140 L-2,99 L0,99 Z " fill="#22372C" transform="translate(168,93)"/>
<path d="M0,0 L56,0 L56,15 L34,16 L15,16 L15,68 L57,68 L57,37 L156,37 L156,1 L207,1 L207,16 L168,16 L168,68 L205,68 L205,38 L207,38 L207,54 L224,54 L224,104 L7,104 L7,121 L25,121 L25,140 L-2,140 L-2,99 L0,99 Z " fill="#385245" transform="translate(168,93)"/>
<path d="M0,0 L4,1 L7,10 L16,36 L17,43 L69,43 L68,48 L54,59 L38,72 L33,76 L31,76 L36,96 L44,120 L44,125 L40,126 L29,118 L5,102 L1,102 L-21,115 L-37,125 L-41,124 L-40,118 L-34,99 L-29,80 L-29,76 L-42,66 L-56,55 L-66,47 L-66,43 L-14,43 L-11,33 L-6,16 L-1,1 Z " fill="#E5DBB4" transform="translate(286,237)"/>
<path d="M0,0 L38,0 L48,1 L48,77 L36,78 L16,78 L16,94 L65,94 L65,114 L29,115 L0,115 L0,34 L13,34 L14,64 L30,65 L30,17 L0,17 Z " fill="#264136" transform="translate(85,305)"/>
<path d="M0,0 L140,0 L140,12 L123,12 L123,29 L42,29 L42,13 L0,13 Z " fill="#843413" transform="translate(210,374)"/>
<path d="M0,0 L182,0 L182,17 L0,17 Z " fill="#833413" transform="translate(193,213)"/>
<path d="M0,0 L16,0 L16,94 L51,94 L51,113 L0,113 Z " fill="#2B463A" transform="translate(381,306)"/>
<path d="M0,0 L89,0 L89,44 L146,44 L146,25 L147,25 L147,45 L87,45 L87,2 L1,2 L1,25 L-17,25 L-17,78 L-35,78 L-35,112 L-52,113 L-53,160 L-69,160 L-69,201 L-70,202 L-83,202 L-83,234 L-84,235 L-99,235 L-99,314 L-87,314 L-87,369 L103,369 L103,351 L161,351 L161,367 L295,367 L295,316 L263,316 L262,315 L262,235 L248,235 L248,234 L264,234 L264,314 L297,314 L297,369 L160,369 L160,352 L105,352 L105,370 L-88,370 L-89,369 L-89,315 L-101,315 L-101,233 L-85,233 L-85,200 L-71,200 L-71,159 L-54,159 L-54,111 L-37,111 L-37,77 L-19,77 L-19,24 L-18,23 L-1,23 L-1,1 Z " fill="#050A08" transform="translate(151,71)"/>
<path d="M0,0 L41,0 L41,22 L0,22 Z " fill="#385245" transform="translate(193,399)"/>
<path d="M0,0 L16,0 L16,48 L0,48 Z " fill="#853412" transform="translate(193,267)"/>
<path d="M0,0 L22,0 L22,23 L-195,23 L-195,22 L0,22 Z " fill="#253D33" transform="translate(370,174)"/>
<path d="M0,0 L17,0 L17,41 L0,41 Z " fill="#823413" transform="translate(350,332)"/>
<path d="M0,0 L20,0 L20,34 L0,34 Z " fill="#182920" transform="translate(133,196)"/>
<path d="M0,0 L1,0 L1,37 L-16,37 L-16,53 L-50,53 L-50,37 L-99,37 L-99,36 L0,36 Z " fill="#253D33" transform="translate(324,94)"/>
<path d="M0,0 L25,0 L25,25 L0,25 Z " fill="#192920" transform="translate(157,246)"/>
<path d="M0,0 L27,0 L27,19 L0,19 Z " fill="#365144" transform="translate(123,400)"/>
<path d="M0,0 L2,0 L2,27 L21,27 L21,99 L3,99 L3,119 L-8,119 L-8,157 L8,157 L9,158 L9,188 L7,189 L7,159 L-9,159 L-10,158 L-10,117 L1,117 L1,97 L19,97 L19,29 L1,29 L0,28 Z " fill="#040907" transform="translate(390,116)"/>
<path d="M0,0 L17,0 L17,15 L0,15 Z " fill="#192920" transform="translate(265,162)"/>
<path d="M0,0 L15,0 L15,15 L0,15 Z " fill="#17271E" transform="translate(300,161)"/>
<path d="M0,0 L23,0 L23,22 L0,22 Z M2,1 L2,20 L21,20 L21,1 Z " fill="#030705" transform="translate(202,109)"/>
<path d="M0,0 L22,0 L22,20 L20,21 L1,21 L0,20 Z M2,1 L2,19 L20,19 L20,1 Z " fill="#030605" transform="translate(353,110)"/>
</svg>
