<?xml version="1.0" encoding="UTF-8"?>
<!-- Generator: https://ezgif.com/png-to-svg -->
<svg version="1.1" xmlns="http://www.w3.org/2000/svg" width="512" height="512">
<path d="M0,0 L79,0 L79,17 L95,17 L95,45 L139,45 L139,17 L155,17 L155,0 L233,0 L233,17 L249,17 L249,76 L265,76 L265,149 L249,149 L249,167 L232,167 L232,211 L248,211 L248,246 L264,246 L264,282 L248,282 L248,311 L280,311 L280,353 L167,353 L167,337 L102,337 L102,353 L-90,353 L-90,308 L-98,308 L-98,203 L-80,203 L-80,183 L-64,183 L-64,152 L-63,151 L-49,151 L-48,115 L-32,115 L-32,76 L-16,76 L-16,17 L0,17 Z " fill="#201B16" transform="translate(160,75)"/>
<path d="M0,0 L77,0 L77,44 L155,44 L155,0 L231,0 L231,59 L247,59 L247,112 L16,112 L16,130 L31,130 L31,147 L49,147 L49,177 L70,177 L70,203 L84,203 L84,289 L65,289 L65,218 L50,218 L50,302 L84,302 L84,318 L16,318 L16,289 L0,289 L0,202 L-16,202 L-16,186 L-63,186 L-63,166 L-48,166 L-48,134 L-32,134 L-32,97 L-16,97 L-16,59 L0,59 Z " fill="#E96615" transform="translate(161,93)"/>
<path d="M0,0 L199,0 L199,17 L183,17 L183,48 L168,48 L168,142 L153,142 L153,159 L136,159 L136,172 L69,172 L69,159 L53,159 L53,73 L39,73 L39,47 L18,47 L18,17 L0,17 Z " fill="#50D3A4" transform="translate(192,223)"/>
<path d="M0,0 L79,0 L79,17 L95,17 L95,45 L139,45 L139,17 L155,17 L155,0 L233,0 L233,17 L249,17 L249,76 L265,76 L265,149 L249,149 L249,167 L232,167 L232,211 L248,211 L248,246 L264,246 L264,282 L248,282 L248,311 L280,311 L280,353 L167,353 L167,337 L102,337 L102,353 L-90,353 L-90,308 L-98,308 L-98,203 L-80,203 L-80,185 L-79,185 L-79,204 L-80,205 L-96,205 L-96,306 L-88,306 L-88,351 L100,351 L100,336 L101,335 L168,335 L169,336 L169,351 L278,351 L278,313 L247,313 L246,312 L246,281 L247,247 L231,247 L231,212 L215,212 L215,165 L231,165 L231,148 L17,148 L17,130 L248,130 L248,77 L232,77 L232,18 L156,18 L156,62 L78,62 L78,18 L1,18 L1,77 L-15,77 L-15,115 L-31,115 L-31,117 L-46,117 L-46,140 L-47,151 L-48,151 L-48,115 L-32,115 L-32,76 L-16,76 L-16,17 L0,17 Z " fill="#1E1A15" transform="translate(160,75)"/>
<path d="M0,0 L128,0 L128,58 L114,58 L114,91 L94,91 L94,107 L32,107 L32,80 L15,80 L15,25 L0,25 Z " fill="#68DEB7" transform="translate(231,271)"/>
<path d="M0,0 L65,0 L65,86 L33,86 L33,99 L80,99 L80,115 L0,115 Z " fill="#F16D16" transform="translate(80,296)"/>
<path d="M0,0 L15,0 L15,16 L33,16 L33,46 L54,46 L54,72 L51,72 L51,48 L49,48 L49,86 L33,86 L33,141 L0,141 L0,55 L-16,55 L-16,35 L0,35 Z " fill="#F36E16" transform="translate(177,224)"/>
<path d="M0,0 L15,0 L15,16 L31,16 L31,51 L47,51 L47,85 L31,85 L31,125 L48,125 L48,139 L16,139 L16,40 L0,40 Z " fill="#EE6C16" transform="translate(360,271)"/>
<path d="M0,0 L16,0 L16,39 L0,39 L0,107 L-16,107 L-16,126 L0,126 L0,127 L-47,127 L-47,107 L-32,107 L-32,75 L-16,75 L-16,38 L0,38 Z " fill="#BD3B0E" transform="translate(145,152)"/>
<path d="M0,0 L16,0 L16,1 L1,1 L1,95 L-14,95 L-14,112 L-31,112 L-31,125 L-98,125 L-98,112 L-114,112 L-114,26 L-113,26 L-113,81 L-96,81 L-96,108 L-34,108 L-34,92 L-14,92 L-14,59 L0,59 Z " fill="#39BC84" transform="translate(359,270)"/>
<path d="M0,0 L16,0 L16,99 L48,99 L48,85 L63,85 L63,100 L-16,100 L-16,85 L0,85 Z " fill="#D35011" transform="translate(360,311)"/>
<path d="M0,0 L15,0 L15,18 L33,18 L33,56 L0,56 Z " fill="#201B17" transform="translate(191,109)"/>
<path d="M0,0 L16,0 L16,18 L32,18 L32,56 L0,56 Z " fill="#201B17" transform="translate(345,109)"/>
<path d="M0,0 L33,0 L33,18 L49,18 L49,40 L17,40 L17,18 L0,18 Z " fill="#FE900F" transform="translate(96,311)"/>
<path d="M0,0 L78,0 L78,15 L0,15 Z " fill="#DE5712" transform="translate(238,137)"/>
<path d="M0,0 L16,0 L16,54 L0,54 Z " fill="#1F1B16" transform="translate(360,311)"/>
<path d="M0,0 L16,0 L16,45 L79,45 L79,31 L33,31 L33,30 L80,30 L80,46 L0,46 Z " fill="#CE5312" transform="translate(80,365)"/>
<path d="M0,0 L18,0 L18,36 L0,36 Z " fill="#FE9010" transform="translate(192,329)"/>
<path d="M0,0 L78,0 L78,17 L94,17 L94,76 L92,76 L92,19 L78,19 L76,18 L76,2 L2,2 L2,17 L1,19 L-14,19 L-14,47 L-62,47 L-62,19 L-75,19 L-75,17 L-60,17 L-60,45 L-16,45 L-16,17 L0,17 Z " fill="#0B0907" transform="translate(315,75)"/>
<path d="M0,0 L19,0 L19,31 L0,31 Z " fill="#C03C0D" transform="translate(226,351)"/>
<path d="M0,0 L16,0 L16,34 L0,34 Z " fill="#DB5712" transform="translate(391,322)"/>
<path d="M0,0 L18,0 L18,30 L0,30 Z " fill="#F16E16" transform="translate(192,365)"/>
<path d="M0,0 L34,0 L34,14 L0,14 Z " fill="#F37117" transform="translate(210,396)"/>
<path d="M0,0 L16,0 L16,2 L2,2 L2,60 L1,61 L-14,61 L-14,98 L-15,100 L-30,100 L-30,123 L-31,134 L-32,134 L-32,98 L-16,98 L-16,59 L0,59 Z " fill="#090706" transform="translate(144,92)"/>
<path d="M0,0 L14,0 L14,22 L0,22 Z " fill="#44CF9A" transform="translate(345,329)"/>
<path d="M0,0 L17,0 L17,17 L0,17 Z " fill="#F5EDEC" transform="translate(207,109)"/>
<path d="M0,0 L16,0 L16,17 L-16,17 L-16,16 L0,16 Z " fill="#D25111" transform="translate(129,365)"/>
<path d="M0,0 L16,0 L16,17 L0,17 Z " fill="#F4EBEA" transform="translate(361,109)"/>
<path d="M0,0 L16,0 L16,15 L0,15 Z " fill="#2C2017" transform="translate(282,165)"/>
<path d="M0,0 L15,0 L15,15 L0,15 Z " fill="#261D16" transform="translate(317,165)"/>
<path d="M0,0 L16,0 L16,1 L1,1 L1,95 L-15,95 L-15,111 L-16,111 L-16,94 L-15,93 L-1,93 Z " fill="#5C9D6C" transform="translate(359,270)"/>
<path d="M0,0 L1,0 L1,56 L33,56 L32,59 L15,60 L14,59 L4,59 L0,58 Z " fill="#C36917" transform="translate(344,109)"/>
<path d="M0,0 L17,0 L17,30 L38,30 L38,56 L35,56 L35,32 L16,31 L16,1 L0,1 Z " fill="#CC6F30" transform="translate(193,240)"/>
</svg>
