<?xml version="1.0" encoding="UTF-8"?>
<!-- Generator: https://ezgif.com/png-to-svg -->
<svg version="1.1" xmlns="http://www.w3.org/2000/svg" width="512" height="512">
<path d="M0,0 L35,0 L42,1 L42,22 L61,22 L61,40 L98,40 L98,22 L116,22 L116,1 L208,1 L208,22 L226,22 L226,96 L261,96 L261,153 L243,153 L243,173 L226,173 L226,210 L208,210 L208,229 L225,229 L225,303 L272,303 L272,360 L141,360 L141,340 L60,340 L60,361 L-147,361 L-147,323 L-165,323 L-165,209 L-147,209 L-147,190 L-128,190 L-128,152 L-109,152 L-109,116 L-91,116 L-91,78 L-72,78 L-72,22 L-53,22 L-53,1 Z " fill="#012852" transform="translate(205,74)"/>
<path d="M0,0 L9,0 L16,4 L19,9 L19,17 L27,17 L33,22 L34,24 L34,45 L273,45 L273,64 L256,64 L256,102 L239,102 L239,122 L236,134 L223,169 L217,184 L211,196 L196,206 L191,208 L191,231 L108,231 L107,213 L96,204 L89,198 L89,196 L70,196 L70,102 L52,102 L53,196 L70,213 L90,214 L90,231 L15,231 L14,212 L4,202 L-3,196 L-3,83 L-59,83 L-59,45 L-41,45 L-41,8 L-8,7 L-3,2 Z " fill="#4F92BF" transform="translate(156,182)"/>
<path d="M0,0 L92,0 L92,21 L110,21 L110,95 L145,95 L145,152 L127,152 L127,172 L110,172 L110,209 L92,209 L92,228 L109,228 L109,302 L156,302 L156,359 L25,359 L25,338 L26,315 L37,308 L46,302 L55,282 L65,254 L72,235 L73,229 L74,209 L91,209 L91,171 L108,171 L108,152 L-131,152 L-132,131 L-137,126 L-138,125 L-146,124 L-148,114 L-153,109 L-156,108 L-165,108 L-170,111 L-173,115 L-187,115 L-187,78 L-168,78 L-168,22 L-75,22 L-75,60 L-76,60 L-76,23 L-150,23 L-150,96 L-131,96 L-131,39 L-94,39 L-94,96 L-35,96 L-35,115 L-17,115 L-17,132 L109,132 L109,150 L126,150 L126,116 L87,116 L87,114 L84,115 L84,113 L77,115 L67,117 L61,121 L58,124 L48,124 L42,127 L38,131 L18,131 L18,116 L-1,116 L-1,96 L36,96 L36,39 L74,39 L74,96 L91,96 L91,22 L1,22 L0,21 Z " fill="#012751" transform="translate(321,75)"/>
<path d="M0,0 L27,0 L38,10 L131,10 L144,0 L168,0 L168,16 L160,38 L149,68 L141,84 L126,94 L121,96 L121,119 L38,119 L37,101 L26,92 L19,86 L19,84 L0,84 Z " fill="#C6DDE0" transform="translate(226,294)"/>
<path d="M0,0 L76,0 L76,10 L62,12 L50,18 L44,26 L40,37 L106,37 L104,28 L99,20 L97,17 L131,17 L131,0 L205,0 L205,15 L202,15 L202,13 L197,11 L192,9 L179,9 L171,13 L162,23 L148,23 L141,28 L137,37 L163,37 L163,56 L19,56 L20,150 L37,167 L57,168 L57,185 L-18,185 L-19,166 L-29,156 L-36,150 L-36,37 L4,37 L2,27 L0,22 L-4,20 L-6,18 L-2,15 L0,15 Z " fill="#4387B7" transform="translate(189,228)"/>
<path d="M0,0 L91,0 L91,74 L74,74 L74,17 L36,17 L36,74 L-1,74 L-1,94 L18,94 L18,109 L38,108 L45,102 L54,101 L59,100 L65,95 L69,93 L77,92 L78,91 L84,91 L87,92 L87,94 L126,94 L126,128 L109,128 L109,110 L-17,110 L-17,93 L-35,93 L-35,74 L-94,74 L-94,17 L-131,17 L-131,74 L-150,74 L-150,1 L-76,1 L-76,38 L0,38 Z " fill="#6DA9CC" transform="translate(321,97)"/>
<path d="M0,0 L76,0 L76,61 L74,75 L65,86 L58,95 L57,113 L93,113 L93,130 L20,130 L20,95 L0,95 Z " fill="#4D8DBA" transform="translate(58,283)"/>
<path d="M0,0 L93,0 L93,38 L92,38 L92,1 L18,1 L18,74 L37,74 L37,17 L74,17 L74,74 L133,74 L133,93 L151,93 L151,110 L37,110 L33,105 L30,103 L22,102 L20,92 L15,87 L12,86 L3,86 L-2,89 L-5,93 L-19,93 L-19,56 L0,56 Z " fill="#4B8FBD" transform="translate(153,97)"/>
<path d="M0,0 L2,2 L17,3 L17,7 L20,0 L21,0 L22,60 L33,72 L39,77 L69,78 L84,78 L84,114 L-43,114 L-44,72 L-33,65 L-24,59 L-15,39 L-5,11 Z " fill="#002752" transform="translate(391,318)"/>
<path d="M0,0 L16,0 L31,15 L35,18 L135,19 L137,15 L148,0 L157,0 L149,23 L141,39 L126,49 L121,51 L121,74 L38,74 L37,56 L26,47 L19,41 L19,39 L0,39 Z " fill="#9CC3D4" transform="translate(226,339)"/>
<path d="M0,0 L14,0 L20,4 L23,9 L23,12 L27,10 L36,11 L39,13 L40,77 L57,94 L77,95 L77,112 L2,112 L1,93 L-9,83 L-16,77 L-16,15 L-10,6 L-3,1 Z " fill="#5293BF" transform="translate(169,301)"/>
<path d="M0,0 L38,0 L38,57 L55,57 L55,76 L90,76 L90,77 L51,77 L51,75 L48,76 L48,74 L41,76 L31,78 L25,82 L22,85 L12,85 L6,88 L2,92 L-18,92 L-18,77 L-37,77 L-37,57 L0,57 Z " fill="#4A8DBA" transform="translate(357,114)"/>
<path d="M0,0 L74,0 L75,37 L75,72 L74,73 L56,73 L56,16 L19,16 L19,73 L0,73 Z " fill="#8CBFD8" transform="translate(171,98)"/>
<path d="M0,0 L73,0 L73,74 L56,74 L56,17 L18,17 L18,74 L0,74 Z " fill="#96C5DB" transform="translate(339,97)"/>
<path d="M0,0 L18,0 L27,10 L32,15 L139,15 L150,1 L151,0 L167,0 L166,8 L163,17 L148,17 L137,31 L134,35 L31,35 L18,22 L18,20 L0,20 Z " fill="#8DBCD2" transform="translate(227,305)"/>
<path d="M0,0 L1,0 L2,60 L13,72 L19,77 L48,78 L49,94 L54,95 L54,96 L40,96 L36,95 L35,96 L-33,96 L-33,78 L-21,51 L-5,12 Z " fill="#387DB0" transform="translate(411,318)"/>
<path d="M0,0 L168,0 L168,10 L144,11 L131,21 L38,21 L27,11 L0,10 Z " fill="#85B7D1" transform="translate(226,284)"/>
<path d="M0,0 L93,0 L93,38 L92,38 L92,1 L18,1 L18,74 L37,74 L37,93 L55,93 L55,109 L54,109 L54,95 L37,95 L37,103 L36,103 L36,75 L19,75 L19,89 L12,86 L3,86 L-2,89 L-5,93 L-19,93 L-19,56 L0,56 Z " fill="#377CAF" transform="translate(153,97)"/>
<path d="M0,0 L8,0 L16,3 L23,9 L27,17 L27,21 L31,19 L43,19 L50,23 L54,30 L54,38 L-42,38 L-42,19 L-36,17 L-22,17 L-17,19 L-16,14 L-12,8 L-5,2 Z " fill="#86BBD6" transform="translate(139,227)"/>
<path d="M0,0 L36,0 L36,57 L0,57 Z " fill="#022B55" transform="translate(191,114)"/>
<path d="M0,0 L36,0 L36,57 L0,57 Z " fill="#012A55" transform="translate(358,114)"/>
<path d="M0,0 L18,0 L18,56 L-13,56 L-22,49 L-30,46 L-40,46 L-50,51 L-56,56 L-75,56 L-75,38 L0,38 Z " fill="#4D90BD" transform="translate(321,97)"/>
<path d="M0,0 L34,0 L34,18 L39,20 L39,62 L34,57 L27,54 L21,53 L17,45 L11,41 L0,39 Z " fill="#468ABA" transform="translate(59,284)"/>
<path d="M0,0 L1,0 L1,22 L-82,22 L-82,4 L-5,3 Z " fill="#4E8EB9" transform="translate(346,391)"/>
<path d="M0,0 L13,0 L23,5 L26,10 L26,29 L-42,29 L-41,24 L-37,18 L-31,14 L-17,14 L-8,4 Z " fill="#86BBD6" transform="translate(368,236)"/>
<path d="M0,0 L21,0 L32,4 L40,11 L44,20 L44,26 L-22,26 L-21,19 L-15,9 L-7,3 Z " fill="#83B9D5" transform="translate(251,239)"/>
<path d="M0,0 L4,1 L14,10 L29,26 L35,33 L35,35 L58,34 L46,21 L44,17 L73,18 L74,34 L79,35 L79,36 L65,36 L61,35 L60,36 L-8,36 L-8,18 Z " fill="#25699F" transform="translate(386,378)"/>
<path d="M0,0 L37,0 L73,1 L73,18 L0,18 Z " fill="#3577AA" transform="translate(78,395)"/>
<path d="M0,0 L1,0 L1,57 L37,57 L37,0 L38,0 L38,57 L55,57 L55,76 L90,76 L90,77 L51,77 L51,75 L48,76 L48,74 L41,76 L33,77 L3,78 L0,79 L0,58 L-5,58 L-5,57 L0,57 Z " fill="#4786B3" transform="translate(357,114)"/>
<path d="M0,0 L41,0 L41,45 L33,39 L21,29 L0,18 Z " fill="#90C1D9" transform="translate(93,284)"/>
<path d="M0,0 L11,0 L12,20 L27,35 L27,37 L-26,37 L-26,21 L-20,16 L-10,16 L-10,10 L-6,4 Z " fill="#8ABCD6" transform="translate(197,358)"/>
<path d="M0,0 L18,0 L19,37 L19,58 L18,73 L11,67 L0,57 Z " fill="#4488B8" transform="translate(153,321)"/>
<path d="M0,0 L19,0 L19,17 L74,17 L74,37 L41,37 L41,36 L55,36 L55,19 L19,19 L19,37 L0,37 Z " fill="#4185B5" transform="translate(115,190)"/>
<path d="M0,0 L93,0 L93,38 L92,38 L92,1 L18,1 L18,56 L0,56 Z " fill="#5191BC" transform="translate(153,97)"/>
<path d="M0,0 L8,0 L16,4 L20,9 L21,14 L31,15 L37,20 L40,27 L40,35 L0,35 Z " fill="#92C3DB" transform="translate(59,323)"/>
<path d="M0,0 L6,0 L9,1 L9,3 L48,3 L48,37 L31,37 L31,19 L13,19 L10,10 L4,5 L2,4 L-9,3 L-9,2 L-1,1 Z " fill="#5A9DC8" transform="translate(399,188)"/>
<path d="M0,0 L9,0 L16,4 L19,9 L19,17 L27,17 L33,22 L34,25 L-22,25 L-22,8 L-8,7 L-3,2 Z " fill="#81B7D4" transform="translate(156,182)"/>
<path d="M0,0 L17,0 L17,19 L35,19 L35,35 L0,35 Z " fill="#468BBB" transform="translate(269,171)"/>
<path d="M0,0 L14,0 L20,4 L23,9 L23,12 L27,10 L36,11 L39,13 L39,20 L-16,20 L-15,13 L-9,5 Z " fill="#78B1D0" transform="translate(169,301)"/>
<path d="M0,0 L37,0 L38,1 L38,17 L0,18 Z " fill="#4286B6" transform="translate(171,395)"/>
<path d="M0,0 L32,0 L32,20 L17,20 L0,19 Z " fill="#5F9FC7" transform="translate(287,171)"/>
<path d="M0,0 L36,0 L36,17 L0,17 Z " fill="#80B6D2" transform="translate(78,378)"/>
<path d="M0,0 L36,0 L36,16 L-18,16 L-18,15 L0,15 Z " fill="#4085B6" transform="translate(115,397)"/>
<path d="M0,0 L13,0 L19,4 L23,9 L24,16 L-30,16 L-24,9 L-19,7 L-9,7 L-2,1 Z " fill="#97C7DD" transform="translate(388,191)"/>
<path d="M0,0 L38,0 L39,2 L33,6 L28,12 L25,19 L20,18 L6,18 L0,19 Z " fill="#5699C4" transform="translate(97,227)"/>
<path d="M0,0 L29,1 L30,17 L35,18 L35,19 L21,19 L17,18 L16,19 L-52,19 L-52,1 L-51,1 L-51,18 L14,17 L2,4 Z " fill="#05254D" transform="translate(430,395)"/>
<path d="M0,0 L21,0 L21,17 L81,17 L81,18 L0,18 Z " fill="#3A7AA9" transform="translate(264,395)"/>
<path d="M0,0 L18,0 L29,12 L33,17 L10,17 L3,9 L0,6 Z " fill="#5092BE" transform="translate(395,378)"/>
<path d="M0,0 L19,0 L19,18 L1,18 L1,37 L0,37 Z " fill="#25699F" transform="translate(134,153)"/>
<path d="M0,0 L18,0 L18,19 L0,19 Z " fill="#02274F" transform="translate(321,171)"/>
<path d="M0,0 L19,0 L19,18 L0,18 Z " fill="#89BDD7" transform="translate(171,153)"/>
<path d="M0,0 L17,0 L17,20 L0,20 Z " fill="#052A52" transform="translate(269,171)"/>
<path d="M0,0 L19,0 L19,15 L38,15 L38,16 L1,16 L0,15 Z " fill="#60A2C9" transform="translate(320,191)"/>
<path d="M0,0 L10,0 L20,4 L26,9 L26,11 L-15,11 L-9,4 Z " fill="#ADD5E4" transform="translate(281,142)"/>
<path d="M0,0 L19,0 L19,16 L0,16 Z " fill="#84B9D3" transform="translate(226,397)"/>
<path d="M0,0 L17,0 L17,16 L0,16 Z " fill="#72ABCB" transform="translate(134,397)"/>
<path d="M0,0 L20,0 L20,17 L14,17 L6,9 L0,2 Z " fill="#3F82B1" transform="translate(439,396)"/>
<path d="M0,0 Z " fill="#012246" transform="translate(420,435)"/>
<path d="M0,0 Z " fill="#0A2C4E" transform="translate(344,432)"/>
<path d="M0,0 Z " fill="#032B54" transform="translate(56,280)"/>
</svg>
