<?xml version="1.0" encoding="UTF-8"?>
<!-- Generator: https://ezgif.com/png-to-svg -->
<svg version="1.1" xmlns="http://www.w3.org/2000/svg" width="512" height="512">
<path d="M0,0 L88,0 L88,19 L107,19 L108,20 L108,40 L135,40 L135,19 L152,19 L152,0 L237,0 L237,72 L254,72 L255,74 L255,142 L254,143 L237,143 L237,173 L223,174 L223,208 L242,209 L242,236 L258,236 L258,316 L285,316 L285,363 L161,363 L161,339 L117,339 L117,365 L-78,365 L-78,317 L-83,318 L-84,317 L-84,231 L-83,230 L-65,230 L-65,196 L-51,196 L-51,152 L-34,152 L-34,105 L-17,106 L-17,65 L0,65 Z M66,41 L66,59 L86,59 L86,41 Z M201,41 L201,59 L219,59 L219,41 Z " fill="#442F15" transform="translate(150,71)"/>
<path d="M0,0 L88,0 L88,19 L107,19 L108,20 L108,40 L135,40 L135,19 L152,19 L152,0 L237,0 L237,72 L254,72 L255,74 L255,142 L254,143 L237,143 L237,173 L223,174 L223,208 L242,209 L242,236 L258,236 L258,316 L285,316 L285,363 L161,363 L161,339 L117,339 L117,365 L-78,365 L-78,317 L-82,316 L-77,316 L-77,363 L115,363 L115,338 L162,338 L162,361 L283,361 L283,318 L257,318 L256,317 L256,238 L240,238 L240,304 L238,304 L238,284 L203,284 L203,324 L183,324 L183,321 L183,276 L202,276 L202,184 L194,185 L81,185 L81,199 L77,198 L80,198 L80,185 L65,184 L65,165 L220,165 L220,144 L34,144 L22,140 L22,113 L39,115 L43,116 L43,123 L236,123 L236,76 L219,76 L219,87 L179,87 L179,40 L201,40 L201,59 L219,59 L219,40 L220,21 L163,21 L163,59 L87,59 L87,89 L43,89 L43,40 L66,40 L66,59 L86,59 L86,40 L87,20 L22,20 L22,66 L21,67 L2,67 L2,84 L21,86 L21,112 L10,111 L-5,108 L-32,107 L-32,153 L-50,153 L-50,197 L-64,197 L-64,232 L-82,232 L-82,315 L-83,315 L-83,230 L-65,230 L-65,196 L-51,196 L-51,152 L-34,152 L-34,105 L-17,106 L-17,65 L0,65 Z " fill="#382915" transform="translate(150,71)"/>
<path d="M0,0 L65,0 L65,20 L64,21 L44,21 L21,20 L21,69 L65,69 L65,39 L141,39 L141,1 L198,1 L198,20 L197,21 L179,21 L157,20 L157,67 L197,67 L197,56 L214,56 L214,103 L21,103 L21,96 L8,95 L0,93 L0,120 L10,122 L12,123 L198,124 L198,145 L0,145 L-36,135 L-38,134 L-38,87 L-27,87 L-1,92 L-1,66 L-9,66 L-20,64 L-20,47 L-1,46 Z " fill="#EFAD0D" transform="translate(172,91)"/>
<path d="M0,0 L9,2 L38,11 L58,17 L104,24 L114,25 L114,11 L235,10 L235,102 L216,102 L216,146 L197,146 L197,150 L118,150 L118,118 L114,118 L114,131 L69,131 L69,111 L114,111 L114,89 L69,89 L69,68 L114,68 L114,49 L105,49 L82,46 L56,41 L1,23 L0,22 Z " fill="#F7B70F" transform="translate(117,245)"/>
<path d="M0,0 L44,0 L44,59 L43,60 L21,60 L21,72 L82,72 L82,86 L0,86 Z " fill="#6D4818" transform="translate(84,332)"/>
<path d="M0,0 L35,0 L35,46 L66,46 L66,62 L-23,62 L-23,41 L-22,40 L0,40 Z " fill="#F6B50D" transform="translate(353,355)"/>
<path d="M0,0 L154,0 L154,19 L-1,19 Z " fill="#F9B50D" transform="translate(215,216)"/>
<path d="M0,0 L14,0 L15,2 L58,15 L67,18 L67,102 L66,103 L44,103 L43,22 L0,22 Z " fill="#F5AF0C" transform="translate(102,289)"/>
<path d="M0,0 L64,0 L64,18 L20,18 L20,56 L19,66 L16,67 L0,66 Z " fill="#F4AC0B" transform="translate(172,92)"/>
<path d="M0,0 L512,0 L512,512 L0,512 Z M1,1 L1,511 L511,511 L511,1 Z " fill="#7B6D52" transform="translate(0,0)"/>
<path d="M0,0 L43,0 L43,14 L21,14 L21,26 L82,26 L82,40 L0,40 Z " fill="#E09109" transform="translate(84,378)"/>
<path d="M0,0 L35,0 L35,41 L-22,41 L-22,40 L0,40 Z " fill="#6F4B18" transform="translate(353,355)"/>
<path d="M0,0 L45,0 L45,8 L69,8 L69,22 L0,22 Z " fill="#FAB70D" transform="translate(186,396)"/>
<path d="M0,0 L36,0 L36,1 L17,1 L17,18 L36,20 L36,46 L25,45 L10,42 L0,41 Z " fill="#352715" transform="translate(135,137)"/>
<path d="M0,0 L14,0 L15,2 L58,15 L67,18 L67,102 L66,103 L44,103 L45,96 L66,96 L66,21 L44,21 L44,31 L43,31 L43,22 L0,22 Z " fill="#D68D09" transform="translate(102,289)"/>
<path d="M0,0 L18,0 L18,80 L45,80 L45,127 L-79,127 L-79,103 L-123,103 L-123,129 L-318,129 L-318,81 L-322,80 L-317,80 L-317,127 L-125,127 L-125,102 L-78,102 L-78,125 L43,125 L43,82 L17,82 L16,81 L16,1 L0,1 Z " fill="#0F0B05" transform="translate(390,307)"/>
<path d="M0,0 L45,0 L45,22 L0,22 Z " fill="#6D4819" transform="translate(186,334)"/>
<path d="M0,0 L43,0 L43,23 L0,23 Z " fill="#F0AC0B" transform="translate(84,332)"/>
<path d="M0,0 L1,0 L1,22 L26,22 L26,43 L-17,43 L-17,22 L0,22 Z " fill="#6E4819" transform="translate(101,289)"/>
<path d="M0,0 L60,0 L60,14 L0,14 Z " fill="#F7B50C" transform="translate(106,404)"/>
<path d="M0,0 L65,0 L65,20 L64,21 L44,21 L21,20 L21,69 L65,69 L65,70 L21,70 L21,96 L8,95 L0,93 L0,67 L19,67 L20,19 L64,19 L64,1 L0,1 Z " fill="#C9860A" transform="translate(172,91)"/>
<path d="M0,0 L45,0 L45,18 L0,18 Z " fill="#704A19" transform="translate(186,377)"/>
<path d="M0,0 L88,0 L88,20 L87,20 L87,2 L2,2 L2,65 L21,65 L21,66 L-15,66 L-15,107 L-32,107 L-32,153 L-50,153 L-50,197 L-64,197 L-64,232 L-82,232 L-82,315 L-83,315 L-83,230 L-65,230 L-65,196 L-51,196 L-51,152 L-34,152 L-34,105 L-17,106 L-17,65 L0,65 Z " fill="#0E0A05" transform="translate(150,71)"/>
<path d="M0,0 L16,0 L16,47 L0,46 Z " fill="#372915" transform="translate(118,178)"/>
<path d="M0,0 L35,0 L35,20 L0,20 Z " fill="#E79B09" transform="translate(353,355)"/>
<path d="M0,0 L45,0 L45,8 L44,8 L44,1 L23,1 L23,21 L68,21 L68,8 L69,8 L69,22 L0,22 Z " fill="#E49C09" transform="translate(186,396)"/>
<path d="M0,0 L20,0 L20,1 L1,1 L1,18 L20,20 L20,46 L9,45 L-6,42 L-6,41 L0,41 Z " fill="#6C4516" transform="translate(151,137)"/>
<path d="M0,0 L85,0 L85,72 L101,72 L101,73 L84,73 L83,72 L83,2 L2,2 L2,20 L1,21 L-15,21 L-15,41 L-16,42 L-45,42 L-46,41 L-46,20 L-44,20 L-44,40 L-17,40 L-17,19 L0,19 Z " fill="#110C06" transform="translate(302,71)"/>
<path d="M0,0 L23,1 L23,21 L0,21 Z " fill="#E49508" transform="translate(330,396)"/>
<path d="M0,0 L17,0 L17,24 L0,24 Z " fill="#EEB30E" transform="translate(372,309)"/>
<path d="M0,0 L17,0 L17,42 L16,42 L16,22 L0,22 Z " fill="#6E4C19" transform="translate(372,333)"/>
<path d="M0,0 L1,0 L1,21 L-19,18 L-19,1 Z " fill="#C8750B" transform="translate(171,137)"/>
<path d="M0,0 L17,0 L17,20 L0,20 Z " fill="#E59709" transform="translate(369,174)"/>
<path d="M0,0 L16,0 L16,20 L0,20 Z " fill="#FABB0E" transform="translate(372,355)"/>
<path d="M0,0 L16,0 L16,16 L0,16 Z " fill="#3A2914" transform="translate(268,157)"/>
<path d="M0,0 L16,0 L16,16 L0,16 Z " fill="#3A2913" transform="translate(301,157)"/>
<path d="M0,0 L1,0 L1,14 L-18,14 L-18,1 L-1,1 Z " fill="#E49A09" transform="translate(165,404)"/>
<path d="M0,0 L1,0 L2,31 L-13,31 L-13,51 L-14,51 L-14,29 L0,29 Z " fill="#0F0B06" transform="translate(385,213)"/>
<path d="M0,0 Z " fill="#4C3D21" transform="translate(432,435)"/>
<path d="M0,0 Z " fill="#4D371C" transform="translate(309,411)"/>
<path d="M0,0 Z " fill="#4C371C" transform="translate(300,88)"/>
</svg>
