<?xml version="1.0" encoding="UTF-8"?>
<!-- Generator: https://ezgif.com/png-to-svg -->
<svg version="1.1" xmlns="http://www.w3.org/2000/svg" width="512" height="512">
<path d="M0,0 L80,0 L80,17 L96,17 L96,34 L144,34 L144,17 L162,17 L162,0 L236,0 L236,17 L250,17 L250,67 L261,66 L266,67 L266,93 L284,93 L284,152 L264,152 L264,169 L249,169 L249,208 L265,208 L265,228 L280,228 L280,298 L266,298 L265,317 L300,317 L300,361 L180,361 L180,347 L112,347 L112,361 L108,362 L93,363 L77,362 L-85,361 L-85,337 L-90,337 L-90,319 L-106,319 L-106,228 L-90,228 L-90,201 L-74,201 L-74,167 L-59,167 L-59,137 L-44,137 L-44,103 L-29,103 L-29,66 L-14,66 L-14,17 L0,17 Z M64,37 L64,53 L77,53 L77,37 Z M217,37 L217,53 L234,53 L234,37 Z " fill="#010B21" transform="translate(151,73)"/>
<path d="M0,0 L24,0 L24,32 L276,32 L276,48 L261,48 L261,66 L245,66 L245,221 L264,221 L264,238 L228,238 L228,222 L211,222 L211,204 L193,204 L193,222 L123,222 L123,203 L95,203 L95,114 L78,114 L78,221 L111,221 L111,239 L65,239 L65,222 L46,222 L46,203 L29,203 L29,116 L14,116 L14,185 L0,185 L0,221 L23,221 L23,239 L-1,239 L-1,222 L-14,222 L-14,239 L-59,239 L-59,217 L-74,217 L-74,132 L-60,132 L-60,115 L-45,115 L-45,82 L-30,82 L-30,51 L-13,51 L-13,2 L0,2 Z " fill="#603381" transform="translate(138,175)"/>
<path d="M0,0 L24,0 L24,32 L57,32 L57,99 L40,99 L40,115 L46,115 L46,203 L29,203 L29,116 L14,116 L14,185 L0,185 L0,221 L23,221 L23,239 L-1,239 L-1,222 L-14,222 L-14,239 L-59,239 L-59,217 L-74,217 L-74,132 L-60,132 L-60,115 L-45,115 L-45,82 L-30,82 L-30,51 L-13,51 L-13,2 L0,2 Z " fill="#46236E" transform="translate(138,175)"/>
<path d="M0,0 L80,0 L80,17 L96,17 L96,34 L144,34 L144,17 L162,17 L162,0 L236,0 L236,17 L250,17 L250,67 L261,66 L266,67 L266,93 L284,93 L284,152 L264,152 L264,169 L249,169 L249,208 L265,208 L265,228 L280,228 L280,298 L266,298 L265,317 L300,317 L300,361 L180,361 L180,347 L112,347 L112,345 L181,345 L181,359 L298,359 L298,319 L264,319 L263,318 L263,300 L264,295 L278,295 L278,230 L263,230 L263,210 L248,210 L247,209 L247,169 L233,169 L233,322 L251,322 L251,323 L232,323 L232,168 L248,168 L248,150 L263,150 L263,134 L28,134 L28,118 L266,118 L266,101 L248,101 L248,68 L234,68 L234,83 L196,83 L196,36 L217,36 L217,53 L234,53 L234,19 L163,18 L163,54 L95,54 L95,36 L78,36 L78,19 L11,19 L11,68 L-14,68 L-14,103 L-15,103 L-15,68 L-27,68 L-27,105 L-42,105 L-42,138 L-43,139 L-56,139 L-56,169 L-72,169 L-72,202 L-73,203 L-88,203 L-88,230 L-104,230 L-104,229 L-99,228 L-90,228 L-90,201 L-74,201 L-74,167 L-59,167 L-59,137 L-44,137 L-44,103 L-29,103 L-29,66 L-14,66 L-14,17 L0,17 Z " fill="#01091D" transform="translate(151,73)"/>
<path d="M0,0 L71,0 L72,1 L72,18 L71,19 L54,19 L33,18 L33,65 L71,65 L71,50 L85,50 L85,83 L103,83 L103,100 L-135,100 L-135,83 L-151,83 L-151,18 L-136,18 L-136,67 L-85,67 L-85,18 L-68,18 L-68,36 L0,36 Z " fill="#603381" transform="translate(314,91)"/>
<path d="M0,0 L35,0 L36,1 L36,17 L52,17 L52,34 L64,34 L64,18 L77,18 L77,1 L101,1 L101,18 L115,18 L115,50 L101,50 L101,69 L85,69 L85,87 L69,87 L69,106 L35,106 L35,87 L18,87 L18,69 L2,69 L2,50 L-15,50 L-15,18 L0,18 Z " fill="#F3BB27" transform="translate(248,271)"/>
<path d="M0,0 L16,0 L16,155 L35,155 L35,172 L-1,172 L-1,156 L-18,156 L-18,138 L-36,138 L-36,156 L-106,156 L-106,137 L-134,137 L-134,80 L-117,80 L-117,99 L-101,99 L-101,117 L-84,117 L-84,136 L-50,136 L-50,117 L-34,117 L-34,99 L-18,99 L-18,80 L-4,80 L-4,48 L-18,48 L-18,30 L-3,30 L-3,80 L15,80 L15,17 L0,17 Z " fill="#42226B" transform="translate(367,241)"/>
<path d="M0,0 L67,0 L67,66 L16,66 L16,17 L1,17 L1,82 L17,82 L17,115 L0,115 L0,83 L-24,83 L-24,49 L0,49 Z M53,18 L53,34 L66,34 L66,18 Z " fill="#3C2066" transform="translate(162,92)"/>
<path d="M0,0 L50,0 L50,49 L0,49 Z M36,1 L36,17 L49,17 L49,1 Z " fill="#010A20" transform="translate(179,109)"/>
<path d="M0,0 L36,0 L36,22 L76,22 L76,40 L64,40 L64,56 L52,56 L52,39 L36,39 L35,23 L0,22 Z " fill="#41206B" transform="translate(248,249)"/>
<path d="M0,0 L512,0 L512,512 L511,512 L511,1 L1,1 L1,512 L0,512 Z " fill="#49474E" transform="translate(0,0)"/>
<path d="M0,0 L71,0 L72,1 L72,18 L71,19 L54,19 L33,18 L33,65 L71,65 L71,66 L32,66 L32,18 L0,18 Z " fill="#3C1F65" transform="translate(314,91)"/>
<path d="M0,0 L15,0 L15,67 L0,67 Z " fill="#4F2975" transform="translate(399,307)"/>
<path d="M0,0 L35,0 L36,1 L36,17 L52,17 L52,34 L36,34 L36,18 L0,18 Z " fill="#E19D1E" transform="translate(248,271)"/>
<path d="M0,0 L31,0 L31,16 L16,16 L16,34 L0,34 Z " fill="#43226C" transform="translate(383,207)"/>
<path d="M0,0 L24,0 L24,22 L0,22 Z " fill="#3F1F6A" transform="translate(325,249)"/>
<path d="M0,0 L14,0 L14,32 L0,32 Z " fill="#E3A01D" transform="translate(349,289)"/>
<path d="M0,0 L24,0 L24,17 L0,17 Z " fill="#E8A21A" transform="translate(325,272)"/>
<path d="M0,0 L14,0 L14,28 L0,28 Z " fill="#341B5F" transform="translate(189,331)"/>
<path d="M0,0 L19,0 L19,19 L0,19 Z " fill="#41216B" transform="translate(184,378)"/>
<path d="M0,0 L35,0 L35,19 L18,19 L18,1 L0,1 Z " fill="#2C1854" transform="translate(331,378)"/>
<path d="M0,0 L16,0 L16,21 L0,21 Z " fill="#321B5D" transform="translate(367,358)"/>
<path d="M0,0 L16,0 L16,21 L0,21 Z " fill="#361C60" transform="translate(215,223)"/>
<path d="M0,0 L33,0 L33,18 L16,18 L16,1 L0,1 Z " fill="#44236C" transform="translate(216,396)"/>
<path d="M0,0 L16,0 L16,19 L0,19 Z " fill="#E7A31C" transform="translate(333,321)"/>
<path d="M0,0 L16,0 L16,19 L0,19 Z " fill="#E39F1C" transform="translate(250,321)"/>
<path d="M0,0 L16,0 L16,18 L0,18 Z " fill="#E7A21C" transform="translate(317,340)"/>
<path d="M0,0 L16,0 L16,16 L0,16 Z " fill="#653687" transform="translate(386,397)"/>
<path d="M0,0 L15,0 L15,17 L0,17 Z " fill="#613483" transform="translate(417,396)"/>
<path d="M0,0 L15,0 L15,17 L0,17 Z " fill="#44236C" transform="translate(399,307)"/>
<path d="M0,0 L15,0 L15,17 L0,17 Z " fill="#3E1F69" transform="translate(233,272)"/>
<path d="M0,0 L15,0 L15,17 L0,17 Z " fill="#361C61" transform="translate(179,257)"/>
<path d="M0,0 L14,0 L14,18 L0,18 Z " fill="#01091D" transform="translate(284,156)"/>
<path d="M0,0 L14,0 L14,17 L0,17 Z " fill="#030A1E" transform="translate(323,157)"/>
<path d="M0,0 L14,0 L14,16 L0,16 Z " fill="#371C62" transform="translate(124,325)"/>
<path d="M0,0 L14,0 L14,15 L0,15 Z " fill="#41226C" transform="translate(385,141)"/>
<path d="M0,0 L13,0 L13,16 L0,16 Z " fill="#E6A21C" transform="translate(312,289)"/>
</svg>
