<?xml version="1.0" encoding="UTF-8"?>
<!-- Generator: https://ezgif.com/png-to-svg -->
<svg version="1.1" xmlns="http://www.w3.org/2000/svg" width="512" height="512">
<path d="M0,0 L66,0 L66,16 L84,16 L84,33 L143,33 L143,16 L159,16 L159,0 L224,0 L224,16 L240,16 L240,34 L255,34 L255,97 L270,97 L270,147 L255,147 L255,162 L240,162 L240,200 L255,200 L255,223 L270,223 L270,288 L255,288 L255,302 L285,302 L285,332 L270,332 L270,336 L177,336 L177,319 L99,319 L99,336 L-60,337 L-60,319 L-76,319 L-76,288 L-91,288 L-91,176 L-75,176 L-75,144 L-60,144 L-60,113 L-45,113 L-45,82 L-31,82 L-31,33 L-16,33 L-16,16 L0,16 Z M35,35 L35,49 L49,49 L49,35 Z M209,35 L209,49 L222,49 L222,37 L220,35 Z " fill="#4BB030" transform="translate(156,78)"/>
<path d="M0,0 L66,0 L66,16 L84,16 L84,33 L143,33 L143,16 L159,16 L159,0 L224,0 L224,16 L240,16 L240,34 L255,34 L255,97 L270,97 L270,147 L255,147 L255,162 L240,162 L240,200 L255,200 L255,223 L270,223 L270,288 L254,288 L239,287 L239,272 L254,272 L254,224 L239,224 L239,210 L223,210 L223,161 L239,161 L239,146 L1,146 L0,133 L0,141 L-29,141 L-29,145 L-15,145 L-15,143 L-28,143 L-28,142 L0,142 L0,146 L-59,146 L-59,176 L-75,176 L-75,144 L-60,144 L-60,113 L-45,113 L-45,82 L-31,82 L-31,33 L-16,33 L-16,16 L0,16 Z M35,35 L35,49 L49,49 L49,35 Z M209,35 L209,49 L222,49 L222,37 L220,35 Z " fill="#3A992C" transform="translate(156,78)"/>
<path d="M0,0 L16,0 L16,111 L32,111 L32,143 L61,143 L61,127 L77,127 L77,143 L92,143 L92,111 L61,111 L61,96 L77,96 L77,34 L61,34 L61,17 L108,17 L108,96 L141,96 L141,48 L157,48 L157,111 L173,111 L173,126 L156,126 L156,115 L134,115 L134,112 L125,111 L125,142 L157,142 L173,143 L173,127 L268,127 L268,111 L284,111 L284,96 L299,96 L299,48 L314,48 L314,111 L299,111 L299,126 L283,126 L283,143 L360,143 L360,126 L376,126 L376,156 L361,156 L361,160 L268,160 L268,143 L190,143 L190,160 L31,161 L31,143 L15,143 L15,112 L0,112 Z " fill="#06290C" transform="translate(65,254)"/>
<path d="M0,0 L66,0 L66,16 L84,16 L84,33 L143,33 L143,16 L159,16 L159,0 L224,0 L224,16 L240,16 L240,34 L255,34 L255,97 L270,97 L270,147 L255,147 L255,162 L240,162 L240,200 L255,200 L255,223 L270,223 L270,288 L254,288 L239,287 L239,272 L254,272 L254,224 L239,224 L239,210 L223,210 L223,161 L239,161 L239,146 L254,146 L254,98 L239,98 L239,35 L223,35 L223,18 L192,18 L192,34 L208,34 L209,35 L209,49 L223,49 L223,98 L192,98 L192,35 L177,35 L177,39 L191,39 L191,79 L177,79 L177,114 L161,114 L161,98 L167,97 L167,94 L163,94 L163,92 L155,92 L155,91 L163,91 L163,80 L164,83 L167,83 L167,80 L169,81 L168,83 L176,83 L176,79 L167,79 L167,78 L149,77 L149,76 L176,76 L176,72 L173,72 L173,75 L167,75 L167,73 L164,71 L172,71 L173,69 L173,71 L176,71 L176,67 L82,67 L82,35 L66,35 L66,17 L1,17 L1,35 L-14,35 L-14,83 L-30,83 L-30,114 L-44,114 L-44,146 L-59,146 L-59,176 L-75,176 L-75,144 L-60,144 L-60,113 L-45,113 L-45,82 L-31,82 L-31,33 L-16,33 L-16,16 L0,16 Z " fill="#06270B" transform="translate(156,78)"/>
<path d="M0,0 L142,0 L142,79 L127,79 L127,94 L111,94 L111,110 L16,110 L16,126 L0,126 L-32,125 L-32,94 L-18,94 L-18,95 L-23,95 L-23,98 L-1,98 L-1,109 L16,109 L16,94 L0,94 Z " fill="#80D438" transform="translate(222,271)"/>
<path d="M0,0 L31,0 L31,17 L47,17 L47,80 L62,80 L62,111 L-191,111 L-191,110 L-159,110 L-159,107 L-191,107 L-191,106 L-91,106 L-91,100 L-104,100 L-104,96 L-108,95 L-94,95 L-94,96 L-103,96 L-103,99 L-91,99 L-90,89 L-81,89 L-94,88 L-94,86 L-103,86 L-103,85 L-90,84 L-90,83 L-78,82 L-104,82 L-104,88 L-158,88 L-158,85 L-126,85 L-126,74 L-117,73 L-117,72 L-112,72 L-112,66 L-118,65 L-142,65 L-143,31 L-143,17 L-110,17 L-110,49 L-16,49 L-16,53 L-20,54 L-20,55 L-25,55 L-25,57 L-19,57 L-19,54 L-16,54 L-16,65 L-24,65 L-25,62 L-25,65 L-28,65 L-29,76 L-25,76 L-25,79 L-16,79 L-16,80 L-31,80 L-31,96 L-15,96 L-15,59 L-1,59 L-1,48 L-15,48 L-15,47 L-1,47 L-1,41 L-15,41 L-15,40 L-1,40 L-1,34 L-15,34 L-15,29 L-1,29 L-1,23 L-15,23 L-15,17 L0,17 L0,80 L31,80 L30,31 L29,21 L28,17 L16,17 L0,16 Z " fill="#49AF30" transform="translate(348,96)"/>
<path d="M0,0 L15,0 L15,31 L45,31 L45,47 L29,47 L29,64 L45,64 L45,126 L29,126 L29,141 L60,141 L60,173 L45,173 L45,157 L29,157 L29,173 L0,173 L0,141 L-16,141 L-16,30 L0,30 Z " fill="#227926" transform="translate(97,224)"/>
<path d="M0,0 L222,0 L222,15 L191,15 L191,30 L17,30 L17,15 L0,15 Z " fill="#80D439" transform="translate(173,224)"/>
<path d="M0,0 L47,0 L47,79 L80,79 L80,31 L96,31 L96,94 L112,94 L112,109 L95,109 L95,98 L73,98 L73,95 L64,94 L64,125 L96,125 L96,126 L47,126 L47,94 L0,94 L0,79 L16,79 L16,17 L0,17 Z " fill="#227926" transform="translate(126,271)"/>
<path d="M0,0 L63,0 L63,1 L32,1 L32,17 L48,17 L49,18 L49,32 L63,32 L63,81 L32,81 L32,18 L17,18 L17,22 L31,22 L31,62 L17,62 L17,97 L1,97 L1,81 L7,80 L7,77 L3,77 L3,75 L-5,75 L-5,74 L3,74 L3,63 L4,66 L7,66 L7,63 L9,64 L8,66 L16,66 L16,62 L7,62 L7,61 L-11,60 L-11,59 L16,59 L16,55 L13,55 L13,58 L7,58 L7,56 L4,54 L12,54 L13,52 L13,54 L16,54 L16,50 L-78,50 L-78,18 L-77,18 L-77,34 L0,34 Z " fill="#34932B" transform="translate(316,95)"/>
<path d="M0,0 L15,0 L15,33 L31,33 L31,47 L46,47 L46,95 L31,95 L31,110 L46,110 L47,111 L47,125 L61,125 L61,142 L-16,142 L-16,125 L0,125 L0,110 L15,110 L15,47 L0,47 Z " fill="#3B9E2D" transform="translate(364,255)"/>
<path d="M0,0 L43,0 L43,17 L28,17 L28,46 L13,46 L13,62 L-66,62 L-66,46 L-81,46 L-81,41 L-67,41 L-67,45 L-63,45 L-63,57 L-65,57 L-65,61 L-31,61 L-32,58 L-62,57 L-62,56 L-44,55 L-44,54 L-19,54 L-18,54 L-9,53 L-9,43 L-23,42 L-23,31 L-24,32 L-24,42 L-10,43 L-10,44 L-24,45 L-24,53 L-62,53 L-62,44 L-66,43 L-66,23 L-1,23 L0,23 L0,21 L8,20 L0,20 L0,5 L8,4 L0,4 Z " fill="#82D639" transform="translate(320,303)"/>
<path d="M0,0 L16,0 L16,15 L32,15 L32,30 L111,30 L111,46 L16,46 L16,62 L0,62 L-32,61 L-32,30 L-18,30 L-18,31 L-23,31 L-23,34 L-1,34 L-1,45 L16,45 L16,30 L0,30 Z " fill="#4AAF30" transform="translate(222,335)"/>
<path d="M0,0 L14,0 L14,1 L1,1 L1,5 L59,5 L59,15 L29,16 L29,17 L1,17 L1,23 L14,23 L14,28 L1,28 L1,34 L14,34 L14,44 L1,44 L1,48 L14,48 L14,49 L2,50 L14,51 L14,65 L1,65 L1,69 L14,69 L14,70 L58,71 L58,66 L30,66 L30,47 L15,47 L15,33 L59,33 L59,94 L45,94 L45,87 L58,87 L58,83 L30,83 L30,82 L15,81 L14,82 L14,88 L19,89 L19,90 L44,91 L44,92 L19,93 L19,94 L0,94 Z " fill="#26852A" transform="translate(82,255)"/>
<path d="M0,0 L31,0 L31,94 L0,94 L0,79 L16,79 L16,17 L0,17 Z " fill="#062B0D" transform="translate(126,271)"/>
<path d="M0,0 L17,0 L17,14 L31,14 L31,63 L0,63 Z " fill="#072A0D" transform="translate(174,113)"/>
<path d="M0,0 L16,0 L16,14 L30,14 L30,63 L0,63 Z " fill="#072B0D" transform="translate(349,113)"/>
<path d="M0,0 L14,0 L14,1 L9,1 L9,4 L31,4 L31,15 L48,15 L48,0 L49,0 L49,15 L127,15 L127,0 L143,0 L143,16 L48,16 L48,32 L32,32 L0,31 Z " fill="#298529" transform="translate(190,365)"/>
<path d="M0,0 L15,0 L15,63 L0,63 L0,79 L-16,79 L-16,48 L0,48 Z " fill="#227A27" transform="translate(142,113)"/>
<path d="M0,0 L16,0 L16,63 L32,63 L32,78 L15,78 L15,63 L0,63 Z " fill="#092D0E" transform="translate(206,302)"/>
<path d="M0,0 L44,0 L44,32 L15,32 L15,14 L0,14 Z " fill="#4AB031" transform="translate(97,288)"/>
<path d="M0,0 L15,0 L15,16 L31,16 L31,31 L61,31 L61,32 L-16,32 L-16,15 L0,15 Z " fill="#278328" transform="translate(364,365)"/>
<path d="M0,0 L17,0 L17,48 L1,48 L0,14 Z " fill="#81D53A" transform="translate(205,113)"/>
<path d="M0,0 L16,0 L16,30 L1,30 L1,45 L-15,45 L-15,29 L0,29 Z " fill="#4EB131" transform="translate(348,320)"/>
<path d="M0,0 L15,0 L15,15 L16,13 L31,13 L31,16 L21,16 L21,19 L29,19 L29,20 L21,20 L21,25 L20,25 L20,20 L12,21 L11,26 L-27,26 L-27,16 L-9,16 L-9,19 L11,19 L12,17 L12,19 L20,19 L20,16 L0,16 Z " fill="#47AC2F" transform="translate(285,176)"/>
<path d="M0,0 L17,0 L17,31 L49,31 L49,32 L0,32 Z " fill="#196321" transform="translate(173,365)"/>
<path d="M0,0 L14,0 L14,32 L0,32 Z " fill="#248128" transform="translate(112,192)"/>
<path d="M0,0 L15,0 L15,2 L56,2 L56,6 L9,6 L8,4 L8,6 L32,7 L32,8 L0,8 Z " fill="#248028" transform="translate(174,210)"/>
<path d="M0,0 L16,0 L16,17 L0,17 Z " fill="#082C0D" transform="translate(157,207)"/>
<path d="M0,0 L16,0 L16,16 L0,16 Z " fill="#0A2E0E" transform="translate(317,176)"/>
<path d="M0,0 L15,0 L15,16 L0,16 Z " fill="#46AA30" transform="translate(142,381)"/>
<path d="M0,0 L16,0 L16,15 L0,15 Z " fill="#49B031" transform="translate(221,381)"/>
<path d="M0,0 L15,0 L15,16 L0,16 Z " fill="#082A0D" transform="translate(285,176)"/>
<path d="M0,0 L16,0 L16,15 L0,15 Z " fill="#298728" transform="translate(379,161)"/>
<path d="M0,0 L15,0 L16,1 L16,15 L0,15 Z " fill="#258128" transform="translate(395,365)"/>
<path d="M0,0 L15,0 L15,15 L0,15 Z " fill="#2A8A29" transform="translate(349,335)"/>
</svg>
