<?xml version="1.0" encoding="UTF-8"?>
<!-- Generator: https://ezgif.com/png-to-svg -->
<svg version="1.1" xmlns="http://www.w3.org/2000/svg" width="512" height="512">
<path d="M0,0 L78,0 L78,18 L93,18 L93,70 L109,70 L109,144 L91,144 L91,158 L74,158 L74,190 L91,190 L91,230 L107,230 L108,231 L108,310 L127,310 L127,354 L17,354 L17,336 L-49,336 L-49,354 L-250,354 L-250,302 L-265,302 L-265,227 L-250,227 L-250,190 L-232,190 L-233,148 L-215,148 L-215,104 L-199,104 L-199,70 L-182,70 L-182,19 L-164,19 L-164,1 L-72,1 L-72,19 L-64,19 L-64,40 L-15,40 L-15,18 L0,18 Z " fill="#1E1914" transform="translate(314,76)"/>
<path d="M0,0 L71,0 L71,52 L87,52 L87,106 L-130,106 L-130,138 L-114,138 L-114,171 L-97,171 L-97,213 L-98,297 L-70,297 L-70,316 L-149,316 L-149,274 L-166,274 L-166,213 L-184,213 L-184,275 L-202,275 L-202,290 L-217,290 L-217,298 L-169,298 L-169,316 L-217,316 L-234,315 L-234,275 L-250,275 L-250,213 L-185,213 L-185,195 L-235,195 L-235,171 L-217,171 L-217,135 L-201,135 L-201,85 L-185,85 L-185,52 L-167,52 L-167,1 L-85,1 L-85,41 L0,41 Z " fill="#E14E1D" transform="translate(318,96)"/>
<path d="M0,0 L199,0 L199,15 L182,15 L182,91 L165,91 L165,152 L150,152 L150,170 L132,170 L132,174 L89,175 L73,175 L73,168 L50,168 L50,91 L33,91 L33,49 L16,49 L16,16 L0,16 Z " fill="#51D572" transform="translate(188,218)"/>
<path d="M0,0 L17,0 L18,101 L18,170 L36,170 L36,195 L18,195 L18,239 L35,239 L35,263 L18,263 L18,273 L1,273 L1,212 L-17,212 L-17,274 L-35,274 L-35,289 L-50,289 L-50,297 L-2,297 L-2,315 L-50,315 L-67,314 L-67,274 L-83,274 L-83,212 L-18,212 L-18,194 L-68,194 L-68,170 L-50,170 L-50,134 L-34,134 L-34,84 L-18,84 L-18,51 L0,51 Z " fill="#AD2E0F" transform="translate(151,97)"/>
<path d="M0,0 L17,0 L17,42 L34,42 L34,127 L55,127 L55,144 L-17,144 L-17,104 L0,104 Z " fill="#B63311" transform="translate(370,267)"/>
<path d="M0,0 L199,0 L199,15 L17,15 L17,49 L16,49 L16,16 L0,16 Z " fill="#37A855" transform="translate(188,218)"/>
<path d="M0,0 L1,0 L1,43 L23,43 L23,61 L100,61 L100,79 L82,79 L82,83 L39,84 L23,84 L23,77 L0,77 Z " fill="#37AE59" transform="translate(238,309)"/>
<path d="M0,0 L49,0 L49,61 L31,62 L17,62 L17,42 L33,42 L33,21 L0,21 Z " fill="#DB4819" transform="translate(84,309)"/>
<path d="M0,0 L18,0 L19,20 L37,21 L37,53 L0,53 Z " fill="#231D17" transform="translate(338,114)"/>
<path d="M0,0 L18,0 L18,21 L37,21 L37,53 L0,53 Z " fill="#221D18" transform="translate(185,114)"/>
<path d="M0,0 L15,0 L15,84 L0,84 Z " fill="#B4310F" transform="translate(205,309)"/>
<path d="M0,0 L16,0 L16,62 L0,62 Z " fill="#96230C" transform="translate(68,309)"/>
<path d="M0,0 L34,0 L55,1 L55,18 L0,18 Z " fill="#D74819" transform="translate(370,393)"/>
<path d="M0,0 L17,0 L17,51 L0,51 Z " fill="#241C16" transform="translate(134,97)"/>
<path d="M0,0 L47,0 L47,16 L0,16 Z " fill="#DC4919" transform="translate(101,395)"/>
<path d="M0,0 L17,0 L17,40 L0,40 Z " fill="#97230B" transform="translate(353,371)"/>
<path d="M0,0 L15,0 L15,41 L0,41 Z " fill="#DF4B1B" transform="translate(371,268)"/>
<path d="M0,0 L17,0 L16,34 L0,34 Z " fill="#1F1F17" transform="translate(370,233)"/>
<path d="M0,0 L18,0 L18,22 L78,22 L78,4 L79,4 L79,23 L0,23 Z " fill="#B13411" transform="translate(169,389)"/>
<path d="M0,0 L18,0 L18,24 L0,24 Z " fill="#95230C" transform="translate(83,267)"/>
<path d="M0,0 L17,0 L17,22 L0,22 Z " fill="#99230B" transform="translate(387,371)"/>
<path d="M0,0 L18,0 L18,20 L0,20 Z " fill="#F0EFEE" transform="translate(357,114)"/>
<path d="M0,0 L18,0 L18,20 L0,20 Z " fill="#F1F0EF" transform="translate(204,114)"/>
<path d="M0,0 L17,0 L17,21 L0,21 Z " fill="#DD4B1A" transform="translate(387,309)"/>
<path d="M0,0 L17,0 L17,20 L0,20 Z " fill="#96230B" transform="translate(151,198)"/>
<path d="M0,0 L17,0 L17,18 L0,18 Z " fill="#DB4819" transform="translate(387,352)"/>
<path d="M0,0 L16,0 L16,19 L0,19 Z " fill="#B73311" transform="translate(389,148)"/>
<path d="M0,0 L15,0 L15,18 L0,18 Z " fill="#39B65C" transform="translate(338,352)"/>
<path d="M0,0 L18,0 L18,14 L0,14 Z " fill="#BB3612" transform="translate(338,167)"/>
<path d="M0,0 L13,0 L13,14 L0,14 Z " fill="#231A15" transform="translate(261,167)"/>
<path d="M0,0 L13,0 L13,14 L0,14 Z " fill="#211915" transform="translate(303,167)"/>
<path d="M0,0 L9,0 L15,1 L15,56 L14,56 L14,24 L-4,24 L-5,23 L-5,3 L-23,3 L-21,1 Z M-4,3 L-4,23 L14,23 L14,3 Z " fill="#BB5838" transform="translate(361,111)"/>
<path d="M0,0 L72,1 L72,2 L2,2 L2,43 L0,42 Z " fill="#512D19" transform="translate(316,94)"/>
</svg>
