<?xml version="1.0" encoding="UTF-8"?>
<!-- Generator: https://ezgif.com/png-to-svg -->
<svg version="1.1" xmlns="http://www.w3.org/2000/svg" width="512" height="512">
<path d="M0,0 L72,0 L72,15 L87,15 L87,31 L146,31 L146,15 L162,15 L162,0 L230,0 L230,15 L246,15 L246,80 L261,80 L262,84 L261,96 L278,96 L278,140 L262,141 L262,154 L261,155 L246,155 L246,211 L261,211 L262,215 L261,228 L278,228 L278,279 L261,279 L262,281 L262,296 L261,297 L246,297 L246,312 L307,312 L307,360 L175,360 L175,333 L176,329 L103,329 L103,360 L-79,360 L-79,329 L-95,329 L-95,314 L-110,314 L-111,228 L-95,228 L-95,209 L-79,209 L-79,173 L-62,173 L-62,138 L-46,138 L-46,107 L-31,107 L-31,64 L-15,64 L-15,15 L0,15 Z " fill="#277C32" transform="translate(155,71)"/>
<path d="M0,0 L72,0 L72,15 L87,15 L87,31 L146,31 L146,15 L162,15 L162,0 L230,0 L230,15 L246,15 L246,80 L261,80 L262,84 L261,96 L278,96 L278,140 L262,141 L262,154 L261,155 L246,155 L246,211 L261,211 L262,215 L261,228 L278,228 L278,279 L261,279 L262,281 L262,296 L261,297 L246,297 L246,312 L307,312 L307,360 L175,360 L175,333 L176,329 L103,329 L103,360 L-79,360 L-79,329 L-95,329 L-95,314 L-110,314 L-111,228 L-95,228 L-95,209 L-79,209 L-79,173 L-62,173 L-62,138 L-46,138 L-46,107 L-31,107 L-31,64 L-15,64 L-15,15 L0,15 Z M1,17 L1,65 L-14,65 L-14,108 L-30,108 L-30,139 L-45,139 L-45,174 L-61,174 L-61,210 L-30,211 L-12,219 L1,219 L1,313 L16,313 L16,344 L86,344 L86,328 L58,328 L58,212 L71,212 L71,313 L186,313 L191,284 L191,279 L201,279 L203,273 L204,264 L204,255 L210,255 L210,329 L229,329 L229,344 L261,344 L261,328 L230,328 L230,187 L228,154 L245,154 L245,139 L32,139 L32,124 L261,124 L261,97 L230,97 L230,81 L197,81 L197,32 L212,32 L212,50 L230,50 L230,17 L163,17 L163,48 L86,48 L86,32 L72,32 L72,17 Z " fill="#011715" transform="translate(155,71)"/>
<path d="M0,0 L204,0 L204,14 L187,14 L189,47 L189,188 L220,188 L220,204 L188,204 L188,189 L169,189 L169,115 L163,115 L163,124 L161,138 L160,139 L150,139 L149,151 L145,173 L30,173 L30,13 L0,13 Z " fill="#E27F11" transform="translate(196,211)"/>
<path d="M0,0 L72,0 L72,15 L87,15 L87,31 L146,31 L146,15 L162,15 L162,0 L230,0 L230,15 L246,15 L246,80 L261,80 L262,84 L261,96 L278,96 L278,140 L262,141 L262,154 L261,155 L246,155 L246,139 L32,139 L32,124 L261,124 L261,97 L230,97 L230,81 L197,81 L197,32 L212,32 L212,50 L230,50 L230,17 L163,17 L163,48 L86,48 L86,32 L72,32 L72,17 L1,17 L1,65 L-14,65 L-14,108 L-30,108 L-30,139 L-45,139 L-45,174 L-61,174 L-61,210 L-32,210 L-32,211 L-62,211 L-63,210 L-63,176 L-76,176 L-76,209 L-78,211 L-93,211 L-94,313 L-78,313 L-77,328 L-77,358 L101,358 L101,327 L177,327 L176,329 L103,329 L103,360 L-79,360 L-79,329 L-95,329 L-95,314 L-110,314 L-111,228 L-95,228 L-95,209 L-79,209 L-79,173 L-62,173 L-62,138 L-46,138 L-46,107 L-31,107 L-31,64 L-15,64 L-15,15 L0,15 Z " fill="#011413" transform="translate(155,71)"/>
<path d="M0,0 L55,0 L55,15 L69,15 L69,31 L146,31 L146,0 L213,0 L213,33 L195,33 L195,15 L180,15 L180,64 L213,64 L213,80 L243,80 L243,106 L25,106 L25,93 L47,92 L60,88 L65,84 L66,77 L64,75 L54,75 L39,82 L25,82 L25,64 L54,64 L54,42 L37,42 L37,15 L0,15 Z " fill="#75BC30" transform="translate(172,88)"/>
<path d="M0,0 L226,0 L226,1 L22,1 L22,14 L52,14 L52,73 L39,73 L39,189 L67,189 L67,205 L22,205 L22,189 L13,189 L13,157 L-4,157 L-5,151 L-5,42 L5,41 L7,38 L6,28 L0,18 Z " fill="#75BA31" transform="translate(174,210)"/>
<path d="M0,0 L79,0 L80,1 L80,51 L71,85 L38,85 L38,100 L95,100 L95,116 L33,116 L33,100 L16,100 L16,85 L0,85 Z " fill="#206E30" transform="translate(61,299)"/>
<path d="M0,0 L41,0 L50,10 L58,15 L68,18 L86,18 L99,14 L105,10 L112,2 L113,0 L137,0 L135,19 L134,20 L118,20 L117,28 L113,34 L105,38 L89,41 L63,41 L48,38 L40,32 L35,26 L35,23 L15,23 L15,76 L117,76 L117,84 L115,94 L0,94 Z " fill="#E58C12" transform="translate(226,290)"/>
<path d="M0,0 L204,0 L204,14 L187,14 L187,30 L30,30 L30,13 L0,13 Z " fill="#EAA215" transform="translate(196,211)"/>
<path d="M0,0 L1,4 L-2,35 L-4,41 L-14,41 L-15,53 L-16,57 L-119,57 L-119,4 L-99,4 L-96,10 L-88,17 L-76,20 L-71,21 L-45,21 L-29,18 L-21,14 L-17,6 L-16,1 Z " fill="#F2B71A" transform="translate(360,309)"/>
<path d="M0,0 L19,0 L20,17 L20,158 L51,158 L51,174 L19,174 L19,159 L0,159 L0,85 L-5,85 L-5,72 L-1,32 Z " fill="#29792F" transform="translate(365,241)"/>
<path d="M0,0 L21,0 L21,18 L42,18 L46,25 L56,32 L65,35 L91,35 L103,30 L108,25 L111,21 L114,13 L115,7 L139,7 L139,22 L137,39 L113,39 L111,44 L103,52 L91,57 L86,58 L68,58 L56,54 L48,48 L41,40 L0,39 Z " fill="#F1BC1E" transform="translate(226,251)"/>
<path d="M0,0 L204,0 L204,14 L0,13 Z " fill="#DFCC5E" transform="translate(196,211)"/>
<path d="M0,0 L15,0 L15,31 L117,31 L117,39 L115,49 L0,49 Z " fill="#CF460C" transform="translate(226,335)"/>
<path d="M0,0 L47,0 L47,50 L0,50 L0,32 L-16,32 L-16,20 L0,20 Z " fill="#76BC30" transform="translate(94,300)"/>
<path d="M0,0 L12,0 L24,11 L31,16 L93,17 L93,4 L97,0 L117,0 L117,9 L115,15 L105,15 L104,27 L103,31 L0,31 Z " fill="#E28310" transform="translate(241,335)"/>
<path d="M0,0 L37,0 L37,26 L54,26 L54,48 L0,48 Z " fill="#011716" transform="translate(172,104)"/>
<path d="M0,0 L19,0 L19,85 L-5,85 L-5,72 L-1,32 Z " fill="#75BC30" transform="translate(365,241)"/>
<path d="M0,0 L1,0 L1,116 L29,116 L29,132 L0,132 L-1,80 L-6,83 L-15,83 L-25,79 L-29,74 L-30,65 L-26,59 L-18,55 L-1,55 Z " fill="#277C32" transform="translate(212,283)"/>
<path d="M0,0 L54,0 L54,42 L37,42 L37,15 L0,15 Z " fill="#71BC30" transform="translate(172,88)"/>
<path d="M0,0 L1,0 L1,15 L15,15 L15,31 L92,31 L100,38 L106,45 L107,47 L107,54 L105,56 L98,56 L83,41 L76,33 L66,33 L75,46 L76,48 L76,54 L73,57 L67,57 L57,48 L48,39 L43,33 L0,32 Z " fill="#2A7A30" transform="translate(226,88)"/>
<path d="M0,0 L18,0 L18,33 L37,33 L37,48 L0,48 Z " fill="#0D452B" transform="translate(347,367)"/>
<path d="M0,0 L7,0 L11,4 L11,15 L7,26 L1,34 L-8,40 L-16,40 L-20,36 L-20,22 L-14,10 L-5,2 Z " fill="#0D412A" transform="translate(160,165)"/>
<path d="M0,0 L7,0 L12,4 L14,8 L14,22 L10,30 L3,37 L-1,39 L-8,39 L-12,37 L-15,31 L-15,17 L-10,8 L-2,1 Z " fill="#247831" transform="translate(186,275)"/>
<path d="M0,0 L15,0 L15,49 L0,49 Z " fill="#77BD2F" transform="translate(400,300)"/>
<path d="M0,0 L7,1 L10,5 L10,14 L7,23 L3,29 L-4,35 L-12,35 L-16,31 L-16,14 L-12,8 L-5,2 Z " fill="#0E452B" transform="translate(130,226)"/>
<path d="M0,0 L2,1 L6,10 L11,14 L13,16 L12,54 L-1,54 L-1,1 Z " fill="#45992F" transform="translate(157,236)"/>
<path d="M0,0 L1,0 L1,116 L29,116 L29,132 L0,132 Z " fill="#2E7129" transform="translate(212,283)"/>
<path d="M0,0 L7,1 L14,8 L19,17 L20,27 L17,31 L8,31 L2,27 L-2,22 L-4,16 L-4,4 Z " fill="#17562E" transform="translate(162,221)"/>
<path d="M0,0 L7,0 L13,3 L19,10 L19,18 L14,23 L12,24 L2,24 L-4,20 L-7,16 L-8,8 L-2,1 Z " fill="#257831" transform="translate(116,308)"/>
<path d="M0,0 L13,0 L15,17 L15,34 L0,34 Z " fill="#114F2C" transform="translate(156,350)"/>
<path d="M0,0 L31,0 L31,15 L0,15 Z " fill="#288233" transform="translate(384,400)"/>
<path d="M0,0 L17,0 L17,27 L0,27 Z " fill="#986C1D" transform="translate(209,103)"/>
<path d="M0,0 L1,0 L1,33 L-17,33 L-17,15 L0,15 Z " fill="#926A1F" transform="translate(384,88)"/>
<path d="M0,0 L16,0 L16,21 L3,21 L-1,18 Z " fill="#104C2C" transform="translate(140,269)"/>
<path d="M0,0 L19,0 L19,17 L0,17 Z " fill="#287D32" transform="translate(365,241)"/>
<path d="M0,0 L16,0 L16,20 L0,20 Z " fill="#257C32" transform="translate(78,300)"/>
<path d="M0,0 L18,0 L18,17 L0,17 Z " fill="#78BF31" transform="translate(366,350)"/>
<path d="M0,0 L1,0 L1,49 L47,49 L47,50 L0,50 L0,32 L-16,32 L-16,20 L0,20 Z " fill="#519E30" transform="translate(94,300)"/>
<path d="M0,0 L15,0 L15,17 L0,17 Z " fill="#2A8132" transform="translate(400,332)"/>
<path d="M0,0 L17,0 L17,15 L0,15 Z " fill="#DACD5F" transform="translate(209,88)"/>
<path d="M0,0 L17,0 L17,15 L0,15 Z " fill="#DBCE5F" transform="translate(367,88)"/>
<path d="M0,0 L15,0 L15,16 L0,16 Z " fill="#73B52E" transform="translate(431,399)"/>
<path d="M0,0 L16,0 L16,15 L0,15 Z " fill="#267F31" transform="translate(318,88)"/>
<path d="M0,0 L17,0 L17,14 L0,14 Z " fill="#0E482B" transform="translate(123,401)"/>
<path d="M0,0 L15,0 L15,15 L0,15 Z " fill="#78C031" transform="translate(400,400)"/>
<path d="M0,0 L15,0 L15,15 L0,15 Z " fill="#388E32" transform="translate(140,400)"/>
<path d="M0,0 L16,0 L16,14 L0,14 Z " fill="#093325" transform="translate(95,350)"/>
<path d="M0,0 L14,0 L14,15 L0,15 Z " fill="#77BF31" transform="translate(226,400)"/>
<path d="M0,0 L1,0 L1,16 L16,16 L16,25 L13,29 L4,29 L0,25 Z " fill="#2C7C2E" transform="translate(384,152)"/>
<path d="M0,0 L13,0 L13,14 L0,14 Z " fill="#061B15" transform="translate(326,154)"/>
<path d="M0,0 L13,0 L13,14 L0,14 Z " fill="#081D16" transform="translate(285,154)"/>
<path d="M0,0 L2,0 L2,36 L-3,36 L-3,23 L-1,4 Z " fill="#307C31" transform="translate(363,290)"/>
<path d="M0,0 L2,1 L2,4 L0,4 L0,18 L-15,18 L-15,17 L-1,17 L-1,2 Z " fill="#233116" transform="translate(415,282)"/>
<path d="M0,0 L2,1 L2,8 L1,8 L0,17 L-3,16 L-1,16 L-1,2 Z " fill="#36401E" transform="translate(415,151)"/>
<path d="M0,0 Z " fill="#4B550D" transform="translate(43,340)"/>
<path d="M0,0 Z " fill="#555B11" transform="translate(92,208)"/>
</svg>
