<?xml version="1.0" encoding="UTF-8"?>
<!-- Generator: https://ezgif.com/png-to-svg -->
<svg version="1.1" xmlns="http://www.w3.org/2000/svg" width="512" height="512">
<path d="M0,0 L93,0 L93,19 L111,19 L111,36 L151,36 L151,19 L167,18 L168,0 L259,0 L259,19 L277,19 L277,106 L302,106 L302,170 L283,170 L283,189 L266,189 L266,230 L250,230 L250,239 L266,239 L266,313 L307,313 L307,364 L189,364 L189,353 L187,352 L104,351 L104,363 L-96,363 L-96,325 L-113,325 L-113,211 L-92,211 L-92,197 L-70,197 L-70,149 L-52,149 L-52,117 L-35,117 L-35,76 L-17,76 L-17,19 L0,19 Z " fill="#333126" transform="translate(157,75)"/>
<path d="M0,0 L92,0 L92,34 L91,35 L168,35 L168,0 L241,0 L242,14 L245,17 L246,21 L240,20 L240,18 L235,19 L235,17 L229,19 L228,16 L225,17 L228,19 L228,21 L241,22 L242,23 L242,55 L237,63 L237,68 L250,68 L248,70 L247,74 L242,75 L242,79 L239,79 L239,82 L228,83 L205,83 L205,85 L231,85 L228,92 L226,93 L226,97 L175,97 L173,95 L172,86 L172,76 L159,76 L159,92 L143,92 L143,85 L158,85 L158,81 L143,81 L143,78 L146,77 L146,73 L142,75 L129,75 L129,94 L139,94 L139,95 L173,96 L173,97 L125,97 L125,100 L223,100 L223,106 L234,106 L234,107 L74,107 L77,106 L78,96 L80,96 L81,92 L40,93 L78,94 L78,95 L13,95 L8,97 L6,104 L-3,108 L-5,108 L-5,114 L4,125 L4,128 L47,129 L48,126 L271,126 L271,108 L256,107 L256,99 L282,99 L282,142 L247,143 L43,143 L43,152 L46,155 L46,157 L143,157 L142,163 L136,178 L134,184 L85,184 L85,191 L89,193 L108,207 L120,216 L121,218 L114,238 L106,259 L105,263 L114,263 L123,256 L141,243 L148,238 L153,239 L171,252 L184,262 L186,263 L195,264 L187,245 L177,221 L177,215 L193,203 L209,190 L210,184 L162,184 L154,164 L153,157 L264,157 L264,168 L248,169 L247,197 L234,197 L234,220 L226,236 L212,263 L202,282 L190,303 L189,317 L103,317 L103,293 L66,293 L66,193 L47,193 L48,303 L57,312 L59,313 L59,325 L17,325 L17,293 L0,293 L-1,219 L-19,201 L-24,196 L-26,194 L-52,193 L-52,130 L-35,130 L-35,99 L-17,99 L-17,75 L0,75 Z " fill="#79735B" transform="translate(158,94)"/>
<path d="M0,0 L1,0 L1,40 L15,41 L16,42 L16,60 L15,61 L-208,61 L-209,63 L-250,63 L-252,62 L-255,57 L-262,48 L-261,42 L-251,38 L-248,31 L-243,28 L-216,28 L-220,26 L-175,26 L-176,30 L-178,30 L-179,40 L-33,40 L-33,34 L-131,34 L-131,31 L-126,30 L-127,28 L-127,9 L-118,8 L-118,7 L-110,7 L-110,11 L-98,11 L-98,25 L-97,26 L-97,10 L-84,10 L-82,29 L-81,30 L-30,31 L-31,26 L-28,26 L-26,20 L-51,19 L-51,18 L-17,17 Z " fill="#78715A" transform="translate(414,160)"/>
<path d="M0,0 L63,0 L77,13 L77,60 L65,72 L57,79 L49,87 L41,94 L35,99 L95,100 L95,118 L82,118 L82,106 L67,106 L67,118 L18,118 L18,81 L0,81 Z " fill="#80795F" transform="translate(62,301)"/>
<path d="M0,0 L218,0 L218,18 L217,19 L0,19 Z " fill="#353428" transform="translate(212,202)"/>
<path d="M0,0 L35,0 L35,1 L17,1 L17,15 L-94,15 L-95,17 L-97,11 L-101,11 L-103,16 L-201,15 L-205,10 L-205,3 L-204,1 Z " fill="#5B5643" transform="translate(405,236)"/>
<path d="M0,0 L1,2 L13,2 L13,6 L18,6 L21,7 L22,10 L21,11 L21,16 L16,24 L7,24 L4,22 L4,24 L1,24 L2,39 L14,28 L23,19 L26,17 L31,18 L35,21 L35,23 L37,23 L37,25 L40,26 L38,26 L38,28 L45,28 L44,34 L51,42 L56,48 L57,53 L50,61 L41,69 L33,76 L26,83 L25,87 L19,87 L18,82 L0,81 Z " fill="#746E56" transform="translate(62,301)"/>
<path d="M0,0 L2,0 L3,59 L18,73 L22,77 L22,89 L11,89 L10,81 L0,72 L-9,63 L-13,64 L-15,69 L-4,80 L-4,89 L-39,89 L-39,70 L-30,54 L-15,27 L-1,2 Z " fill="#7D765D" transform="translate(404,330)"/>
<path d="M0,0 L12,0 L12,2 L14,2 L15,5 L1,30 L0,44 L-86,44 L-86,25 L-47,25 L-47,27 L-38,27 L-38,25 L-28,24 L-24,20 L-8,19 L-8,17 L-6,15 L-3,3 L0,2 Z " fill="#67614C" transform="translate(347,367)"/>
<path d="M0,0 L5,1 L16,30 L16,32 L64,32 L64,38 L56,45 L49,50 L35,49 L41,42 L21,42 L15,41 L11,38 L24,38 L26,38 L31,37 L29,37 L22,37 L21,37 L15,37 L14,36 L13,37 L7,37 L7,39 L3,40 L11,41 L11,42 L-6,43 L-10,44 L-10,42 L-45,43 L-48,42 L-48,45 L-46,46 L-49,46 L-53,43 L-58,41 L-61,39 L-61,32 L-12,32 L-10,24 L-1,1 Z " fill="#323026" transform="translate(304,246)"/>
<path d="M0,0 L5,0 L1,1 L1,7 L5,7 L5,9 L9,9 L9,11 L16,9 L16,0 L79,0 L79,7 L82,8 L79,8 L79,12 L81,13 L16,13 L17,66 L14,66 L12,70 L1,70 L0,72 Z " fill="#958E73" transform="translate(159,95)"/>
<path d="M0,0 L7,0 L13,8 L22,14 L24,19 L24,28 L19,36 L16,37 L15,44 L8,49 L-7,49 L-16,43 L-17,36 L-21,35 L-23,30 L-23,19 L-21,19 L-20,14 L-15,10 L-10,11 L-7,12 L-5,7 Z " fill="#65604B" transform="translate(163,236)"/>
<path d="M0,0 L30,0 L30,32 L23,43 L22,44 L1,45 L-3,40 L-9,31 L-9,12 L-2,1 Z " fill="#FDFDFD" transform="translate(370,117)"/>
<path d="M0,0 L31,0 L37,10 L37,31 L29,43 L27,44 L9,44 L6,41 L0,31 Z " fill="#FEFEFD" transform="translate(195,118)"/>
<path d="M0,0 L5,2 L7,3 L7,0 L47,0 L49,0 L66,0 L73,18 L71,22 L61,30 L57,30 L49,28 L30,27 L31,30 L33,32 L28,32 L29,23 L12,10 L0,1 Z " fill="#323025" transform="translate(249,288)"/>
<path d="M0,0 L33,0 L33,12 L29,17 L27,19 L26,23 L53,24 L54,19 L58,15 L70,15 L70,27 L68,27 L67,30 L65,31 L59,31 L54,27 L54,25 L-4,25 L-6,29 L-9,32 L-16,32 L-20,29 L-20,25 L-22,25 L-22,15 L2,14 L-2,10 L-2,4 Z " fill="#938C73" transform="translate(272,129)"/>
<path d="M0,0 L91,0 L91,19 L109,19 L109,106 L134,106 L134,170 L115,170 L115,169 L133,169 L132,108 L108,107 L107,21 L90,20 L1,19 L1,54 L-76,54 L-76,78 L-77,78 L-77,53 L-75,53 L-75,19 L-57,19 L-57,36 L-17,36 L-17,19 L0,18 L81,17 L88,13 L89,1 L2,2 L1,17 L0,17 Z M-74,21 L-74,52 L-65,53 L-42,53 L-10,52 L-1,52 L-1,38 L-2,34 L-5,35 L-6,37 L-12,36 L-13,37 L-59,38 L-59,21 Z " fill="#201E17" transform="translate(325,75)"/>
<path d="M0,0 L53,0 L54,14 L14,14 L12,18 L3,28 L-3,35 L-4,35 L-3,22 L-5,22 L-5,15 L-3,15 L-2,8 L0,8 Z " fill="#9A947A" transform="translate(346,94)"/>
<path d="M0,0 L7,0 L14,5 L16,9 L19,12 L20,14 L20,23 L17,28 L14,31 L4,34 L3,35 L-7,35 L-9,34 L-12,29 L-19,20 L-18,14 L-8,10 L-5,3 Z " fill="#65604B" transform="translate(171,188)"/>
<path d="M0,0 L3,1 L5,0 L16,0 L20,3 L19,5 L21,5 L21,2 L30,2 L33,3 L37,0 L40,0 L46,15 L47,20 L42,21 L41,24 L44,25 L45,27 L54,28 L54,29 L48,30 L51,33 L50,35 L31,21 L23,15 L18,15 L15,14 L13,16 L12,13 L13,8 L11,7 L11,9 L-5,20 L-6,16 L-1,1 Z " fill="#353328" transform="translate(287,318)"/>
<path d="M0,0 L6,0 L6,2 L9,2 L10,12 L8,12 L8,17 L6,18 L4,22 L-3,29 L-8,34 L4,34 L4,35 L-6,35 L-5,42 L-3,42 L-3,44 L-1,44 L1,50 L-9,50 L-12,43 L-15,33 L-13,28 L-19,26 L-24,28 L-24,15 L-23,15 L-23,20 L-17,20 L-16,15 L-3,2 Z " fill="#968F76" transform="translate(104,368)"/>
<path d="M0,0 L5,2 L12,10 L17,16 L18,21 L11,29 L3,36 L-1,35 L-15,21 L-15,16 L-6,6 Z " fill="#5D5845" transform="translate(101,333)"/>
<path d="M0,0 L17,0 L24,18 L22,22 L12,30 L8,30 L-5,20 L-6,19 L-5,11 L-1,1 Z " fill="#7F785F" transform="translate(298,288)"/>
<path d="M0,0 L16,0 L23,2 L26,12 L28,14 L28,22 L27,18 L24,18 L25,31 L23,38 L25,38 L26,42 L21,43 L20,53 L17,53 L17,14 L1,14 L0,13 Z " fill="#413F30" transform="translate(399,94)"/>
<path d="M0,0 L93,0 L93,19 L-16,20 L-16,77 L-33,77 L-33,118 L-51,118 L-51,148 L-52,148 L-52,117 L-35,117 L-35,76 L-17,76 L-17,19 L0,19 Z M72,1 L2,2 L2,18 L91,18 L91,1 Z " fill="#1E1C16" transform="translate(157,75)"/>
<path d="M0,0 L5,0 L5,18 L4,19 L-213,19 L-213,18 L3,18 L2,16 L-18,16 L-19,12 L-17,10 L-19,8 L-17,6 L-18,4 L-14,4 L-14,2 L0,1 Z " fill="#454234" transform="translate(425,202)"/>
<path d="M0,0 L33,0 L33,12 L29,17 L19,17 L16,14 L16,12 L10,13 L10,14 L2,14 L-2,10 L-2,4 Z " fill="#A7A28F" transform="translate(272,129)"/>
<path d="M0,0 L10,0 L16,5 L17,10 L14,20 L9,20 L8,27 L3,27 L3,25 L-1,25 L-4,17 L-4,5 Z " fill="#948E76" transform="translate(174,297)"/>
<path d="M0,0 L12,0 L16,1 L16,13 L15,20 L11,20 L10,23 L4,23 L-4,17 L-6,13 L-5,5 L-3,5 L-3,3 L0,3 Z " fill="#9F9A85" transform="translate(376,292)"/>
<path d="M0,0 L4,1 L4,3 L6,3 L5,9 L4,14 L6,17 L5,23 L3,23 L3,25 L1,26 L-6,26 L-13,20 L-13,8 L-6,1 Z " fill="#98927A" transform="translate(259,344)"/>
<path d="M0,0 L7,0 L13,5 L13,15 L8,19 L-2,19 L-7,14 L-8,13 L-8,6 Z " fill="#9B967F" transform="translate(140,209)"/>
<path d="M0,0 L22,0 L22,19 L6,19 L5,7 Z " fill="#847C62" transform="translate(224,400)"/>
<path d="M0,0 L8,0 L11,1 L12,5 L14,5 L13,12 L7,19 L-3,19 L-3,17 L-6,16 L-8,12 L-7,5 L-2,1 Z " fill="#9E9983" transform="translate(387,255)"/>
<path d="M0,0 L5,2 L7,3 L7,0 L38,0 L37,5 L34,13 L30,11 L18,3 L19,9 L23,9 L23,13 L27,15 L25,15 L25,17 L22,18 L4,4 Z " fill="#333126" transform="translate(249,288)"/>
<path d="M0,0 L8,0 L13,2 L13,4 L15,4 L15,14 L12,17 L-3,17 L-5,14 L-5,6 L-2,1 Z " fill="#979178" transform="translate(209,269)"/>
<path d="M0,0 L1,0 L1,31 L-7,30 L-9,29 L-11,18 L-11,14 L-13,13 Z " fill="#7C765D" transform="translate(414,160)"/>
<path d="M0,0 L1,0 L2,17 L-1,17 L-3,21 L-14,21 L-15,23 L-15,2 L-8,2 L-1,4 Z " fill="#A09A83" transform="translate(174,144)"/>
<path d="M0,0 L10,0 L14,4 L14,10 L11,15 L7,17 L-1,17 L-6,12 L-6,6 L-1,1 Z " fill="#9D9883" transform="translate(307,357)"/>
<path d="M0,0 L12,0 L18,5 L17,12 L14,12 L13,16 L5,16 L-2,12 L-3,10 L-3,3 Z " fill="#9A957E" transform="translate(243,253)"/>
<path d="M0,0 L1,0 L1,13 L5,15 L7,19 L18,22 L18,24 L21,25 L23,30 L17,31 L17,32 L0,32 Z " fill="#66604B" transform="translate(175,387)"/>
<path d="M0,0 L7,0 L12,3 L13,5 L13,11 L11,14 L2,15 L-5,14 L-6,13 L-6,6 L-2,1 Z " fill="#98927A" transform="translate(113,315)"/>
<path d="M0,0 L2,4 L6,4 L6,2 L14,2 L19,5 L18,12 L13,17 L6,17 L2,14 L2,10 L0,10 Z " fill="#A09A84" transform="translate(250,144)"/>
<path d="M0,0 L16,0 L16,14 L1,14 L0,13 Z " fill="#605B47" transform="translate(399,94)"/>
<path d="M0,0 L13,0 L13,17 L0,17 Z " fill="#2F2D22" transform="translate(287,170)"/>
<path d="M0,0 L13,0 L13,17 L0,17 Z " fill="#2F2D23" transform="translate(317,170)"/>
<path d="M0,0 L9,0 L13,4 L13,10 L8,15 L7,16 L0,15 L-4,11 L-4,5 Z " fill="#9B967F" transform="translate(169,337)"/>
<path d="M0,0 L15,0 L15,19 L5,19 L4,6 L0,2 Z " fill="#6D6751" transform="translate(433,400)"/>
<path d="M0,0 L11,0 L17,4 L17,11 L10,13 L9,14 L4,14 L-1,9 L-2,8 L-2,2 Z " fill="#625D48" transform="translate(231,336)"/>
<path d="M0,0 L11,0 L15,5 L15,12 L10,12 L10,14 L2,14 L-2,10 L-2,2 Z " fill="#98927A" transform="translate(125,251)"/>
<path d="M0,0 L10,0 L10,2 L13,2 L13,7 L15,8 L13,8 L13,10 L11,12 L4,13 L4,14 L-2,14 L-4,11 L-4,2 L0,2 Z " fill="#989279" transform="translate(267,181)"/>
<path d="M0,0 L1,2 L-1,4 L-6,4 L-4,15 L-13,15 L-12,11 L-21,11 L-18,2 L-16,1 Z " fill="#373529" transform="translate(314,263)"/>
<path d="M0,0 L6,0 L10,5 L9,12 L5,16 L-1,15 L-4,12 L-5,7 L-1,1 Z " fill="#98927B" transform="translate(344,255)"/>
<path d="M0,0 L3,0 L3,2 L7,2 L9,6 L9,12 L6,16 L-2,16 L-4,12 L-4,4 Z " fill="#98937B" transform="translate(361,328)"/>
<path d="M0,0 L5,0 L8,4 L8,10 L5,13 L3,14 L-3,14 L-7,10 L-6,3 Z " fill="#99947C" transform="translate(243,302)"/>
<path d="M0,0 L21,0 L20,5 L17,13 L13,11 L0,2 Z " fill="#7D755C" transform="translate(266,288)"/>
<path d="M0,0 L22,0 L22,19 L6,19 L6,8 L7,11 L19,11 L20,12 L21,1 L0,1 Z " fill="#716B54" transform="translate(224,400)"/>
<path d="M0,0 L20,0 L18,4 L6,13 L4,13 L0,3 Z " fill="#797259" transform="translate(325,288)"/>
<path d="M0,0 L9,6 L9,10 L-5,20 L-6,16 L-1,1 Z " fill="#7E775D" transform="translate(287,318)"/>
<path d="M0,0 L3,0 L9,15 L10,20 L3,16 L-7,8 L-5,4 Z " fill="#7B745B" transform="translate(324,318)"/>
<path d="M0,0 L10,0 L13,4 L12,10 L9,12 L3,12 L1,10 Z " fill="#979179" transform="translate(330,179)"/>
<path d="M0,0 L14,0 L14,8 L6,8 Z " fill="#847C62" transform="translate(433,401)"/>
<path d="M0,0 L1,0 L1,29 L15,29 L15,30 L10,31 L6,33 L3,32 L0,30 L-13,29 L-13,28 L0,28 Z " fill="#484435" transform="translate(405,263)"/>
<path d="M0,0 L2,0 L5,7 L5,10 L-4,10 L-1,1 Z " fill="#7F775E" transform="translate(305,268)"/>
<path d="M0,0 L12,2 L14,4 L8,5 L8,3 L2,5 L-27,5 L-27,4 L1,3 Z " fill="#5D5A51" transform="translate(223,113)"/>
<path d="M0,0 L1,0 L2,14 L4,15 L2,15 L3,19 L-1,20 Z " fill="#5F5D53" transform="translate(232,130)"/>
<path d="M0,0 L15,0 L14,2 L6,3 L0,1 Z " fill="#615E55" transform="translate(378,161)"/>
<path d="M0,0 L2,1 Z " fill="#423E34" transform="translate(264,427)"/>
<path d="M0,0 Z " fill="#423C32" transform="translate(289,427)"/>
</svg>
