<?xml version="1.0" encoding="UTF-8"?>
<!-- Generator: https://ezgif.com/png-to-svg -->
<svg version="1.1" xmlns="http://www.w3.org/2000/svg" width="512" height="512">
<path d="M0,0 L67,0 L67,16 L83,16 L83,29 L153,29 L153,16 L168,16 L168,0 L232,0 L233,4 L232,16 L248,16 L248,29 L261,30 L262,89 L275,89 L276,90 L276,145 L267,146 L261,145 L261,158 L248,159 L248,196 L276,197 L276,216 L290,216 L290,264 L277,264 L277,294 L291,294 L291,312 L322,312 L322,342 L308,342 L308,359 L232,359 L189,358 L189,342 L175,342 L175,325 L141,326 L129,326 L106,325 L106,358 L-72,358 L-72,342 L-86,342 L-86,325 L-101,325 L-101,296 L-115,296 L-115,231 L-101,231 L-101,202 L-86,202 L-86,176 L-72,176 L-72,143 L-71,142 L-57,142 L-57,112 L-42,112 L-42,75 L-28,75 L-28,30 L-14,30 L-14,16 L0,16 Z M43,31 L43,46 L55,46 L55,31 Z " fill="#3C7593" transform="translate(153,74)"/>
<path d="M0,0 L67,0 L67,16 L83,16 L83,29 L153,29 L153,16 L168,16 L168,30 L154,30 L154,47 L82,47 L82,31 L66,31 L66,16 L19,16 L19,30 L42,30 L43,31 L43,46 L56,46 L70,47 L70,76 L56,76 L56,91 L2,91 L2,144 L-26,144 L-26,157 L-56,157 L-56,201 L-9,201 L-9,277 L7,277 L7,309 L24,309 L24,340 L93,340 L93,324 L70,324 L70,311 L39,311 L39,294 L54,294 L54,201 L69,201 L69,173 L70,173 L70,310 L189,310 L189,294 L205,294 L205,277 L218,277 L218,247 L232,247 L232,157 L247,157 L247,144 L260,144 L260,128 L14,128 L14,113 L260,113 L260,90 L247,90 L247,30 L261,30 L262,89 L275,89 L276,90 L276,145 L267,146 L261,145 L261,158 L248,159 L248,196 L276,197 L276,216 L290,216 L290,264 L277,264 L277,294 L291,294 L291,312 L322,312 L322,342 L308,342 L308,359 L232,359 L189,358 L189,342 L175,342 L175,325 L141,326 L129,326 L106,325 L106,358 L-72,358 L-72,342 L-86,342 L-86,325 L-101,325 L-101,296 L-115,296 L-115,231 L-101,231 L-101,202 L-86,202 L-86,176 L-72,176 L-72,143 L-71,142 L-57,142 L-57,112 L-42,112 L-42,75 L-28,75 L-28,30 L-14,30 L-14,16 L0,16 Z " fill="#152B3A" transform="translate(153,74)"/>
<path d="M0,0 L218,0 L218,15 L205,15 L205,28 L190,28 L190,118 L176,118 L176,148 L163,148 L163,165 L147,165 L147,181 L28,181 L28,44 L14,44 L14,29 L0,29 Z " fill="#E1C05D" transform="translate(195,203)"/>
<path d="M0,0 L14,0 L15,59 L28,59 L29,60 L29,115 L20,116 L14,115 L14,128 L1,129 L1,166 L29,167 L29,186 L43,186 L43,234 L30,234 L30,264 L44,264 L44,282 L75,282 L75,312 L61,312 L61,329 L-15,329 L-58,328 L-58,312 L-72,312 L-72,295 L-99,295 L-99,294 L-92,293 L-71,293 L-70,294 L-70,310 L-56,310 L-56,326 L-15,326 L60,327 L60,310 L73,310 L73,284 L43,284 L42,283 L42,265 L28,265 L28,187 L0,187 L0,217 L-15,217 L-15,127 L0,127 L0,114 L13,114 L13,98 L-233,98 L-233,83 L13,83 L13,60 L0,60 Z " fill="#132430" transform="translate(400,104)"/>
<path d="M0,0 L14,0 L14,13 L29,13 L29,0 L45,0 L45,76 L29,76 L29,93 L45,93 L45,122 L0,122 L0,106 L-14,106 L-14,77 L-29,77 L-29,13 L0,13 Z " fill="#1F4D6B" transform="translate(82,292)"/>
<path d="M0,0 L14,0 L14,46 L0,46 L0,76 L-13,76 L-13,93 L-29,93 L-29,109 L-148,109 L-148,30 L-134,30 L-134,46 L-117,46 L-117,61 L-103,61 L-103,76 L-34,76 L-34,61 L-18,61 L-18,46 L-6,46 L-6,30 L0,30 Z " fill="#DCAC36" transform="translate(371,275)"/>
<path d="M0,0 L28,0 L28,46 L14,46 L14,77 L13,94 L28,94 L28,123 L0,123 L0,94 L-15,94 L-15,123 L-43,123 L-43,77 L-42,60 L-29,60 L-29,30 L0,30 Z " fill="#1F4D6B" transform="translate(400,291)"/>
<path d="M0,0 L67,0 L67,16 L83,16 L83,29 L153,29 L153,16 L168,16 L168,30 L154,30 L154,47 L82,47 L82,31 L66,31 L66,16 L1,16 L1,30 L-13,30 L-13,75 L-27,75 L-27,112 L-42,112 L-42,75 L-28,75 L-28,30 L-14,30 L-14,16 L0,16 Z " fill="#10212D" transform="translate(153,74)"/>
<path d="M0,0 L41,0 L41,15 L54,15 L68,16 L68,45 L54,45 L54,59 L0,59 Z " fill="#112841" transform="translate(155,105)"/>
<path d="M0,0 L218,0 L218,15 L0,15 Z " fill="#E6CC70" transform="translate(195,203)"/>
<path d="M0,0 L16,0 L16,14 L2,14 L2,44 L-16,44 L-16,60 L-76,60 L-76,44 L-93,44 L-93,14 L-76,14 L-76,31 L-16,31 L-16,14 L0,14 Z " fill="#DBA835" transform="translate(347,261)"/>
<path d="M0,0 L14,0 L14,13 L29,13 L29,0 L45,0 L45,59 L15,59 L15,42 L-14,42 L-14,13 L0,13 Z " fill="#3C7594" transform="translate(82,292)"/>
<path d="M0,0 L28,0 L28,46 L14,46 L14,77 L-14,77 L-14,30 L0,30 Z " fill="#1F4C69" transform="translate(400,291)"/>
<path d="M0,0 L512,0 L512,330 L511,330 L511,1 L1,1 L1,381 L0,381 Z " fill="#000102" transform="translate(0,0)"/>
<path d="M0,0 L30,0 L30,29 L-15,29 L-15,13 L0,13 Z " fill="#3C7695" transform="translate(97,385)"/>
<path d="M0,0 L14,0 L14,15 L27,15 L27,47 L0,47 Z " fill="#3C7694" transform="translate(386,321)"/>
<path d="M0,0 L64,0 L65,4 L64,16 L0,16 Z " fill="#0F1F2A" transform="translate(321,74)"/>
<path d="M0,0 L14,0 L14,16 L28,16 L28,44 L0,44 Z " fill="#112941" transform="translate(358,105)"/>
<path d="M0,0 L18,0 L18,76 L17,76 L17,17 L-15,17 L-15,30 L-30,30 L-30,17 L-44,17 L-44,30 L-58,30 L-58,2 L-44,2 L-44,16 L0,16 Z " fill="#204D69" transform="translate(126,275)"/>
<path d="M0,0 L14,0 L14,57 L-1,57 L-1,33 Z " fill="#122532" transform="translate(83,218)"/>
<path d="M0,0 L28,0 L28,29 L0,29 Z " fill="#3C7796" transform="translate(400,385)"/>
<path d="M0,0 L14,0 L14,48 L1,48 L1,78 L15,78 L15,96 L46,96 L46,126 L32,126 L32,143 L-44,143 L-87,142 L-87,126 L-101,126 L-101,109 L-128,109 L-128,108 L-121,107 L-100,107 L-99,108 L-99,124 L-85,124 L-85,140 L-44,140 L31,141 L31,124 L44,124 L44,98 L14,98 L13,97 L13,79 L-1,79 L-1,47 L0,46 L12,46 L12,2 L0,2 Z " fill="#04090F" transform="translate(429,290)"/>
<path d="M0,0 L21,0 L21,29 L9,29 L9,13 L0,13 Z " fill="#3B7593" transform="translate(140,385)"/>
<path d="M0,0 L15,0 L15,30 L0,30 Z " fill="#1E4C69" transform="translate(173,305)"/>
<path d="M0,0 L23,0 L23,1 L1,1 L1,34 L-177,34 L-177,17 L-175,17 L-175,32 L0,32 Z " fill="#02070E" transform="translate(258,398)"/>
<path d="M0,0 L15,0 L15,29 L0,29 Z " fill="#3C7695" transform="translate(413,292)"/>
<path d="M0,0 L16,0 L16,27 L0,27 Z " fill="#204E6B" transform="translate(159,264)"/>
<path d="M0,0 L14,0 L14,15 L-204,15 L-204,14 L0,14 Z " fill="#E6CA6C" transform="translate(399,203)"/>
<path d="M0,0 L14,0 L14,29 L0,29 Z " fill="#204E6B" transform="translate(209,121)"/>
<path d="M0,0 L13,0 L13,30 L0,30 Z " fill="#122431" transform="translate(98,187)"/>
<path d="M0,0 L23,0 L23,16 L0,16 Z " fill="#20506E" transform="translate(437,398)"/>
<path d="M0,0 L1,0 L1,110 L-15,110 L-15,93 L0,93 Z " fill="#224F6A" transform="translate(207,275)"/>
<path d="M0,0 L15,0 L15,24 L0,24 Z " fill="#1E4B67" transform="translate(82,251)"/>
<path d="M0,0 L18,0 L18,16 L0,16 Z " fill="#20506E" transform="translate(400,398)"/>
<path d="M0,0 L15,0 L15,19 L0,19 Z " fill="#1E4C69" transform="translate(144,232)"/>
<path d="M0,0 L14,0 L14,29 L8,29 L8,13 L0,13 Z " fill="#3C7695" transform="translate(371,385)"/>
<path d="M0,0 L16,0 L16,16 L0,16 Z " fill="#1F4E6B" transform="translate(111,398)"/>
<path d="M0,0 L16,0 L16,16 L0,16 Z " fill="#95C9D8" transform="translate(373,105)"/>
<path d="M0,0 L15,0 L15,16 L0,16 Z " fill="#1D4B69" transform="translate(111,245)"/>
<path d="M0,0 L16,0 L16,15 L0,15 Z " fill="#11273F" transform="translate(272,149)"/>
<path d="M0,0 L14,0 L14,15 L1,15 L1,32 L0,32 Z " fill="#C78C2C" transform="translate(357,336)"/>
<path d="M0,0 L15,0 L15,15 L0,15 Z " fill="#11273F" transform="translate(318,149)"/>
<path d="M0,0 L14,0 L14,16 L0,16 Z " fill="#CD8828" transform="translate(223,368)"/>
<path d="M0,0 L16,0 L16,13 L15,14 L0,14 Z " fill="#132531" transform="translate(385,90)"/>
<path d="M0,0 L13,0 L13,17 L0,17 Z " fill="#11222F" transform="translate(358,351)"/>
<path d="M0,0 L14,0 L14,60 L0,60 Z M1,2 L1,59 L12,59 L12,2 Z " fill="#07111A" transform="translate(400,104)"/>
<path d="M0,0 L15,0 L15,14 L0,14 Z " fill="#DAA731" transform="translate(239,261)"/>
<path d="M0,0 L13,0 L13,15 L0,15 Z " fill="#DDAC34" transform="translate(400,203)"/>
<path d="M0,0 L11,0 L11,16 L0,16 Z " fill="#21516E" transform="translate(235,398)"/>
<path d="M0,0 L13,0 L13,13 L0,13 Z " fill="#10212D" transform="translate(308,91)"/>
<path d="M0,0 L13,0 L13,12 L12,13 L0,13 Z " fill="#15222C" transform="translate(400,218)"/>
<path d="M0,0 L13,0 L13,12 L0,12 Z " fill="#112431" transform="translate(141,92)"/>
<path d="M0,0 L14,0 L14,1 L3,2 L2,45 L1,46 L-13,46 L-13,82 L-14,82 L-14,45 L0,45 Z " fill="#040C13" transform="translate(125,104)"/>
<path d="M0,0 L9,0 L9,16 L0,16 Z " fill="#3C7796" transform="translate(451,398)"/>
<path d="M0,0 L1,0 L1,116 L0,116 Z " fill="#000001" transform="translate(0,396)"/>
<path d="M0,0 L1,0 L1,28 L0,28 Z " fill="#000000" transform="translate(511,470)"/>
<path d="M0,0 L1,0 L1,12 L0,12 Z " fill="#000000" transform="translate(511,500)"/>
<path d="M0,0 L1,0 L1,10 L0,10 Z " fill="#000306" transform="translate(511,348)"/>
<path d="M0,0 L1,0 L1,7 L0,7 Z " fill="#000304" transform="translate(511,340)"/>
<path d="M0,0 L1,0 L1,7 L0,7 Z " fill="#000103" transform="translate(511,332)"/>
<path d="M0,0 L1,0 L1,5 L0,5 Z " fill="#000000" transform="translate(511,464)"/>
<path d="M0,0 L1,4 Z " fill="#02080C" transform="translate(0,386)"/>
<path d="M0,0 L1,4 Z " fill="#010609" transform="translate(511,360)"/>
<path d="M0,0 Z " fill="#000306" transform="translate(511,444)"/>
<path d="M0,0 Z " fill="#000000" transform="translate(93,511)"/>
<path d="M0,0 Z " fill="#000203" transform="translate(511,450)"/>
<path d="M0,0 Z " fill="#02080B" transform="translate(511,436)"/>
<path d="M0,0 Z " fill="#020B0E" transform="translate(511,372)"/>
<path d="M0,0 Z " fill="#1B303E" transform="translate(223,88)"/>
</svg>
