<?xml version="1.0" encoding="UTF-8"?>
<!-- Generator: https://ezgif.com/png-to-svg -->
<svg version="1.1" xmlns="http://www.w3.org/2000/svg" width="512" height="512">
<path d="M0,0 L88,0 L88,18 L106,18 L106,40 L148,40 L148,18 L165,18 L165,0 L245,0 L245,18 L256,18 L257,19 L257,72 L271,72 L271,147 L250,147 L250,166 L240,166 L240,207 L257,207 L257,245 L272,246 L272,309 L291,309 L291,366 L290,367 L175,367 L174,366 L174,348 L120,348 L120,367 L-80,367 L-80,309 L-97,309 L-97,226 L-76,226 L-76,200 L-60,200 L-60,154 L-46,154 L-46,112 L-30,112 L-30,75 L-15,75 L-15,21 L0,21 Z " fill="#417271" transform="translate(152,73)"/>
<path d="M0,0 L88,0 L88,18 L106,18 L106,40 L148,40 L148,18 L165,18 L165,0 L245,0 L245,18 L256,18 L257,19 L257,72 L271,72 L271,147 L250,147 L250,166 L240,166 L240,207 L257,207 L257,245 L272,246 L272,309 L291,309 L291,366 L290,367 L175,367 L174,366 L174,348 L120,348 L120,367 L-80,367 L-80,309 L-97,309 L-97,226 L-76,226 L-76,200 L-60,200 L-60,154 L-46,154 L-46,112 L-30,112 L-30,75 L-15,75 L-15,21 L0,21 Z M4,22 L4,97 L-10,97 L-10,129 L-25,129 L-25,173 L-42,173 L-42,220 L11,220 L11,319 L25,319 L25,345 L101,345 L101,321 L69,321 L69,234 L86,234 L86,314 L119,314 L119,326 L175,326 L175,316 L194,316 L194,294 L212,294 L212,194 L227,194 L227,151 L50,151 L50,132 L249,132 L249,92 L235,92 L235,61 L233,22 L169,22 L169,61 L83,61 L83,22 Z " fill="#15201C" transform="translate(152,73)"/>
<path d="M0,0 L160,0 L160,43 L145,43 L145,143 L127,143 L127,165 L108,165 L108,175 L52,175 L52,163 L19,163 L19,43 L0,43 Z " fill="#F0C840" transform="translate(219,224)"/>
<path d="M0,0 L20,0 L19,80 L23,82 L27,87 L27,95 L24,100 L20,102 L20,140 L27,140 L35,143 L43,150 L45,154 L45,175 L37,183 L30,186 L19,186 L19,297 L7,297 L7,198 L-46,198 L-46,151 L-29,151 L-29,107 L-14,107 L-14,75 L0,75 Z " fill="#274D4B" transform="translate(156,95)"/>
<path d="M0,0 L57,0 L57,83 L36,83 L36,92 L72,92 L72,119 L19,119 L4,118 L4,74 L-13,74 L-13,13 L-1,13 L-1,1 Z " fill="#244847" transform="translate(88,299)"/>
<path d="M0,0 L15,0 L15,1 L1,1 L1,26 L25,26 L25,76 L42,76 L42,102 L25,102 L25,124 L60,124 L60,151 L-18,151 L-18,125 L-17,124 L9,124 L9,54 L0,54 Z " fill="#244846" transform="translate(364,267)"/>
<path d="M0,0 L57,0 L57,56 L0,56 Z " fill="#3E6D6C" transform="translate(88,299)"/>
<path d="M0,0 L25,0 L25,20 L46,20 L46,56 L0,56 Z " fill="#16221E" transform="translate(189,114)"/>
<path d="M0,0 L512,0 L512,512 L0,512 Z M1,1 L1,511 L511,511 L511,1 Z " fill="#949492" transform="translate(0,0)"/>
<path d="M0,0 L24,0 L24,20 L43,20 L43,56 L0,56 Z " fill="#15211C" transform="translate(339,114)"/>
<path d="M0,0 L8,0 L16,3 L24,10 L26,14 L26,35 L18,43 L11,46 L-3,46 L-9,43 L-16,35 L-17,33 L-17,13 L-10,5 L-6,2 Z " fill="#572850" transform="translate(175,235)"/>
<path d="M0,0 L46,0 L46,38 L24,38 L24,18 L0,18 Z " fill="#477A77" transform="translate(339,96)"/>
<path d="M0,0 L52,0 L52,25 L35,25 L35,11 L17,11 L17,25 L0,25 Z " fill="#3A6868" transform="translate(107,392)"/>
<path d="M0,0 L88,0 L88,18 L106,18 L106,40 L148,40 L148,18 L165,18 L165,0 L245,0 L245,18 L256,18 L256,72 L255,72 L255,20 L244,20 L244,2 L166,2 L166,20 L149,20 L149,42 L148,43 L105,43 L104,42 L104,20 L87,20 L86,19 L86,2 L2,2 L2,22 L1,23 L-14,23 L-14,76 L-16,77 L-28,77 L-28,114 L-45,114 L-45,112 L-30,112 L-30,75 L-15,75 L-15,21 L0,21 Z " fill="#050807" transform="translate(152,73)"/>
<path d="M0,0 L51,0 L51,25 L34,25 L34,11 L14,11 L14,25 L0,25 Z " fill="#3A6768" transform="translate(372,392)"/>
<path d="M0,0 L9,1 L15,5 L18,10 L18,20 L14,26 L6,30 L-2,29 L-8,25 L-11,19 L-11,10 L-6,3 Z " fill="#52294F" transform="translate(111,315)"/>
<path d="M0,0 L14,0 L14,31 L-1,31 L-7,27 L-11,21 L-11,11 L-7,5 L-2,1 Z " fill="#442246" transform="translate(128,257)"/>
<path d="M0,0 L7,0 L13,3 L17,8 L17,18 L13,24 L7,27 L-2,26 L-7,22 L-9,18 L-9,9 L-5,3 Z " fill="#942F4E" transform="translate(266,293)"/>
<path d="M0,0 L1,2 L56,2 L56,12 L0,12 Z " fill="#D8B430" transform="translate(271,387)"/>
<path d="M0,0 L7,0 L14,4 L17,9 L17,16 L14,21 L9,25 L-1,25 L-7,20 L-9,15 L-9,9 L-5,3 Z " fill="#5A2B54" transform="translate(192,304)"/>
<path d="M0,0 L9,0 L16,6 L17,8 L17,16 L14,21 L10,24 L0,24 L-6,19 L-7,17 L-7,7 L-3,2 Z " fill="#4F274D" transform="translate(166,174)"/>
<path d="M0,0 L64,0 L64,1 L18,1 L18,75 L17,75 L17,19 L0,19 Z " fill="#2C5351" transform="translate(321,95)"/>
<path d="M0,0 L14,0 L14,1 L2,1 L2,47 L1,48 L-15,48 L-15,73 L-35,73 L-35,153 L-19,153 L-19,211 L-20,211 L-20,155 L-37,155 L-37,72 L-16,72 L-16,46 L0,46 Z " fill="#020504" transform="translate(92,227)"/>
<path d="M0,0 L21,0 L21,20 L0,20 Z " fill="#D8D6CC" transform="translate(214,114)"/>
<path d="M0,0 L21,0 L21,20 L0,20 Z " fill="#EBE8DC" transform="translate(364,114)"/>
<path d="M0,0 L19,0 L19,22 L0,22 Z " fill="#D8B431" transform="translate(327,367)"/>
<path d="M0,0 L9,0 L14,4 L16,7 L16,14 L13,19 L8,22 L1,22 L-4,19 L-7,14 L-7,7 L-2,1 Z " fill="#482549" transform="translate(151,211)"/>
<path d="M0,0 L13,0 L13,25 L76,25 L76,26 L0,26 Z " fill="#264C4A" transform="translate(177,392)"/>
<path d="M0,0 L26,0 L26,14 L0,14 Z " fill="#2A5251" transform="translate(275,134)"/>
<path d="M0,0 L11,0 L16,6 L15,15 L9,19 L2,19 L-4,14 L-4,4 Z " fill="#592A52" transform="translate(190,352)"/>
<path d="M0,0 L10,0 L15,6 L14,13 L9,17 L1,17 L-4,13 L-4,4 Z " fill="#942F4D" transform="translate(251,243)"/>
<path d="M0,0 L8,0 L13,5 L13,13 L7,18 L1,18 L-5,13 L-5,4 Z " fill="#572A52" transform="translate(377,181)"/>
<path d="M0,0 L16,0 L16,15 L0,15 Z " fill="#14201C" transform="translate(275,160)"/>
<path d="M0,0 L19,0 L19,6 L14,9 L8,12 L3,12 L0,13 Z " fill="#EDEADF" transform="translate(215,115)"/>
<path d="M0,0 L12,0 L12,13 L0,13 Z " fill="#141F1B" transform="translate(311,162)"/>
<path d="M0,0 L1,0 L1,31 L-1,41 L-2,41 L-2,2 L-17,2 L-17,1 L-1,1 Z " fill="#33413B" transform="translate(408,280)"/>
<path d="M0,0 L21,0 L21,20 L0,20 L0,19 L19,17 L20,1 L0,1 Z " fill="#D0CFC8" transform="translate(364,114)"/>
</svg>
