<?xml version="1.0" encoding="UTF-8"?>
<!-- Generator: https://ezgif.com/png-to-svg -->
<svg version="1.1" xmlns="http://www.w3.org/2000/svg" width="512" height="512">
<path d="M0,0 L76,0 L76,17 L94,17 L94,36 L136,36 L136,17 L152,17 L152,0 L224,0 L224,17 L241,17 L241,74 L258,74 L258,149 L241,148 L241,167 L224,167 L224,195 L242,195 L242,232 L257,232 L257,302 L283,302 L283,355 L153,355 L153,339 L101,339 L101,355 L-87,355 L-87,295 L-102,295 L-102,214 L-84,214 L-84,195 L-61,195 L-61,163 L-49,163 L-49,107 L-35,107 L-35,74 L-18,74 L-18,17 L0,17 Z " fill="#76AA52" transform="translate(158,75)"/>
<path d="M0,0 L76,0 L76,17 L94,17 L94,36 L136,36 L136,17 L152,17 L152,0 L224,0 L224,17 L241,17 L241,74 L258,74 L258,149 L241,148 L241,167 L224,167 L224,195 L242,195 L242,232 L257,232 L257,302 L283,302 L283,355 L153,355 L153,339 L101,339 L101,355 L-87,355 L-87,295 L-102,295 L-102,214 L-84,214 L-84,195 L-61,195 L-61,163 L-49,163 L-49,107 L-35,107 L-35,74 L-18,74 L-18,17 L0,17 Z M1,18 L1,75 L-17,75 L-17,108 L-33,108 L-33,196 L-18,196 L-18,214 L1,214 L1,314 L19,314 L19,335 L84,335 L84,314 L59,314 L59,214 L76,214 L76,312 L99,312 L99,319 L153,319 L153,314 L173,314 L173,298 L190,298 L190,214 L206,214 L206,166 L223,166 L223,147 L39,147 L39,129 L240,129 L240,75 L224,75 L224,18 L153,18 L153,55 L75,55 L75,18 Z " fill="#233B1F" transform="translate(158,75)"/>
<path d="M0,0 L184,0 L184,19 L167,19 L167,67 L151,67 L151,151 L134,151 L134,167 L114,167 L114,172 L60,172 L60,165 L37,165 L37,66 L20,66 L20,19 L0,19 Z " fill="#E1D588" transform="translate(197,222)"/>
<path d="M0,0 L76,0 L76,17 L94,17 L94,36 L136,36 L136,17 L152,17 L152,0 L224,0 L224,17 L241,17 L241,74 L258,74 L258,149 L241,148 L241,167 L224,167 L224,195 L242,195 L242,232 L257,232 L257,302 L283,302 L283,355 L154,355 L154,354 L282,354 L282,303 L255,303 L255,234 L241,234 L240,233 L240,197 L223,197 L223,147 L39,147 L39,129 L240,129 L240,75 L224,75 L224,18 L153,18 L153,55 L75,55 L75,18 L1,18 L1,75 L-17,75 L-17,108 L-33,108 L-33,196 L-18,196 L-18,214 L1,214 L1,314 L-50,314 L-50,294 L-17,294 L-17,230 L-34,229 L-34,214 L-66,214 L-66,229 L-83,229 L-83,294 L-67,294 L-67,305 L-69,306 L-69,295 L-83,296 L-84,304 L-85,304 L-86,354 L100,354 L100,338 L154,338 L154,339 L101,339 L101,355 L-87,355 L-87,295 L-102,295 L-102,214 L-84,214 L-84,195 L-61,195 L-61,163 L-49,163 L-49,107 L-35,107 L-35,74 L-18,74 L-18,17 L0,17 Z " fill="#21381D" transform="translate(158,75)"/>
<path d="M0,0 L32,0 L32,15 L49,15 L50,16 L50,52 L49,80 L16,80 L16,100 L67,100 L67,121 L-1,121 L-1,80 L-17,80 L-17,15 L0,15 Z " fill="#6EA14C" transform="translate(92,289)"/>
<path d="M0,0 L18,0 L18,22 L33,22 L33,100 L62,100 L62,121 L-34,121 L-34,100 L0,100 Z " fill="#6CA04B" transform="translate(365,289)"/>
<path d="M0,0 L18,0 L18,83 L24,84 L30,89 L34,97 L35,100 L35,109 L31,118 L26,123 L20,126 L8,126 L0,120 L-5,110 L-5,96 L-2,90 L-1,83 L-18,83 L-18,57 L0,57 Z " fill="#457934" transform="translate(159,93)"/>
<path d="M0,0 L50,0 L50,76 L0,76 L0,75 L33,75 L33,20 L0,20 Z " fill="#7FB358" transform="translate(331,93)"/>
<path d="M0,0 L17,0 L18,12 L23,8 L25,7 L34,7 L40,12 L43,19 L43,29 L40,36 L36,40 L33,41 L25,41 L19,37 L17,34 L16,65 L0,65 Z " fill="#447934" transform="translate(75,304)"/>
<path d="M0,0 L33,0 L33,55 L0,55 Z " fill="#233C1F" transform="translate(331,113)"/>
<path d="M0,0 L18,0 L18,18 L37,18 L37,55 L0,55 Z " fill="#243C1F" transform="translate(196,113)"/>
<path d="M0,0 L11,0 L18,4 L22,10 L23,13 L23,25 L19,33 L13,38 L10,39 L-1,39 L-7,35 L-12,27 L-13,24 L-13,15 L-8,5 Z " fill="#487E36" transform="translate(153,232)"/>
<path d="M0,0 L18,0 L18,58 L0,58 Z " fill="#498037" transform="translate(159,331)"/>
<path d="M0,0 L17,0 L17,56 L-33,56 L-33,55 L0,55 Z " fill="#7FB458" transform="translate(364,113)"/>
<path d="M0,0 L17,0 L17,56 L-1,56 Z " fill="#243D1F" transform="translate(142,94)"/>
<path d="M0,0 L20,0 L20,75 L19,75 L19,38 L-97,38 L-97,37 L0,37 Z " fill="#51843B" transform="translate(311,93)"/>
<path d="M0,0 L15,0 L16,56 L0,56 Z " fill="#243D20" transform="translate(382,94)"/>
<path d="M0,0 L16,0 L16,16 L13,23 L8,28 L4,30 L-5,30 L-12,24 L-13,22 L-13,11 L-9,5 L-3,1 Z " fill="#477D36" transform="translate(198,338)"/>
<path d="M0,0 L1,0 L1,57 L17,57 L17,76 L1,76 L1,94 L-17,94 L-17,76 L0,76 Z " fill="#4D8239" transform="translate(381,93)"/>
<path d="M0,0 L17,0 L17,23 L33,23 L33,38 L16,38 L16,23 L0,23 Z " fill="#487F36" transform="translate(365,331)"/>
<path d="M0,0 L16,0 L16,39 L0,39 Z " fill="#4A8238" transform="translate(125,183)"/>
<path d="M0,0 L6,1 L12,6 L16,14 L17,17 L17,26 L13,35 L8,40 L2,43 L0,43 Z " fill="#4A8137" transform="translate(177,176)"/>
<path d="M0,0 L12,0 L12,1 L1,1 L1,34 L-21,34 L-21,52 L-40,52 L-40,131 L-25,131 L-25,191 L161,191 L161,175 L215,175 L215,176 L162,176 L162,192 L-26,192 L-26,132 L-41,132 L-41,51 L-23,51 L-23,32 L0,32 Z " fill="#060C06" transform="translate(97,238)"/>
<path d="M0,0 L9,0 L16,6 L17,8 L17,18 L13,24 L9,26 L0,26 L-6,22 L-8,18 L-8,8 L-2,1 Z " fill="#467B35" transform="translate(185,288)"/>
<path d="M0,0 L16,0 L16,33 L0,33 Z " fill="#233D1F" transform="translate(125,150)"/>
<path d="M0,0 L17,0 L17,28 L0,28 Z " fill="#498137" transform="translate(124,341)"/>
<path d="M0,0 L19,0 L19,19 L0,19 Z " fill="#498137" transform="translate(271,150)"/>
<path d="M0,0 L17,0 L17,21 L0,21 Z " fill="#488036" transform="translate(365,389)"/>
<path d="M0,0 L17,0 L17,21 L0,21 Z " fill="#498137" transform="translate(177,389)"/>
<path d="M0,0 L18,0 L18,19 L0,19 Z " fill="#38662C" transform="translate(141,150)"/>
<path d="M0,0 L17,0 L17,20 L0,20 Z " fill="#4A8137" transform="translate(91,369)"/>
<path d="M0,0 L16,0 L16,21 L0,21 Z " fill="#70A44D" transform="translate(349,389)"/>
<path d="M0,0 L19,0 L19,17 L0,17 Z " fill="#E7DD9E" transform="translate(214,113)"/>
<path d="M0,0 L17,0 L17,18 L0,18 Z " fill="#243C1F" transform="translate(296,169)"/>
<path d="M0,0 L17,0 L17,18 L0,18 Z " fill="#498036" transform="translate(253,169)"/>
<path d="M0,0 L17,0 L17,18 L0,18 Z " fill="#E5DD9D" transform="translate(364,113)"/>
<path d="M0,0 L17,0 L17,13 L0,13 Z " fill="#477E36" transform="translate(124,397)"/>
<path d="M0,0 L2,1 Z " fill="#39542A" transform="translate(68,371)"/>
<path d="M0,0 L2,1 Z " fill="#375028" transform="translate(56,371)"/>
<path d="M0,0 Z " fill="#364E28" transform="translate(312,431)"/>
<path d="M0,0 Z " fill="#375229" transform="translate(59,371)"/>
<path d="M0,0 Z " fill="#39552B" transform="translate(95,248)"/>
<path d="M0,0 Z " fill="#486033" transform="translate(383,243)"/>
<path d="M0,0 Z " fill="#344B24" transform="translate(96,237)"/>
<path d="M0,0 Z " fill="#3A542A" transform="translate(99,236)"/>
</svg>
