<?xml version="1.0" encoding="UTF-8"?>
<!-- Generator: https://ezgif.com/png-to-svg -->
<svg version="1.1" xmlns="http://www.w3.org/2000/svg" width="512" height="512">
<path d="M0,0 L67,0 L67,15 L82,15 L82,33 L152,33 L152,15 L167,15 L167,0 L232,0 L232,15 L247,15 L247,33 L261,33 L261,93 L275,93 L275,146 L261,146 L261,165 L247,165 L247,200 L261,200 L261,221 L275,221 L275,294 L262,294 L262,327 L303,327 L303,381 L182,381 L182,361 L96,361 L96,380 L-75,380 L-75,348 L-88,348 L-88,328 L-102,328 L-102,221 L-87,221 L-87,175 L-72,175 L-72,144 L-71,143 L-60,143 L-57,144 L-57,110 L-43,110 L-43,78 L-28,78 L-28,33 L-14,33 L-14,15 L0,15 Z M35,35 L35,52 L49,52 L49,35 Z M216,35 L216,52 L230,52 L230,35 Z " fill="#482070" transform="translate(152,70)"/>
<path d="M0,0 L67,0 L67,15 L82,15 L82,33 L152,33 L152,15 L167,15 L167,0 L232,0 L232,15 L247,15 L247,33 L261,33 L261,93 L275,93 L275,146 L261,146 L261,165 L247,165 L247,200 L261,200 L261,221 L275,221 L275,294 L262,294 L262,327 L303,327 L303,381 L182,381 L182,361 L96,361 L96,380 L-75,380 L-75,348 L-88,348 L-88,328 L-102,328 L-102,221 L-87,221 L-87,175 L-72,175 L-72,144 L-71,143 L-60,143 L-57,144 L-57,110 L-43,110 L-43,78 L-28,78 L-28,33 L-14,33 L-14,15 L0,15 Z M1,16 L1,34 L-12,34 L-12,83 L-27,83 L-27,128 L-43,128 L-43,165 L-56,165 L-56,184 L-71,184 L-71,222 L-86,222 L-86,239 L-71,239 L-71,257 L-86,257 L-86,326 L-85,327 L-72,327 L-72,344 L-57,344 L-57,361 L-13,361 L-13,344 L-43,344 L-43,327 L-27,327 L-27,257 L-12,257 L-12,327 L2,327 L2,361 L50,361 L50,294 L64,294 L65,344 L184,344 L184,327 L199,327 L199,293 L213,293 L213,204 L200,204 L200,257 L184,257 L184,275 L95,275 L95,257 L80,257 L80,239 L96,239 L96,255 L183,255 L183,239 L199,239 L199,223 L80,223 L80,203 L199,203 L199,183 L230,183 L230,163 L245,163 L245,145 L16,145 L16,128 L260,128 L260,96 L245,96 L245,34 L231,34 L231,16 L169,16 L169,34 L153,34 L153,52 L81,52 L81,34 L65,34 L65,16 Z " fill="#151829" transform="translate(152,70)"/>
<path d="M0,0 L229,0 L229,18 L214,18 L214,38 L183,38 L183,58 L64,58 L64,78 L183,78 L183,94 L167,94 L167,110 L80,110 L80,94 L64,94 L64,112 L79,112 L79,130 L168,130 L168,112 L184,112 L184,59 L197,59 L197,148 L183,148 L183,182 L168,182 L168,199 L49,199 L49,38 L18,38 L18,20 L0,20 Z " fill="#E2C7BD" transform="translate(168,215)"/>
<path d="M0,0 L67,0 L67,15 L82,15 L82,33 L152,33 L152,15 L167,15 L167,0 L232,0 L232,15 L247,15 L247,33 L261,33 L261,93 L275,93 L275,146 L261,146 L261,165 L247,165 L247,200 L261,200 L261,221 L275,221 L275,294 L262,294 L262,327 L303,327 L303,381 L182,381 L182,361 L96,361 L96,380 L-75,380 L-75,348 L-88,348 L-88,328 L-102,328 L-102,221 L-87,221 L-87,175 L-72,175 L-72,144 L-71,143 L-60,143 L-57,144 L-57,110 L-43,110 L-43,78 L-28,78 L-28,33 L-14,33 L-14,15 L0,15 Z M1,16 L1,34 L-12,34 L-12,83 L-27,83 L-27,128 L-43,128 L-43,165 L-56,165 L-56,184 L-71,184 L-71,222 L-86,222 L-86,239 L-71,239 L-71,257 L-86,257 L-86,346 L-73,346 L-73,378 L94,378 L95,360 L184,359 L184,379 L301,379 L301,328 L260,327 L245,327 L245,275 L260,275 L260,222 L245,222 L245,239 L231,239 L231,184 L230,163 L245,163 L245,145 L16,145 L16,128 L260,128 L260,96 L245,96 L245,34 L231,34 L231,16 L169,16 L169,34 L153,34 L153,52 L81,52 L81,34 L65,34 L65,16 Z " fill="#131626" transform="translate(152,70)"/>
<path d="M0,0 L62,0 L62,18 L76,18 L76,80 L90,80 L90,111 L-168,111 L-168,80 L-119,80 L-120,36 L-120,19 L-119,18 L-88,18 L-88,36 L-16,36 L-16,18 L0,18 Z M47,19 L47,36 L61,36 L61,19 Z " fill="#6E3B8F" transform="translate(321,86)"/>
<path d="M0,0 L31,0 L32,1 L32,56 L46,56 L46,39 L61,39 L61,92 L46,92 L46,144 L61,144 L61,161 L46,161 L46,178 L1,178 L1,144 L17,144 L17,111 L32,111 L32,74 L15,74 L15,110 L14,110 L14,21 L1,21 L1,55 L13,55 L13,56 L1,56 L1,74 L-15,74 L-15,92 L-104,92 L-104,74 L-119,74 L-119,56 L-103,56 L-103,72 L-16,72 L-16,56 L0,56 L0,40 L-119,40 L-119,20 L0,20 Z " fill="#522478" transform="translate(351,253)"/>
<path d="M0,0 L64,0 L64,18 L49,19 L34,19 L34,36 L49,36 L49,80 L0,80 L0,111 L258,111 L258,80 L259,80 L259,112 L15,112 L15,149 L32,149 L32,150 L15,150 L15,168 L1,168 L-13,167 L-13,129 L-27,129 L-28,118 L-29,128 L-43,128 L-43,113 L-14,113 L-13,95 L-28,95 L-28,67 L-13,67 L-13,18 L0,18 Z " fill="#4E2475" transform="translate(153,86)"/>
<path d="M0,0 L1,0 L1,18 L32,18 L32,128 L31,129 L17,129 L17,196 L1,196 L1,110 L-17,110 L-17,179 L-30,179 L-30,39 L-29,39 L-29,58 L0,58 L0,73 L1,74 L1,92 L17,92 L17,74 L3,74 L1,73 L1,38 L-30,38 L-30,19 L-17,19 L-17,1 Z " fill="#6D3A8E" transform="translate(185,235)"/>
<path d="M0,0 L14,0 L14,18 L30,18 L30,88 L14,88 L14,105 L44,105 L44,122 L0,122 L0,105 L-15,105 L-15,88 L-28,88 L-29,87 L-29,18 L0,18 Z " fill="#4D2276" transform="translate(95,309)"/>
<path d="M0,0 L133,0 L133,6 L14,6 L14,26 L133,26 L133,42 L117,42 L117,58 L30,58 L30,42 L14,42 L14,61 L28,61 L28,77 L0,78 Z " fill="#E7D2C1" transform="translate(218,267)"/>
<path d="M0,0 L1,0 L1,91 L3,90 L29,90 L29,74 L15,74 L15,73 L30,73 L30,91 L119,91 L119,92 L31,92 L31,126 L14,126 L14,110 L1,110 L1,142 L68,142 L68,125 L103,125 L103,109 L119,109 L119,125 L133,125 L134,143 L119,143 L119,160 L0,160 Z " fill="#D9B5B7" transform="translate(217,254)"/>
<path d="M0,0 L1,0 L1,55 L15,55 L15,38 L30,38 L30,91 L15,91 L15,143 L30,143 L30,160 L15,160 L15,177 L-30,177 L-30,143 L-14,143 L-14,110 L1,110 L1,73 L-16,73 L-16,72 L0,72 Z " fill="#492071" transform="translate(382,254)"/>
<path d="M0,0 L48,0 L48,1 L33,1 L33,18 L48,18 L48,62 L0,62 Z " fill="#151829" transform="translate(154,104)"/>
<path d="M0,0 L1,0 L1,17 L74,17 L74,0 L98,0 L98,17 L90,17 L89,15 L89,17 L98,18 L98,36 L90,36 L89,29 L89,35 L87,36 L17,36 L16,35 L12,36 L3,36 L2,35 L-6,36 L-13,36 L-13,1 Z " fill="#713D91" transform="translate(231,105)"/>
<path d="M0,0 L14,0 L14,18 L29,18 L29,70 L0,70 L0,55 L14,55 L14,36 L0,36 L0,54 L-14,54 L-14,18 L0,18 Z " fill="#6D3A90" transform="translate(95,309)"/>
<path d="M0,0 L31,0 L31,73 L15,73 L15,110 L14,110 L14,21 L1,21 L1,55 L13,55 L13,56 L1,56 L1,74 L0,74 L0,40 L-119,40 L-119,39 L0,39 L0,21 L-119,21 L-119,20 L0,20 Z " fill="#6F468A" transform="translate(351,253)"/>
<path d="M0,0 L1,0 L1,91 L3,90 L29,90 L29,74 L15,74 L15,73 L30,73 L30,91 L119,91 L119,92 L31,92 L31,126 L14,126 L14,110 L1,110 L1,159 L118,159 L118,128 L104,128 L104,133 L102,133 L102,128 L103,126 L103,109 L119,109 L119,125 L133,125 L134,143 L119,143 L119,160 L0,160 Z " fill="#D4C0B5" transform="translate(217,254)"/>
<path d="M0,0 L1,0 L1,32 L-14,32 L-14,78 L-28,78 L-28,182 L-14,182 L-14,202 L-1,202 L-1,234 L166,234 L166,216 L167,215 L256,215 L256,235 L373,235 L373,184 L332,184 L332,149 L345,149 L345,78 L333,78 L333,77 L347,77 L347,150 L334,150 L334,183 L375,183 L375,237 L254,237 L254,217 L168,217 L168,236 L-3,236 L-3,204 L-16,204 L-16,184 L-30,184 L-30,77 L-15,77 L-15,31 L0,31 Z " fill="#020305" transform="translate(80,214)"/>
<path d="M0,0 L14,0 L14,20 L13,25 L3,26 L1,25 L1,30 L24,30 L24,41 L28,42 L14,43 L14,56 L-50,56 L-50,43 L0,43 Z " fill="#713D91" transform="translate(203,123)"/>
<path d="M0,0 L31,0 L31,1 L17,1 L17,18 L32,18 L32,49 L0,49 Z " fill="#151829" transform="translate(351,104)"/>
<path d="M0,0 L512,0 L512,119 L511,119 L511,1 L1,1 L1,512 L0,512 Z " fill="#040406" transform="translate(0,0)"/>
<path d="M0,0 L16,0 L16,19 L15,30 L-32,30 L-32,19 L-30,18 L-30,16 L0,16 Z " fill="#6F3C8F" transform="translate(314,149)"/>
<path d="M0,0 L15,0 L15,18 L14,19 L14,30 L-33,30 L-33,17 L-1,16 Z " fill="#703C90" transform="translate(267,149)"/>
<path d="M0,0 L14,0 L14,61 L0,61 Z " fill="#151829" transform="translate(397,105)"/>
<path d="M0,0 L16,0 L16,17 L30,17 L30,34 L0,34 Z " fill="#34155F" transform="translate(352,397)"/>
<path d="M0,0 L1,0 L1,51 L-14,51 L-14,1 Z " fill="#32165B" transform="translate(216,363)"/>
<path d="M0,0 L13,0 L13,52 L0,52 Z " fill="#51247A" transform="translate(398,293)"/>
<path d="M0,0 L1,0 L1,52 L28,52 L28,37 L29,37 L29,70 L15,70 L15,87 L14,87 L14,70 L1,70 L0,69 Z " fill="#32165A" transform="translate(66,327)"/>
<path d="M0,0 L17,0 L17,34 L0,34 Z " fill="#32155C" transform="translate(169,397)"/>
<path d="M0,0 L229,0 L229,1 L18,1 L18,20 L0,20 Z " fill="#C4ACAB" transform="translate(168,215)"/>
<path d="M0,0 L16,0 L16,16 L30,16 L31,34 L15,34 L15,19 L1,19 L1,24 L-1,24 L-1,19 L0,17 Z " fill="#D5B3B5" transform="translate(320,363)"/>
<path d="M0,0 L28,0 L28,17 L0,17 Z " fill="#381764" transform="translate(412,414)"/>
<path d="M0,0 L15,0 L15,1 L1,1 L1,68 L-15,68 L-15,51 L0,51 Z " fill="#4F2576" transform="translate(201,363)"/>
<path d="M0,0 L16,0 L16,21 L0,21 Z " fill="#30145A" transform="translate(109,253)"/>
<path d="M0,0 L17,0 L17,19 L0,19 Z " fill="#31155A" transform="translate(169,345)"/>
<path d="M0,0 L17,0 L17,17 L0,17 Z " fill="#5E3679" transform="translate(231,363)"/>
<path d="M0,0 L16,0 L16,18 L0,18 Z " fill="#16172A" transform="translate(109,309)"/>
<path d="M0,0 L16,0 L16,18 L0,18 Z " fill="#18182B" transform="translate(186,309)"/>
<path d="M0,0 L15,0 L15,19 L0,19 Z " fill="#2E1359" transform="translate(125,216)"/>
<path d="M0,0 L16,0 L16,17 L0,17 Z " fill="#502477" transform="translate(217,414)"/>
<path d="M0,0 L16,0 L16,17 L0,17 Z " fill="#4F2377" transform="translate(153,86)"/>
<path d="M0,0 L15,0 L15,18 L0,18 Z " fill="#31145A" transform="translate(382,379)"/>
<path d="M0,0 L15,0 L15,18 L0,18 Z " fill="#4D2375" transform="translate(321,86)"/>
<path d="M0,0 L14,0 L14,19 L0,19 Z " fill="#2F1458" transform="translate(95,345)"/>
<path d="M0,0 L15,0 L15,17 L0,17 Z " fill="#391764" transform="translate(397,397)"/>
<path d="M0,0 L15,0 L15,17 L0,17 Z " fill="#562B75" transform="translate(320,363)"/>
<path d="M0,0 L15,0 L15,17 L0,17 Z " fill="#34155F" transform="translate(125,181)"/>
<path d="M0,0 L15,0 L15,17 L0,17 Z " fill="#151727" transform="translate(315,149)"/>
<path d="M0,0 L15,0 L15,17 L0,17 Z " fill="#161728" transform="translate(267,149)"/>
<path d="M0,0 L14,0 L14,18 L0,18 Z " fill="#451E70" transform="translate(81,309)"/>
<path d="M0,0 L14,0 L14,18 L0,18 Z " fill="#141627" transform="translate(95,291)"/>
<path d="M0,0 L14,0 L14,18 L0,18 Z " fill="#141727" transform="translate(383,86)"/>
<path d="M0,0 L14,0 L14,17 L0,17 Z " fill="#502379" transform="translate(125,414)"/>
<path d="M0,0 L14,0 L14,17 L0,17 Z " fill="#703C93" transform="translate(382,414)"/>
<path d="M0,0 L13,0 L13,18 L0,18 Z " fill="#141728" transform="translate(140,86)"/>
<path d="M0,0 L13,0 L13,17 L0,17 Z " fill="#502379" transform="translate(427,414)"/>
<path d="M0,0 L13,0 L13,15 L0,16 Z " fill="#4F2378" transform="translate(67,293)"/>
<path d="M0,0 L1,0 L1,180 L0,180 Z " fill="#000000" transform="translate(511,212)"/>
<path d="M0,0 L17,0 L17,1 L2,1 L2,18 L17,18 L17,20 L0,20 Z " fill="#030407" transform="translate(185,104)"/>
<path d="M0,0 L16,0 L16,1 L2,1 L2,18 L16,18 L16,20 L1,20 L0,19 Z " fill="#020407" transform="translate(366,104)"/>
<path d="M0,0 L1,0 L1,56 L0,56 Z " fill="#000000" transform="translate(511,456)"/>
<path d="M0,0 L1,0 L1,39 L0,39 Z " fill="#000000" transform="translate(511,172)"/>
<path d="M0,0 L1,0 L1,16 L0,16 Z " fill="#000000" transform="translate(511,436)"/>
<path d="M0,0 L1,0 L1,16 L0,16 Z " fill="#000000" transform="translate(511,396)"/>
<path d="M0,0 L1,0 L1,15 L0,15 Z " fill="#000000" transform="translate(511,120)"/>
<path d="M0,0 L1,0 L1,14 L0,14 Z " fill="#000000" transform="translate(511,155)"/>
<path d="M0,0 L1,0 L1,14 L0,14 Z " fill="#000000" transform="translate(511,136)"/>
<path d="M0,0 L1,0 L1,7 L0,7 Z " fill="#000000" transform="translate(511,413)"/>
<path d="M0,0 Z " fill="#000000" transform="translate(511,152)"/>
<path d="M0,0 Z " fill="#000002" transform="translate(374,511)"/>
<path d="M0,0 Z " fill="#000003" transform="translate(362,511)"/>
<path d="M0,0 Z " fill="#000001" transform="translate(93,511)"/>
<path d="M0,0 Z " fill="#000000" transform="translate(511,434)"/>
<path d="M0,0 Z " fill="#000001" transform="translate(511,424)"/>
<path d="M0,0 Z " fill="#000101" transform="translate(511,421)"/>
</svg>
