<?xml version="1.0" encoding="UTF-8"?>
<!-- Generator: https://ezgif.com/png-to-svg -->
<svg version="1.1" xmlns="http://www.w3.org/2000/svg" width="512" height="512">
<path d="M0,0 L67,0 L67,15 L84,15 L84,32 L142,32 L142,15 L158,15 L158,0 L224,0 L224,15 L240,15 L240,32 L256,32 L256,82 L271,82 L271,151 L256,151 L256,167 L240,167 L240,199 L256,199 L256,233 L270,233 L270,285 L256,285 L256,300 L290,300 L290,319 L286,319 L286,336 L269,336 L269,352 L173,352 L173,336 L98,336 L98,352 L-94,352 L-94,302 L-109,302 L-109,217 L-94,217 L-94,183 L-78,183 L-78,149 L-62,149 L-62,115 L-47,115 L-47,82 L-31,82 L-31,32 L-15,32 L-15,15 L0,15 Z " fill="#6AB237" transform="translate(161,71)"/>
<path d="M0,0 L67,0 L67,15 L84,15 L84,32 L142,32 L142,15 L158,15 L158,0 L224,0 L224,15 L240,15 L240,32 L256,32 L256,82 L271,82 L271,151 L256,151 L256,167 L240,167 L240,199 L256,199 L256,233 L270,233 L270,285 L256,285 L256,300 L290,300 L290,319 L286,319 L286,336 L269,336 L269,352 L173,352 L173,336 L98,336 L98,352 L-94,352 L-94,302 L-109,302 L-109,217 L-94,217 L-94,183 L-78,183 L-78,149 L-62,149 L-62,115 L-47,115 L-47,82 L-31,82 L-31,32 L-15,32 L-15,15 L0,15 Z M2,16 L1,17 L1,33 L-15,33 L-15,82 L-30,82 L-30,116 L-46,116 L-46,150 L-62,150 L-62,184 L-77,184 L-77,217 L-93,217 L-93,301 L-77,301 L-77,335 L-30,335 L-30,318 L-46,318 L-46,301 L-15,301 L-15,284 L2,284 L2,234 L18,234 L18,335 L81,335 L81,318 L50,318 L50,284 L34,284 L34,268 L50,268 L50,234 L66,234 L66,301 L82,301 L82,318 L174,318 L174,301 L191,301 L191,251 L207,251 L207,200 L223,200 L223,166 L239,166 L239,150 L34,150 L34,133 L255,133 L255,82 L239,82 L239,33 L223,33 L223,16 L159,16 L159,33 L143,33 L143,51 L84,51 L84,33 L83,32 L67,32 L67,16 Z " fill="#0B320A" transform="translate(161,71)"/>
<path d="M0,0 L189,0 L189,16 L173,16 L173,50 L157,50 L157,101 L141,101 L141,151 L124,151 L124,168 L32,168 L32,151 L16,151 L16,84 L0,84 L0,34 L-16,34 L-16,16 L0,16 Z " fill="#ACE9C0" transform="translate(211,221)"/>
<path d="M0,0 L32,0 L32,34 L47,34 L47,68 L32,68 L32,118 L61,118 L61,151 L-33,151 L-33,135 L-110,135 L-110,151 L-300,151 L-300,101 L-284,101 L-284,135 L-237,135 L-237,118 L-253,118 L-253,101 L-222,101 L-222,84 L-205,84 L-205,34 L-189,34 L-189,135 L-126,135 L-126,118 L-157,118 L-157,84 L-173,84 L-173,68 L-157,68 L-157,34 L-141,34 L-141,101 L-125,101 L-125,118 L-33,118 L-33,101 L-16,101 L-16,51 L0,51 Z " fill="#0D380B" transform="translate(368,271)"/>
<path d="M0,0 L16,0 L16,16 L32,16 L32,68 L16,68 L16,84 L32,84 L32,101 L48,101 L48,168 L31,168 L31,185 L0,185 L0,202 L16,202 L16,219 L-31,219 L-31,185 L-47,185 L-47,101 L-31,101 L-31,68 L-16,68 L-16,34 L0,34 Z " fill="#377E27" transform="translate(115,187)"/>
<path d="M0,0 L31,0 L31,16 L63,16 L63,66 L46,66 L46,83 L15,83 L15,100 L31,100 L31,117 L-16,117 L-16,67 L-1,66 Z " fill="#549B2F" transform="translate(100,289)"/>
<path d="M0,0 L32,0 L32,34 L47,34 L47,68 L32,68 L32,118 L61,118 L61,135 L-16,135 L-16,118 L1,118 L1,51 L16,51 L16,1 L0,1 Z " fill="#5CA530" transform="translate(368,271)"/>
<path d="M0,0 L189,0 L189,16 L173,16 L173,50 L172,50 L172,16 L0,16 Z " fill="#69C192" transform="translate(211,221)"/>
<path d="M0,0 L33,0 L33,18 L49,18 L49,50 L0,50 Z " fill="#0C390B" transform="translate(335,104)"/>
<path d="M0,0 L125,0 L125,17 L0,17 Z " fill="#66C090" transform="translate(227,271)"/>
<path d="M0,0 L32,0 L32,18 L48,18 L48,50 L0,50 Z " fill="#0C380B" transform="translate(179,104)"/>
<path d="M0,0 L32,0 L32,17 L48,17 L48,34 L16,34 L16,18 L-15,18 L-15,84 L-31,84 L-31,51 L-16,51 L-16,17 L0,17 Z " fill="#408328" transform="translate(115,271)"/>
<path d="M0,0 L92,0 L92,17 L0,17 Z " fill="#68C293" transform="translate(243,372)"/>
<path d="M0,0 L65,0 L65,16 L81,16 L81,17 L16,17 L16,35 L15,35 L15,17 L-1,17 L-1,1 Z " fill="#509A30" transform="translate(163,87)"/>
<path d="M0,0 L512,0 L512,1 L1,1 L1,512 L0,512 Z " fill="#889075" transform="translate(0,0)"/>
<path d="M0,0 L15,0 L15,67 L0,67 Z " fill="#398228" transform="translate(369,322)"/>
<path d="M0,0 L1,0 L1,18 L60,18 L60,33 L0,33 Z " fill="#4D982F" transform="translate(244,104)"/>
<path d="M0,0 L15,0 L15,33 L-16,33 L-16,17 L0,17 Z " fill="#0B360B" transform="translate(131,322)"/>
<path d="M0,0 L1,0 L1,49 L33,49 L33,18 L49,18 L49,50 L0,50 Z " fill="#2B631F" transform="translate(335,104)"/>
<path d="M0,0 L64,0 L64,17 L32,17 L32,1 L1,1 L1,17 L0,17 Z " fill="#529B31" transform="translate(320,87)"/>
<path d="M0,0 L32,0 L32,17 L0,17 Z " fill="#579F2F" transform="translate(99,389)"/>
<path d="M0,0 L32,0 L32,17 L0,17 Z " fill="#0E390C" transform="translate(179,271)"/>
<path d="M0,0 L32,0 L32,17 L0,17 Z " fill="#0C360B" transform="translate(115,271)"/>
<path d="M0,0 L16,0 L16,34 L0,34 Z " fill="#0E390C" transform="translate(131,203)"/>
<path d="M0,0 L16,0 L16,32 L-32,32 L-32,31 L0,31 Z " fill="#255C1D" transform="translate(211,122)"/>
<path d="M0,0 L31,0 L31,16 L0,16 Z " fill="#0B360B" transform="translate(163,187)"/>
<path d="M0,0 L15,0 L15,33 L0,33 Z " fill="#0C380B" transform="translate(84,322)"/>
<path d="M0,0 L15,0 L15,32 L0,32 Z " fill="#C8E59F" transform="translate(163,122)"/>
<path d="M0,0 L14,0 L14,31 L0,31 Z " fill="#0C390B" transform="translate(69,256)"/>
<path d="M0,0 L1,0 L1,50 L-16,50 L-16,33 L0,33 Z " fill="#67B98E" transform="translate(351,322)"/>
<path d="M0,0 L1,0 L1,50 L16,50 L16,67 L0,67 Z " fill="#69B58D" transform="translate(227,305)"/>
<path d="M0,0 L17,0 L17,17 L0,17 Z " fill="#5AA230" transform="translate(146,389)"/>
<path d="M0,0 L32,0 L32,17 L16,17 L16,1 L0,1 Z " fill="#3A802A" transform="translate(368,271)"/>
<path d="M0,0 L16,0 L16,18 L0,18 Z " fill="#0E380C" transform="translate(163,237)"/>
<path d="M0,0 L16,0 L16,18 L0,18 Z " fill="#C5E39F" transform="translate(368,104)"/>
<path d="M0,0 L16,0 L16,18 L0,18 Z " fill="#1D4F1A" transform="translate(352,104)"/>
<path d="M0,0 L16,0 L16,18 L0,18 Z " fill="#438D2C" transform="translate(304,104)"/>
<path d="M0,0 L16,0 L16,18 L0,18 Z " fill="#1C4E19" transform="translate(195,104)"/>
<path d="M0,0 L16,0 L16,17 L0,17 Z " fill="#123C0D" transform="translate(244,154)"/>
<path d="M0,0 L16,0 L16,17 L0,17 Z " fill="#CAE6A4" transform="translate(211,104)"/>
<path d="M0,0 L16,1 L16,17 L0,17 Z " fill="#1B4F18" transform="translate(146,355)"/>
<path d="M0,0 L16,0 L16,16 L0,16 Z " fill="#39812D" transform="translate(195,221)"/>
<path d="M0,0 L15,0 L15,17 L0,17 Z " fill="#398128" transform="translate(179,389)"/>
<path d="M0,0 L15,0 L15,17 L0,17 Z " fill="#0C370B" transform="translate(305,154)"/>
<path d="M0,0 L15,0 L16,16 L0,16 Z " fill="#0E390B" transform="translate(384,88)"/>
<path d="M0,0 L15,0 L15,16 L0,16 Z " fill="#0C370B" transform="translate(147,289)"/>
<path d="M0,0 L15,0 L15,16 L0,16 Z " fill="#0C370B" transform="translate(384,170)"/>
<path d="M0,0 L14,0 L15,16 L-1,16 Z " fill="#0D390A" transform="translate(305,88)"/>
<path d="M0,0 L3,1 Z " fill="#5D684C" transform="translate(327,511)"/>
<path d="M0,0 L2,1 Z " fill="#5C674B" transform="translate(314,511)"/>
<path d="M0,0 Z " fill="#848C73" transform="translate(511,511)"/>
<path d="M0,0 Z " fill="#858A71" transform="translate(509,511)"/>
<path d="M0,0 Z " fill="#83886F" transform="translate(503,511)"/>
<path d="M0,0 Z " fill="#6C765A" transform="translate(455,511)"/>
<path d="M0,0 Z " fill="#5C674C" transform="translate(331,511)"/>
<path d="M0,0 Z " fill="#5E694B" transform="translate(311,511)"/>
<path d="M0,0 Z " fill="#5C664B" transform="translate(297,511)"/>
<path d="M0,0 Z " fill="#505D3F" transform="translate(129,511)"/>
<path d="M0,0 Z " fill="#1C3C18" transform="translate(447,407)"/>
</svg>
