<?xml version="1.0" encoding="UTF-8"?>
<!-- Generator: https://ezgif.com/png-to-svg -->
<svg version="1.1" xmlns="http://www.w3.org/2000/svg" width="512" height="512">
<path d="M0,0 L99,0 L99,38 L154,38 L154,19 L155,18 L166,18 L166,1 L167,0 L254,0 L254,72 L273,72 L273,151 L254,151 L254,173 L234,173 L234,206 L254,206 L254,232 L273,232 L273,323 L303,323 L303,380 L171,380 L171,363 L125,363 L125,380 L-73,380 L-73,311 L-84,311 L-85,310 L-85,233 L-84,232 L-72,231 L-72,213 L-71,212 L-56,212 L-56,176 L-55,175 L-38,175 L-37,120 L-19,120 L-20,72 L0,72 Z M60,37 L60,57 L78,57 L78,37 Z M216,37 L216,57 L233,57 L233,37 Z " fill="#1E2722" transform="translate(140,69)"/>
<path d="M0,0 L59,0 L59,19 L39,19 L21,18 L21,78 L59,78 L59,40 L154,40 L154,1 L214,1 L214,19 L196,19 L176,18 L176,78 L213,78 L213,62 L234,62 L234,116 L19,116 L19,136 L38,135 L214,135 L214,153 L195,153 L195,191 L60,191 L60,326 L88,326 L88,343 L21,343 L21,309 L3,309 L3,215 L-19,215 L-19,195 L-56,195 L-56,179 L-37,179 L-37,115 L-19,115 L-19,62 L0,62 Z " fill="#517A79" transform="translate(160,87)"/>
<path d="M0,0 L49,0 L49,18 L29,18 L11,17 L11,77 L49,77 L49,39 L144,39 L144,0 L204,0 L204,18 L186,18 L166,17 L166,77 L203,77 L203,61 L224,61 L224,115 L9,115 L9,93 L0,93 Z " fill="#709995" transform="translate(170,88)"/>
<path d="M0,0 L176,0 L176,18 L157,18 L157,56 L21,56 L21,36 L0,36 Z " fill="#D8BC3D" transform="translate(198,222)"/>
<path d="M0,0 L52,0 L69,17 L69,95 L30,95 L30,111 L86,111 L86,128 L13,128 L13,77 L0,77 Z " fill="#487170" transform="translate(75,302)"/>
<path d="M0,0 L116,0 L116,20 L97,21 L96,38 L74,38 L74,54 L25,54 L25,39 L0,39 Z " fill="#B3962E" transform="translate(239,358)"/>
<path d="M0,0 L20,0 L20,111 L52,111 L52,128 L-40,128 L-40,95 L-59,95 L-59,110 L-60,110 L-60,94 L-38,94 L-38,77 L-37,77 L-37,94 L-18,94 L-18,77 L0,77 Z " fill="#477170" transform="translate(373,302)"/>
<path d="M0,0 L1,0 L1,135 L29,135 L29,152 L-38,152 L-39,118 L-55,117 L-55,56 L-42,56 L-42,24 L-22,24 L-22,56 L-41,56 L-41,101 L-22,101 L-22,83 L0,83 Z " fill="#446C6C" transform="translate(219,278)"/>
<path d="M0,0 L116,0 L116,32 L0,32 Z " fill="#D8BC3E" transform="translate(239,302)"/>
<path d="M0,0 L176,0 L176,18 L0,18 Z " fill="#B3972E" transform="translate(198,222)"/>
<path d="M0,0 L135,0 L135,24 L0,24 Z " fill="#7A631F" transform="translate(220,278)"/>
<path d="M0,0 L116,0 L116,23 L0,23 Z " fill="#78611E" transform="translate(239,335)"/>
<path d="M0,0 L115,0 L115,20 L96,21 L0,21 Z " fill="#D8BB3D" transform="translate(240,358)"/>
<path d="M0,0 L99,0 L99,38 L154,38 L154,19 L155,18 L166,18 L166,1 L167,0 L254,0 L254,72 L273,72 L273,151 L254,151 L254,173 L234,173 L234,206 L254,206 L254,232 L273,232 L273,323 L303,323 L303,380 L171,380 L171,362 L172,362 L172,378 L301,378 L301,324 L271,324 L271,233 L253,233 L252,232 L252,207 L232,207 L232,172 L233,171 L252,171 L252,150 L253,149 L271,149 L271,74 L253,74 L252,73 L252,2 L168,2 L168,19 L156,19 L156,40 L98,40 L97,39 L97,2 L2,2 L2,73 L1,74 L-17,74 L-17,121 L-18,122 L-35,122 L-35,177 L-37,176 L-37,120 L-19,120 L-20,72 L0,72 Z " fill="#070A09" transform="translate(140,69)"/>
<path d="M0,0 L1,0 L1,17 L20,17 L20,0 L38,0 L38,51 L-2,51 L-2,18 L-21,18 L-21,33 L-22,33 L-22,17 L0,17 Z " fill="#426967" transform="translate(335,379)"/>
<path d="M0,0 L22,0 L22,16 L51,16 L51,33 L0,33 Z " fill="#5E8886" transform="translate(197,397)"/>
<path d="M0,0 L19,0 L19,17 L52,17 L52,33 L0,33 Z " fill="#66918D" transform="translate(373,397)"/>
<path d="M0,0 L59,0 L59,1 L10,1 L10,94 L0,94 Z " fill="#58817F" transform="translate(160,87)"/>
<path d="M0,0 L20,0 L20,44 L0,44 Z " fill="#638F8B" transform="translate(373,302)"/>
<path d="M0,0 L1,0 L1,139 L0,156 L-19,156 L-19,138 L0,138 L0,95 L-116,95 L-116,94 L0,94 L0,61 L-115,61 L-115,60 L0,60 Z " fill="#69571C" transform="translate(355,240)"/>
<path d="M0,0 L12,0 L12,68 L207,68 L207,53 L208,53 L208,70 L10,70 L10,1 L0,1 Z " fill="#060807" transform="translate(57,379)"/>
<path d="M0,0 L1,0 L1,54 L-19,54 L-19,29 L0,29 Z " fill="#487170" transform="translate(393,149)"/>
<path d="M0,0 L20,0 L20,18 L0,18 Z " fill="#477170" transform="translate(373,302)"/>
<path d="M0,0 L22,0 L22,16 L0,16 Z " fill="#5F8986" transform="translate(139,414)"/>
<path d="M0,0 L19,0 L19,17 L0,17 Z " fill="#1D241F" transform="translate(336,379)"/>
<path d="M0,0 L17,0 L17,18 L0,18 Z " fill="#202925" transform="translate(297,163)"/>
<path d="M0,0 L16,0 L16,17 L0,17 Z " fill="#1D2420" transform="translate(263,164)"/>
<path d="M0,0 L1,0 L1,36 L-16,36 L-16,34 L-1,34 L-1,1 Z " fill="#070A09" transform="translate(85,247)"/>
<path d="M0,0 L1,0 L1,20 L18,20 L18,6 L19,1 L20,1 L20,21 L19,22 L1,22 L0,21 Z " fill="#0A0F0D" transform="translate(355,106)"/>
<path d="M0,0 L1,0 L2,7 L-18,7 L-18,6 L-1,4 Z " fill="#5C7F7A" transform="translate(217,99)"/>
</svg>
