<?xml version="1.0" encoding="UTF-8"?>
<!-- Generator: https://ezgif.com/png-to-svg -->
<svg version="1.1" xmlns="http://www.w3.org/2000/svg" width="512" height="512">
<path d="M0,0 L77,0 L77,18 L96,18 L96,36 L137,36 L137,18 L154,17 L155,0 L233,0 L233,18 L250,18 L250,92 L267,92 L267,167 L250,167 L250,225 L256,224 L266,224 L267,225 L267,312 L294,312 L294,365 L167,365 L167,346 L96,346 L96,365 L-102,365 L-102,325 L-106,325 L-106,224 L-98,223 L-87,225 L-87,186 L-70,186 L-70,149 L-52,149 L-52,110 L-35,110 L-35,76 L-18,76 L-18,18 L0,18 Z " fill="#D686C8" transform="translate(163,72)"/>
<path d="M0,0 L77,0 L77,18 L96,18 L96,36 L137,36 L137,18 L154,17 L155,0 L233,0 L233,18 L250,18 L250,92 L267,92 L267,167 L250,167 L250,225 L256,224 L266,224 L267,225 L267,312 L294,312 L294,365 L167,365 L167,346 L96,346 L96,365 L-102,365 L-102,325 L-106,325 L-106,224 L-98,223 L-87,225 L-87,186 L-70,186 L-70,149 L-52,149 L-52,110 L-35,110 L-35,76 L-18,76 L-18,18 L0,18 Z M1,18 L1,76 L-17,76 L-17,111 L-34,111 L-34,150 L-51,150 L-51,186 L-69,186 L-69,205 L-9,205 L-9,208 L-3,208 L-3,211 L1,211 L1,324 L2,325 L3,345 L80,345 L80,325 L38,325 L38,225 L59,225 L59,311 L94,311 L94,325 L175,325 L175,310 L194,310 L194,281 L212,281 L212,225 L231,225 L231,345 L277,345 L277,324 L249,324 L249,225 L232,225 L232,166 L249,166 L249,93 L232,93 L232,18 L156,18 L156,56 L76,56 L76,18 Z " fill="#372534" transform="translate(163,72)"/>
<path d="M0,0 L230,0 L230,16 L213,16 L213,75 L230,75 L230,174 L258,174 L258,195 L212,195 L212,75 L193,75 L193,131 L175,131 L175,160 L156,160 L156,175 L75,175 L75,161 L40,161 L40,75 L19,75 L19,175 L61,175 L61,195 L0,195 L0,130 L18,130 L18,75 L0,75 Z " fill="#D273C3" transform="translate(182,222)"/>
<path d="M0,0 L18,0 L18,36 L36,36 L36,54 L266,54 L266,74 L36,74 L36,149 L54,149 L54,204 L36,204 L36,269 L20,269 L19,249 L18,248 L18,135 L14,135 L14,132 L8,132 L8,129 L-52,129 L-52,110 L-34,110 L-34,74 L-17,74 L-17,35 L0,35 Z " fill="#A62FA1" transform="translate(146,148)"/>
<path d="M0,0 L13,2 L13,82 L30,82 L30,102 L13,102 L13,122 L90,122 L93,120 L96,120 L99,120 L99,121 L179,122 L179,102 L137,102 L137,2 L158,2 L158,88 L193,88 L193,102 L274,102 L274,123 L375,123 L375,124 L275,125 L275,128 L270,129 L270,136 L272,138 L276,137 L282,138 L284,137 L284,140 L392,140 L392,90 L364,90 L364,2 L366,2 L366,89 L393,89 L393,142 L266,142 L266,123 L195,123 L195,142 L-3,142 L-3,102 L-7,102 L-7,1 Z M271,126 Z M270,127 Z " fill="#382634" transform="translate(64,295)"/>
<path d="M0,0 L66,0 L66,3 L77,3 L77,120 L0,120 L0,100 L17,100 L17,80 L0,80 Z " fill="#812384" transform="translate(77,297)"/>
<path d="M0,0 L39,0 L39,46 L36,73 L28,120 L27,123 L38,123 L38,109 L50,108 L52,84 L54,70 L55,50 L56,0 L76,0 L76,81 L58,81 L58,110 L39,110 L39,124 L-12,124 L-5,89 L-1,54 Z " fill="#DD97CE" transform="translate(299,272)"/>
<path d="M0,0 L1,2 L39,2 L39,41 L58,41 L58,145 L42,145 L41,146 L75,146 L75,147 L40,147 L40,61 L19,61 L19,161 L61,161 L61,181 L0,181 L0,116 L18,116 L18,61 L0,61 Z " fill="#CD64BF" transform="translate(182,236)"/>
<path d="M0,0 L17,0 L17,8 L247,8 L247,28 L-1,28 L-1,49 L-36,49 L-36,46 L-25,46 L-24,44 L-23,45 L-9,46 L-9,48 L-2,48 L-2,28 L-8,28 L-5,25 L-2,25 L-1,12 L-20,12 L-20,11 L0,11 Z " fill="#8B278C" transform="translate(165,194)"/>
<path d="M0,0 L56,0 L56,74 L74,74 L74,111 L-156,111 L-156,92 L-155,92 L-154,97 L-153,95 L-151,95 L-149,98 L-147,96 L-147,99 L-145,98 L-145,94 L-141,91 L-137,92 L-135,92 L-135,89 L-142,90 L-143,86 L-144,84 L-140,83 L-140,81 L-138,81 L-137,79 L-136,83 L-135,85 L-138,86 L-133,86 L-133,93 L-130,94 L-130,96 L-136,98 L-133,103 L-132,104 L-128,103 L-126,107 L-124,107 L-125,104 L-123,103 L-120,106 L-115,108 L2,108 L3,102 L3,99 L8,102 L13,102 L14,98 L19,101 L22,100 L23,106 L24,103 L28,103 L28,101 L30,101 L31,99 L31,104 L32,102 L36,101 L36,99 L40,99 L39,94 L46,92 L47,94 L52,93 L53,95 L60,91 L62,88 L68,88 L68,86 L73,87 L72,78 L58,78 L54,83 L52,85 L50,82 L46,84 L45,82 L47,82 L47,74 L45,73 L44,75 L43,73 L40,75 L39,74 L39,38 L19,38 L19,18 L0,18 Z M52,78 L53,80 Z M51,80 Z M53,92 Z M-134,99 Z " fill="#D787C8" transform="translate(338,91)"/>
<path d="M0,0 L19,0 L19,120 L-37,120 L-37,85 L-18,85 L-18,56 L0,56 Z " fill="#922891" transform="translate(375,297)"/>
<path d="M0,0 L66,0 L66,3 L77,3 L77,74 L76,80 L35,80 L35,60 L52,60 L52,18 L18,18 L18,38 L0,38 Z " fill="#B735AD" transform="translate(77,297)"/>
<path d="M0,0 L19,0 L19,20 L38,20 L38,56 L0,56 Z " fill="#88288B" transform="translate(338,109)"/>
<path d="M0,0 L18,0 L18,20 L38,20 L38,56 L0,56 Z " fill="#89288B" transform="translate(183,109)"/>
<path d="M0,0 L80,0 L80,20 L0,20 Z " fill="#BC38B2" transform="translate(239,128)"/>
<path d="M0,0 L2,0 L2,87 L29,87 L29,140 L-98,140 L-98,121 L-169,121 L-169,140 L-367,140 L-367,100 L-371,100 L-371,6 L-370,6 L-370,99 L-365,99 L-365,138 L-171,138 L-171,119 L-96,119 L-96,138 L28,138 L28,88 L0,88 Z " fill="#160D15" transform="translate(428,297)"/>
<path d="M0,0 L61,0 L61,20 L0,20 Z " fill="#BF39B4" transform="translate(182,397)"/>
<path d="M0,0 L18,0 L18,36 L36,36 L36,46 L19,46 L19,57 L0,57 Z " fill="#B534AD" transform="translate(146,148)"/>
<path d="M0,0 L57,0 L57,58 L56,58 L55,51 L53,51 L53,47 L51,46 L52,43 L50,42 L50,39 L46,44 L44,44 L43,46 L41,45 L41,73 L45,73 L45,76 L43,77 L26,78 L21,77 L21,75 L0,75 L0,74 L39,74 L39,38 L19,38 L19,18 L40,18 L41,31 L42,18 L50,15 L51,17 L54,18 L55,14 L56,1 L0,1 Z " fill="#D991CC" transform="translate(182,91)"/>
<path d="M0,0 L17,0 L17,43 L-20,43 L-20,28 L0,28 Z " fill="#362534" transform="translate(358,354)"/>
<path d="M0,0 L18,0 L18,56 L0,56 Z " fill="#352633" transform="translate(376,297)"/>
<path d="M0,0 L45,0 L45,20 L0,20 Z " fill="#D680C6" transform="translate(394,397)"/>
<path d="M0,0 L8,0 L12,1 L14,4 L15,6 L19,6 L21,9 L21,13 L38,13 L40,15 L41,26 L42,26 L43,42 L41,42 L42,44 L45,44 L44,51 L46,51 L46,56 L40,58 L40,37 L19,37 L19,17 L0,17 Z M21,7 Z " fill="#D584C6" transform="translate(338,92)"/>
<path d="M0,0 L17,0 L17,56 L14,55 L12,48 L9,51 L6,50 L5,48 L5,42 L2,41 L1,40 L1,50 L0,50 Z " fill="#CD60BE" transform="translate(395,336)"/>
<path d="M0,0 L17,0 L16,10 L13,24 L63,25 L63,26 L-18,26 L-18,24 L-10,22 L-7,22 L-4,13 L-1,1 Z " fill="#C549B6" transform="translate(275,371)"/>
<path d="M0,0 L76,0 L76,75 L75,75 L75,1 L19,1 L19,19 L0,19 Z " fill="#C955B9" transform="translate(319,90)"/>
<path d="M0,0 L23,0 L23,20 L0,20 Z " fill="#C74BB8" transform="translate(118,397)"/>
<path d="M0,0 L21,0 L21,20 L0,20 Z " fill="#FEFEFE" transform="translate(201,109)"/>
<path d="M0,0 L77,0 L77,18 L1,18 L1,76 L-18,76 L-18,18 L0,18 L0,12 L1,12 L1,17 L75,17 L75,1 L0,1 Z M-16,20 L-16,75 L0,75 L0,20 Z " fill="#1D131C" transform="translate(163,72)"/>
<path d="M0,0 L20,0 L20,20 L0,20 Z " fill="#FEFEFE" transform="translate(357,109)"/>
<path d="M0,0 L20,0 L20,19 L19,20 L0,20 Z " fill="#C23CB7" transform="translate(201,277)"/>
<path d="M0,0 L75,0 L75,1 L18,1 L18,19 L0,19 Z " fill="#C954B9" transform="translate(164,90)"/>
<path d="M0,0 L17,0 L17,20 L0,20 Z " fill="#C544B8" transform="translate(77,315)"/>
<path d="M0,0 L18,0 L18,19 L0,19 Z " fill="#912891" transform="translate(94,258)"/>
<path d="M0,0 L16,0 L16,20 L0,20 Z " fill="#BD37B2" transform="translate(112,357)"/>
<path d="M0,0 L17,0 L17,17 L0,17 Z " fill="#8F2890" transform="translate(77,297)"/>
<path d="M0,0 L19,1 L19,37 L1,38 L-16,38 L-16,76 L-17,76 L-17,37 L0,37 Z M2,3 L2,36 L18,36 L18,3 Z " fill="#1C121C" transform="translate(93,221)"/>
<path d="M0,0 L17,0 L17,75 L0,75 L0,73 L15,73 L15,1 L0,1 Z " fill="#171017" transform="translate(413,164)"/>
<path d="M0,0 L17,0 L17,2 L1,2 L1,35 L0,36 L-15,36 L-15,73 L-17,73 L-17,34 L0,34 Z " fill="#1C111B" transform="translate(128,148)"/>
<path d="M0,0 L13,0 L13,13 L0,13 Z " fill="#332232" transform="translate(286,165)"/>
<path d="M0,0 L13,0 L13,13 L0,13 Z " fill="#322231" transform="translate(319,165)"/>
<path d="M0,0 L13,2 L13,82 L12,82 L12,3 L-6,3 L-6,8 L-7,8 L-7,1 Z " fill="#53294E" transform="translate(64,295)"/>
<path d="M0,0 L12,0 L11,2 L2,2 L4,8 L6,10 L4,12 L-1,13 L-1,3 Z " fill="#4D3E49" transform="translate(417,296)"/>
</svg>
