<?xml version="1.0" encoding="UTF-8"?>
<!-- Generator: https://ezgif.com/png-to-svg -->
<svg version="1.1" xmlns="http://www.w3.org/2000/svg" width="512" height="512">
<path d="M0,0 L101,0 L102,3 L102,31 L101,36 L157,36 L157,18 L174,18 L174,0 L269,0 L269,18 L286,18 L286,102 L316,102 L316,170 L315,171 L286,171 L286,188 L270,189 L270,235 L286,236 L286,310 L318,310 L318,363 L198,363 L198,355 L103,355 L103,363 L-91,363 L-91,325 L-108,325 L-108,202 L-67,202 L-67,152 L-52,152 L-52,116 L-34,116 L-34,77 L-18,77 L-18,18 L0,18 Z " fill="#2A8B41" transform="translate(147,75)"/>
<path d="M0,0 L101,0 L102,3 L102,31 L101,36 L157,36 L157,18 L174,18 L174,0 L269,0 L269,18 L286,18 L286,102 L316,102 L316,170 L315,171 L286,171 L286,188 L270,189 L270,235 L286,236 L286,310 L318,310 L318,363 L198,363 L198,355 L103,355 L103,363 L-91,363 L-91,325 L-108,325 L-108,202 L-67,202 L-67,152 L-52,152 L-52,116 L-34,116 L-34,77 L-18,77 L-18,18 L0,18 Z M1,19 L1,96 L-15,96 L-16,97 L-16,133 L-34,133 L-34,153 L-48,153 L-48,202 L-23,203 L-13,212 L1,223 L3,223 L3,341 L63,341 L57,333 L49,326 L45,323 L44,224 L61,224 L61,309 L68,310 L70,312 L103,312 L103,340 L199,340 L200,323 L217,307 L230,289 L240,268 L245,255 L250,238 L250,171 L266,171 L266,153 L42,153 L42,134 L284,134 L284,151 L297,151 L297,116 L268,116 L268,19 L178,19 L178,57 L82,57 L82,19 Z " fill="#00300E" transform="translate(147,75)"/>
<path d="M0,0 L189,0 L189,52 L182,74 L174,93 L167,106 L154,123 L147,130 L139,137 L138,154 L42,154 L42,126 L9,126 L7,124 L0,123 Z " fill="#F0A000" transform="translate(208,261)"/>
<path d="M0,0 L101,0 L102,3 L102,31 L101,36 L157,36 L157,18 L174,18 L174,0 L269,0 L269,18 L286,18 L286,102 L316,102 L316,170 L315,171 L286,171 L286,188 L270,189 L270,235 L286,236 L286,310 L318,310 L318,363 L198,363 L198,355 L103,355 L103,363 L-91,363 L-91,325 L-108,325 L-108,202 L-67,202 L-67,152 L-52,152 L-52,116 L-34,116 L-34,77 L-18,77 L-18,18 L0,18 Z M1,19 L1,96 L-15,96 L-16,97 L-16,117 L-50,117 L-50,154 L-66,154 L-66,203 L-106,203 L-106,323 L-90,323 L-90,361 L102,361 L102,354 L199,354 L199,361 L317,361 L317,312 L285,311 L284,238 L268,238 L268,187 L284,187 L284,171 L283,151 L297,151 L297,116 L268,116 L268,19 L178,19 L178,57 L82,57 L82,19 Z " fill="#002A0D" transform="translate(147,75)"/>
<path d="M0,0 L189,0 L189,52 L188,52 L188,19 L102,19 L106,31 L107,39 L107,53 L101,68 L97,73 L103,71 L113,64 L118,57 L121,50 L142,39 L157,35 L167,34 L165,40 L157,54 L147,65 L134,73 L116,77 L106,82 L101,88 L99,97 L115,89 L120,87 L130,86 L149,86 L149,92 L137,102 L126,108 L111,111 L101,117 L95,124 L93,126 L88,118 L78,112 L60,106 L49,99 L39,90 L39,85 L53,85 L73,88 L89,96 L93,97 L91,88 L87,83 L76,78 L56,72 L46,65 L37,56 L30,46 L24,36 L24,35 L32,35 L44,37 L57,42 L71,50 L75,59 L82,67 L94,73 L88,63 L85,54 L85,40 L88,26 L90,19 L4,19 L4,18 L39,18 L39,6 L41,3 L58,2 L86,3 L105,2 L1,1 L1,97 L20,97 L20,116 L56,116 L56,138 L130,138 L130,116 L154,115 L158,113 L160,115 L153,124 L139,137 L138,154 L42,154 L42,126 L9,126 L7,124 L0,123 Z " fill="#DD9200" transform="translate(208,261)"/>
<path d="M0,0 L44,0 L56,12 L57,33 L57,64 L51,73 L46,79 L35,88 L25,96 L57,97 L57,124 L-5,124 L-5,95 L-21,95 L-21,2 L0,2 Z " fill="#2B8A41" transform="translate(78,293)"/>
<path d="M0,0 L1,0 L1,97 L30,97 L30,132 L17,132 L17,115 L-225,115 L-225,134 L-231,135 L-300,135 L-300,114 L-283,114 L-283,78 L-282,78 L-282,114 L-266,114 L-263,107 L-257,99 L-251,95 L-242,95 L-236,99 L-234,100 L-234,98 L-226,96 L-225,96 L-225,78 L-231,78 L-242,65 L-248,57 L-246,51 L-237,37 L-227,23 L-217,9 L-213,10 L-204,20 L-195,30 L-182,46 L-176,55 L-185,69 L-188,74 L-185,74 L-186,78 L-167,78 L-167,95 L-133,94 L-132,78 L-110,78 L-110,96 L-121,97 L-121,98 L-130,99 L-141,98 L-142,97 L-167,96 L-167,113 L16,114 L16,99 L28,99 L29,98 L0,98 Z M-142,98 Z " fill="#25813D" transform="translate(414,94)"/>
<path d="M0,0 L81,0 L81,39 L136,39 L136,57 L116,57 L116,78 L133,78 L133,95 L99,95 L99,78 L80,78 L81,74 L78,74 L80,69 L87,58 L89,54 L81,44 L68,28 L54,13 L52,10 L49,9 L47,14 L39,24 L28,40 L19,55 L21,59 L31,72 L35,77 L41,78 L41,96 L44,97 L41,98 L38,98 L32,98 L33,102 L24,96 L15,96 L9,100 L2,110 L1,115 L-16,114 L-16,77 L0,77 Z " fill="#2E8F43" transform="translate(148,94)"/>
<path d="M0,0 L47,0 L44,5 L52,15 L64,28 L74,41 L82,52 L81,56 L72,71 L68,78 L32,78 L32,95 L15,96 L-20,96 L-20,78 L-13,78 L-8,79 L16,78 L16,67 L17,62 L15,62 L13,58 L-21,57 L-21,38 L0,38 Z " fill="#26863F" transform="translate(325,94)"/>
<path d="M0,0 L2,0 L8,12 L11,21 L12,29 L12,43 L6,58 L2,63 L8,61 L18,54 L23,47 L26,40 L47,29 L62,25 L72,24 L70,30 L62,44 L52,55 L39,63 L21,67 L11,72 L6,78 L4,87 L20,79 L25,77 L35,76 L54,76 L54,82 L42,92 L31,98 L16,101 L6,107 L0,114 L-2,116 L-7,108 L-17,102 L-35,96 L-46,89 L-56,80 L-56,75 L-42,75 L-22,78 L-6,86 L-2,87 L-4,78 L-8,73 L-19,68 L-39,62 L-49,55 L-58,46 L-65,36 L-71,26 L-71,25 L-63,25 L-51,27 L-38,32 L-24,40 L-20,49 L-13,57 L-1,63 L-7,53 L-10,44 L-10,30 L-7,16 Z " fill="#B12303" transform="translate(303,271)"/>
<path d="M0,0 L1,0 L2,74 L13,75 L24,84 L30,90 L30,97 L-48,97 L-48,77 L-35,64 L-27,53 L-16,33 L-5,10 Z " fill="#1E7939" transform="translate(414,320)"/>
<path d="M0,0 L4,1 L13,11 L22,21 L35,37 L41,46 L32,60 L27,69 L-14,69 L-25,56 L-31,48 L-29,42 L-20,28 L-10,14 Z " fill="#BB2810" transform="translate(197,103)"/>
<path d="M0,0 L4,2 L11,10 L20,20 L30,33 L38,44 L37,48 L28,63 L24,70 L-13,70 L-26,54 L-30,49 L-29,44 L-21,31 L-8,11 L-1,1 Z " fill="#B8250E" transform="translate(369,102)"/>
<path d="M0,0 L189,0 L189,15 L0,15 Z " fill="#167237" transform="translate(208,246)"/>
<path d="M0,0 L4,2 L11,10 L20,20 L24,26 L23,30 L12,31 L13,36 L13,39 L4,29 L2,29 L-7,40 L-11,44 L-9,48 L3,60 L7,59 L7,62 L0,62 L-1,58 L-5,58 L-5,54 L-9,54 L-12,51 L-11,68 L21,67 L24,62 L26,62 L25,68 L24,70 L-13,70 L-26,54 L-30,49 L-29,44 L-21,31 L-8,11 L-1,1 Z " fill="#BA270F" transform="translate(369,102)"/>
<path d="M0,0 L1,0 L2,74 L13,75 L24,84 L30,90 L30,97 L-48,97 L-48,96 L-3,95 L-7,88 L-16,78 L-21,73 L-20,66 L-8,43 L-2,33 L0,33 L-1,1 Z " fill="#095629" transform="translate(414,320)"/>
<path d="M0,0 L15,0 L27,7 L33,14 L32,23 L27,30 L17,37 L10,40 L-1,40 L-10,34 L-14,26 L-14,17 L-13,15 L-3,15 L-3,8 Z " fill="#106731" transform="translate(154,246)"/>
<path d="M0,0 L4,1 L13,11 L22,21 L27,28 L26,29 L13,29 L7,27 L11,33 L20,42 L18,46 L5,59 L1,57 L-10,46 L-9,42 L-1,32 L4,26 L0,26 L-1,28 L-17,28 L-18,25 L-5,7 Z " fill="#BB260F" transform="translate(197,103)"/>
<path d="M0,0 L20,0 L25,5 L32,9 L35,14 L35,22 L28,35 L26,36 L16,37 L0,37 Z " fill="#106731" transform="translate(57,351)"/>
<path d="M0,0 L1,0 L1,99 L0,99 L-1,39 L-17,49 L-26,59 L-33,53 L-40,46 L-40,27 L-34,29 L-29,33 L-25,31 L-18,24 L-10,17 L-1,10 Z " fill="#0C602D" transform="translate(190,299)"/>
<path d="M0,0 L35,0 L35,27 L-27,27 L-27,26 L-4,26 L-4,4 Z " fill="#085427" transform="translate(100,390)"/>
<path d="M0,0 L5,5 L15,18 L15,35 L-2,36 L-37,36 L-37,18 L-30,18 L-25,19 L-1,18 L-1,7 Z " fill="#247F3B" transform="translate(342,154)"/>
<path d="M0,0 L9,0 L16,5 L21,13 L21,19 L12,30 L7,38 L-4,37 L-11,32 L-14,27 L-14,18 L-7,6 Z " fill="#0D6430" transform="translate(94,307)"/>
<path d="M0,0 L9,0 L15,4 L20,12 L20,19 L16,27 L7,33 L-2,33 L-10,28 L-14,21 L-14,15 L-7,5 L-2,1 Z " fill="#0C632F" transform="translate(163,189)"/>
<path d="M0,0 L4,0 L3,4 L22,4 L22,21 L56,20 L57,4 L79,4 L79,22 L68,23 L68,24 L59,25 L48,24 L47,23 L-18,22 L-18,21 L4,21 L3,7 L1,7 L1,5 L-1,5 Z M47,24 Z " fill="#2A8A40" transform="translate(225,168)"/>
<path d="M0,0 L1,0 L1,20 L6,22 L13,29 L18,33 L21,38 L-19,38 L-19,18 L-10,9 L-2,2 Z " fill="#2C8B41" transform="translate(189,378)"/>
<path d="M0,0 L5,0 L8,3 L30,4 L30,19 L7,20 L-54,20 L-54,19 L5,18 L0,12 L-8,5 L-8,1 Z " fill="#034A22" transform="translate(204,397)"/>
<path d="M0,0 L21,0 L21,9 L15,18 L10,24 L-2,23 L-8,18 L-9,16 L-9,8 L-4,2 Z " fill="#0E6431" transform="translate(114,348)"/>
<path d="M0,0 L4,1 L13,11 L17,15 L15,19 L2,32 L-2,30 L-13,19 L-12,15 L-4,5 Z " fill="#1C2211" transform="translate(200,130)"/>
<path d="M0,0 L4,2 L16,16 L14,20 L5,30 L3,33 L-1,31 L-14,18 L-12,14 L-2,3 Z " fill="#1B2011" transform="translate(371,130)"/>
<path d="M0,0 L19,0 L19,26 L0,26 Z " fill="#2D8C41" transform="translate(116,390)"/>
<path d="M0,0 L8,0 L18,10 L23,17 L24,21 L-22,21 L-22,20 L3,20 L-3,8 L-2,3 Z " fill="#28853F" transform="translate(388,395)"/>
<path d="M0,0 L22,0 L22,17 L0,17 Z " fill="#022E0F" transform="translate(282,172)"/>
<path d="M0,0 L17,0 L17,18 L0,18 Z " fill="#0E6632" transform="translate(413,228)"/>
<path d="M0,0 L17,0 L17,16 L0,16 Z " fill="#035227" transform="translate(114,192)"/>
<path d="M0,0 L17,0 L17,16 L0,16 Z " fill="#002A0D" transform="translate(318,173)"/>
<path d="M0,0 L11,0 L21,8 L27,14 L27,20 L12,20 L10,11 L0,1 Z " fill="#1E7839" transform="translate(417,396)"/>
<path d="M0,0 Z " fill="#144520" transform="translate(128,92)"/>
</svg>
