<?xml version="1.0" encoding="UTF-8"?>
<!-- Generator: https://ezgif.com/png-to-svg -->
<svg version="1.1" xmlns="http://www.w3.org/2000/svg" width="512" height="512">
<path d="M0,0 L73,0 L73,16 L91,16 L91,35 L145,35 L145,16 L163,16 L163,0 L235,0 L235,16 L252,16 L252,72 L268,72 L269,73 L269,96 L286,96 L286,159 L268,159 L268,183 L251,183 L251,214 L268,214 L268,277 L251,277 L251,313 L300,313 L319,332 L319,371 L180,371 L180,332 L108,332 L108,371 L-82,371 L-82,349 L-98,349 L-98,332 L-103,332 L-115,320 L-115,235 L-97,217 L-94,214 L-82,214 L-82,181 L-66,181 L-66,148 L-50,148 L-50,111 L-35,111 L-35,72 L-18,72 L-18,16 L0,16 Z " fill="#EEA00F" transform="translate(155,71)"/>
<path d="M0,0 L73,0 L73,16 L91,16 L91,35 L145,35 L145,16 L163,16 L163,0 L235,0 L235,16 L252,16 L252,72 L268,72 L269,73 L269,96 L286,96 L286,159 L268,159 L268,183 L251,183 L251,214 L268,214 L268,277 L251,277 L251,313 L300,313 L319,332 L319,371 L180,371 L180,332 L108,332 L108,371 L-82,371 L-82,349 L-98,349 L-98,332 L-103,332 L-115,320 L-115,235 L-97,217 L-94,214 L-82,214 L-82,181 L-66,181 L-66,148 L-50,148 L-50,111 L-35,111 L-35,72 L-18,72 L-18,16 L0,16 Z M1,17 L1,73 L-17,73 L-17,111 L-34,111 L-34,148 L-49,148 L-49,182 L-65,182 L-65,215 L-81,215 L-81,234 L-97,234 L-97,313 L-81,313 L-81,331 L-65,331 L-65,348 L-34,348 L-34,331 L-50,331 L-49,297 L-45,291 L-44,290 L-17,289 L-17,257 L-25,263 L-28,264 L-36,264 L-45,259 L-49,255 L-50,234 L-16,234 L1,233 L1,331 L18,331 L18,348 L88,348 L88,331 L54,331 L54,206 L72,206 L72,313 L73,314 L181,314 L181,295 L198,295 L198,235 L215,235 L215,182 L233,182 L233,158 L267,158 L267,140 L36,140 L36,124 L267,124 L267,97 L250,97 L250,73 L233,73 L233,91 L181,91 L181,36 L215,36 L215,54 L233,54 L234,53 L234,17 L164,17 L164,56 L174,66 L179,73 L154,72 L141,64 L127,57 L125,57 L127,61 L134,73 L122,72 L114,66 L102,59 L92,55 L90,55 L90,35 L72,35 L72,17 Z " fill="#081823" transform="translate(155,71)"/>
<path d="M0,0 L231,0 L231,18 L197,18 L197,42 L179,42 L179,95 L162,95 L162,155 L145,155 L145,174 L37,174 L36,173 L36,42 L38,38 L37,36 L48,34 L58,29 L63,24 L63,17 L59,15 L50,15 L40,19 L40,17 L21,17 L20,29 L19,29 L19,18 L0,18 Z " fill="#F7CB4F" transform="translate(191,211)"/>
<path d="M0,0 L18,0 L19,107 L127,108 L127,89 L144,89 L144,143 L162,143 L164,148 L162,148 L162,150 L179,149 L178,144 L179,143 L200,143 L211,144 L210,148 L206,149 L234,150 L235,148 L245,148 L245,151 L262,151 L263,154 L263,163 L128,163 L128,124 L52,124 L52,164 L-134,164 L-135,163 L-135,142 L-150,142 L-150,124 L-156,124 L-163,117 L-168,113 L-168,30 L-149,11 L-136,11 L-135,9 L-135,28 L-151,28 L-151,107 L-135,107 L-135,125 L-119,125 L-119,142 L-88,142 L-88,125 L-104,125 L-104,91 L-100,85 L-98,83 L-71,83 L-72,52 L-79,58 L-82,59 L-90,59 L-99,54 L-104,49 L-104,28 L-70,27 L-53,27 L-53,125 L-36,125 L-36,142 L34,142 L34,125 L0,125 Z " fill="#091D2A" transform="translate(209,277)"/>
<path d="M0,0 L54,0 L54,18 L72,18 L72,38 L81,41 L93,47 L104,55 L116,56 L109,44 L107,40 L113,42 L127,49 L136,55 L161,56 L153,46 L146,39 L146,0 L216,0 L216,36 L215,37 L197,37 L197,19 L163,19 L163,74 L215,74 L215,56 L232,56 L232,80 L249,80 L249,107 L18,107 L18,122 L17,122 L17,107 L2,107 L1,102 L1,93 L3,90 L39,89 L52,79 L53,36 L36,36 L35,19 L0,18 Z " fill="#F9BF0E" transform="translate(173,88)"/>
<path d="M0,0 L73,0 L73,16 L91,16 L91,35 L145,35 L145,16 L163,16 L163,0 L235,0 L235,16 L252,16 L252,72 L268,72 L269,73 L269,96 L286,96 L286,121 L284,121 L284,157 L267,158 L267,140 L36,140 L36,124 L267,124 L267,97 L250,97 L250,73 L233,73 L233,91 L181,91 L181,36 L215,36 L215,54 L233,53 L234,17 L164,17 L165,56 L175,66 L179,71 L179,73 L154,73 L141,65 L125,57 L134,71 L134,73 L122,73 L114,67 L102,60 L90,55 L90,35 L72,35 L71,17 L71,2 L2,2 L2,16 L0,16 Z " fill="#0F2127" transform="translate(155,71)"/>
<path d="M0,0 L15,0 L15,2 L2,2 L3,12 L4,11 L12,11 L14,11 L19,11 L20,15 L16,22 L15,26 L15,35 L19,39 L28,39 L38,33 L43,26 L46,18 L47,5 L49,5 L50,10 L50,83 L31,83 L32,84 L50,84 L50,85 L33,86 L-1,86 L0,107 L7,113 L13,116 L21,116 L27,113 L32,109 L32,141 L5,142 L1,147 L0,149 L-1,183 L15,183 L15,200 L-16,200 L-16,183 L-32,183 L-32,165 L-48,165 L-48,86 L-32,86 L-32,67 L-16,67 L-16,34 L0,34 Z " fill="#E78F0F" transform="translate(106,219)"/>
<path d="M0,0 L231,0 L231,18 L197,18 L197,42 L179,42 L179,70 L162,70 L162,42 L37,42 L38,38 L37,36 L48,34 L58,29 L63,24 L63,17 L59,15 L50,15 L40,19 L40,17 L21,17 L20,29 L19,29 L19,18 L0,18 Z " fill="#F9BD0E" transform="translate(191,211)"/>
<path d="M0,0 L18,0 L18,62 L17,99 L67,99 L75,108 L83,115 L85,117 L85,145 L84,142 L67,142 L67,139 L57,140 L65,141 L65,142 L47,142 L23,141 L23,140 L32,138 L33,135 L1,135 L0,139 L2,140 L1,141 L-9,142 L-16,141 L-16,137 L-16,134 L-34,134 L-34,80 L-17,80 L-17,40 L0,40 Z " fill="#081C2A" transform="translate(387,286)"/>
<path d="M0,0 L1,0 L1,50 L39,50 L39,61 L110,61 L110,50 L126,50 L126,89 L109,89 L109,108 L1,108 L0,107 Z " fill="#82B25F" transform="translate(227,277)"/>
<path d="M0,0 L1,0 L1,125 L35,125 L35,142 L-35,142 L-35,125 L-51,125 L-51,28 L0,29 Z " fill="#F7BE0E" transform="translate(208,277)"/>
<path d="M0,0 L17,0 L17,98 L34,98 L34,115 L32,115 L32,113 L21,113 L20,117 L18,120 L20,121 L17,122 L-22,121 L-21,117 L-49,117 L-49,115 L-18,115 L-18,98 L-34,98 L-34,64 L-30,58 L-28,56 L-1,56 L-2,25 L-9,31 L-12,32 L-20,32 L-29,27 L-34,22 L-34,1 Z " fill="#0A1E2B" transform="translate(139,304)"/>
<path d="M0,0 L9,0 L14,3 L14,10 L5,18 L-5,22 L-11,23 L-13,28 L-14,52 L-33,52 L-33,81 L-83,81 L-84,80 L-84,26 L-83,28 L-33,28 L-33,51 L-31,51 L-31,15 L-30,5 L-29,3 L-10,3 L-7,3 Z " fill="#F4B00F" transform="translate(241,225)"/>
<path d="M0,0 L6,0 L6,19 L5,21 L7,21 L7,13 L8,13 L8,60 L-10,60 L-10,55 L-12,55 L-12,68 L-16,78 L-21,84 L-31,90 L-40,90 L-45,85 L-45,76 L-41,66 L-40,62 L-45,62 L-47,63 L-47,61 L-55,62 L-57,63 L-57,52 L-44,52 L-44,13 L-27,13 L-25,12 L-25,15 L-21,15 L-20,11 L-16,10 L-5,2 Z " fill="#E2850F" transform="translate(165,169)"/>
<path d="M0,0 L18,0 L18,61 L1,61 L1,116 L-16,116 L-16,134 L-34,134 L-34,80 L-17,80 L-17,40 L0,40 Z " fill="#F8B70E" transform="translate(387,286)"/>
<path d="M0,0 L37,0 L37,17 L54,17 L54,55 L0,55 Z " fill="#081D2B" transform="translate(172,107)"/>
<path d="M0,0 L21,0 L21,19 L108,19 L108,38 L0,38 Z " fill="#2B8F8F" transform="translate(228,347)"/>
<path d="M0,0 L24,0 L25,19 L33,25 L39,28 L47,28 L53,25 L58,21 L58,53 L31,53 L31,52 L57,52 L57,40 L14,40 L14,59 L-16,59 L-12,57 L-12,35 L-11,28 L-10,1 Z " fill="#F4AD0F" transform="translate(80,307)"/>
<path d="M0,0 L17,0 L18,18 L25,26 L33,35 L33,37 L8,37 L-5,29 L-21,21 L-12,35 L-12,37 L-24,37 L-32,31 L-44,24 L-56,19 L-56,1 Z " fill="#071F31" transform="translate(301,107)"/>
<path d="M0,0 L70,0 L70,36 L69,37 L51,37 L51,19 L17,19 L17,56 L15,56 L7,46 L0,39 Z " fill="#F8CE44" transform="translate(319,88)"/>
<path d="M0,0 L17,0 L16,18 L1,18 L1,54 L38,53 L48,54 L48,55 L38,56 L36,55 L36,70 L48,70 L50,71 L50,55 L67,55 L67,77 L66,78 L56,79 L64,80 L64,81 L46,81 L22,80 L22,79 L31,77 L32,74 L0,74 L-1,78 L1,79 L0,80 L-10,81 L-17,80 L-17,76 L-17,55 L0,55 Z " fill="#102029" transform="translate(388,347)"/>
<path d="M0,0 L512,0 L512,512 L0,512 Z M1,1 L1,511 L511,511 L511,1 Z " fill="#0F0F0E" transform="translate(0,0)"/>
<path d="M0,0 L208,0 L208,1 L182,1 L181,6 L36,6 L36,10 L40,11 L51,12 L230,13 L230,14 L0,14 Z " fill="#071A2A" transform="translate(192,196)"/>
<path d="M0,0 L2,2 L17,3 L18,4 L35,5 L35,22 L33,22 L33,20 L22,20 L21,24 L19,27 L21,28 L18,29 L-21,28 L-20,24 L-48,24 L-48,23 L-14,23 L-15,19 L-15,10 L-13,6 L-2,6 L-1,5 L-14,5 L-14,4 L0,3 Z " fill="#0D1E2A" transform="translate(138,397)"/>
<path d="M0,0 L74,0 L81,8 L89,17 L89,19 L64,19 L51,11 L35,3 L44,17 L44,19 L32,19 L24,13 L12,6 L0,1 Z " fill="#194955" transform="translate(245,125)"/>
<path d="M0,0 L17,0 L17,60 L0,60 Z " fill="#0A1E2A" transform="translate(353,306)"/>
<path d="M0,0 L1,0 L1,36 L0,37 L-18,37 L-18,19 L-52,19 L-52,56 L-54,56 L-62,46 L-69,39 L-69,18 L-48,18 L-48,16 L-16,16 L-16,18 L0,18 Z " fill="#F0CC45" transform="translate(388,88)"/>
<path d="M0,0 L16,0 L17,16 L36,16 L36,35 L35,36 L0,36 Z " fill="#082F4C" transform="translate(353,108)"/>
<path d="M0,0 L7,0 L11,7 L11,19 L7,29 L2,35 L-8,41 L-17,41 L-22,36 L-22,27 L-18,17 L-10,7 L-2,1 Z " fill="#153F61" transform="translate(142,218)"/>
<path d="M0,0 L16,0 L16,59 L0,60 Z " fill="#091D2B" transform="translate(405,287)"/>
<path d="M0,0 L33,0 L33,23 L25,30 L22,31 L14,31 L5,26 L0,21 Z " fill="#1D5778" transform="translate(105,305)"/>
<path d="M0,0 L16,0 L16,16 L13,16 L13,19 L16,19 L16,56 L0,56 Z " fill="#F9BC0E" transform="translate(371,328)"/>
<path d="M0,0 L52,0 L52,16 L1,16 L0,14 Z " fill="#F5A90F" transform="translate(176,402)"/>
<path d="M0,0 L1,0 L1,54 L36,54 L36,0 L37,0 L37,17 L54,17 L54,55 L0,55 Z " fill="#1F3741" transform="translate(172,107)"/>
<path d="M0,0 L9,0 L14,5 L17,12 L17,25 L12,35 L8,38 L2,38 L-4,33 L-9,24 L-9,12 L-5,4 Z " fill="#1F607D" transform="translate(173,258)"/>
<path d="M0,0 L27,0 L27,24 L-5,24 L-5,6 Z " fill="#0F3856" transform="translate(111,360)"/>
<path d="M0,0 L47,0 L47,21 L46,21 L46,1 L39,2 L12,2 L12,32 L11,36 L10,50 L17,50 L17,51 L10,51 L10,58 L15,58 L15,59 L0,60 Z " fill="#F8BF0D" transform="translate(58,306)"/>
<path d="M0,0 L18,0 L18,61 L1,61 L1,116 L-16,116 L-16,134 L-34,134 L-34,80 L-17,80 L-17,40 L0,40 Z M1,1 L1,60 L17,60 L17,1 Z M-16,42 L-16,98 L0,98 L0,61 L-3,61 L-3,58 L0,58 L0,42 Z M-31,82 L-32,99 L-32,125 L-31,130 L-28,131 L-19,130 L-17,116 L-1,115 L-1,99 L-17,99 L-17,82 Z " fill="#D8A70F" transform="translate(387,286)"/>
<path d="M0,0 L34,0 L34,17 L0,17 Z " fill="#F5B80E" transform="translate(388,402)"/>
<path d="M0,0 L6,0 L6,15 L2,23 L-6,30 L-15,31 L-20,26 L-20,16 L-14,8 L-3,1 Z " fill="#174467" transform="translate(165,169)"/>
<path d="M0,0 L10,0 L15,3 L17,5 L17,13 L14,18 L9,22 L4,24 L-8,25 L-8,11 L-5,4 Z " fill="#1C567A" transform="translate(76,331)"/>
<path d="M0,0 L9,0 L14,3 L14,10 L5,18 L-2,21 L-14,21 L-17,18 L-16,11 L-9,4 Z " fill="#257082" transform="translate(241,225)"/>
<path d="M0,0 L21,0 L21,20 L38,20 L38,21 L0,21 Z " fill="#BEBC5F" transform="translate(228,306)"/>
<path d="M0,0 L3,1 L6,7 L6,20 L2,26 L-2,29 L-10,29 L-15,24 L-15,14 L-12,9 L-1,1 Z " fill="#236B82" transform="translate(187,319)"/>
<path d="M0,0 L17,0 L17,25 L0,25 Z " fill="#9EB146" transform="translate(353,281)"/>
<path d="M0,0 L8,0 L13,3 L16,9 L16,18 L11,22 L2,22 L-5,16 L-7,12 L-6,5 Z " fill="#257083" transform="translate(177,365)"/>
<path d="M0,0 L31,0 L35,2 L39,9 L44,17 L44,19 L32,19 L24,13 L12,6 L0,1 Z " fill="#24666A" transform="translate(245,125)"/>
<path d="M0,0 L17,0 L17,21 L0,21 Z " fill="#287169" transform="translate(353,306)"/>
<path d="M0,0 L17,0 L17,19 L0,19 Z " fill="#2E9292" transform="translate(336,347)"/>
<path d="M0,0 L18,0 L18,17 L0,17 Z " fill="#EFB10E" transform="translate(138,402)"/>
<path d="M0,0 L17,0 L17,18 L0,18 Z " fill="#FCEBBF" transform="translate(209,106)"/>
<path d="M0,0 L17,0 L17,18 L0,18 Z " fill="#F5B30C" transform="translate(319,88)"/>
<path d="M0,0 L18,0 L18,61 L1,61 L1,116 L0,116 L0,61 L-3,61 L-3,58 L0,58 L0,42 L-16,42 L-16,80 L-17,80 L-17,40 L0,40 Z M1,1 L1,60 L17,60 L17,1 Z " fill="#A18C16" transform="translate(387,286)"/>
<path d="M0,0 L17,0 L17,17 L0,17 Z " fill="#FCEEC5" transform="translate(371,107)"/>
<path d="M0,0 L15,0 L15,17 L0,17 Z " fill="#F7C30D" transform="translate(439,402)"/>
<path d="M0,0 L11,0 L17,3 L17,11 L14,16 L9,17 L2,9 Z " fill="#14395C" transform="translate(107,271)"/>
<path d="M0,0 L6,2 L20,9 L29,15 L29,16 L9,16 L2,4 Z " fill="#F2D146" transform="translate(280,128)"/>
<path d="M0,0 L13,0 L13,12 L0,12 Z " fill="#212C25" transform="translate(385,169)"/>
<path d="M0,0 L12,0 L12,13 L0,13 Z " fill="#121F28" transform="translate(324,162)"/>
<path d="M0,0 L1,0 L1,36 L0,37 L-18,37 L-18,18 L-48,18 L-48,16 L-16,16 L-16,18 L0,18 Z M-17,19 L-17,36 L0,36 L0,19 Z " fill="#C1AE60" transform="translate(388,88)"/>
<path d="M0,0 L1,0 L1,33 L18,32 L19,33 L32,34 L31,36 L20,35 L19,39 L19,52 L16,53 L-15,52 L-15,51 L16,51 L16,34 L0,34 Z " fill="#312E2C" transform="translate(105,368)"/>
<path d="M0,0 L11,0 L11,13 L0,13 Z " fill="#0C1B29" transform="translate(280,162)"/>
<path d="M0,0 L17,0 L17,2 L2,2 L2,39 L0,39 Z " fill="#01070D" transform="translate(120,143)"/>
<path d="M0,0 L1,0 L2,5 L4,6 L4,10 L12,12 L12,13 L0,14 Z " fill="#466666" transform="translate(68,342)"/>
<path d="M0,0 L11,0 L10,2 L2,2 L2,10 L11,10 L11,11 L0,11 Z " fill="#081329" transform="translate(386,170)"/>
<path d="M0,0 L5,0 L5,1 L0,1 Z " fill="#061622" transform="translate(232,443)"/>
<path d="M0,0 L3,1 Z " fill="#071724" transform="translate(216,443)"/>
<path d="M0,0 L3,1 Z " fill="#061723" transform="translate(212,443)"/>
<path d="M0,0 L3,1 Z " fill="#061623" transform="translate(204,443)"/>
<path d="M0,0 L3,1 Z " fill="#071622" transform="translate(180,443)"/>
<path d="M0,0 L3,1 Z " fill="#071623" transform="translate(176,443)"/>
<path d="M0,0 L3,1 Z " fill="#071622" transform="translate(172,443)"/>
<path d="M0,0 L3,1 Z " fill="#061622" transform="translate(168,443)"/>
<path d="M0,0 L3,1 Z " fill="#061622" transform="translate(159,443)"/>
<path d="M0,0 L3,1 Z " fill="#061622" transform="translate(144,443)"/>
<path d="M0,0 L3,1 Z " fill="#061521" transform="translate(120,443)"/>
<path d="M0,0 L2,1 Z " fill="#061522" transform="translate(440,443)"/>
<path d="M0,0 L2,1 Z " fill="#061622" transform="translate(436,443)"/>
<path d="M0,0 L2,1 Z " fill="#071621" transform="translate(408,443)"/>
<path d="M0,0 L2,1 Z " fill="#071723" transform="translate(384,443)"/>
<path d="M0,0 L2,1 Z " fill="#071623" transform="translate(380,443)"/>
<path d="M0,0 L2,1 Z " fill="#061622" transform="translate(360,443)"/>
<path d="M0,0 L2,1 Z " fill="#061522" transform="translate(348,443)"/>
<path d="M0,0 L2,1 Z " fill="#061521" transform="translate(252,443)"/>
<path d="M0,0 L2,1 Z " fill="#061622" transform="translate(240,443)"/>
<path d="M0,0 L2,1 Z " fill="#061723" transform="translate(222,443)"/>
<path d="M0,0 L2,1 Z " fill="#071723" transform="translate(208,443)"/>
<path d="M0,0 L2,1 Z " fill="#071622" transform="translate(192,443)"/>
<path d="M0,0 L2,1 Z " fill="#061521" transform="translate(156,443)"/>
<path d="M0,0 L2,1 Z " fill="#061522" transform="translate(148,443)"/>
<path d="M0,0 L2,1 Z " fill="#071622" transform="translate(140,443)"/>
<path d="M0,0 L2,1 Z " fill="#061623" transform="translate(132,443)"/>
<path d="M0,0 L2,1 Z " fill="#061621" transform="translate(129,443)"/>
<path d="M0,0 L2,1 Z " fill="#051621" transform="translate(104,443)"/>
<path d="M0,0 Z " fill="#06141F" transform="translate(460,443)"/>
<path d="M0,0 Z " fill="#071622" transform="translate(448,443)"/>
<path d="M0,0 Z " fill="#051521" transform="translate(444,443)"/>
<path d="M0,0 Z " fill="#061522" transform="translate(432,443)"/>
<path d="M0,0 Z " fill="#061622" transform="translate(417,443)"/>
<path d="M0,0 Z " fill="#061621" transform="translate(404,443)"/>
<path d="M0,0 Z " fill="#071723" transform="translate(389,443)"/>
<path d="M0,0 Z " fill="#071522" transform="translate(376,443)"/>
<path d="M0,0 Z " fill="#071722" transform="translate(353,443)"/>
<path d="M0,0 Z " fill="#071722" transform="translate(245,443)"/>
<path d="M0,0 Z " fill="#061723" transform="translate(238,443)"/>
<path d="M0,0 Z " fill="#051622" transform="translate(228,443)"/>
<path d="M0,0 Z " fill="#071723" transform="translate(225,443)"/>
<path d="M0,0 Z " fill="#071723" transform="translate(220,443)"/>
<path d="M0,0 Z " fill="#061723" transform="translate(200,443)"/>
<path d="M0,0 Z " fill="#061722" transform="translate(188,443)"/>
<path d="M0,0 Z " fill="#071723" transform="translate(152,443)"/>
<path d="M0,0 Z " fill="#061520" transform="translate(101,443)"/>
<path d="M0,0 Z " fill="#071520" transform="translate(96,443)"/>
<path d="M0,0 Z " fill="#04131C" transform="translate(333,440)"/>
</svg>
