<svg xmlns="http://www.w3.org/2000/svg" width="96" height="96"><path fill="#A93A1E" d="M59 14h11v3h3v3h6v3h3v11h-3v3h-9v3h-3v3h-3v4h3v14h-3v6h-3v6h-3v3h-3l-1 3h-5l-1 3H29v-3h-6v-3h-3v-6h-3V53h3v-6h3v-3h3v-3h3v-3h6v-3h18v-3h3V17h3Z"/><path fill="#4D1A17" d="M59 14h11v3h3v3h6v3h3v11h-3v3h-9v3h-3v3h-3v4h3v14h-3v6h-3v6h-3v3h-3l-1 3h-5l-1 3H29v-3h-6v-3h-3v-6h-3V53h3v-6h3v-3h3v-3h3v-3h6v-3h18v-3h3v-2h4v3h-3v6H36v3h-6v3h-3v3h-3v6h-3v9h3v3h3v3h6v6h9v-3h6v-3h3v-3h3v-6h3v-6h3V42h3v-3h3v-6h12v-9h-9v-6h-9v9h-4V17h3Z"/><path fill="#D06325" d="M36 39h15v3h3v3h-6v3h3v6h-3v3h-3v3h-3v3h-3v3h-9v-3h-3v-3h-3V48h3v-3h3v-3h6Z"/><path fill="#B9926A" d="M60 18h9v6h9v9H66v6h-3v3h-3v-3h-3v-6h3v-3h-4v-3h4Z"/><path fill="#C85A25" d="M36 39h15v3h3v3h-6v3h3v6h-3v3h-3v3h-3l1-4h2v-8h2l-2-5-6-1v2l-6 1v3h-6v-3h3v-3h6Z"/><path fill="#D8BD94" d="M60 18h9v6h6v6h-9v2h-2v-5h-4Z"/><path fill="#ED9F4D" d="M39 42h6v3h-3v3h-3v3h-3v3h-3v3h-3v-3h-3v-6h6v-3l6-1Z"/><path fill="#93301D" d="M56 39h4v15h-3v6h-3V48h2Z"/><path fill="#C39F73" d="M75 24h3v9l-9-1v-2h6Z"/><path fill="#E7D1AB" d="M69 24h6v6h-6Z"/><path fill="#E58C3C" d="M39 42h6v3h-3v3h-3v-3l-2-1h2Z"/><path fill="#C7A57A" d="M66 18h3v9h-3Z"/><path fill="#6A402B" d="M66 33h12v1h-8v2h-4Z"/><path fill="#623B2A" d="M69 18h1v5h2v-2h3v2l3 1h-9Z"/><path fill="#EAD8B7" d="M63 18h3v3h-3v3h-2v-5Z"/><path fill="#8B2A1B" d="M27 69h6v3h-6Z"/><path fill="#B74421" d="M24 48h3v6h-3Z"/></svg>