<svg xmlns="http://www.w3.org/2000/svg" width="96" height="96"><path fill="#3B833F" d="M52 18h16v12h-2v5h2v2l3 1v2h2v7h2l1 13-3 1v7h-2l-1 3h-2v2h-2l-1 3h-2v2H50l-2-2-1 2H33l-3-3v-2h-2v-2l-3-1v-2h-2v-7l-3-1V48l3-1v-7h2l1-3h2v-2h2l1-3h9v-2h-3v-7h15ZM41 32Z"/><path fill="#66AC41" d="M31 36h12v6h12l1-5 6 1 3 3v10h-2v6l-3 1v2h-3v2h-4v3h-5v2H38v-2h-4v-3h-3v-2h-2v-7h-2V41h2v-2h2Z"/><path fill="#152C22" d="M52 18h16v12h-2v5h2v2l3 1v2h2v7h2l1 13-3 1v7h-2l-1 3h-2v2h-2l-1 3h-2v2H50l-2-2-1 2H33l-3-3v-2h-2v-2l-3-1v-2h-2v-7l-3-1V48l3-1v-7h2l1-3h2v-2h2l1-3h9v-2h-3v-7h15Zm3 3v3l-4 1-1 1v6h3v4h-3v4h-6l-1-4H31v2h-3v2h-2v8h-2v12h3v7h4l1 5 4 2h10v-2h5v2h11l1-3 4-1v-3h3v-7h2V48h-2v-8h-2v-2h-3v-2l-9-2v-2h4v-3h3v-2h2v-6ZM41 32Z"/><path fill="#2C6338" d="M55 21h10v6h-2v2h-3v3h-4v2l4 2h-5v2h-2v3H43l1-3v2h6v-4h3v-4h-3v-6l2-2h3Z"/><path fill="#A7D65C" d="M32 39h6v2h3v2h2v8h-2v2H31v-2h-2V41Z"/><path fill="#1A1D1A" d="M37 23h13l-2 1v12h-2v-2H31v4l-2-1-1-2h2l1-3h9v-2h-3Zm4 9Z"/><path fill="#B7DF6B" d="M32 39h6v2h2v5l-3 3h-6v-9Z"/><path fill="#265633" d="M50 26h1v5l4-1 4 1 1-2v3h-4v2l4 2h-5v2h-2v3H43l1-3v2h6v-4h3v-4h-3Z"/><path fill="#3E8840" d="M56 22h8v3h-6v2h-2v2h-4l1-5h3Z"/><path fill="#0E1E19" d="M46 73h4l3 3 10 1v1H50l-2-2-1 2H33v-1h13Z"/><path fill="#662B12" d="M41 26h6l1 2v8h-2l-1-4h-2v-3h-2Z"/><path fill="#EAF4A6" d="M31 41h5v2h2v2h-2v3h-5Z"/><path fill="#438F41" d="M31 36h12v5l-4-1v-2h-8Z"/><path fill="#275833" d="M26 60h1v7h4l1 5h-2l-4-4Z"/></svg>